<?xml version="1.0" standalone="no"?>
 <!DOCTYPE svg PUBLIC "-//W3C//DTD SVG 1.1//EN" 
 "http://www.w3.org/Graphics/SVG/1.1/DTD/svg11.dtd"> 
<svg xmlns="http://www.w3.org/2000/svg" version="1.1" 
    width="29.7002cm" height="21.0007cm" viewBox="0 0 116930 82680 ">
<title>SVG Picture created as interface-Interface_B.svg date 2019/10/21 11:48:44 </title>
  <desc>Picture generated by Eeschema-SVG </desc>
<g style="fill:#000000; fill-opacity:1;stroke:#000000; stroke-opacity:1;
stroke-linecap:round; stroke-linejoin:round; "
 transform="translate(0 0) scale(1 1)">
</g>
<g style="fill:#000000; fill-opacity:0.0; 
stroke:#000000; stroke-width:0; stroke-opacity:1; 
stroke-linecap:round; stroke-linejoin:round;">
<g >
</g>
<g style="fill:#840000; fill-opacity:0.0; 
stroke:#840000; stroke-width:0; stroke-opacity:1; 
stroke-linecap:round; stroke-linejoin:round;">
</g>
<g style="fill:#FFFFC2; fill-opacity:0.0; 
stroke:#FFFFC2; stroke-width:0; stroke-opacity:1; 
stroke-linecap:round; stroke-linejoin:round;">
</g>
<g style="fill:#FFFFC2; fill-opacity:0.6; 
stroke:#FFFFC2; stroke-width:0; stroke-opacity:1; 
stroke-linecap:round; stroke-linejoin:round;">
<rect x="51500" y="43000" width="8000" height="10000" rx="0" />
</g>
<g style="fill:#840000; fill-opacity:0.6; 
stroke:#840000; stroke-width:0; stroke-opacity:1; 
stroke-linecap:round; stroke-linejoin:round;">
</g>
<g style="fill:#840000; fill-opacity:0.0; 
stroke:#840000; stroke-width:100; stroke-opacity:1; 
stroke-linecap:round; stroke-linejoin:round;">
<rect x="51500" y="43000" width="8000" height="10000" rx="0" />
</g>
<g style="fill:#840000; fill-opacity:0.0; 
stroke:#840000; stroke-width:60; stroke-opacity:1; 
stroke-linecap:round; stroke-linejoin:round;">
<circle cx="56250" cy="50500" r="200" /> 
<circle cx="56250" cy="46500" r="200" /> 
<path d="M54300 46290
L54300 45690
L54450 45690
L54530 45720
L54590 45770
L54620 45830
L54650 45940
L54650 46030
L54620 46140
L54590 46200
L54530 46260
L54450 46290
L54300 46290
" />
<path d="M55220 46290
L54870 46290
" />
<path d="M55050 46290
L55050 45690
L54990 45770
L54930 45830
L54870 45860
" />
<path d="M54300 50290
L54300 49690
L54450 49690
L54530 49720
L54590 49770
L54620 49830
L54650 49940
L54650 50030
L54620 50140
L54590 50200
L54530 50260
L54450 50290
L54300 50290
" />
<path d="M54870 49740
L54900 49720
L54960 49690
L55100 49690
L55160 49720
L55190 49740
L55220 49800
L55220 49860
L55190 49940
L54850 50290
L55220 50290
" />
<path style="fill:#840000; fill-opacity:0.0; 
stroke:#840000; stroke-width:60; stroke-opacity:1; 
stroke-linecap:round; stroke-linejoin:round;fill:none"
d="M 56250,50700
56250,51000
Z" /> 
<path style="fill:#840000; fill-opacity:0.0; 
stroke:#840000; stroke-width:60; stroke-opacity:1; 
stroke-linecap:round; stroke-linejoin:round;fill:none"
d="M 56250,49750
56250,49000
Z" /> 
<path style="fill:#840000; fill-opacity:0.0; 
stroke:#840000; stroke-width:60; stroke-opacity:1; 
stroke-linecap:round; stroke-linejoin:round;fill:none"
d="M 56250,46700
56250,47000
Z" /> 
<path style="fill:#840000; fill-opacity:0.0; 
stroke:#840000; stroke-width:60; stroke-opacity:1; 
stroke-linecap:round; stroke-linejoin:round;fill:none"
d="M 56250,45750
56250,45000
Z" /> 
<path style="fill:#840000; fill-opacity:0.0; 
stroke:#840000; stroke-width:60; stroke-opacity:1; 
stroke-linecap:round; stroke-linejoin:round;fill:none"
d="M 53000,50000
53750,50000
Z" /> 
<path style="fill:#840000; fill-opacity:0.0; 
stroke:#840000; stroke-width:60; stroke-opacity:1; 
stroke-linecap:round; stroke-linejoin:round;fill:none"
d="M 53000,46000
53750,46000
Z" /> 
<path style="fill:#840000; fill-opacity:0.0; 
stroke:#840000; stroke-width:60; stroke-opacity:1; 
stroke-linecap:round; stroke-linejoin:round;fill:none"
d="M 56250,51000
57000,51000
Z" /> 
<path style="fill:#840000; fill-opacity:0.0; 
stroke:#840000; stroke-width:60; stroke-opacity:1; 
stroke-linecap:round; stroke-linejoin:round;fill:none"
d="M 56250,47000
57000,47000
Z" /> 
<path style="fill:#840000; fill-opacity:0.0; 
stroke:#840000; stroke-width:60; stroke-opacity:1; 
stroke-linecap:round; stroke-linejoin:round;fill:none"
d="M 57000,49000
56250,49000
Z" /> 
<path style="fill:#840000; fill-opacity:0.0; 
stroke:#840000; stroke-width:60; stroke-opacity:1; 
stroke-linecap:round; stroke-linejoin:round;fill:none"
d="M 57000,45000
56250,45000
Z" /> 
</g>
<g style="fill:#840000; fill-opacity:0.0; 
stroke:#840000; stroke-width:100; stroke-opacity:1; 
stroke-linecap:round; stroke-linejoin:round;">
<path style="fill:#840000; fill-opacity:0.0; 
stroke:#840000; stroke-width:100; stroke-opacity:1; 
stroke-linecap:round; stroke-linejoin:round;fill:none"
d="M 53750,51500
53750,48500
56750,50000
53750,51500
Z" /> 
<path style="fill:#840000; fill-opacity:0.0; 
stroke:#840000; stroke-width:100; stroke-opacity:1; 
stroke-linecap:round; stroke-linejoin:round;fill:none"
d="M 53750,47500
53750,44500
56750,46000
53750,47500
Z" /> 
</g>
<g style="fill:#840000; fill-opacity:0.0; 
stroke:#840000; stroke-width:60; stroke-opacity:1; 
stroke-linecap:round; stroke-linejoin:round;">
<path d="M55500 43000
L55500 42000
" />
</g>
<g style="fill:#008484; fill-opacity:0.0; 
stroke:#008484; stroke-width:60; stroke-opacity:1; 
stroke-linecap:round; stroke-linejoin:round;">
<path d="M55220 44610
L55720 44440
L55220 44270
" />
<path d="M55670 43820
L55700 43840
L55720 43920
L55720 43960
L55700 44030
L55650 44080
L55600 44110
L55510 44130
L55440 44130
L55340 44110
L55290 44080
L55250 44030
L55220 43960
L55220 43920
L55250 43840
L55270 43820
" />
<path d="M55670 43320
L55700 43340
L55720 43420
L55720 43460
L55700 43530
L55650 43580
L55600 43610
L55510 43630
L55440 43630
L55340 43610
L55290 43580
L55250 43530
L55220 43460
L55220 43420
L55250 43340
L55270 43320
" />
</g>
<g style="fill:#840000; fill-opacity:0.0; 
stroke:#840000; stroke-width:60; stroke-opacity:1; 
stroke-linecap:round; stroke-linejoin:round;">
<path d="M55370 42350
L55370 42640
" />
<path d="M55370 42500
L54870 42500
L54940 42540
L54990 42590
L55010 42640
" />
<path d="M51500 46000
L50500 46000
" />
</g>
<g style="fill:#008484; fill-opacity:0.0; 
stroke:#008484; stroke-width:60; stroke-opacity:1; 
stroke-linecap:round; stroke-linejoin:round;">
<path d="M51840 46220
L51840 45720
L51960 45720
L52030 45750
L52080 45790
L52110 45840
L52130 45940
L52130 46010
L52110 46100
L52080 46150
L52030 46200
L51960 46220
L51840 46220
" />
<path d="M52340 46220
L52340 45720
" />
<path d="M52840 46220
L52560 46220
" />
<path d="M52700 46220
L52700 45720
L52650 45790
L52610 45840
L52560 45860
" />
</g>
<g style="fill:#840000; fill-opacity:0.0; 
stroke:#840000; stroke-width:60; stroke-opacity:1; 
stroke-linecap:round; stroke-linejoin:round;">
<path d="M50850 45420
L50880 45400
L50920 45370
L51040 45370
L51090 45400
L51110 45420
L51140 45470
L51140 45510
L51110 45590
L50830 45870
L51140 45870
" />
<path d="M51500 50000
L50500 50000
" />
</g>
<g style="fill:#008484; fill-opacity:0.0; 
stroke:#008484; stroke-width:60; stroke-opacity:1; 
stroke-linecap:round; stroke-linejoin:round;">
<path d="M51840 50220
L51840 49720
L51960 49720
L52030 49750
L52080 49790
L52110 49840
L52130 49940
L52130 50010
L52110 50100
L52080 50150
L52030 50200
L51960 50220
L51840 50220
" />
<path d="M52340 50220
L52340 49720
" />
<path d="M52560 49770
L52580 49750
L52630 49720
L52750 49720
L52800 49750
L52820 49770
L52840 49820
L52840 49860
L52820 49940
L52530 50220
L52840 50220
" />
</g>
<g style="fill:#840000; fill-opacity:0.0; 
stroke:#840000; stroke-width:60; stroke-opacity:1; 
stroke-linecap:round; stroke-linejoin:round;">
<path d="M50830 49370
L51140 49370
L50970 49560
L51040 49560
L51090 49590
L51110 49610
L51140 49660
L51140 49780
L51110 49820
L51090 49850
L51040 49870
L50900 49870
L50850 49850
L50830 49820
" />
<path d="M55500 53000
L55500 54000
" />
</g>
<g style="fill:#008484; fill-opacity:0.0; 
stroke:#008484; stroke-width:60; stroke-opacity:1; 
stroke-linecap:round; stroke-linejoin:round;">
<path d="M55250 52380
L55220 52430
L55220 52500
L55250 52570
L55290 52620
L55340 52650
L55440 52670
L55510 52670
L55600 52650
L55650 52620
L55700 52570
L55720 52500
L55720 52460
L55700 52380
L55670 52360
L55510 52360
L55510 52460
" />
<path d="M55720 52150
L55220 52150
L55720 51860
L55220 51860
" />
<path d="M55720 51620
L55220 51620
L55220 51500
L55250 51430
L55290 51380
L55340 51360
L55440 51340
L55510 51340
L55600 51360
L55650 51380
L55700 51430
L55720 51500
L55720 51620
" />
</g>
<g style="fill:#840000; fill-opacity:0.0; 
stroke:#840000; stroke-width:60; stroke-opacity:1; 
stroke-linecap:round; stroke-linejoin:round;">
<path d="M55040 53400
L55370 53400
" />
<path d="M54850 53520
L55200 53640
L55200 53330
" />
<path d="M59500 51000
L60500 51000
" />
</g>
<g style="fill:#008484; fill-opacity:0.0; 
stroke:#008484; stroke-width:60; stroke-opacity:1; 
stroke-linecap:round; stroke-linejoin:round;">
<path d="M57270 51220
L57270 50720
L57380 50720
L57460 50750
L57500 50790
L57530 50840
L57550 50940
L57550 51010
L57530 51100
L57500 51150
L57460 51200
L57380 51220
L57270 51220
" />
<path d="M57860 50720
L57960 50720
L58000 50750
L58050 50790
L58070 50890
L58070 51050
L58050 51150
L58000 51200
L57960 51220
L57860 51220
L57810 51200
L57770 51150
L57740 51050
L57740 50890
L57770 50790
L57810 50750
L57860 50720
" />
<path d="M58290 51030
L58670 51030
" />
<path d="M58880 50770
L58910 50750
L58960 50720
L59070 50720
L59120 50750
L59150 50770
L59170 50820
L59170 50860
L59150 50940
L58860 51220
L59170 51220
" />
</g>
<g style="fill:#840000; fill-opacity:0.0; 
stroke:#840000; stroke-width:60; stroke-opacity:1; 
stroke-linecap:round; stroke-linejoin:round;">
<path d="M60110 50370
L59880 50370
L59850 50610
L59880 50590
L59920 50560
L60040 50560
L60090 50590
L60110 50610
L60140 50660
L60140 50780
L60110 50820
L60090 50850
L60040 50870
L59920 50870
L59880 50850
L59850 50820
" />
<path d="M59500 49000
L60500 49000
" />
</g>
<g style="fill:#008484; fill-opacity:0.0; 
stroke:#008484; stroke-width:60; stroke-opacity:1; 
stroke-linecap:round; stroke-linejoin:round;">
<path d="M57270 49220
L57270 48720
L57380 48720
L57460 48750
L57500 48790
L57530 48840
L57550 48940
L57550 49010
L57530 49100
L57500 49150
L57460 49200
L57380 49220
L57270 49220
" />
<path d="M57860 48720
L57960 48720
L58000 48750
L58050 48790
L58070 48890
L58070 49050
L58050 49150
L58000 49200
L57960 49220
L57860 49220
L57810 49200
L57770 49150
L57740 49050
L57740 48890
L57770 48790
L57810 48750
L57860 48720
" />
<path d="M58290 49030
L58670 49030
" />
<path d="M58480 49220
L58480 48840
" />
<path d="M58880 48770
L58910 48750
L58960 48720
L59070 48720
L59120 48750
L59150 48770
L59170 48820
L59170 48860
L59150 48940
L58860 49220
L59170 49220
" />
</g>
<g style="fill:#840000; fill-opacity:0.0; 
stroke:#840000; stroke-width:60; stroke-opacity:1; 
stroke-linecap:round; stroke-linejoin:round;">
<path d="M60090 48370
L60000 48370
L59950 48400
L59920 48420
L59880 48490
L59850 48590
L59850 48780
L59880 48820
L59900 48850
L59950 48870
L60040 48870
L60090 48850
L60110 48820
L60140 48780
L60140 48660
L60110 48610
L60090 48590
L60040 48560
L59950 48560
L59900 48590
L59880 48610
L59850 48660
" />
<path d="M59500 45000
L60500 45000
" />
</g>
<g style="fill:#008484; fill-opacity:0.0; 
stroke:#008484; stroke-width:60; stroke-opacity:1; 
stroke-linecap:round; stroke-linejoin:round;">
<path d="M57270 45220
L57270 44720
L57380 44720
L57460 44750
L57500 44790
L57530 44840
L57550 44940
L57550 45010
L57530 45100
L57500 45150
L57460 45200
L57380 45220
L57270 45220
" />
<path d="M57860 44720
L57960 44720
L58000 44750
L58050 44790
L58070 44890
L58070 45050
L58050 45150
L58000 45200
L57960 45220
L57860 45220
L57810 45200
L57770 45150
L57740 45050
L57740 44890
L57770 44790
L57810 44750
L57860 44720
" />
<path d="M58290 45030
L58670 45030
" />
<path d="M58480 45220
L58480 44840
" />
<path d="M59170 45220
L58880 45220
" />
<path d="M59030 45220
L59030 44720
L58980 44790
L58930 44840
L58880 44860
" />
</g>
<g style="fill:#840000; fill-opacity:0.0; 
stroke:#840000; stroke-width:60; stroke-opacity:1; 
stroke-linecap:round; stroke-linejoin:round;">
<path d="M59830 44370
L60160 44370
L59950 44870
" />
<path d="M59500 47000
L60500 47000
" />
</g>
<g style="fill:#008484; fill-opacity:0.0; 
stroke:#008484; stroke-width:60; stroke-opacity:1; 
stroke-linecap:round; stroke-linejoin:round;">
<path d="M57270 47220
L57270 46720
L57380 46720
L57460 46750
L57500 46790
L57530 46840
L57550 46940
L57550 47010
L57530 47100
L57500 47150
L57460 47200
L57380 47220
L57270 47220
" />
<path d="M57860 46720
L57960 46720
L58000 46750
L58050 46790
L58070 46890
L58070 47050
L58050 47150
L58000 47200
L57960 47220
L57860 47220
L57810 47200
L57770 47150
L57740 47050
L57740 46890
L57770 46790
L57810 46750
L57860 46720
" />
<path d="M58290 47030
L58670 47030
" />
<path d="M59170 47220
L58880 47220
" />
<path d="M59030 47220
L59030 46720
L58980 46790
L58930 46840
L58880 46860
" />
</g>
<g style="fill:#840000; fill-opacity:0.0; 
stroke:#840000; stroke-width:60; stroke-opacity:1; 
stroke-linecap:round; stroke-linejoin:round;">
<path d="M59950 46590
L59900 46560
L59880 46540
L59850 46490
L59850 46470
L59880 46420
L59900 46400
L59950 46370
L60040 46370
L60090 46400
L60110 46420
L60140 46470
L60140 46490
L60110 46540
L60090 46560
L60040 46590
L59950 46590
L59900 46610
L59880 46630
L59850 46680
L59850 46780
L59880 46820
L59900 46850
L59950 46870
L60040 46870
L60090 46850
L60110 46820
L60140 46780
L60140 46680
L60110 46630
L60090 46610
L60040 46590
" />
</g>
<g style="fill:#008484; fill-opacity:0.0; 
stroke:#008484; stroke-width:60; stroke-opacity:1; 
stroke-linecap:round; stroke-linejoin:round;">
<path d="M54880 39930
L54880 40340
L54900 40380
L54920 40410
L54970 40430
L55070 40430
L55110 40410
L55140 40380
L55160 40340
L55160 39930
" />
<path d="M55660 40430
L55380 40430
" />
<path d="M55520 40430
L55520 39930
L55470 40000
L55420 40050
L55380 40070
" />
<path d="M56140 40430
L55850 40430
" />
<path d="M56000 40430
L56000 39930
L55950 40000
L55900 40050
L55850 40070
" />
<path d="M53300 41340
L53300 40840
L53420 40840
L53500 40870
L53540 40910
L53570 40960
L53590 41060
L53590 41130
L53570 41220
L53540 41270
L53500 41320
L53420 41340
L53300 41340
" />
<path d="M53780 41320
L53850 41340
L53970 41340
L54020 41320
L54040 41290
L54070 41250
L54070 41200
L54040 41150
L54020 41130
L53970 41100
L53880 41080
L53830 41060
L53800 41030
L53780 40980
L53780 40940
L53800 40890
L53830 40870
L53880 40840
L54000 40840
L54070 40870
" />
<path d="M54300 41340
L54400 41340
L54450 41320
L54470 41290
L54520 41220
L54540 41130
L54540 40940
L54520 40890
L54500 40870
L54450 40840
L54350 40840
L54300 40870
L54280 40890
L54260 40940
L54260 41060
L54280 41100
L54300 41130
L54350 41150
L54450 41150
L54500 41130
L54520 41100
L54540 41060
" />
<path d="M54850 40840
L54900 40840
L54950 40870
L54970 40890
L55000 40940
L55020 41030
L55020 41150
L55000 41250
L54970 41290
L54950 41320
L54900 41340
L54850 41340
L54800 41320
L54780 41290
L54760 41250
L54730 41150
L54730 41030
L54760 40940
L54780 40890
L54800 40870
L54850 40840
" />
<path d="M55470 41340
L55230 41340
L55230 40840
" />
<path d="M55570 40840
L55730 41340
L55900 40840
" />
<path d="M56160 40840
L56210 40840
L56260 40870
L56280 40890
L56300 40940
L56330 41030
L56330 41150
L56300 41250
L56280 41290
L56260 41320
L56210 41340
L56160 41340
L56110 41320
L56090 41290
L56070 41250
L56040 41150
L56040 41030
L56070 40940
L56090 40890
L56110 40870
L56160 40840
" />
<path d="M56520 40890
L56540 40870
L56590 40840
L56710 40840
L56760 40870
L56780 40890
L56800 40940
L56800 40980
L56780 41060
L56500 41340
L56800 41340
" />
<path d="M56970 40840
L57300 40840
L57090 41340
" />
<path d="M57470 41200
L57710 41200
" />
<path d="M57420 41340
L57590 40840
L57760 41340
" />
</g>
</g>
<g style="fill:#008484; fill-opacity:0.0; 
stroke:#008484; stroke-width:0; stroke-opacity:1; 
stroke-linecap:round; stroke-linejoin:round;">
<g >
</g>
<g style="fill:#840000; fill-opacity:0.0; 
stroke:#840000; stroke-width:0; stroke-opacity:1; 
stroke-linecap:round; stroke-linejoin:round;">
</g>
<g style="fill:#840000; fill-opacity:0.0; 
stroke:#840000; stroke-width:200; stroke-opacity:1; 
stroke-linecap:round; stroke-linejoin:round;">
<path style="fill:#840000; fill-opacity:0.0; 
stroke:#840000; stroke-width:200; stroke-opacity:1; 
stroke-linecap:round; stroke-linejoin:round;fill:none"
d="M 47200,41800
48800,41800
Z" /> 
<path style="fill:#840000; fill-opacity:0.0; 
stroke:#840000; stroke-width:200; stroke-opacity:1; 
stroke-linecap:round; stroke-linejoin:round;fill:none"
d="M 47200,41200
48800,41200
Z" /> 
</g>
<g style="fill:#840000; fill-opacity:0.0; 
stroke:#840000; stroke-width:60; stroke-opacity:1; 
stroke-linecap:round; stroke-linejoin:round;">
<path d="M48000 41100
L48000 40000
" />
<path d="M48000 41900
L48000 43000
" />
</g>
<g style="fill:#008484; fill-opacity:0.0; 
stroke:#008484; stroke-width:60; stroke-opacity:1; 
stroke-linecap:round; stroke-linejoin:round;">
<path d="M49570 41230
L49550 41260
L49480 41280
L49430 41280
L49360 41260
L49310 41210
L49290 41160
L49260 41070
L49260 41000
L49290 40900
L49310 40850
L49360 40810
L49430 40780
L49480 40780
L49550 40810
L49570 40830
" />
<path d="M50030 40780
L49790 40780
L49760 41020
L49790 41000
L49840 40970
L49950 40970
L50000 41000
L50030 41020
L50050 41070
L50050 41190
L50030 41230
L50000 41260
L49950 41280
L49840 41280
L49790 41260
L49760 41230
" />
<path d="M50360 40780
L50410 40780
L50450 40810
L50480 40830
L50500 40880
L50530 40970
L50530 41090
L50500 41190
L50480 41230
L50450 41260
L50410 41280
L50360 41280
L50310 41260
L50290 41230
L50260 41190
L50240 41090
L50240 40970
L50260 40880
L50290 40830
L50310 40810
L50360 40780
" />
<path d="M49380 41690
L49430 41690
L49480 41720
L49500 41740
L49530 41790
L49550 41880
L49550 42000
L49530 42100
L49500 42140
L49480 42170
L49430 42190
L49380 42190
L49340 42170
L49310 42140
L49290 42100
L49270 42000
L49270 41880
L49290 41790
L49310 41740
L49340 41720
L49380 41690
" />
<path d="M49770 42140
L49790 42170
L49770 42190
L49740 42170
L49770 42140
L49770 42190
" />
<path d="M50270 42190
L49980 42190
" />
<path d="M50120 42190
L50120 41690
L50070 41760
L50030 41810
L49980 41830
" />
</g>
</g>
<g style="fill:#008484; fill-opacity:0.0; 
stroke:#008484; stroke-width:0; stroke-opacity:1; 
stroke-linecap:round; stroke-linejoin:round;">
<g >
</g>
<g style="fill:#840000; fill-opacity:0.0; 
stroke:#840000; stroke-width:0; stroke-opacity:1; 
stroke-linecap:round; stroke-linejoin:round;">
</g>
<g style="fill:#840000; fill-opacity:0.0; 
stroke:#840000; stroke-width:100; stroke-opacity:1; 
stroke-linecap:round; stroke-linejoin:round;">
<rect x="40000" y="49600" width="2000" height="800" rx="0" />
</g>
<g style="fill:#840000; fill-opacity:0.0; 
stroke:#840000; stroke-width:60; stroke-opacity:1; 
stroke-linecap:round; stroke-linejoin:round;">
<path d="M42000 50000
L42500 50000
" />
<path d="M40000 50000
L39500 50000
" />
</g>
<g style="fill:#008484; fill-opacity:0.0; 
stroke:#008484; stroke-width:60; stroke-opacity:1; 
stroke-linecap:round; stroke-linejoin:round;">
<path d="M40670 48170
L40510 47930
" />
<path d="M40390 48170
L40390 47670
L40580 47670
L40630 47700
L40650 47720
L40670 47770
L40670 47840
L40650 47890
L40630 47910
L40580 47930
L40390 47930
" />
<path d="M40860 47720
L40890 47700
L40940 47670
L41050 47670
L41100 47700
L41130 47720
L41150 47770
L41150 47810
L41130 47890
L40840 48170
L41150 48170
" />
<path d="M41580 47840
L41580 48170
" />
<path d="M41460 47650
L41340 48000
L41650 48000
" />
<path d="M40380 48630
L40400 48610
L40450 48580
L40570 48580
L40610 48610
L40640 48630
L40660 48680
L40660 48720
L40640 48800
L40350 49080
L40660 49080
" />
<path d="M40850 48630
L40880 48610
L40920 48580
L41040 48580
L41090 48610
L41110 48630
L41140 48680
L41140 48720
L41110 48800
L40830 49080
L41140 49080
" />
<path d="M41450 48580
L41500 48580
L41540 48610
L41570 48630
L41590 48680
L41610 48770
L41610 48890
L41590 48990
L41570 49030
L41540 49060
L41500 49080
L41450 49080
L41400 49060
L41380 49030
L41350 48990
L41330 48890
L41330 48770
L41350 48680
L41380 48630
L41400 48610
L41450 48580
" />
</g>
</g>
<g style="fill:#008484; fill-opacity:0.0; 
stroke:#008484; stroke-width:0; stroke-opacity:1; 
stroke-linecap:round; stroke-linejoin:round;">
<g >
</g>
<g style="fill:#840000; fill-opacity:0.0; 
stroke:#840000; stroke-width:0; stroke-opacity:1; 
stroke-linecap:round; stroke-linejoin:round;">
</g>
<g style="fill:#840000; fill-opacity:0.0; 
stroke:#840000; stroke-width:100; stroke-opacity:1; 
stroke-linecap:round; stroke-linejoin:round;">
<rect x="40000" y="45600" width="2000" height="800" rx="0" />
</g>
<g style="fill:#840000; fill-opacity:0.0; 
stroke:#840000; stroke-width:60; stroke-opacity:1; 
stroke-linecap:round; stroke-linejoin:round;">
<path d="M42000 46000
L42500 46000
" />
<path d="M40000 46000
L39500 46000
" />
</g>
<g style="fill:#008484; fill-opacity:0.0; 
stroke:#008484; stroke-width:60; stroke-opacity:1; 
stroke-linecap:round; stroke-linejoin:round;">
<path d="M40670 44170
L40510 43930
" />
<path d="M40390 44170
L40390 43670
L40580 43670
L40630 43700
L40650 43720
L40670 43770
L40670 43840
L40650 43890
L40630 43910
L40580 43930
L40390 43930
" />
<path d="M40860 43720
L40890 43700
L40940 43670
L41050 43670
L41100 43700
L41130 43720
L41150 43770
L41150 43810
L41130 43890
L40840 44170
L41150 44170
" />
<path d="M41320 43670
L41630 43670
L41460 43860
L41530 43860
L41580 43890
L41600 43910
L41630 43960
L41630 44080
L41600 44120
L41580 44150
L41530 44170
L41390 44170
L41340 44150
L41320 44120
" />
<path d="M40380 44630
L40400 44610
L40450 44580
L40570 44580
L40610 44610
L40640 44630
L40660 44680
L40660 44720
L40640 44800
L40350 45080
L40660 45080
" />
<path d="M40850 44630
L40880 44610
L40920 44580
L41040 44580
L41090 44610
L41110 44630
L41140 44680
L41140 44720
L41110 44800
L40830 45080
L41140 45080
" />
<path d="M41450 44580
L41500 44580
L41540 44610
L41570 44630
L41590 44680
L41610 44770
L41610 44890
L41590 44990
L41570 45030
L41540 45060
L41500 45080
L41450 45080
L41400 45060
L41380 45030
L41350 44990
L41330 44890
L41330 44770
L41350 44680
L41380 44630
L41400 44610
L41450 44580
" />
</g>
</g>
<g style="fill:#008484; fill-opacity:0.0; 
stroke:#008484; stroke-width:0; stroke-opacity:1; 
stroke-linecap:round; stroke-linejoin:round;">
<g >
</g>
<g style="fill:#840000; fill-opacity:0.0; 
stroke:#840000; stroke-width:0; stroke-opacity:1; 
stroke-linecap:round; stroke-linejoin:round;">
</g>
<g style="fill:#840000; fill-opacity:0.0; 
stroke:#840000; stroke-width:100; stroke-opacity:1; 
stroke-linecap:round; stroke-linejoin:round;">
<rect x="40000" y="27100" width="2000" height="800" rx="0" />
</g>
<g style="fill:#840000; fill-opacity:0.0; 
stroke:#840000; stroke-width:60; stroke-opacity:1; 
stroke-linecap:round; stroke-linejoin:round;">
<path d="M42000 27500
L42500 27500
" />
<path d="M40000 27500
L39500 27500
" />
</g>
<g style="fill:#008484; fill-opacity:0.0; 
stroke:#008484; stroke-width:60; stroke-opacity:1; 
stroke-linecap:round; stroke-linejoin:round;">
<path d="M40670 25670
L40510 25430
" />
<path d="M40390 25670
L40390 25170
L40580 25170
L40630 25200
L40650 25220
L40670 25270
L40670 25340
L40650 25390
L40630 25410
L40580 25430
L40390 25430
" />
<path d="M40860 25220
L40890 25200
L40940 25170
L41050 25170
L41100 25200
L41130 25220
L41150 25270
L41150 25310
L41130 25390
L40840 25670
L41150 25670
" />
<path d="M41340 25220
L41360 25200
L41410 25170
L41530 25170
L41580 25200
L41600 25220
L41630 25270
L41630 25310
L41600 25390
L41320 25670
L41630 25670
" />
<path d="M40380 26130
L40400 26110
L40450 26080
L40570 26080
L40610 26110
L40640 26130
L40660 26180
L40660 26220
L40640 26300
L40350 26580
L40660 26580
" />
<path d="M40850 26130
L40880 26110
L40920 26080
L41040 26080
L41090 26110
L41110 26130
L41140 26180
L41140 26220
L41110 26300
L40830 26580
L41140 26580
" />
<path d="M41450 26080
L41500 26080
L41540 26110
L41570 26130
L41590 26180
L41610 26270
L41610 26390
L41590 26490
L41570 26530
L41540 26560
L41500 26580
L41450 26580
L41400 26560
L41380 26530
L41350 26490
L41330 26390
L41330 26270
L41350 26180
L41380 26130
L41400 26110
L41450 26080
" />
</g>
</g>
<g style="fill:#008484; fill-opacity:0.0; 
stroke:#008484; stroke-width:0; stroke-opacity:1; 
stroke-linecap:round; stroke-linejoin:round;">
<g >
</g>
<g style="fill:#840000; fill-opacity:0.0; 
stroke:#840000; stroke-width:0; stroke-opacity:1; 
stroke-linecap:round; stroke-linejoin:round;">
</g>
<g style="fill:#840000; fill-opacity:0.0; 
stroke:#840000; stroke-width:100; stroke-opacity:1; 
stroke-linecap:round; stroke-linejoin:round;">
<rect x="40000" y="23100" width="2000" height="800" rx="0" />
</g>
<g style="fill:#840000; fill-opacity:0.0; 
stroke:#840000; stroke-width:60; stroke-opacity:1; 
stroke-linecap:round; stroke-linejoin:round;">
<path d="M42000 23500
L42500 23500
" />
<path d="M40000 23500
L39500 23500
" />
</g>
<g style="fill:#008484; fill-opacity:0.0; 
stroke:#008484; stroke-width:60; stroke-opacity:1; 
stroke-linecap:round; stroke-linejoin:round;">
<path d="M40670 21670
L40510 21430
" />
<path d="M40390 21670
L40390 21170
L40580 21170
L40630 21200
L40650 21220
L40670 21270
L40670 21340
L40650 21390
L40630 21410
L40580 21430
L40390 21430
" />
<path d="M40860 21220
L40890 21200
L40940 21170
L41050 21170
L41100 21200
L41130 21220
L41150 21270
L41150 21310
L41130 21390
L40840 21670
L41150 21670
" />
<path d="M41630 21670
L41340 21670
" />
<path d="M41480 21670
L41480 21170
L41440 21240
L41390 21290
L41340 21310
" />
<path d="M40380 22130
L40400 22110
L40450 22080
L40570 22080
L40610 22110
L40640 22130
L40660 22180
L40660 22220
L40640 22300
L40350 22580
L40660 22580
" />
<path d="M40850 22130
L40880 22110
L40920 22080
L41040 22080
L41090 22110
L41110 22130
L41140 22180
L41140 22220
L41110 22300
L40830 22580
L41140 22580
" />
<path d="M41450 22080
L41500 22080
L41540 22110
L41570 22130
L41590 22180
L41610 22270
L41610 22390
L41590 22490
L41570 22530
L41540 22560
L41500 22580
L41450 22580
L41400 22560
L41380 22530
L41350 22490
L41330 22390
L41330 22270
L41350 22180
L41380 22130
L41400 22110
L41450 22080
" />
</g>
</g>
<g style="fill:#008484; fill-opacity:0.0; 
stroke:#008484; stroke-width:0; stroke-opacity:1; 
stroke-linecap:round; stroke-linejoin:round;">
<g >
</g>
<g style="fill:#840000; fill-opacity:0.0; 
stroke:#840000; stroke-width:0; stroke-opacity:1; 
stroke-linecap:round; stroke-linejoin:round;">
</g>
<g style="fill:#840000; fill-opacity:0.0; 
stroke:#840000; stroke-width:60; stroke-opacity:1; 
stroke-linecap:round; stroke-linejoin:round;">
<path style="fill:#840000; fill-opacity:0.0; 
stroke:#840000; stroke-width:60; stroke-opacity:1; 
stroke-linecap:round; stroke-linejoin:round;fill:none"
d="M 48000,33500
48000,34000
48500,34000
48000,34500
47500,34000
48000,34000
Z" /> 
</g>
<g style="fill:#008484; fill-opacity:0.0; 
stroke:#008484; stroke-width:60; stroke-opacity:1; 
stroke-linecap:round; stroke-linejoin:round;">
<path d="M47660 35000
L47620 34970
L47550 34970
L47470 35000
L47430 35040
L47400 35090
L47380 35190
L47380 35260
L47400 35350
L47430 35400
L47470 35450
L47550 35470
L47590 35470
L47660 35450
L47690 35420
L47690 35260
L47590 35260
" />
<path d="M47900 35470
L47900 34970
L48190 35470
L48190 34970
" />
<path d="M48430 35470
L48430 34970
L48550 34970
L48620 35000
L48660 35040
L48690 35090
L48710 35190
L48710 35260
L48690 35350
L48660 35400
L48620 35450
L48550 35470
L48430 35470
" />
</g>
</g>
<g style="fill:#008484; fill-opacity:0.0; 
stroke:#008484; stroke-width:0; stroke-opacity:1; 
stroke-linecap:round; stroke-linejoin:round;">
<g >
</g>
<g style="fill:#840000; fill-opacity:0.0; 
stroke:#840000; stroke-width:0; stroke-opacity:1; 
stroke-linecap:round; stroke-linejoin:round;">
</g>
<g style="fill:#840000; fill-opacity:0.0; 
stroke:#840000; stroke-width:60; stroke-opacity:1; 
stroke-linecap:round; stroke-linejoin:round;">
<path style="fill:#840000; fill-opacity:0.0; 
stroke:#840000; stroke-width:60; stroke-opacity:1; 
stroke-linecap:round; stroke-linejoin:round;fill:none"
d="M 48000,56500
48000,57000
48500,57000
48000,57500
47500,57000
48000,57000
Z" /> 
</g>
<g style="fill:#008484; fill-opacity:0.0; 
stroke:#008484; stroke-width:60; stroke-opacity:1; 
stroke-linecap:round; stroke-linejoin:round;">
<path d="M47660 58000
L47620 57970
L47550 57970
L47470 58000
L47430 58040
L47400 58090
L47380 58190
L47380 58260
L47400 58350
L47430 58400
L47470 58450
L47550 58470
L47590 58470
L47660 58450
L47690 58420
L47690 58260
L47590 58260
" />
<path d="M47900 58470
L47900 57970
L48190 58470
L48190 57970
" />
<path d="M48430 58470
L48430 57970
L48550 57970
L48620 58000
L48660 58040
L48690 58090
L48710 58190
L48710 58260
L48690 58350
L48660 58400
L48620 58450
L48550 58470
L48430 58470
" />
</g>
</g>
<g style="fill:#008484; fill-opacity:0.0; 
stroke:#008484; stroke-width:0; stroke-opacity:1; 
stroke-linecap:round; stroke-linejoin:round;">
<g >
</g>
<g style="fill:#840000; fill-opacity:0.0; 
stroke:#840000; stroke-width:0; stroke-opacity:1; 
stroke-linecap:round; stroke-linejoin:round;">
</g>
<g style="fill:#840000; fill-opacity:0.0; 
stroke:#840000; stroke-width:200; stroke-opacity:1; 
stroke-linecap:round; stroke-linejoin:round;">
<path style="fill:#840000; fill-opacity:0.0; 
stroke:#840000; stroke-width:200; stroke-opacity:1; 
stroke-linecap:round; stroke-linejoin:round;fill:none"
d="M 47200,20300
48800,20300
Z" /> 
<path style="fill:#840000; fill-opacity:0.0; 
stroke:#840000; stroke-width:200; stroke-opacity:1; 
stroke-linecap:round; stroke-linejoin:round;fill:none"
d="M 47200,19700
48800,19700
Z" /> 
</g>
<g style="fill:#840000; fill-opacity:0.0; 
stroke:#840000; stroke-width:60; stroke-opacity:1; 
stroke-linecap:round; stroke-linejoin:round;">
<path d="M48000 19600
L48000 18500
" />
<path d="M48000 20400
L48000 21500
" />
</g>
<g style="fill:#008484; fill-opacity:0.0; 
stroke:#008484; stroke-width:60; stroke-opacity:1; 
stroke-linecap:round; stroke-linejoin:round;">
<path d="M49570 19730
L49550 19760
L49480 19780
L49430 19780
L49360 19760
L49310 19710
L49290 19660
L49260 19570
L49260 19500
L49290 19400
L49310 19350
L49360 19310
L49430 19280
L49480 19280
L49550 19310
L49570 19330
" />
<path d="M50000 19450
L50000 19780
" />
<path d="M49880 19260
L49760 19610
L50070 19610
" />
<path d="M50290 19780
L50380 19780
L50430 19760
L50450 19730
L50500 19660
L50530 19570
L50530 19380
L50500 19330
L50480 19310
L50430 19280
L50340 19280
L50290 19310
L50260 19330
L50240 19380
L50240 19500
L50260 19540
L50290 19570
L50340 19590
L50430 19590
L50480 19570
L50500 19540
L50530 19500
" />
<path d="M49380 20190
L49430 20190
L49480 20220
L49500 20240
L49530 20290
L49550 20380
L49550 20500
L49530 20600
L49500 20640
L49480 20670
L49430 20690
L49380 20690
L49340 20670
L49310 20640
L49290 20600
L49270 20500
L49270 20380
L49290 20290
L49310 20240
L49340 20220
L49380 20190
" />
<path d="M49770 20640
L49790 20670
L49770 20690
L49740 20670
L49770 20640
L49770 20690
" />
<path d="M50270 20690
L49980 20690
" />
<path d="M50120 20690
L50120 20190
L50070 20260
L50030 20310
L49980 20330
" />
</g>
</g>
<g style="fill:#008484; fill-opacity:0.0; 
stroke:#008484; stroke-width:0; stroke-opacity:1; 
stroke-linecap:round; stroke-linejoin:round;">
<g >
</g>
<g style="fill:#840000; fill-opacity:0.0; 
stroke:#840000; stroke-width:0; stroke-opacity:1; 
stroke-linecap:round; stroke-linejoin:round;">
</g>
<g style="fill:#FFFFC2; fill-opacity:0.0; 
stroke:#FFFFC2; stroke-width:0; stroke-opacity:1; 
stroke-linecap:round; stroke-linejoin:round;">
</g>
<g style="fill:#FFFFC2; fill-opacity:0.6; 
stroke:#FFFFC2; stroke-width:0; stroke-opacity:1; 
stroke-linecap:round; stroke-linejoin:round;">
<rect x="52000" y="20500" width="8000" height="10000" rx="0" />
</g>
<g style="fill:#840000; fill-opacity:0.6; 
stroke:#840000; stroke-width:0; stroke-opacity:1; 
stroke-linecap:round; stroke-linejoin:round;">
</g>
<g style="fill:#840000; fill-opacity:0.0; 
stroke:#840000; stroke-width:100; stroke-opacity:1; 
stroke-linecap:round; stroke-linejoin:round;">
<rect x="52000" y="20500" width="8000" height="10000" rx="0" />
</g>
<g style="fill:#840000; fill-opacity:0.0; 
stroke:#840000; stroke-width:60; stroke-opacity:1; 
stroke-linecap:round; stroke-linejoin:round;">
<circle cx="56750" cy="28000" r="200" /> 
<circle cx="56750" cy="24000" r="200" /> 
<path d="M54800 23790
L54800 23190
L54950 23190
L55030 23220
L55090 23270
L55120 23330
L55150 23440
L55150 23530
L55120 23640
L55090 23700
L55030 23760
L54950 23790
L54800 23790
" />
<path d="M55720 23790
L55370 23790
" />
<path d="M55550 23790
L55550 23190
L55490 23270
L55430 23330
L55370 23360
" />
<path d="M54800 27790
L54800 27190
L54950 27190
L55030 27220
L55090 27270
L55120 27330
L55150 27440
L55150 27530
L55120 27640
L55090 27700
L55030 27760
L54950 27790
L54800 27790
" />
<path d="M55370 27240
L55400 27220
L55460 27190
L55600 27190
L55660 27220
L55690 27240
L55720 27300
L55720 27360
L55690 27440
L55350 27790
L55720 27790
" />
<path style="fill:#840000; fill-opacity:0.0; 
stroke:#840000; stroke-width:60; stroke-opacity:1; 
stroke-linecap:round; stroke-linejoin:round;fill:none"
d="M 56750,28200
56750,28500
Z" /> 
<path style="fill:#840000; fill-opacity:0.0; 
stroke:#840000; stroke-width:60; stroke-opacity:1; 
stroke-linecap:round; stroke-linejoin:round;fill:none"
d="M 56750,27250
56750,26500
Z" /> 
<path style="fill:#840000; fill-opacity:0.0; 
stroke:#840000; stroke-width:60; stroke-opacity:1; 
stroke-linecap:round; stroke-linejoin:round;fill:none"
d="M 56750,24200
56750,24500
Z" /> 
<path style="fill:#840000; fill-opacity:0.0; 
stroke:#840000; stroke-width:60; stroke-opacity:1; 
stroke-linecap:round; stroke-linejoin:round;fill:none"
d="M 56750,23250
56750,22500
Z" /> 
<path style="fill:#840000; fill-opacity:0.0; 
stroke:#840000; stroke-width:60; stroke-opacity:1; 
stroke-linecap:round; stroke-linejoin:round;fill:none"
d="M 53500,27500
54250,27500
Z" /> 
<path style="fill:#840000; fill-opacity:0.0; 
stroke:#840000; stroke-width:60; stroke-opacity:1; 
stroke-linecap:round; stroke-linejoin:round;fill:none"
d="M 53500,23500
54250,23500
Z" /> 
<path style="fill:#840000; fill-opacity:0.0; 
stroke:#840000; stroke-width:60; stroke-opacity:1; 
stroke-linecap:round; stroke-linejoin:round;fill:none"
d="M 56750,28500
57500,28500
Z" /> 
<path style="fill:#840000; fill-opacity:0.0; 
stroke:#840000; stroke-width:60; stroke-opacity:1; 
stroke-linecap:round; stroke-linejoin:round;fill:none"
d="M 56750,24500
57500,24500
Z" /> 
<path style="fill:#840000; fill-opacity:0.0; 
stroke:#840000; stroke-width:60; stroke-opacity:1; 
stroke-linecap:round; stroke-linejoin:round;fill:none"
d="M 57500,26500
56750,26500
Z" /> 
<path style="fill:#840000; fill-opacity:0.0; 
stroke:#840000; stroke-width:60; stroke-opacity:1; 
stroke-linecap:round; stroke-linejoin:round;fill:none"
d="M 57500,22500
56750,22500
Z" /> 
</g>
<g style="fill:#840000; fill-opacity:0.0; 
stroke:#840000; stroke-width:100; stroke-opacity:1; 
stroke-linecap:round; stroke-linejoin:round;">
<path style="fill:#840000; fill-opacity:0.0; 
stroke:#840000; stroke-width:100; stroke-opacity:1; 
stroke-linecap:round; stroke-linejoin:round;fill:none"
d="M 54250,29000
54250,26000
57250,27500
54250,29000
Z" /> 
<path style="fill:#840000; fill-opacity:0.0; 
stroke:#840000; stroke-width:100; stroke-opacity:1; 
stroke-linecap:round; stroke-linejoin:round;fill:none"
d="M 54250,25000
54250,22000
57250,23500
54250,25000
Z" /> 
</g>
<g style="fill:#840000; fill-opacity:0.0; 
stroke:#840000; stroke-width:60; stroke-opacity:1; 
stroke-linecap:round; stroke-linejoin:round;">
<path d="M56000 20500
L56000 19500
" />
</g>
<g style="fill:#008484; fill-opacity:0.0; 
stroke:#008484; stroke-width:60; stroke-opacity:1; 
stroke-linecap:round; stroke-linejoin:round;">
<path d="M55720 22110
L56220 21940
L55720 21770
" />
<path d="M56170 21320
L56200 21340
L56220 21420
L56220 21460
L56200 21530
L56150 21580
L56100 21610
L56010 21630
L55940 21630
L55840 21610
L55790 21580
L55750 21530
L55720 21460
L55720 21420
L55750 21340
L55770 21320
" />
<path d="M56170 20820
L56200 20840
L56220 20920
L56220 20960
L56200 21030
L56150 21080
L56100 21110
L56010 21130
L55940 21130
L55840 21110
L55790 21080
L55750 21030
L55720 20960
L55720 20920
L55750 20840
L55770 20820
" />
</g>
<g style="fill:#840000; fill-opacity:0.0; 
stroke:#840000; stroke-width:60; stroke-opacity:1; 
stroke-linecap:round; stroke-linejoin:round;">
<path d="M55870 19850
L55870 20140
" />
<path d="M55870 20000
L55370 20000
L55440 20040
L55490 20090
L55510 20140
" />
<path d="M52000 23500
L51000 23500
" />
</g>
<g style="fill:#008484; fill-opacity:0.0; 
stroke:#008484; stroke-width:60; stroke-opacity:1; 
stroke-linecap:round; stroke-linejoin:round;">
<path d="M52340 23720
L52340 23220
L52460 23220
L52530 23250
L52580 23290
L52610 23340
L52630 23440
L52630 23510
L52610 23600
L52580 23650
L52530 23700
L52460 23720
L52340 23720
" />
<path d="M52840 23720
L52840 23220
" />
<path d="M53340 23720
L53060 23720
" />
<path d="M53200 23720
L53200 23220
L53150 23290
L53110 23340
L53060 23360
" />
</g>
<g style="fill:#840000; fill-opacity:0.0; 
stroke:#840000; stroke-width:60; stroke-opacity:1; 
stroke-linecap:round; stroke-linejoin:round;">
<path d="M51350 22920
L51380 22900
L51420 22870
L51540 22870
L51590 22900
L51610 22920
L51640 22970
L51640 23010
L51610 23090
L51330 23370
L51640 23370
" />
<path d="M52000 27500
L51000 27500
" />
</g>
<g style="fill:#008484; fill-opacity:0.0; 
stroke:#008484; stroke-width:60; stroke-opacity:1; 
stroke-linecap:round; stroke-linejoin:round;">
<path d="M52340 27720
L52340 27220
L52460 27220
L52530 27250
L52580 27290
L52610 27340
L52630 27440
L52630 27510
L52610 27600
L52580 27650
L52530 27700
L52460 27720
L52340 27720
" />
<path d="M52840 27720
L52840 27220
" />
<path d="M53060 27270
L53080 27250
L53130 27220
L53250 27220
L53300 27250
L53320 27270
L53340 27320
L53340 27360
L53320 27440
L53030 27720
L53340 27720
" />
</g>
<g style="fill:#840000; fill-opacity:0.0; 
stroke:#840000; stroke-width:60; stroke-opacity:1; 
stroke-linecap:round; stroke-linejoin:round;">
<path d="M51330 26870
L51640 26870
L51470 27060
L51540 27060
L51590 27090
L51610 27110
L51640 27160
L51640 27280
L51610 27320
L51590 27350
L51540 27370
L51400 27370
L51350 27350
L51330 27320
" />
<path d="M56000 30500
L56000 31500
" />
</g>
<g style="fill:#008484; fill-opacity:0.0; 
stroke:#008484; stroke-width:60; stroke-opacity:1; 
stroke-linecap:round; stroke-linejoin:round;">
<path d="M55750 29880
L55720 29930
L55720 30000
L55750 30070
L55790 30120
L55840 30150
L55940 30170
L56010 30170
L56100 30150
L56150 30120
L56200 30070
L56220 30000
L56220 29960
L56200 29880
L56170 29860
L56010 29860
L56010 29960
" />
<path d="M56220 29650
L55720 29650
L56220 29360
L55720 29360
" />
<path d="M56220 29120
L55720 29120
L55720 29000
L55750 28930
L55790 28880
L55840 28860
L55940 28840
L56010 28840
L56100 28860
L56150 28880
L56200 28930
L56220 29000
L56220 29120
" />
</g>
<g style="fill:#840000; fill-opacity:0.0; 
stroke:#840000; stroke-width:60; stroke-opacity:1; 
stroke-linecap:round; stroke-linejoin:round;">
<path d="M55540 30900
L55870 30900
" />
<path d="M55350 31020
L55700 31140
L55700 30830
" />
<path d="M60000 28500
L61000 28500
" />
</g>
<g style="fill:#008484; fill-opacity:0.0; 
stroke:#008484; stroke-width:60; stroke-opacity:1; 
stroke-linecap:round; stroke-linejoin:round;">
<path d="M57770 28720
L57770 28220
L57880 28220
L57960 28250
L58000 28290
L58030 28340
L58050 28440
L58050 28510
L58030 28600
L58000 28650
L57960 28700
L57880 28720
L57770 28720
" />
<path d="M58360 28220
L58460 28220
L58500 28250
L58550 28290
L58570 28390
L58570 28550
L58550 28650
L58500 28700
L58460 28720
L58360 28720
L58310 28700
L58270 28650
L58240 28550
L58240 28390
L58270 28290
L58310 28250
L58360 28220
" />
<path d="M58790 28530
L59170 28530
" />
<path d="M59380 28270
L59410 28250
L59460 28220
L59570 28220
L59620 28250
L59650 28270
L59670 28320
L59670 28360
L59650 28440
L59360 28720
L59670 28720
" />
</g>
<g style="fill:#840000; fill-opacity:0.0; 
stroke:#840000; stroke-width:60; stroke-opacity:1; 
stroke-linecap:round; stroke-linejoin:round;">
<path d="M60610 27870
L60380 27870
L60350 28110
L60380 28090
L60420 28060
L60540 28060
L60590 28090
L60610 28110
L60640 28160
L60640 28280
L60610 28320
L60590 28350
L60540 28370
L60420 28370
L60380 28350
L60350 28320
" />
<path d="M60000 26500
L61000 26500
" />
</g>
<g style="fill:#008484; fill-opacity:0.0; 
stroke:#008484; stroke-width:60; stroke-opacity:1; 
stroke-linecap:round; stroke-linejoin:round;">
<path d="M57770 26720
L57770 26220
L57880 26220
L57960 26250
L58000 26290
L58030 26340
L58050 26440
L58050 26510
L58030 26600
L58000 26650
L57960 26700
L57880 26720
L57770 26720
" />
<path d="M58360 26220
L58460 26220
L58500 26250
L58550 26290
L58570 26390
L58570 26550
L58550 26650
L58500 26700
L58460 26720
L58360 26720
L58310 26700
L58270 26650
L58240 26550
L58240 26390
L58270 26290
L58310 26250
L58360 26220
" />
<path d="M58790 26530
L59170 26530
" />
<path d="M58980 26720
L58980 26340
" />
<path d="M59380 26270
L59410 26250
L59460 26220
L59570 26220
L59620 26250
L59650 26270
L59670 26320
L59670 26360
L59650 26440
L59360 26720
L59670 26720
" />
</g>
<g style="fill:#840000; fill-opacity:0.0; 
stroke:#840000; stroke-width:60; stroke-opacity:1; 
stroke-linecap:round; stroke-linejoin:round;">
<path d="M60590 25870
L60500 25870
L60450 25900
L60420 25920
L60380 25990
L60350 26090
L60350 26280
L60380 26320
L60400 26350
L60450 26370
L60540 26370
L60590 26350
L60610 26320
L60640 26280
L60640 26160
L60610 26110
L60590 26090
L60540 26060
L60450 26060
L60400 26090
L60380 26110
L60350 26160
" />
<path d="M60000 22500
L61000 22500
" />
</g>
<g style="fill:#008484; fill-opacity:0.0; 
stroke:#008484; stroke-width:60; stroke-opacity:1; 
stroke-linecap:round; stroke-linejoin:round;">
<path d="M57770 22720
L57770 22220
L57880 22220
L57960 22250
L58000 22290
L58030 22340
L58050 22440
L58050 22510
L58030 22600
L58000 22650
L57960 22700
L57880 22720
L57770 22720
" />
<path d="M58360 22220
L58460 22220
L58500 22250
L58550 22290
L58570 22390
L58570 22550
L58550 22650
L58500 22700
L58460 22720
L58360 22720
L58310 22700
L58270 22650
L58240 22550
L58240 22390
L58270 22290
L58310 22250
L58360 22220
" />
<path d="M58790 22530
L59170 22530
" />
<path d="M58980 22720
L58980 22340
" />
<path d="M59670 22720
L59380 22720
" />
<path d="M59530 22720
L59530 22220
L59480 22290
L59430 22340
L59380 22360
" />
</g>
<g style="fill:#840000; fill-opacity:0.0; 
stroke:#840000; stroke-width:60; stroke-opacity:1; 
stroke-linecap:round; stroke-linejoin:round;">
<path d="M60330 21870
L60660 21870
L60450 22370
" />
<path d="M60000 24500
L61000 24500
" />
</g>
<g style="fill:#008484; fill-opacity:0.0; 
stroke:#008484; stroke-width:60; stroke-opacity:1; 
stroke-linecap:round; stroke-linejoin:round;">
<path d="M57770 24720
L57770 24220
L57880 24220
L57960 24250
L58000 24290
L58030 24340
L58050 24440
L58050 24510
L58030 24600
L58000 24650
L57960 24700
L57880 24720
L57770 24720
" />
<path d="M58360 24220
L58460 24220
L58500 24250
L58550 24290
L58570 24390
L58570 24550
L58550 24650
L58500 24700
L58460 24720
L58360 24720
L58310 24700
L58270 24650
L58240 24550
L58240 24390
L58270 24290
L58310 24250
L58360 24220
" />
<path d="M58790 24530
L59170 24530
" />
<path d="M59670 24720
L59380 24720
" />
<path d="M59530 24720
L59530 24220
L59480 24290
L59430 24340
L59380 24360
" />
</g>
<g style="fill:#840000; fill-opacity:0.0; 
stroke:#840000; stroke-width:60; stroke-opacity:1; 
stroke-linecap:round; stroke-linejoin:round;">
<path d="M60450 24090
L60400 24060
L60380 24040
L60350 23990
L60350 23970
L60380 23920
L60400 23900
L60450 23870
L60540 23870
L60590 23900
L60610 23920
L60640 23970
L60640 23990
L60610 24040
L60590 24060
L60540 24090
L60450 24090
L60400 24110
L60380 24130
L60350 24180
L60350 24280
L60380 24320
L60400 24350
L60450 24370
L60540 24370
L60590 24350
L60610 24320
L60640 24280
L60640 24180
L60610 24130
L60590 24110
L60540 24090
" />
</g>
<g style="fill:#008484; fill-opacity:0.0; 
stroke:#008484; stroke-width:60; stroke-opacity:1; 
stroke-linecap:round; stroke-linejoin:round;">
<path d="M55380 17430
L55380 17840
L55400 17880
L55420 17910
L55470 17930
L55570 17930
L55610 17910
L55640 17880
L55660 17840
L55660 17430
" />
<path d="M56160 17930
L55880 17930
" />
<path d="M56020 17930
L56020 17430
L55970 17500
L55920 17550
L55880 17570
" />
<path d="M56350 17480
L56380 17460
L56420 17430
L56540 17430
L56590 17460
L56610 17480
L56640 17530
L56640 17570
L56610 17650
L56330 17930
L56640 17930
" />
<path d="M53800 18840
L53800 18340
L53920 18340
L54000 18370
L54040 18410
L54070 18460
L54090 18560
L54090 18630
L54070 18720
L54040 18770
L54000 18820
L53920 18840
L53800 18840
" />
<path d="M54280 18820
L54350 18840
L54470 18840
L54520 18820
L54540 18790
L54570 18750
L54570 18700
L54540 18650
L54520 18630
L54470 18600
L54380 18580
L54330 18560
L54300 18530
L54280 18480
L54280 18440
L54300 18390
L54330 18370
L54380 18340
L54500 18340
L54570 18370
" />
<path d="M54800 18840
L54900 18840
L54950 18820
L54970 18790
L55020 18720
L55040 18630
L55040 18440
L55020 18390
L55000 18370
L54950 18340
L54850 18340
L54800 18370
L54780 18390
L54760 18440
L54760 18560
L54780 18600
L54800 18630
L54850 18650
L54950 18650
L55000 18630
L55020 18600
L55040 18560
" />
<path d="M55350 18340
L55400 18340
L55450 18370
L55470 18390
L55500 18440
L55520 18530
L55520 18650
L55500 18750
L55470 18790
L55450 18820
L55400 18840
L55350 18840
L55300 18820
L55280 18790
L55260 18750
L55230 18650
L55230 18530
L55260 18440
L55280 18390
L55300 18370
L55350 18340
" />
<path d="M55970 18840
L55730 18840
L55730 18340
" />
<path d="M56070 18340
L56230 18840
L56400 18340
" />
<path d="M56660 18340
L56710 18340
L56760 18370
L56780 18390
L56800 18440
L56830 18530
L56830 18650
L56800 18750
L56780 18790
L56760 18820
L56710 18840
L56660 18840
L56610 18820
L56590 18790
L56570 18750
L56540 18650
L56540 18530
L56570 18440
L56590 18390
L56610 18370
L56660 18340
" />
<path d="M57020 18390
L57040 18370
L57090 18340
L57210 18340
L57260 18370
L57280 18390
L57300 18440
L57300 18480
L57280 18560
L57000 18840
L57300 18840
" />
<path d="M57470 18340
L57800 18340
L57590 18840
" />
<path d="M57970 18700
L58210 18700
" />
<path d="M57920 18840
L58090 18340
L58260 18840
" />
</g>
</g>
<g style="fill:#008484; fill-opacity:0.0; 
stroke:#008484; stroke-width:0; stroke-opacity:1; 
stroke-linecap:round; stroke-linejoin:round;">
<g >
</g>
<g style="fill:#840000; fill-opacity:0.0; 
stroke:#840000; stroke-width:0; stroke-opacity:1; 
stroke-linecap:round; stroke-linejoin:round;">
</g>
<g style="fill:#840000; fill-opacity:0.0; 
stroke:#840000; stroke-width:60; stroke-opacity:1; 
stroke-linecap:round; stroke-linejoin:round;">
<path style="fill:#840000; fill-opacity:0.0; 
stroke:#840000; stroke-width:60; stroke-opacity:1; 
stroke-linecap:round; stroke-linejoin:round;fill:none"
d="M 56000,33500
56000,34000
56500,34000
56000,34500
55500,34000
56000,34000
Z" /> 
</g>
<g style="fill:#008484; fill-opacity:0.0; 
stroke:#008484; stroke-width:60; stroke-opacity:1; 
stroke-linecap:round; stroke-linejoin:round;">
<path d="M55660 35000
L55620 34970
L55550 34970
L55470 35000
L55430 35040
L55400 35090
L55380 35190
L55380 35260
L55400 35350
L55430 35400
L55470 35450
L55550 35470
L55590 35470
L55660 35450
L55690 35420
L55690 35260
L55590 35260
" />
<path d="M55900 35470
L55900 34970
L56190 35470
L56190 34970
" />
<path d="M56430 35470
L56430 34970
L56550 34970
L56620 35000
L56660 35040
L56690 35090
L56710 35190
L56710 35260
L56690 35350
L56660 35400
L56620 35450
L56550 35470
L56430 35470
" />
</g>
</g>
<g style="fill:#008484; fill-opacity:0.0; 
stroke:#008484; stroke-width:0; stroke-opacity:1; 
stroke-linecap:round; stroke-linejoin:round;">
<g >
</g>
<g style="fill:#840000; fill-opacity:0.0; 
stroke:#840000; stroke-width:0; stroke-opacity:1; 
stroke-linecap:round; stroke-linejoin:round;">
</g>
<g style="fill:#840000; fill-opacity:0.0; 
stroke:#840000; stroke-width:60; stroke-opacity:1; 
stroke-linecap:round; stroke-linejoin:round;">
<path style="fill:#840000; fill-opacity:0.0; 
stroke:#840000; stroke-width:60; stroke-opacity:1; 
stroke-linecap:round; stroke-linejoin:round;fill:none"
d="M 55500,56500
55500,57000
56000,57000
55500,57500
55000,57000
55500,57000
Z" /> 
</g>
<g style="fill:#008484; fill-opacity:0.0; 
stroke:#008484; stroke-width:60; stroke-opacity:1; 
stroke-linecap:round; stroke-linejoin:round;">
<path d="M55160 58000
L55120 57970
L55050 57970
L54970 58000
L54930 58040
L54900 58090
L54880 58190
L54880 58260
L54900 58350
L54930 58400
L54970 58450
L55050 58470
L55090 58470
L55160 58450
L55190 58420
L55190 58260
L55090 58260
" />
<path d="M55400 58470
L55400 57970
L55690 58470
L55690 57970
" />
<path d="M55930 58470
L55930 57970
L56050 57970
L56120 58000
L56160 58040
L56190 58090
L56210 58190
L56210 58260
L56190 58350
L56160 58400
L56120 58450
L56050 58470
L55930 58470
" />
</g>
</g>
<g style="fill:#008484; fill-opacity:0.0; 
stroke:#008484; stroke-width:60; stroke-opacity:1; 
stroke-linecap:round; stroke-linejoin:round;">
</g>
<g style="fill:#008400; fill-opacity:0.0; 
stroke:#008400; stroke-width:60; stroke-opacity:1; 
stroke-linecap:round; stroke-linejoin:round;">
<path d="M60500 45000
L70500 45000
" />
<path d="M39500 23500
L35500 23500
" />
<path d="M39500 27500
L35500 27500
" />
<path d="M39500 46000
L35500 46000
" />
<path d="M39500 50000
L35500 50000
" />
<path d="M51000 23500
L42500 23500
" />
<path d="M51000 27500
L42500 27500
" />
<path d="M48000 21500
L48000 33500
" />
<path d="M56000 18500
L56000 17000
" />
<path d="M56000 18500
L48000 18500
" />
<path d="M56000 19500
L56000 18500
" />
<path d="M48000 56500
L48000 43000
" />
<path d="M61000 24500
L70500 24500
" />
<path d="M61000 28500
L70500 28500
" />
<path d="M60500 47000
L70500 47000
" />
<path d="M60500 49000
L70500 49000
" />
<path d="M60500 51000
L70500 51000
" />
<path d="M50500 46000
L42500 46000
" />
<path d="M50500 50000
L42500 50000
" />
<path d="M55500 56500
L55500 54000
" />
<path d="M55500 42000
L55500 40000
" />
<path d="M56000 33500
L56000 31500
" />
<path d="M48000 40000
L55500 40000
" />
<path d="M61000 22500
L70500 22500
" />
<path d="M55500 40000
L55500 39500
" />
<path d="M61000 26500
L70500 26500
" />
</g>
<g style="fill:#848400; fill-opacity:0.0; 
stroke:#848400; stroke-width:60; stroke-opacity:1; 
stroke-linecap:round; stroke-linejoin:round;">
<path d="M71580 47270
L71530 47250
L71480 47200
L71410 47130
L71360 47100
L71320 47100
" />
<path d="M71340 47220
L71290 47200
L71240 47150
L71220 47050
L71220 46890
L71240 46790
L71290 46750
L71340 46720
L71430 46720
L71480 46750
L71530 46790
L71550 46890
L71550 47050
L71530 47150
L71480 47200
L71430 47220
L71340 47220
" />
<path d="M72030 47220
L71740 47220
" />
<path d="M71890 47220
L71890 46720
L71840 46790
L71790 46840
L71740 46860
" />
<path d="M72240 47030
L72630 47030
" />
</g>
<g style="fill:#848400; fill-opacity:0.0; 
stroke:#848400; stroke-width:100; stroke-opacity:1; 
stroke-linecap:round; stroke-linejoin:round;">
<path style="fill:#848400; fill-opacity:0.0; 
stroke:#848400; stroke-width:100; stroke-opacity:1; 
stroke-linecap:round; stroke-linejoin:round;fill:none"
d="M 70500,47000
70750,47250
71000,47250
71000,46750
70750,46750
70500,47000
Z" /> 
</g>
<g style="fill:#848400; fill-opacity:0.0; 
stroke:#848400; stroke-width:60; stroke-opacity:1; 
stroke-linecap:round; stroke-linejoin:round;">
<path d="M71580 51270
L71530 51250
L71480 51200
L71410 51130
L71360 51100
L71320 51100
" />
<path d="M71340 51220
L71290 51200
L71240 51150
L71220 51050
L71220 50890
L71240 50790
L71290 50750
L71340 50720
L71430 50720
L71480 50750
L71530 50790
L71550 50890
L71550 51050
L71530 51150
L71480 51200
L71430 51220
L71340 51220
" />
<path d="M71860 50720
L71910 50720
L71960 50750
L71980 50770
L72010 50820
L72030 50910
L72030 51030
L72010 51130
L71980 51170
L71960 51200
L71910 51220
L71860 51220
L71820 51200
L71790 51170
L71770 51130
L71740 51030
L71740 50910
L71770 50820
L71790 50770
L71820 50750
L71860 50720
" />
<path d="M72240 51030
L72630 51030
" />
</g>
<g style="fill:#848400; fill-opacity:0.0; 
stroke:#848400; stroke-width:100; stroke-opacity:1; 
stroke-linecap:round; stroke-linejoin:round;">
<path style="fill:#848400; fill-opacity:0.0; 
stroke:#848400; stroke-width:100; stroke-opacity:1; 
stroke-linecap:round; stroke-linejoin:round;fill:none"
d="M 70500,51000
70750,51250
71000,51250
71000,50750
70750,50750
70500,51000
Z" /> 
</g>
<g style="fill:#848400; fill-opacity:0.0; 
stroke:#848400; stroke-width:60; stroke-opacity:1; 
stroke-linecap:round; stroke-linejoin:round;">
<path d="M71580 49270
L71530 49250
L71480 49200
L71410 49130
L71360 49100
L71320 49100
" />
<path d="M71340 49220
L71290 49200
L71240 49150
L71220 49050
L71220 48890
L71240 48790
L71290 48750
L71340 48720
L71430 48720
L71480 48750
L71530 48790
L71550 48890
L71550 49050
L71530 49150
L71480 49200
L71430 49220
L71340 49220
" />
<path d="M71860 48720
L71910 48720
L71960 48750
L71980 48770
L72010 48820
L72030 48910
L72030 49030
L72010 49130
L71980 49170
L71960 49200
L71910 49220
L71860 49220
L71820 49200
L71790 49170
L71770 49130
L71740 49030
L71740 48910
L71770 48820
L71790 48770
L71820 48750
L71860 48720
" />
<path d="M72240 49030
L72630 49030
" />
<path d="M72430 49220
L72430 48840
" />
</g>
<g style="fill:#848400; fill-opacity:0.0; 
stroke:#848400; stroke-width:100; stroke-opacity:1; 
stroke-linecap:round; stroke-linejoin:round;">
<path style="fill:#848400; fill-opacity:0.0; 
stroke:#848400; stroke-width:100; stroke-opacity:1; 
stroke-linecap:round; stroke-linejoin:round;fill:none"
d="M 70500,49000
70750,49250
71000,49250
71000,48750
70750,48750
70500,49000
Z" /> 
</g>
<g style="fill:#848400; fill-opacity:0.0; 
stroke:#848400; stroke-width:60; stroke-opacity:1; 
stroke-linecap:round; stroke-linejoin:round;">
<path d="M71240 24720
L71240 24220
" />
<path d="M71740 24720
L71460 24720
" />
<path d="M71600 24720
L71600 24220
L71550 24290
L71510 24340
L71460 24360
" />
<path d="M71960 24530
L72340 24530
" />
</g>
<g style="fill:#848400; fill-opacity:0.0; 
stroke:#848400; stroke-width:100; stroke-opacity:1; 
stroke-linecap:round; stroke-linejoin:round;">
<path style="fill:#848400; fill-opacity:0.0; 
stroke:#848400; stroke-width:100; stroke-opacity:1; 
stroke-linecap:round; stroke-linejoin:round;fill:none"
d="M 70500,24500
70750,24750
71000,24750
71000,24250
70750,24250
70500,24500
Z" /> 
</g>
<g style="fill:#848400; fill-opacity:0.0; 
stroke:#848400; stroke-width:60; stroke-opacity:1; 
stroke-linecap:round; stroke-linejoin:round;">
<path d="M71240 26720
L71240 26220
" />
<path d="M71580 26220
L71630 26220
L71670 26250
L71700 26270
L71720 26320
L71740 26410
L71740 26530
L71720 26630
L71700 26670
L71670 26700
L71630 26720
L71580 26720
L71530 26700
L71510 26670
L71480 26630
L71460 26530
L71460 26410
L71480 26320
L71510 26270
L71530 26250
L71580 26220
" />
<path d="M71960 26530
L72340 26530
" />
<path d="M72150 26720
L72150 26340
" />
</g>
<g style="fill:#848400; fill-opacity:0.0; 
stroke:#848400; stroke-width:100; stroke-opacity:1; 
stroke-linecap:round; stroke-linejoin:round;">
<path style="fill:#848400; fill-opacity:0.0; 
stroke:#848400; stroke-width:100; stroke-opacity:1; 
stroke-linecap:round; stroke-linejoin:round;fill:none"
d="M 70500,26500
70750,26750
71000,26750
71000,26250
70750,26250
70500,26500
Z" /> 
</g>
<g style="fill:#848400; fill-opacity:0.0; 
stroke:#848400; stroke-width:60; stroke-opacity:1; 
stroke-linecap:round; stroke-linejoin:round;">
<path d="M71240 22720
L71240 22220
" />
<path d="M71740 22720
L71460 22720
" />
<path d="M71600 22720
L71600 22220
L71550 22290
L71510 22340
L71460 22360
" />
<path d="M71960 22530
L72340 22530
" />
<path d="M72150 22720
L72150 22340
" />
</g>
<g style="fill:#848400; fill-opacity:0.0; 
stroke:#848400; stroke-width:100; stroke-opacity:1; 
stroke-linecap:round; stroke-linejoin:round;">
<path style="fill:#848400; fill-opacity:0.0; 
stroke:#848400; stroke-width:100; stroke-opacity:1; 
stroke-linecap:round; stroke-linejoin:round;fill:none"
d="M 70500,22500
70750,22750
71000,22750
71000,22250
70750,22250
70500,22500
Z" /> 
</g>
<g style="fill:#848400; fill-opacity:0.0; 
stroke:#848400; stroke-width:60; stroke-opacity:1; 
stroke-linecap:round; stroke-linejoin:round;">
<path d="M34270 23720
L34270 23220
" />
<path d="M34770 23720
L34480 23720
" />
<path d="M34630 23720
L34630 23220
L34580 23290
L34530 23340
L34480 23360
" />
</g>
<g style="fill:#848400; fill-opacity:0.0; 
stroke:#848400; stroke-width:100; stroke-opacity:1; 
stroke-linecap:round; stroke-linejoin:round;">
<path style="fill:#848400; fill-opacity:0.0; 
stroke:#848400; stroke-width:100; stroke-opacity:1; 
stroke-linecap:round; stroke-linejoin:round;fill:none"
d="M 35500,23500
35250,23250
35000,23250
35000,23750
35250,23750
35500,23500
Z" /> 
</g>
<g style="fill:#848400; fill-opacity:0.0; 
stroke:#848400; stroke-width:60; stroke-opacity:1; 
stroke-linecap:round; stroke-linejoin:round;">
<path d="M34270 27720
L34270 27220
" />
<path d="M34600 27220
L34650 27220
L34700 27250
L34720 27270
L34750 27320
L34770 27410
L34770 27530
L34750 27630
L34720 27670
L34700 27700
L34650 27720
L34600 27720
L34560 27700
L34530 27670
L34510 27630
L34480 27530
L34480 27410
L34510 27320
L34530 27270
L34560 27250
L34600 27220
" />
</g>
<g style="fill:#848400; fill-opacity:0.0; 
stroke:#848400; stroke-width:100; stroke-opacity:1; 
stroke-linecap:round; stroke-linejoin:round;">
<path style="fill:#848400; fill-opacity:0.0; 
stroke:#848400; stroke-width:100; stroke-opacity:1; 
stroke-linecap:round; stroke-linejoin:round;fill:none"
d="M 35500,27500
35250,27250
35000,27250
35000,27750
35250,27750
35500,27500
Z" /> 
</g>
<g style="fill:#848400; fill-opacity:0.0; 
stroke:#848400; stroke-width:60; stroke-opacity:1; 
stroke-linecap:round; stroke-linejoin:round;">
<path d="M34320 50270
L34270 50250
L34220 50200
L34150 50130
L34100 50100
L34060 50100
" />
<path d="M34080 50220
L34030 50200
L33980 50150
L33960 50050
L33960 49890
L33980 49790
L34030 49750
L34080 49720
L34170 49720
L34220 49750
L34270 49790
L34290 49890
L34290 50050
L34270 50150
L34220 50200
L34170 50220
L34080 50220
" />
<path d="M34600 49720
L34650 49720
L34700 49750
L34720 49770
L34750 49820
L34770 49910
L34770 50030
L34750 50130
L34720 50170
L34700 50200
L34650 50220
L34600 50220
L34560 50200
L34530 50170
L34510 50130
L34480 50030
L34480 49910
L34510 49820
L34530 49770
L34560 49750
L34600 49720
" />
</g>
<g style="fill:#848400; fill-opacity:0.0; 
stroke:#848400; stroke-width:100; stroke-opacity:1; 
stroke-linecap:round; stroke-linejoin:round;">
<path style="fill:#848400; fill-opacity:0.0; 
stroke:#848400; stroke-width:100; stroke-opacity:1; 
stroke-linecap:round; stroke-linejoin:round;fill:none"
d="M 35500,50000
35250,49750
35000,49750
35000,50250
35250,50250
35500,50000
Z" /> 
</g>
<g style="fill:#848400; fill-opacity:0.0; 
stroke:#848400; stroke-width:60; stroke-opacity:1; 
stroke-linecap:round; stroke-linejoin:round;">
<path d="M34320 46270
L34270 46250
L34220 46200
L34150 46130
L34100 46100
L34060 46100
" />
<path d="M34080 46220
L34030 46200
L33980 46150
L33960 46050
L33960 45890
L33980 45790
L34030 45750
L34080 45720
L34170 45720
L34220 45750
L34270 45790
L34290 45890
L34290 46050
L34270 46150
L34220 46200
L34170 46220
L34080 46220
" />
<path d="M34770 46220
L34480 46220
" />
<path d="M34630 46220
L34630 45720
L34580 45790
L34530 45840
L34480 45860
" />
</g>
<g style="fill:#848400; fill-opacity:0.0; 
stroke:#848400; stroke-width:100; stroke-opacity:1; 
stroke-linecap:round; stroke-linejoin:round;">
<path style="fill:#848400; fill-opacity:0.0; 
stroke:#848400; stroke-width:100; stroke-opacity:1; 
stroke-linecap:round; stroke-linejoin:round;fill:none"
d="M 35500,46000
35250,45750
35000,45750
35000,46250
35250,46250
35500,46000
Z" /> 
</g>
<g style="fill:#848400; fill-opacity:0.0; 
stroke:#848400; stroke-width:60; stroke-opacity:1; 
stroke-linecap:round; stroke-linejoin:round;">
<path d="M71580 45270
L71530 45250
L71480 45200
L71410 45130
L71360 45100
L71320 45100
" />
<path d="M71340 45220
L71290 45200
L71240 45150
L71220 45050
L71220 44890
L71240 44790
L71290 44750
L71340 44720
L71430 44720
L71480 44750
L71530 44790
L71550 44890
L71550 45050
L71530 45150
L71480 45200
L71430 45220
L71340 45220
" />
<path d="M72030 45220
L71740 45220
" />
<path d="M71890 45220
L71890 44720
L71840 44790
L71790 44840
L71740 44860
" />
<path d="M72240 45030
L72630 45030
" />
<path d="M72430 45220
L72430 44840
" />
</g>
<g style="fill:#848400; fill-opacity:0.0; 
stroke:#848400; stroke-width:100; stroke-opacity:1; 
stroke-linecap:round; stroke-linejoin:round;">
<path style="fill:#848400; fill-opacity:0.0; 
stroke:#848400; stroke-width:100; stroke-opacity:1; 
stroke-linecap:round; stroke-linejoin:round;fill:none"
d="M 70500,45000
70750,45250
71000,45250
71000,44750
70750,44750
70500,45000
Z" /> 
</g>
<g style="fill:#848400; fill-opacity:0.0; 
stroke:#848400; stroke-width:60; stroke-opacity:1; 
stroke-linecap:round; stroke-linejoin:round;">
<path d="M71240 28720
L71240 28220
" />
<path d="M71580 28220
L71630 28220
L71670 28250
L71700 28270
L71720 28320
L71740 28410
L71740 28530
L71720 28630
L71700 28670
L71670 28700
L71630 28720
L71580 28720
L71530 28700
L71510 28670
L71480 28630
L71460 28530
L71460 28410
L71480 28320
L71510 28270
L71530 28250
L71580 28220
" />
<path d="M71960 28530
L72340 28530
" />
</g>
<g style="fill:#848400; fill-opacity:0.0; 
stroke:#848400; stroke-width:100; stroke-opacity:1; 
stroke-linecap:round; stroke-linejoin:round;">
<path style="fill:#848400; fill-opacity:0.0; 
stroke:#848400; stroke-width:100; stroke-opacity:1; 
stroke-linecap:round; stroke-linejoin:round;fill:none"
d="M 70500,28500
70750,28750
71000,28750
71000,28250
70750,28250
70500,28500
Z" /> 
</g>
<g style="fill:#848400; fill-opacity:0.0; 
stroke:#848400; stroke-width:60; stroke-opacity:1; 
stroke-linecap:round; stroke-linejoin:round;">
</g>
<g style="fill:#840000; fill-opacity:0.0; 
stroke:#840000; stroke-width:60; stroke-opacity:1; 
stroke-linecap:round; stroke-linejoin:round;">
<path d="M55720 16580
L55720 16270
L55910 16440
L55910 16370
L55940 16320
L55960 16300
L56010 16270
L56130 16270
L56170 16300
L56200 16320
L56220 16370
L56220 16510
L56200 16560
L56170 16580
" />
<path d="M55890 16110
L56220 15990
L55890 15870
" />
<path d="M55720 15730
L55720 15420
L55910 15580
L55910 15510
L55940 15460
L55960 15440
L56010 15420
L56130 15420
L56170 15440
L56200 15460
L56220 15510
L56220 15660
L56200 15700
L56170 15730
" />
</g>
<g style="fill:#840000; fill-opacity:0.0; 
stroke:#840000; stroke-width:100; stroke-opacity:1; 
stroke-linecap:round; stroke-linejoin:round;">
<path style="fill:#840000; fill-opacity:0.0; 
stroke:#840000; stroke-width:100; stroke-opacity:1; 
stroke-linecap:round; stroke-linejoin:round;fill:none"
d="M 56000,17000
56440,16750
56440,15190
56000,15190
55560,15190
55560,16750
56000,17000
Z" /> 
</g>
<g style="fill:#840000; fill-opacity:0.0; 
stroke:#840000; stroke-width:60; stroke-opacity:1; 
stroke-linecap:round; stroke-linejoin:round;">
<path d="M55220 39080
L55220 38770
L55410 38940
L55410 38870
L55440 38820
L55460 38800
L55510 38770
L55630 38770
L55670 38800
L55700 38820
L55720 38870
L55720 39010
L55700 39060
L55670 39080
" />
<path d="M55390 38610
L55720 38490
L55390 38370
" />
<path d="M55220 38230
L55220 37920
L55410 38080
L55410 38010
L55440 37960
L55460 37940
L55510 37920
L55630 37920
L55670 37940
L55700 37960
L55720 38010
L55720 38160
L55700 38200
L55670 38230
" />
</g>
<g style="fill:#840000; fill-opacity:0.0; 
stroke:#840000; stroke-width:100; stroke-opacity:1; 
stroke-linecap:round; stroke-linejoin:round;">
<path style="fill:#840000; fill-opacity:0.0; 
stroke:#840000; stroke-width:100; stroke-opacity:1; 
stroke-linecap:round; stroke-linejoin:round;fill:none"
d="M 55500,39500
55940,39250
55940,37690
55500,37690
55060,37690
55060,39250
55500,39500
Z" /> 
</g>
<g style="fill:#840000; fill-opacity:0.0; 
stroke:#840000; stroke-width:0; stroke-opacity:1; 
stroke-linecap:round; stroke-linejoin:round;">
</g>
<g style="fill:#008400; fill-opacity:0.0; 
stroke:#008400; stroke-width:0; stroke-opacity:1; 
stroke-linecap:round; stroke-linejoin:round;">
</g>
<g style="fill:#008400; fill-opacity:1.0; 
stroke:#008400; stroke-width:100; stroke-opacity:1; 
stroke-linecap:round; stroke-linejoin:round;">
<circle cx="56000" cy="18500" r="200" /> 
</g>
<g style="fill:#008400; fill-opacity:1.0; 
stroke:#008400; stroke-width:0; stroke-opacity:1; 
stroke-linecap:round; stroke-linejoin:round;">
</g>
<g style="fill:#008400; fill-opacity:1.0; 
stroke:#008400; stroke-width:100; stroke-opacity:1; 
stroke-linecap:round; stroke-linejoin:round;">
<circle cx="55500" cy="40000" r="200" /> 
</g> 
</svg>
