<?xml version="1.0" standalone="no"?>
 <!DOCTYPE svg PUBLIC "-//W3C//DTD SVG 1.1//EN" 
 "http://www.w3.org/Graphics/SVG/1.1/DTD/svg11.dtd"> 
<svg xmlns="http://www.w3.org/2000/svg" version="1.1" 
    width="29.7002cm" height="21.0007cm" viewBox="0 0 116930 82680 ">
<title>SVG Picture created as rf_power-RF Power system.svg date 2019/10/21 11:48:44 </title>
  <desc>Picture generated by Eeschema-SVG </desc>
<g style="fill:#000000; fill-opacity:1;stroke:#000000; stroke-opacity:1;
stroke-linecap:round; stroke-linejoin:round; "
 transform="translate(0 0) scale(1 1)">
</g>
<g style="fill:#000000; fill-opacity:0.0; 
stroke:#000000; stroke-width:0; stroke-opacity:1; 
stroke-linecap:round; stroke-linejoin:round;">
<g >
</g>
<g style="fill:#840000; fill-opacity:0.0; 
stroke:#840000; stroke-width:0; stroke-opacity:1; 
stroke-linecap:round; stroke-linejoin:round;">
</g>
<g style="fill:#840000; fill-opacity:0.0; 
stroke:#840000; stroke-width:200; stroke-opacity:1; 
stroke-linecap:round; stroke-linejoin:round;">
<path style="fill:#840000; fill-opacity:0.0; 
stroke:#840000; stroke-width:200; stroke-opacity:1; 
stroke-linecap:round; stroke-linejoin:round;fill:none"
d="M 25700,41300
27300,41300
Z" /> 
<path style="fill:#840000; fill-opacity:0.0; 
stroke:#840000; stroke-width:200; stroke-opacity:1; 
stroke-linecap:round; stroke-linejoin:round;fill:none"
d="M 25700,40700
27300,40700
Z" /> 
</g>
<g style="fill:#840000; fill-opacity:0.0; 
stroke:#840000; stroke-width:60; stroke-opacity:1; 
stroke-linecap:round; stroke-linejoin:round;">
<path d="M26500 40600
L26500 39500
" />
<path d="M26500 41400
L26500 42500
" />
</g>
<g style="fill:#008484; fill-opacity:0.0; 
stroke:#008484; stroke-width:60; stroke-opacity:1; 
stroke-linecap:round; stroke-linejoin:round;">
<path d="M28070 40730
L28050 40760
L27980 40780
L27930 40780
L27860 40760
L27810 40710
L27790 40660
L27760 40570
L27760 40500
L27790 40400
L27810 40350
L27860 40310
L27930 40280
L27980 40280
L28050 40310
L28070 40330
" />
<path d="M28550 40780
L28260 40780
" />
<path d="M28410 40780
L28410 40280
L28360 40350
L28310 40400
L28260 40420
" />
<path d="M28840 40500
L28790 40470
L28760 40450
L28740 40400
L28740 40380
L28760 40330
L28790 40310
L28840 40280
L28930 40280
L28980 40310
L29000 40330
L29030 40380
L29030 40400
L29000 40450
L28980 40470
L28930 40500
L28840 40500
L28790 40520
L28760 40540
L28740 40590
L28740 40690
L28760 40730
L28790 40760
L28840 40780
L28930 40780
L28980 40760
L29000 40730
L29030 40690
L29030 40590
L29000 40540
L28980 40520
L28930 40500
" />
<path d="M28050 41690
L27770 41690
" />
<path d="M27910 41690
L27910 41190
L27860 41260
L27820 41310
L27770 41330
" />
<path d="M28360 41190
L28410 41190
L28460 41220
L28480 41240
L28510 41290
L28530 41380
L28530 41500
L28510 41600
L28480 41640
L28460 41670
L28410 41690
L28360 41690
L28320 41670
L28290 41640
L28270 41600
L28240 41500
L28240 41380
L28270 41290
L28290 41240
L28320 41220
L28360 41190
" />
<path d="M28960 41360
L28960 41690
" />
<path d="M28740 41360
L28740 41620
L28770 41670
L28820 41690
L28890 41690
L28930 41670
L28960 41640
" />
</g>
</g>
<g style="fill:#008484; fill-opacity:0.0; 
stroke:#008484; stroke-width:0; stroke-opacity:1; 
stroke-linecap:round; stroke-linejoin:round;">
<g >
</g>
<g style="fill:#840000; fill-opacity:0.0; 
stroke:#840000; stroke-width:0; stroke-opacity:1; 
stroke-linecap:round; stroke-linejoin:round;">
</g>
<g style="fill:#840000; fill-opacity:0.0; 
stroke:#840000; stroke-width:60; stroke-opacity:1; 
stroke-linecap:round; stroke-linejoin:round;">
<path style="fill:#840000; fill-opacity:0.0; 
stroke:#840000; stroke-width:60; stroke-opacity:1; 
stroke-linecap:round; stroke-linejoin:round;fill:none"
d="M 67000,35500
67000,36000
67500,36000
67000,36500
66500,36000
67000,36000
Z" /> 
</g>
<g style="fill:#008484; fill-opacity:0.0; 
stroke:#008484; stroke-width:60; stroke-opacity:1; 
stroke-linecap:round; stroke-linejoin:round;">
<path d="M66660 37000
L66620 36970
L66550 36970
L66470 37000
L66430 37040
L66400 37090
L66380 37190
L66380 37260
L66400 37350
L66430 37400
L66470 37450
L66550 37470
L66590 37470
L66660 37450
L66690 37420
L66690 37260
L66590 37260
" />
<path d="M66900 37470
L66900 36970
L67190 37470
L67190 36970
" />
<path d="M67430 37470
L67430 36970
L67550 36970
L67620 37000
L67660 37040
L67690 37090
L67710 37190
L67710 37260
L67690 37350
L67660 37400
L67620 37450
L67550 37470
L67430 37470
" />
</g>
</g>
<g style="fill:#008484; fill-opacity:0.0; 
stroke:#008484; stroke-width:0; stroke-opacity:1; 
stroke-linecap:round; stroke-linejoin:round;">
<g >
</g>
<g style="fill:#840000; fill-opacity:0.0; 
stroke:#840000; stroke-width:0; stroke-opacity:1; 
stroke-linecap:round; stroke-linejoin:round;">
</g>
<g style="fill:#840000; fill-opacity:0.0; 
stroke:#840000; stroke-width:60; stroke-opacity:1; 
stroke-linecap:round; stroke-linejoin:round;">
<path style="fill:#840000; fill-opacity:0.0; 
stroke:#840000; stroke-width:60; stroke-opacity:1; 
stroke-linecap:round; stroke-linejoin:round;fill:none"
d="M 66500,52000
66500,52500
67000,52500
66500,53000
66000,52500
66500,52500
Z" /> 
</g>
<g style="fill:#008484; fill-opacity:0.0; 
stroke:#008484; stroke-width:60; stroke-opacity:1; 
stroke-linecap:round; stroke-linejoin:round;">
<path d="M66160 53500
L66120 53470
L66050 53470
L65970 53500
L65930 53540
L65900 53590
L65880 53690
L65880 53760
L65900 53850
L65930 53900
L65970 53950
L66050 53970
L66090 53970
L66160 53950
L66190 53920
L66190 53760
L66090 53760
" />
<path d="M66400 53970
L66400 53470
L66690 53970
L66690 53470
" />
<path d="M66930 53970
L66930 53470
L67050 53470
L67120 53500
L67160 53540
L67190 53590
L67210 53690
L67210 53760
L67190 53850
L67160 53900
L67120 53950
L67050 53970
L66930 53970
" />
</g>
</g>
<g style="fill:#008484; fill-opacity:0.0; 
stroke:#008484; stroke-width:0; stroke-opacity:1; 
stroke-linecap:round; stroke-linejoin:round;">
<g >
</g>
<g style="fill:#840000; fill-opacity:0.0; 
stroke:#840000; stroke-width:0; stroke-opacity:1; 
stroke-linecap:round; stroke-linejoin:round;">
</g>
<g style="fill:#840000; fill-opacity:0.0; 
stroke:#840000; stroke-width:200; stroke-opacity:1; 
stroke-linecap:round; stroke-linejoin:round;">
<path style="fill:#840000; fill-opacity:0.0; 
stroke:#840000; stroke-width:200; stroke-opacity:1; 
stroke-linecap:round; stroke-linejoin:round;fill:none"
d="M 56700,33300
58300,33300
Z" /> 
<path style="fill:#840000; fill-opacity:0.0; 
stroke:#840000; stroke-width:200; stroke-opacity:1; 
stroke-linecap:round; stroke-linejoin:round;fill:none"
d="M 56700,32700
58300,32700
Z" /> 
</g>
<g style="fill:#840000; fill-opacity:0.0; 
stroke:#840000; stroke-width:60; stroke-opacity:1; 
stroke-linecap:round; stroke-linejoin:round;">
<path d="M57500 32600
L57500 31500
" />
<path d="M57500 33400
L57500 34500
" />
</g>
<g style="fill:#008484; fill-opacity:0.0; 
stroke:#008484; stroke-width:60; stroke-opacity:1; 
stroke-linecap:round; stroke-linejoin:round;">
<path d="M59070 32730
L59050 32760
L58980 32780
L58930 32780
L58860 32760
L58810 32710
L58790 32660
L58760 32570
L58760 32500
L58790 32400
L58810 32350
L58860 32310
L58930 32280
L58980 32280
L59050 32310
L59070 32330
" />
<path d="M59260 32330
L59290 32310
L59340 32280
L59450 32280
L59500 32310
L59530 32330
L59550 32380
L59550 32420
L59530 32500
L59240 32780
L59550 32780
" />
<path d="M60030 32780
L59740 32780
" />
<path d="M59880 32780
L59880 32280
L59840 32350
L59790 32400
L59740 32420
" />
<path d="M59050 33690
L58770 33690
" />
<path d="M58910 33690
L58910 33190
L58860 33260
L58810 33310
L58770 33330
" />
<path d="M59480 33360
L59480 33690
" />
<path d="M59270 33360
L59270 33620
L59290 33670
L59340 33690
L59410 33690
L59460 33670
L59480 33640
" />
</g>
</g>
<g style="fill:#008484; fill-opacity:0.0; 
stroke:#008484; stroke-width:0; stroke-opacity:1; 
stroke-linecap:round; stroke-linejoin:round;">
<g >
</g>
<g style="fill:#840000; fill-opacity:0.0; 
stroke:#840000; stroke-width:0; stroke-opacity:1; 
stroke-linecap:round; stroke-linejoin:round;">
</g>
<g style="fill:#840000; fill-opacity:0.0; 
stroke:#840000; stroke-width:200; stroke-opacity:1; 
stroke-linecap:round; stroke-linejoin:round;">
<path style="fill:#840000; fill-opacity:0.0; 
stroke:#840000; stroke-width:200; stroke-opacity:1; 
stroke-linecap:round; stroke-linejoin:round;fill:none"
d="M 72700,33300
74300,33300
Z" /> 
<path style="fill:#840000; fill-opacity:0.0; 
stroke:#840000; stroke-width:200; stroke-opacity:1; 
stroke-linecap:round; stroke-linejoin:round;fill:none"
d="M 72700,32700
74300,32700
Z" /> 
</g>
<g style="fill:#840000; fill-opacity:0.0; 
stroke:#840000; stroke-width:60; stroke-opacity:1; 
stroke-linecap:round; stroke-linejoin:round;">
<path d="M73500 32600
L73500 31500
" />
<path d="M73500 33400
L73500 34500
" />
</g>
<g style="fill:#008484; fill-opacity:0.0; 
stroke:#008484; stroke-width:60; stroke-opacity:1; 
stroke-linecap:round; stroke-linejoin:round;">
<path d="M75070 32730
L75050 32760
L74980 32780
L74930 32780
L74860 32760
L74810 32710
L74790 32660
L74760 32570
L74760 32500
L74790 32400
L74810 32350
L74860 32310
L74930 32280
L74980 32280
L75050 32310
L75070 32330
" />
<path d="M75260 32330
L75290 32310
L75340 32280
L75450 32280
L75500 32310
L75530 32330
L75550 32380
L75550 32420
L75530 32500
L75240 32780
L75550 32780
" />
<path d="M75980 32450
L75980 32780
" />
<path d="M75860 32260
L75740 32610
L76050 32610
" />
<path d="M75050 33690
L74770 33690
" />
<path d="M74910 33690
L74910 33190
L74860 33260
L74810 33310
L74770 33330
" />
<path d="M75480 33360
L75480 33690
" />
<path d="M75270 33360
L75270 33620
L75290 33670
L75340 33690
L75410 33690
L75460 33670
L75480 33640
" />
</g>
</g>
<g style="fill:#008484; fill-opacity:0.0; 
stroke:#008484; stroke-width:0; stroke-opacity:1; 
stroke-linecap:round; stroke-linejoin:round;">
<g >
</g>
<g style="fill:#840000; fill-opacity:0.0; 
stroke:#840000; stroke-width:0; stroke-opacity:1; 
stroke-linecap:round; stroke-linejoin:round;">
</g>
<g style="fill:#840000; fill-opacity:0.0; 
stroke:#840000; stroke-width:200; stroke-opacity:1; 
stroke-linecap:round; stroke-linejoin:round;">
<path style="fill:#840000; fill-opacity:0.0; 
stroke:#840000; stroke-width:200; stroke-opacity:1; 
stroke-linecap:round; stroke-linejoin:round;fill:none"
d="M 72200,49300
73800,49300
Z" /> 
<path style="fill:#840000; fill-opacity:0.0; 
stroke:#840000; stroke-width:200; stroke-opacity:1; 
stroke-linecap:round; stroke-linejoin:round;fill:none"
d="M 72200,48700
73800,48700
Z" /> 
</g>
<g style="fill:#840000; fill-opacity:0.0; 
stroke:#840000; stroke-width:60; stroke-opacity:1; 
stroke-linecap:round; stroke-linejoin:round;">
<path d="M73000 48600
L73000 47500
" />
<path d="M73000 49400
L73000 50500
" />
</g>
<g style="fill:#008484; fill-opacity:0.0; 
stroke:#008484; stroke-width:60; stroke-opacity:1; 
stroke-linecap:round; stroke-linejoin:round;">
<path d="M74570 48730
L74550 48760
L74480 48780
L74430 48780
L74360 48760
L74310 48710
L74290 48660
L74260 48570
L74260 48500
L74290 48400
L74310 48350
L74360 48310
L74430 48280
L74480 48280
L74550 48310
L74570 48330
" />
<path d="M74760 48330
L74790 48310
L74840 48280
L74950 48280
L75000 48310
L75030 48330
L75050 48380
L75050 48420
L75030 48500
L74740 48780
L75050 48780
" />
<path d="M75220 48280
L75530 48280
L75360 48470
L75430 48470
L75480 48500
L75500 48520
L75530 48570
L75530 48690
L75500 48730
L75480 48760
L75430 48780
L75290 48780
L75240 48760
L75220 48730
" />
<path d="M74550 49690
L74270 49690
" />
<path d="M74410 49690
L74410 49190
L74360 49260
L74310 49310
L74270 49330
" />
<path d="M74980 49360
L74980 49690
" />
<path d="M74770 49360
L74770 49620
L74790 49670
L74840 49690
L74910 49690
L74960 49670
L74980 49640
" />
</g>
</g>
<g style="fill:#008484; fill-opacity:0.0; 
stroke:#008484; stroke-width:0; stroke-opacity:1; 
stroke-linecap:round; stroke-linejoin:round;">
<g >
</g>
<g style="fill:#840000; fill-opacity:0.0; 
stroke:#840000; stroke-width:0; stroke-opacity:1; 
stroke-linecap:round; stroke-linejoin:round;">
</g>
<g style="fill:#840000; fill-opacity:0.0; 
stroke:#840000; stroke-width:200; stroke-opacity:1; 
stroke-linecap:round; stroke-linejoin:round;">
<path style="fill:#840000; fill-opacity:0.0; 
stroke:#840000; stroke-width:200; stroke-opacity:1; 
stroke-linecap:round; stroke-linejoin:round;fill:none"
d="M 56700,49300
58300,49300
Z" /> 
<path style="fill:#840000; fill-opacity:0.0; 
stroke:#840000; stroke-width:200; stroke-opacity:1; 
stroke-linecap:round; stroke-linejoin:round;fill:none"
d="M 56700,48700
58300,48700
Z" /> 
</g>
<g style="fill:#840000; fill-opacity:0.0; 
stroke:#840000; stroke-width:60; stroke-opacity:1; 
stroke-linecap:round; stroke-linejoin:round;">
<path d="M57500 48600
L57500 47500
" />
<path d="M57500 49400
L57500 50500
" />
</g>
<g style="fill:#008484; fill-opacity:0.0; 
stroke:#008484; stroke-width:60; stroke-opacity:1; 
stroke-linecap:round; stroke-linejoin:round;">
<path d="M59070 48730
L59050 48760
L58980 48780
L58930 48780
L58860 48760
L58810 48710
L58790 48660
L58760 48570
L58760 48500
L58790 48400
L58810 48350
L58860 48310
L58930 48280
L58980 48280
L59050 48310
L59070 48330
" />
<path d="M59260 48330
L59290 48310
L59340 48280
L59450 48280
L59500 48310
L59530 48330
L59550 48380
L59550 48420
L59530 48500
L59240 48780
L59550 48780
" />
<path d="M59740 48330
L59760 48310
L59810 48280
L59930 48280
L59980 48310
L60000 48330
L60030 48380
L60030 48420
L60000 48500
L59720 48780
L60030 48780
" />
<path d="M59050 49690
L58770 49690
" />
<path d="M58910 49690
L58910 49190
L58860 49260
L58810 49310
L58770 49330
" />
<path d="M59480 49360
L59480 49690
" />
<path d="M59270 49360
L59270 49620
L59290 49670
L59340 49690
L59410 49690
L59460 49670
L59480 49640
" />
</g>
</g>
<g style="fill:#008484; fill-opacity:0.0; 
stroke:#008484; stroke-width:0; stroke-opacity:1; 
stroke-linecap:round; stroke-linejoin:round;">
<g >
</g>
<g style="fill:#840000; fill-opacity:0.0; 
stroke:#840000; stroke-width:0; stroke-opacity:1; 
stroke-linecap:round; stroke-linejoin:round;">
</g>
<g style="fill:#840000; fill-opacity:0.0; 
stroke:#840000; stroke-width:60; stroke-opacity:1; 
stroke-linecap:round; stroke-linejoin:round;">
<path style="fill:#840000; fill-opacity:0.0; 
stroke:#840000; stroke-width:60; stroke-opacity:1; 
stroke-linecap:round; stroke-linejoin:round;fill:none"
d="M 57500,52000
57500,52500
58000,52500
57500,53000
57000,52500
57500,52500
Z" /> 
</g>
<g style="fill:#008484; fill-opacity:0.0; 
stroke:#008484; stroke-width:60; stroke-opacity:1; 
stroke-linecap:round; stroke-linejoin:round;">
<path d="M57160 53500
L57120 53470
L57050 53470
L56970 53500
L56930 53540
L56900 53590
L56880 53690
L56880 53760
L56900 53850
L56930 53900
L56970 53950
L57050 53970
L57090 53970
L57160 53950
L57190 53920
L57190 53760
L57090 53760
" />
<path d="M57400 53970
L57400 53470
L57690 53970
L57690 53470
" />
<path d="M57930 53970
L57930 53470
L58050 53470
L58120 53500
L58160 53540
L58190 53590
L58210 53690
L58210 53760
L58190 53850
L58160 53900
L58120 53950
L58050 53970
L57930 53970
" />
</g>
</g>
<g style="fill:#008484; fill-opacity:0.0; 
stroke:#008484; stroke-width:0; stroke-opacity:1; 
stroke-linecap:round; stroke-linejoin:round;">
<g >
</g>
<g style="fill:#840000; fill-opacity:0.0; 
stroke:#840000; stroke-width:0; stroke-opacity:1; 
stroke-linecap:round; stroke-linejoin:round;">
</g>
<g style="fill:#840000; fill-opacity:0.0; 
stroke:#840000; stroke-width:60; stroke-opacity:1; 
stroke-linecap:round; stroke-linejoin:round;">
<path style="fill:#840000; fill-opacity:0.0; 
stroke:#840000; stroke-width:60; stroke-opacity:1; 
stroke-linecap:round; stroke-linejoin:round;fill:none"
d="M 57500,35500
57500,36000
58000,36000
57500,36500
57000,36000
57500,36000
Z" /> 
</g>
<g style="fill:#008484; fill-opacity:0.0; 
stroke:#008484; stroke-width:60; stroke-opacity:1; 
stroke-linecap:round; stroke-linejoin:round;">
<path d="M57160 37000
L57120 36970
L57050 36970
L56970 37000
L56930 37040
L56900 37090
L56880 37190
L56880 37260
L56900 37350
L56930 37400
L56970 37450
L57050 37470
L57090 37470
L57160 37450
L57190 37420
L57190 37260
L57090 37260
" />
<path d="M57400 37470
L57400 36970
L57690 37470
L57690 36970
" />
<path d="M57930 37470
L57930 36970
L58050 36970
L58120 37000
L58160 37040
L58190 37090
L58210 37190
L58210 37260
L58190 37350
L58160 37400
L58120 37450
L58050 37470
L57930 37470
" />
</g>
</g>
<g style="fill:#008484; fill-opacity:0.0; 
stroke:#008484; stroke-width:0; stroke-opacity:1; 
stroke-linecap:round; stroke-linejoin:round;">
<g >
</g>
<g style="fill:#840000; fill-opacity:0.0; 
stroke:#840000; stroke-width:0; stroke-opacity:1; 
stroke-linecap:round; stroke-linejoin:round;">
</g>
<g style="fill:#840000; fill-opacity:0.0; 
stroke:#840000; stroke-width:60; stroke-opacity:1; 
stroke-linecap:round; stroke-linejoin:round;">
<path style="fill:#840000; fill-opacity:0.0; 
stroke:#840000; stroke-width:60; stroke-opacity:1; 
stroke-linecap:round; stroke-linejoin:round;fill:none"
d="M 73500,35500
73500,36000
74000,36000
73500,36500
73000,36000
73500,36000
Z" /> 
</g>
<g style="fill:#008484; fill-opacity:0.0; 
stroke:#008484; stroke-width:60; stroke-opacity:1; 
stroke-linecap:round; stroke-linejoin:round;">
<path d="M73160 37000
L73120 36970
L73050 36970
L72970 37000
L72930 37040
L72900 37090
L72880 37190
L72880 37260
L72900 37350
L72930 37400
L72970 37450
L73050 37470
L73090 37470
L73160 37450
L73190 37420
L73190 37260
L73090 37260
" />
<path d="M73400 37470
L73400 36970
L73690 37470
L73690 36970
" />
<path d="M73930 37470
L73930 36970
L74050 36970
L74120 37000
L74160 37040
L74190 37090
L74210 37190
L74210 37260
L74190 37350
L74160 37400
L74120 37450
L74050 37470
L73930 37470
" />
</g>
</g>
<g style="fill:#008484; fill-opacity:0.0; 
stroke:#008484; stroke-width:0; stroke-opacity:1; 
stroke-linecap:round; stroke-linejoin:round;">
<g >
</g>
<g style="fill:#840000; fill-opacity:0.0; 
stroke:#840000; stroke-width:0; stroke-opacity:1; 
stroke-linecap:round; stroke-linejoin:round;">
</g>
<g style="fill:#840000; fill-opacity:0.0; 
stroke:#840000; stroke-width:60; stroke-opacity:1; 
stroke-linecap:round; stroke-linejoin:round;">
<path style="fill:#840000; fill-opacity:0.0; 
stroke:#840000; stroke-width:60; stroke-opacity:1; 
stroke-linecap:round; stroke-linejoin:round;fill:none"
d="M 73000,52000
73000,52500
73500,52500
73000,53000
72500,52500
73000,52500
Z" /> 
</g>
<g style="fill:#008484; fill-opacity:0.0; 
stroke:#008484; stroke-width:60; stroke-opacity:1; 
stroke-linecap:round; stroke-linejoin:round;">
<path d="M72660 53500
L72620 53470
L72550 53470
L72470 53500
L72430 53540
L72400 53590
L72380 53690
L72380 53760
L72400 53850
L72430 53900
L72470 53950
L72550 53970
L72590 53970
L72660 53950
L72690 53920
L72690 53760
L72590 53760
" />
<path d="M72900 53970
L72900 53470
L73190 53970
L73190 53470
" />
<path d="M73430 53970
L73430 53470
L73550 53470
L73620 53500
L73660 53540
L73690 53590
L73710 53690
L73710 53760
L73690 53850
L73660 53900
L73620 53950
L73550 53970
L73430 53970
" />
</g>
</g>
<g style="fill:#008484; fill-opacity:0.0; 
stroke:#008484; stroke-width:0; stroke-opacity:1; 
stroke-linecap:round; stroke-linejoin:round;">
<g >
</g>
<g style="fill:#840000; fill-opacity:0.0; 
stroke:#840000; stroke-width:0; stroke-opacity:1; 
stroke-linecap:round; stroke-linejoin:round;">
</g>
<g style="fill:#840000; fill-opacity:0.0; 
stroke:#840000; stroke-width:100; stroke-opacity:1; 
stroke-linecap:round; stroke-linejoin:round;">
<circle cx="23000" cy="22750" r="750" /> 
</g>
<g style="fill:#840000; fill-opacity:0.0; 
stroke:#840000; stroke-width:200; stroke-opacity:1; 
stroke-linecap:round; stroke-linejoin:round;">
<path style="fill:#840000; fill-opacity:0.0; 
stroke:#840000; stroke-width:200; stroke-opacity:1; 
stroke-linecap:round; stroke-linejoin:round;fill:none"
d="M 22550,22750
23450,22750
Z" /> 
</g>
<g style="fill:#840000; fill-opacity:0.0; 
stroke:#840000; stroke-width:60; stroke-opacity:1; 
stroke-linecap:round; stroke-linejoin:round;">
<path style="fill:#840000; fill-opacity:0.0; 
stroke:#840000; stroke-width:60; stroke-opacity:1; 
stroke-linecap:round; stroke-linejoin:round;fill:none"
d="M 23000,24000
23000,23500
Z" /> 
</g>
<g style="fill:#840000; fill-opacity:0.0; 
stroke:#840000; stroke-width:200; stroke-opacity:1; 
stroke-linecap:round; stroke-linejoin:round;">
<path style="fill:#840000; fill-opacity:0.0; 
stroke:#840000; stroke-width:200; stroke-opacity:1; 
stroke-linecap:round; stroke-linejoin:round;fill:none"
d="M 23000,23200
23000,22300
Z" /> 
</g>
<g style="fill:#008484; fill-opacity:0.0; 
stroke:#008484; stroke-width:200; stroke-opacity:1; 
stroke-linecap:round; stroke-linejoin:round;">
</g>
<g style="fill:#008484; fill-opacity:0.0; 
stroke:#008484; stroke-width:60; stroke-opacity:1; 
stroke-linecap:round; stroke-linejoin:round;">
<path d="M22090 21300
L22470 21300
" />
<path d="M22280 21490
L22280 21110
" />
<path d="M22640 20990
L22800 21490
L22970 20990
" />
<path d="M23140 21490
L23140 20990
L23260 20990
L23330 21020
L23380 21060
L23400 21110
L23420 21210
L23420 21280
L23400 21370
L23380 21420
L23330 21470
L23260 21490
L23140 21490
" />
<path d="M23920 21440
L23900 21470
L23830 21490
L23780 21490
L23710 21470
L23660 21420
L23640 21370
L23610 21280
L23610 21210
L23640 21110
L23660 21060
L23710 21020
L23780 20990
L23830 20990
L23900 21020
L23920 21040
" />
</g>
</g>
<g style="fill:#008484; fill-opacity:0.0; 
stroke:#008484; stroke-width:0; stroke-opacity:1; 
stroke-linecap:round; stroke-linejoin:round;">
<g >
</g>
<g style="fill:#840000; fill-opacity:0.0; 
stroke:#840000; stroke-width:0; stroke-opacity:1; 
stroke-linecap:round; stroke-linejoin:round;">
</g>
<g style="fill:#840000; fill-opacity:0.0; 
stroke:#840000; stroke-width:60; stroke-opacity:1; 
stroke-linecap:round; stroke-linejoin:round;">
<path style="fill:#840000; fill-opacity:0.0; 
stroke:#840000; stroke-width:60; stroke-opacity:1; 
stroke-linecap:round; stroke-linejoin:round;fill:none"
d="M 31000,39000
31020,39000
Z" /> 
<path style="fill:#840000; fill-opacity:0.0; 
stroke:#840000; stroke-width:60; stroke-opacity:1; 
stroke-linecap:round; stroke-linejoin:round;fill:none"
d="M 32000,39000
32010,39000
Z" /> 
<path style="fill:#840000; fill-opacity:0.0; 
stroke:#840000; stroke-width:60; stroke-opacity:1; 
stroke-linecap:round; stroke-linejoin:round;fill:none"
d="M 31660,37910
32390,38330
31380,40090
30650,39660
31660,37910
Z" /> 
<path d="M32000 39000
L33000 39000
" />
<path d="M31000 39000
L30000 39000
" />
</g>
<g style="fill:#008484; fill-opacity:0.0; 
stroke:#008484; stroke-width:60; stroke-opacity:1; 
stroke-linecap:round; stroke-linejoin:round;">
<path d="M31080 36240
L30910 36240
" />
<path d="M30910 36500
L30910 36000
L31150 36000
" />
<path d="M31510 36240
L31580 36260
L31600 36290
L31630 36330
L31630 36410
L31600 36450
L31580 36480
L31530 36500
L31340 36500
L31340 36000
L31510 36000
L31550 36030
L31580 36050
L31600 36100
L31600 36140
L31580 36190
L31550 36220
L31510 36240
L31340 36240
" />
<path d="M31790 36000
L32100 36000
L31940 36190
L32010 36190
L32050 36220
L32080 36240
L32100 36290
L32100 36410
L32080 36450
L32050 36480
L32010 36500
L31860 36500
L31820 36480
L31790 36450
" />
<path d="M30380 37080
L30380 37410
" />
<path d="M30260 36890
L30140 37240
L30450 37240
" />
<path d="M30730 36910
L30780 36910
L30830 36940
L30850 36960
L30880 37010
L30900 37100
L30900 37220
L30880 37320
L30850 37360
L30830 37390
L30780 37410
L30730 37410
L30690 37390
L30660 37360
L30640 37320
L30610 37220
L30610 37100
L30640 37010
L30660 36960
L30690 36940
L30730 36910
" />
<path d="M31570 37410
L31520 37390
L31500 37360
L31470 37320
L31470 37170
L31500 37130
L31520 37100
L31570 37080
L31640 37080
L31690 37100
L31710 37130
L31730 37170
L31730 37320
L31710 37360
L31690 37390
L31640 37410
L31570 37410
" />
<path d="M31950 37410
L31950 36910
" />
<path d="M32160 37410
L32160 37150
L32140 37100
L32090 37080
L32020 37080
L31970 37100
L31950 37130
" />
<path d="M32400 37410
L32400 37080
" />
<path d="M32400 37130
L32420 37100
L32470 37080
L32540 37080
L32590 37100
L32610 37150
L32610 37410
" />
<path d="M32610 37150
L32640 37100
L32690 37080
L32760 37080
L32800 37100
L32830 37150
L32830 37410
" />
</g>
</g>
<g style="fill:#008484; fill-opacity:0.0; 
stroke:#008484; stroke-width:0; stroke-opacity:1; 
stroke-linecap:round; stroke-linejoin:round;">
<g >
</g>
<g style="fill:#840000; fill-opacity:0.0; 
stroke:#840000; stroke-width:0; stroke-opacity:1; 
stroke-linecap:round; stroke-linejoin:round;">
</g>
<g style="fill:#FFFFC2; fill-opacity:0.0; 
stroke:#FFFFC2; stroke-width:0; stroke-opacity:1; 
stroke-linecap:round; stroke-linejoin:round;">
</g>
<g style="fill:#FFFFC2; fill-opacity:0.6; 
stroke:#FFFFC2; stroke-width:0; stroke-opacity:1; 
stroke-linecap:round; stroke-linejoin:round;">
<rect x="64500" y="46250" width="4000" height="3750" rx="0" />
</g>
<g style="fill:#840000; fill-opacity:0.6; 
stroke:#840000; stroke-width:0; stroke-opacity:1; 
stroke-linecap:round; stroke-linejoin:round;">
</g>
<g style="fill:#840000; fill-opacity:0.0; 
stroke:#840000; stroke-width:100; stroke-opacity:1; 
stroke-linecap:round; stroke-linejoin:round;">
<rect x="64500" y="46250" width="4000" height="3750" rx="0" />
</g>
<g style="fill:#840000; fill-opacity:0.0; 
stroke:#840000; stroke-width:60; stroke-opacity:1; 
stroke-linecap:round; stroke-linejoin:round;">
<path d="M64500 47000
L63500 47000
" />
</g>
<g style="fill:#008484; fill-opacity:0.0; 
stroke:#008484; stroke-width:60; stroke-opacity:1; 
stroke-linecap:round; stroke-linejoin:round;">
<path d="M64740 47220
L64740 46720
" />
<path d="M64980 47220
L64980 46720
L65270 47220
L65270 46720
" />
</g>
<g style="fill:#840000; fill-opacity:0.0; 
stroke:#840000; stroke-width:60; stroke-opacity:1; 
stroke-linecap:round; stroke-linejoin:round;">
<path d="M64140 46870
L63850 46870
" />
<path d="M64000 46870
L64000 46370
L63950 46440
L63900 46490
L63850 46510
" />
<path d="M66500 50000
L66500 51000
" />
</g>
<g style="fill:#008484; fill-opacity:0.0; 
stroke:#008484; stroke-width:60; stroke-opacity:1; 
stroke-linecap:round; stroke-linejoin:round;">
<path d="M66250 49480
L66220 49530
L66220 49600
L66250 49670
L66290 49720
L66340 49750
L66440 49770
L66510 49770
L66600 49750
L66650 49720
L66700 49670
L66720 49600
L66720 49560
L66700 49480
L66670 49460
L66510 49460
L66510 49560
" />
<path d="M66720 49250
L66220 49250
L66720 48960
L66220 48960
" />
<path d="M66720 48720
L66220 48720
L66220 48600
L66250 48530
L66290 48480
L66340 48460
L66440 48440
L66510 48440
L66600 48460
L66650 48480
L66700 48530
L66720 48600
L66720 48720
" />
</g>
<g style="fill:#840000; fill-opacity:0.0; 
stroke:#840000; stroke-width:60; stroke-opacity:1; 
stroke-linecap:round; stroke-linejoin:round;">
<path d="M65920 50640
L65900 50610
L65870 50570
L65870 50450
L65900 50400
L65920 50380
L65970 50350
L66010 50350
L66090 50380
L66370 50660
L66370 50350
" />
<path d="M64500 48000
L63500 48000
" />
</g>
<g style="fill:#008484; fill-opacity:0.0; 
stroke:#008484; stroke-width:60; stroke-opacity:1; 
stroke-linecap:round; stroke-linejoin:round;">
<path d="M64740 47960
L64910 47960
" />
<path d="M64980 48220
L64740 48220
L64740 47720
L64980 47720
" />
<path d="M65200 48220
L65200 47720
L65480 48220
L65480 47720
" />
</g>
<g style="fill:#840000; fill-opacity:0.0; 
stroke:#840000; stroke-width:60; stroke-opacity:1; 
stroke-linecap:round; stroke-linejoin:round;">
<path d="M63830 47370
L64140 47370
L63970 47560
L64040 47560
L64090 47590
L64110 47610
L64140 47660
L64140 47780
L64110 47820
L64090 47850
L64040 47870
L63900 47870
L63850 47850
L63830 47820
" />
<path d="M68500 47000
L69500 47000
" />
</g>
<g style="fill:#008484; fill-opacity:0.0; 
stroke:#008484; stroke-width:60; stroke-opacity:1; 
stroke-linecap:round; stroke-linejoin:round;">
<path d="M67150 46720
L67250 46720
L67290 46750
L67340 46790
L67370 46890
L67370 47050
L67340 47150
L67290 47200
L67250 47220
L67150 47220
L67100 47200
L67060 47150
L67030 47050
L67030 46890
L67060 46790
L67100 46750
L67150 46720
" />
<path d="M67580 46720
L67580 47130
L67600 47170
L67630 47200
L67670 47220
L67770 47220
L67820 47200
L67840 47170
L67870 47130
L67870 46720
" />
<path d="M68030 46720
L68320 46720
" />
<path d="M68170 47220
L68170 46720
" />
</g>
<g style="fill:#840000; fill-opacity:0.0; 
stroke:#840000; stroke-width:60; stroke-opacity:1; 
stroke-linecap:round; stroke-linejoin:round;">
<path d="M69110 46370
L68880 46370
L68850 46610
L68880 46590
L68920 46560
L69040 46560
L69090 46590
L69110 46610
L69140 46660
L69140 46780
L69110 46820
L69090 46850
L69040 46870
L68920 46870
L68880 46850
L68850 46820
" />
</g>
<g style="fill:#008484; fill-opacity:0.0; 
stroke:#008484; stroke-width:60; stroke-opacity:1; 
stroke-linecap:round; stroke-linejoin:round;">
<path d="M66110 44320
L66110 44730
L66140 44770
L66160 44800
L66210 44820
L66300 44820
L66350 44800
L66380 44770
L66400 44730
L66400 44320
" />
<path d="M66590 44320
L66900 44320
L66730 44510
L66800 44510
L66850 44540
L66880 44560
L66900 44610
L66900 44730
L66880 44770
L66850 44800
L66800 44820
L66660 44820
L66610 44800
L66590 44770
" />
<path d="M62840 45230
L63130 45230
" />
<path d="M62980 45730
L62980 45230
" />
<path d="M63530 45730
L63290 45730
L63290 45230
" />
<path d="M63630 45230
L63790 45730
L63960 45230
" />
<path d="M64080 45230
L64410 45230
L64200 45730
" />
<path d="M64700 45230
L64750 45230
L64790 45260
L64820 45280
L64840 45330
L64860 45420
L64860 45540
L64840 45640
L64820 45680
L64790 45710
L64750 45730
L64700 45730
L64650 45710
L64630 45680
L64600 45640
L64580 45540
L64580 45420
L64600 45330
L64630 45280
L64650 45260
L64700 45230
" />
<path d="M65050 45280
L65080 45260
L65130 45230
L65250 45230
L65290 45260
L65320 45280
L65340 45330
L65340 45370
L65320 45450
L65030 45730
L65340 45730
" />
<path d="M65530 45280
L65550 45260
L65600 45230
L65720 45230
L65770 45260
L65790 45280
L65820 45330
L65820 45370
L65790 45450
L65510 45730
L65820 45730
" />
<path d="M66100 45450
L66050 45420
L66030 45400
L66010 45350
L66010 45330
L66030 45280
L66050 45260
L66100 45230
L66200 45230
L66250 45260
L66270 45280
L66290 45330
L66290 45350
L66270 45400
L66250 45420
L66200 45450
L66100 45450
L66050 45470
L66030 45490
L66010 45540
L66010 45640
L66030 45680
L66050 45710
L66100 45730
L66200 45730
L66250 45710
L66270 45680
L66290 45640
L66290 45540
L66270 45490
L66250 45470
L66200 45450
" />
<path d="M66390 45780
L66770 45780
" />
<path d="M66860 45710
L66940 45730
L67050 45730
L67100 45710
L67130 45680
L67150 45640
L67150 45590
L67130 45540
L67100 45520
L67050 45490
L66960 45470
L66910 45450
L66890 45420
L66860 45370
L66860 45330
L66890 45280
L66910 45260
L66960 45230
L67080 45230
L67150 45260
" />
<path d="M67460 45230
L67550 45230
L67600 45260
L67650 45300
L67670 45400
L67670 45560
L67650 45660
L67600 45710
L67550 45730
L67460 45730
L67410 45710
L67360 45660
L67340 45560
L67340 45400
L67360 45300
L67410 45260
L67460 45230
" />
<path d="M67820 45230
L68100 45230
" />
<path d="M67960 45730
L67960 45230
" />
<path d="M68250 45280
L68270 45260
L68320 45230
L68440 45230
L68480 45260
L68510 45280
L68530 45330
L68530 45370
L68510 45450
L68220 45730
L68530 45730
" />
<path d="M68700 45230
L69010 45230
L68840 45420
L68910 45420
L68960 45450
L68980 45470
L69010 45520
L69010 45640
L68980 45680
L68960 45710
L68910 45730
L68770 45730
L68720 45710
L68700 45680
" />
<path d="M69220 45540
L69600 45540
" />
<path d="M70080 45230
L69840 45230
L69820 45470
L69840 45450
L69890 45420
L70010 45420
L70050 45450
L70080 45470
L70100 45520
L70100 45640
L70080 45680
L70050 45710
L70010 45730
L69890 45730
L69840 45710
L69820 45680
" />
</g>
</g>
<g style="fill:#008484; fill-opacity:0.0; 
stroke:#008484; stroke-width:0; stroke-opacity:1; 
stroke-linecap:round; stroke-linejoin:round;">
<g >
</g>
<g style="fill:#840000; fill-opacity:0.0; 
stroke:#840000; stroke-width:0; stroke-opacity:1; 
stroke-linecap:round; stroke-linejoin:round;">
</g>
<g style="fill:#840000; fill-opacity:0.0; 
stroke:#840000; stroke-width:200; stroke-opacity:1; 
stroke-linecap:round; stroke-linejoin:round;">
<path style="fill:#840000; fill-opacity:0.0; 
stroke:#840000; stroke-width:200; stroke-opacity:1; 
stroke-linecap:round; stroke-linejoin:round;fill:none"
d="M 22200,41300
23800,41300
Z" /> 
<path style="fill:#840000; fill-opacity:0.0; 
stroke:#840000; stroke-width:200; stroke-opacity:1; 
stroke-linecap:round; stroke-linejoin:round;fill:none"
d="M 22200,40700
23800,40700
Z" /> 
</g>
<g style="fill:#840000; fill-opacity:0.0; 
stroke:#840000; stroke-width:60; stroke-opacity:1; 
stroke-linecap:round; stroke-linejoin:round;">
<path d="M23000 40600
L23000 39500
" />
<path d="M23000 41400
L23000 42500
" />
</g>
<g style="fill:#008484; fill-opacity:0.0; 
stroke:#008484; stroke-width:60; stroke-opacity:1; 
stroke-linecap:round; stroke-linejoin:round;">
<path d="M24570 40730
L24550 40760
L24480 40780
L24430 40780
L24360 40760
L24310 40710
L24290 40660
L24260 40570
L24260 40500
L24290 40400
L24310 40350
L24360 40310
L24430 40280
L24480 40280
L24550 40310
L24570 40330
" />
<path d="M25050 40780
L24760 40780
" />
<path d="M24910 40780
L24910 40280
L24860 40350
L24810 40400
L24760 40420
" />
<path d="M25220 40280
L25550 40280
L25340 40780
" />
<path d="M24380 41190
L24430 41190
L24480 41220
L24500 41240
L24530 41290
L24550 41380
L24550 41500
L24530 41600
L24500 41640
L24480 41670
L24430 41690
L24380 41690
L24340 41670
L24310 41640
L24290 41600
L24270 41500
L24270 41380
L24290 41290
L24310 41240
L24340 41220
L24380 41190
" />
<path d="M24770 41640
L24790 41670
L24770 41690
L24740 41670
L24770 41640
L24770 41690
" />
<path d="M25270 41690
L24980 41690
" />
<path d="M25120 41690
L25120 41190
L25070 41260
L25030 41310
L24980 41330
" />
</g>
</g>
<g style="fill:#008484; fill-opacity:0.0; 
stroke:#008484; stroke-width:0; stroke-opacity:1; 
stroke-linecap:round; stroke-linejoin:round;">
<g >
</g>
<g style="fill:#840000; fill-opacity:0.0; 
stroke:#840000; stroke-width:0; stroke-opacity:1; 
stroke-linecap:round; stroke-linejoin:round;">
</g>
<g style="fill:#840000; fill-opacity:0.0; 
stroke:#840000; stroke-width:60; stroke-opacity:1; 
stroke-linecap:round; stroke-linejoin:round;">
<path style="fill:#840000; fill-opacity:0.0; 
stroke:#840000; stroke-width:60; stroke-opacity:1; 
stroke-linecap:round; stroke-linejoin:round;fill:none"
d="M 24500,47000
24500,47500
25000,47500
24500,48000
24000,47500
24500,47500
Z" /> 
</g>
<g style="fill:#008484; fill-opacity:0.0; 
stroke:#008484; stroke-width:60; stroke-opacity:1; 
stroke-linecap:round; stroke-linejoin:round;">
<path d="M24160 48500
L24120 48470
L24050 48470
L23970 48500
L23930 48540
L23900 48590
L23880 48690
L23880 48760
L23900 48850
L23930 48900
L23970 48950
L24050 48970
L24090 48970
L24160 48950
L24190 48920
L24190 48760
L24090 48760
" />
<path d="M24400 48970
L24400 48470
L24690 48970
L24690 48470
" />
<path d="M24930 48970
L24930 48470
L25050 48470
L25120 48500
L25160 48540
L25190 48590
L25210 48690
L25210 48760
L25190 48850
L25160 48900
L25120 48950
L25050 48970
L24930 48970
" />
</g>
</g>
<g style="fill:#008484; fill-opacity:0.0; 
stroke:#008484; stroke-width:0; stroke-opacity:1; 
stroke-linecap:round; stroke-linejoin:round;">
<g >
</g>
<g style="fill:#840000; fill-opacity:0.0; 
stroke:#840000; stroke-width:0; stroke-opacity:1; 
stroke-linecap:round; stroke-linejoin:round;">
</g>
<g style="fill:#840000; fill-opacity:0.0; 
stroke:#840000; stroke-width:200; stroke-opacity:1; 
stroke-linecap:round; stroke-linejoin:round;">
<path style="fill:#840000; fill-opacity:0.0; 
stroke:#840000; stroke-width:200; stroke-opacity:1; 
stroke-linecap:round; stroke-linejoin:round;fill:none"
d="M 18200,41300
19800,41300
Z" /> 
<path style="fill:#840000; fill-opacity:0.0; 
stroke:#840000; stroke-width:200; stroke-opacity:1; 
stroke-linecap:round; stroke-linejoin:round;fill:none"
d="M 18200,40700
19800,40700
Z" /> 
</g>
<g style="fill:#840000; fill-opacity:0.0; 
stroke:#840000; stroke-width:60; stroke-opacity:1; 
stroke-linecap:round; stroke-linejoin:round;">
<path d="M19000 40600
L19000 39500
" />
<path d="M19000 41400
L19000 42500
" />
</g>
<g style="fill:#008484; fill-opacity:0.0; 
stroke:#008484; stroke-width:60; stroke-opacity:1; 
stroke-linecap:round; stroke-linejoin:round;">
<path d="M20570 40730
L20550 40760
L20480 40780
L20430 40780
L20360 40760
L20310 40710
L20290 40660
L20260 40570
L20260 40500
L20290 40400
L20310 40350
L20360 40310
L20430 40280
L20480 40280
L20550 40310
L20570 40330
" />
<path d="M21050 40780
L20760 40780
" />
<path d="M20910 40780
L20910 40280
L20860 40350
L20810 40400
L20760 40420
" />
<path d="M21480 40280
L21380 40280
L21340 40310
L21310 40330
L21260 40400
L21240 40500
L21240 40690
L21260 40730
L21290 40760
L21340 40780
L21430 40780
L21480 40760
L21500 40730
L21530 40690
L21530 40570
L21500 40520
L21480 40500
L21430 40470
L21340 40470
L21290 40500
L21260 40520
L21240 40570
" />
<path d="M20390 41190
L20430 41190
L20480 41220
L20510 41240
L20530 41290
L20550 41380
L20550 41500
L20530 41600
L20510 41640
L20480 41670
L20430 41690
L20390 41690
L20340 41670
L20310 41640
L20290 41600
L20270 41500
L20270 41380
L20290 41290
L20310 41240
L20340 41220
L20390 41190
" />
<path d="M20770 41640
L20790 41670
L20770 41690
L20740 41670
L20770 41640
L20770 41690
" />
<path d="M21100 41190
L21150 41190
L21200 41220
L21220 41240
L21240 41290
L21270 41380
L21270 41500
L21240 41600
L21220 41640
L21200 41670
L21150 41690
L21100 41690
L21050 41670
L21030 41640
L21010 41600
L20980 41500
L20980 41380
L21010 41290
L21030 41240
L21050 41220
L21100 41190
" />
<path d="M21740 41690
L21460 41690
" />
<path d="M21600 41690
L21600 41190
L21550 41260
L21510 41310
L21460 41330
" />
</g>
</g>
<g style="fill:#008484; fill-opacity:0.0; 
stroke:#008484; stroke-width:0; stroke-opacity:1; 
stroke-linecap:round; stroke-linejoin:round;">
<g >
</g>
<g style="fill:#840000; fill-opacity:0.0; 
stroke:#840000; stroke-width:0; stroke-opacity:1; 
stroke-linecap:round; stroke-linejoin:round;">
</g>
<g style="fill:#840000; fill-opacity:0.0; 
stroke:#840000; stroke-width:100; stroke-opacity:1; 
stroke-linecap:round; stroke-linejoin:round;">
<rect x="83000" y="30100" width="2000" height="800" rx="0" />
</g>
<g style="fill:#840000; fill-opacity:0.0; 
stroke:#840000; stroke-width:60; stroke-opacity:1; 
stroke-linecap:round; stroke-linejoin:round;">
<path d="M83000 30500
L82500 30500
" />
<path d="M85000 30500
L85500 30500
" />
</g>
<g style="fill:#008484; fill-opacity:0.0; 
stroke:#008484; stroke-width:60; stroke-opacity:1; 
stroke-linecap:round; stroke-linejoin:round;">
<path d="M83780 29360
L83540 29530
" />
<path d="M83780 29640
L83280 29640
L83280 29450
L83310 29410
L83330 29380
L83380 29360
L83450 29360
L83500 29380
L83520 29410
L83540 29450
L83540 29640
" />
<path d="M83280 29190
L83280 28880
L83470 29050
L83470 28980
L83500 28930
L83520 28910
L83570 28880
L83690 28880
L83730 28910
L83760 28930
L83780 28980
L83780 29120
L83760 29170
L83730 29190
" />
<path d="M84690 29380
L84690 29670
" />
<path d="M84690 29530
L84190 29530
L84260 29570
L84310 29620
L84330 29670
" />
<path d="M84690 29170
L84190 29170
" />
<path d="M84690 28880
L84410 29100
" />
<path d="M84190 28880
L84480 29170
" />
</g>
</g>
<g style="fill:#008484; fill-opacity:0.0; 
stroke:#008484; stroke-width:0; stroke-opacity:1; 
stroke-linecap:round; stroke-linejoin:round;">
<g >
</g>
<g style="fill:#840000; fill-opacity:0.0; 
stroke:#840000; stroke-width:0; stroke-opacity:1; 
stroke-linecap:round; stroke-linejoin:round;">
</g>
<g style="fill:#840000; fill-opacity:0.0; 
stroke:#840000; stroke-width:80; stroke-opacity:1; 
stroke-linecap:round; stroke-linejoin:round;">
<path style="fill:#840000; fill-opacity:0.0; 
stroke:#840000; stroke-width:80; stroke-opacity:1; 
stroke-linecap:round; stroke-linejoin:round;fill:none"
d="M 80500,30000
80500,31000
Z" /> 
</g>
<g style="fill:#840000; fill-opacity:0.0; 
stroke:#840000; stroke-width:60; stroke-opacity:1; 
stroke-linecap:round; stroke-linejoin:round;">
<path style="fill:#840000; fill-opacity:0.0; 
stroke:#840000; stroke-width:60; stroke-opacity:1; 
stroke-linecap:round; stroke-linejoin:round;fill:none"
d="M 80500,30500
79500,30500
Z" /> 
</g>
<g style="fill:#840000; fill-opacity:0.0; 
stroke:#840000; stroke-width:80; stroke-opacity:1; 
stroke-linecap:round; stroke-linejoin:round;">
<path style="fill:#840000; fill-opacity:0.0; 
stroke:#840000; stroke-width:80; stroke-opacity:1; 
stroke-linecap:round; stroke-linejoin:round;fill:none"
d="M 79500,30000
79500,31000
80500,30500
79500,30000
Z" /> 
</g>
<g style="fill:#840000; fill-opacity:0.0; 
stroke:#840000; stroke-width:60; stroke-opacity:1; 
stroke-linecap:round; stroke-linejoin:round;">
<path style="fill:#840000; fill-opacity:0.0; 
stroke:#840000; stroke-width:60; stroke-opacity:1; 
stroke-linecap:round; stroke-linejoin:round;fill:none"
d="M 81200,30200
81800,29600
81500,29600
81800,29600
81800,29900
Z" /> 
<path style="fill:#840000; fill-opacity:0.0; 
stroke:#840000; stroke-width:60; stroke-opacity:1; 
stroke-linecap:round; stroke-linejoin:round;fill:none"
d="M 80700,30200
81300,29600
81000,29600
81300,29600
81300,29900
Z" /> 
<path d="M80500 30500
L81500 30500
" />
<path d="M79500 30500
L78500 30500
" />
</g>
<g style="fill:#008484; fill-opacity:0.0; 
stroke:#008484; stroke-width:60; stroke-opacity:1; 
stroke-linecap:round; stroke-linejoin:round;">
<path d="M79700 28140
L79700 27640
L79820 27640
L79890 27670
L79930 27710
L79960 27760
L79980 27860
L79980 27930
L79960 28020
L79930 28070
L79890 28120
L79820 28140
L79700 28140
" />
<path d="M80460 28140
L80170 28140
" />
<path d="M80320 28140
L80320 27640
L80270 27710
L80220 27760
L80170 27780
" />
<path d="M78990 29050
L78990 28550
L79180 28550
L79230 28580
L79260 28600
L79280 28650
L79280 28720
L79260 28770
L79230 28790
L79180 28810
L78990 28810
" />
<path d="M79450 28550
L79570 29050
L79660 28690
L79760 29050
L79870 28550
" />
<path d="M80350 29050
L80180 28810
" />
<path d="M80070 29050
L80070 28550
L80260 28550
L80300 28580
L80330 28600
L80350 28650
L80350 28720
L80330 28770
L80300 28790
L80260 28810
L80070 28810
" />
<path d="M80450 29100
L80830 29100
" />
<path d="M80920 28910
L81160 28910
" />
<path d="M80870 29050
L81040 28550
L81210 29050
" />
</g>
</g>
<g style="fill:#008484; fill-opacity:0.0; 
stroke:#008484; stroke-width:0; stroke-opacity:1; 
stroke-linecap:round; stroke-linejoin:round;">
<g >
</g>
<g style="fill:#840000; fill-opacity:0.0; 
stroke:#840000; stroke-width:0; stroke-opacity:1; 
stroke-linecap:round; stroke-linejoin:round;">
</g>
<g style="fill:#840000; fill-opacity:0.0; 
stroke:#840000; stroke-width:80; stroke-opacity:1; 
stroke-linecap:round; stroke-linejoin:round;">
<path style="fill:#840000; fill-opacity:0.0; 
stroke:#840000; stroke-width:80; stroke-opacity:1; 
stroke-linecap:round; stroke-linejoin:round;fill:none"
d="M 80500,46500
80500,47500
Z" /> 
</g>
<g style="fill:#840000; fill-opacity:0.0; 
stroke:#840000; stroke-width:60; stroke-opacity:1; 
stroke-linecap:round; stroke-linejoin:round;">
<path style="fill:#840000; fill-opacity:0.0; 
stroke:#840000; stroke-width:60; stroke-opacity:1; 
stroke-linecap:round; stroke-linejoin:round;fill:none"
d="M 80500,47000
79500,47000
Z" /> 
</g>
<g style="fill:#840000; fill-opacity:0.0; 
stroke:#840000; stroke-width:80; stroke-opacity:1; 
stroke-linecap:round; stroke-linejoin:round;">
<path style="fill:#840000; fill-opacity:0.0; 
stroke:#840000; stroke-width:80; stroke-opacity:1; 
stroke-linecap:round; stroke-linejoin:round;fill:none"
d="M 79500,46500
79500,47500
80500,47000
79500,46500
Z" /> 
</g>
<g style="fill:#840000; fill-opacity:0.0; 
stroke:#840000; stroke-width:60; stroke-opacity:1; 
stroke-linecap:round; stroke-linejoin:round;">
<path style="fill:#840000; fill-opacity:0.0; 
stroke:#840000; stroke-width:60; stroke-opacity:1; 
stroke-linecap:round; stroke-linejoin:round;fill:none"
d="M 81200,46700
81800,46100
81500,46100
81800,46100
81800,46400
Z" /> 
<path style="fill:#840000; fill-opacity:0.0; 
stroke:#840000; stroke-width:60; stroke-opacity:1; 
stroke-linecap:round; stroke-linejoin:round;fill:none"
d="M 80700,46700
81300,46100
81000,46100
81300,46100
81300,46400
Z" /> 
<path d="M80500 47000
L81500 47000
" />
<path d="M79500 47000
L78500 47000
" />
</g>
<g style="fill:#008484; fill-opacity:0.0; 
stroke:#008484; stroke-width:60; stroke-opacity:1; 
stroke-linecap:round; stroke-linejoin:round;">
<path d="M79700 44640
L79700 44140
L79820 44140
L79890 44170
L79930 44210
L79960 44260
L79980 44360
L79980 44430
L79960 44520
L79930 44570
L79890 44620
L79820 44640
L79700 44640
" />
<path d="M80170 44190
L80200 44170
L80240 44140
L80360 44140
L80410 44170
L80430 44190
L80460 44240
L80460 44280
L80430 44360
L80150 44640
L80460 44640
" />
<path d="M78950 45550
L78950 45050
L79140 45050
L79190 45080
L79210 45100
L79230 45150
L79230 45220
L79210 45270
L79190 45290
L79140 45310
L78950 45310
" />
<path d="M79400 45050
L79520 45550
L79610 45190
L79710 45550
L79830 45050
" />
<path d="M80310 45550
L80140 45310
" />
<path d="M80020 45550
L80020 45050
L80210 45050
L80260 45080
L80280 45100
L80310 45150
L80310 45220
L80280 45270
L80260 45290
L80210 45310
L80020 45310
" />
<path d="M80400 45600
L80780 45600
" />
<path d="M81070 45290
L81140 45310
L81160 45340
L81190 45380
L81190 45460
L81160 45500
L81140 45530
L81090 45550
L80900 45550
L80900 45050
L81070 45050
L81110 45080
L81140 45100
L81160 45150
L81160 45190
L81140 45240
L81110 45270
L81070 45290
L80900 45290
" />
</g>
</g>
<g style="fill:#008484; fill-opacity:0.0; 
stroke:#008484; stroke-width:0; stroke-opacity:1; 
stroke-linecap:round; stroke-linejoin:round;">
<g >
</g>
<g style="fill:#840000; fill-opacity:0.0; 
stroke:#840000; stroke-width:0; stroke-opacity:1; 
stroke-linecap:round; stroke-linejoin:round;">
</g>
<g style="fill:#840000; fill-opacity:0.0; 
stroke:#840000; stroke-width:100; stroke-opacity:1; 
stroke-linecap:round; stroke-linejoin:round;">
<rect x="83500" y="46600" width="2000" height="800" rx="0" />
</g>
<g style="fill:#840000; fill-opacity:0.0; 
stroke:#840000; stroke-width:60; stroke-opacity:1; 
stroke-linecap:round; stroke-linejoin:round;">
<path d="M83500 47000
L83000 47000
" />
<path d="M85500 47000
L86000 47000
" />
</g>
<g style="fill:#008484; fill-opacity:0.0; 
stroke:#008484; stroke-width:60; stroke-opacity:1; 
stroke-linecap:round; stroke-linejoin:round;">
<path d="M84280 45860
L84040 46030
" />
<path d="M84280 46140
L83780 46140
L83780 45950
L83810 45910
L83830 45880
L83880 45860
L83950 45860
L84000 45880
L84020 45910
L84040 45950
L84040 46140
" />
<path d="M83950 45430
L84280 45430
" />
<path d="M83760 45550
L84110 45670
L84110 45360
" />
<path d="M85190 45880
L85190 46170
" />
<path d="M85190 46030
L84690 46030
L84760 46070
L84810 46120
L84830 46170
" />
<path d="M85190 45670
L84690 45670
" />
<path d="M85190 45380
L84910 45600
" />
<path d="M84690 45380
L84980 45670
" />
</g>
</g>
<g style="fill:#008484; fill-opacity:0.0; 
stroke:#008484; stroke-width:0; stroke-opacity:1; 
stroke-linecap:round; stroke-linejoin:round;">
<g >
</g>
<g style="fill:#840000; fill-opacity:0.0; 
stroke:#840000; stroke-width:0; stroke-opacity:1; 
stroke-linecap:round; stroke-linejoin:round;">
</g>
<g style="fill:#840000; fill-opacity:0.0; 
stroke:#840000; stroke-width:100; stroke-opacity:1; 
stroke-linecap:round; stroke-linejoin:round;">
<rect x="83000" y="34600" width="2000" height="800" rx="0" />
</g>
<g style="fill:#840000; fill-opacity:0.0; 
stroke:#840000; stroke-width:60; stroke-opacity:1; 
stroke-linecap:round; stroke-linejoin:round;">
<path d="M85000 35000
L85500 35000
" />
<path d="M83000 35000
L82500 35000
" />
</g>
<g style="fill:#008484; fill-opacity:0.0; 
stroke:#008484; stroke-width:60; stroke-opacity:1; 
stroke-linecap:round; stroke-linejoin:round;">
<path d="M83910 33170
L83750 32930
" />
<path d="M83630 33170
L83630 32670
L83820 32670
L83860 32700
L83890 32720
L83910 32770
L83910 32840
L83890 32890
L83860 32910
L83820 32930
L83630 32930
" />
<path d="M84360 32670
L84130 32670
L84100 32910
L84130 32890
L84170 32860
L84290 32860
L84340 32890
L84360 32910
L84390 32960
L84390 33080
L84360 33120
L84340 33150
L84290 33170
L84170 33170
L84130 33150
L84100 33120
" />
<path d="M83970 33580
L84020 33580
L84070 33610
L84090 33630
L84110 33680
L84140 33770
L84140 33890
L84110 33990
L84090 34030
L84070 34060
L84020 34080
L83970 34080
L83920 34060
L83900 34030
L83880 33990
L83850 33890
L83850 33770
L83880 33680
L83900 33630
L83920 33610
L83970 33580
" />
</g>
</g>
<g style="fill:#008484; fill-opacity:0.0; 
stroke:#008484; stroke-width:0; stroke-opacity:1; 
stroke-linecap:round; stroke-linejoin:round;">
<g >
</g>
<g style="fill:#840000; fill-opacity:0.0; 
stroke:#840000; stroke-width:0; stroke-opacity:1; 
stroke-linecap:round; stroke-linejoin:round;">
</g>
<g style="fill:#840000; fill-opacity:0.0; 
stroke:#840000; stroke-width:100; stroke-opacity:1; 
stroke-linecap:round; stroke-linejoin:round;">
<rect x="83500" y="51100" width="2000" height="800" rx="0" />
</g>
<g style="fill:#840000; fill-opacity:0.0; 
stroke:#840000; stroke-width:60; stroke-opacity:1; 
stroke-linecap:round; stroke-linejoin:round;">
<path d="M85500 51500
L86000 51500
" />
<path d="M83500 51500
L83000 51500
" />
</g>
<g style="fill:#008484; fill-opacity:0.0; 
stroke:#008484; stroke-width:60; stroke-opacity:1; 
stroke-linecap:round; stroke-linejoin:round;">
<path d="M84410 49670
L84250 49430
" />
<path d="M84130 49670
L84130 49170
L84320 49170
L84360 49200
L84390 49220
L84410 49270
L84410 49340
L84390 49390
L84360 49410
L84320 49430
L84130 49430
" />
<path d="M84840 49170
L84750 49170
L84700 49200
L84670 49220
L84630 49290
L84600 49390
L84600 49580
L84630 49620
L84650 49650
L84700 49670
L84790 49670
L84840 49650
L84860 49620
L84890 49580
L84890 49460
L84860 49410
L84840 49390
L84790 49360
L84700 49360
L84650 49390
L84630 49410
L84600 49460
" />
<path d="M84470 50080
L84520 50080
L84570 50110
L84590 50130
L84610 50180
L84640 50270
L84640 50390
L84610 50490
L84590 50530
L84570 50560
L84520 50580
L84470 50580
L84420 50560
L84400 50530
L84380 50490
L84350 50390
L84350 50270
L84380 50180
L84400 50130
L84420 50110
L84470 50080
" />
</g>
</g>
<g style="fill:#008484; fill-opacity:0.0; 
stroke:#008484; stroke-width:0; stroke-opacity:1; 
stroke-linecap:round; stroke-linejoin:round;">
<g >
</g>
<g style="fill:#840000; fill-opacity:0.0; 
stroke:#840000; stroke-width:0; stroke-opacity:1; 
stroke-linecap:round; stroke-linejoin:round;">
</g>
<g style="fill:#840000; fill-opacity:0.0; 
stroke:#840000; stroke-width:200; stroke-opacity:1; 
stroke-linecap:round; stroke-linejoin:round;">
<path style="fill:#840000; fill-opacity:0.0; 
stroke:#840000; stroke-width:200; stroke-opacity:1; 
stroke-linecap:round; stroke-linejoin:round;fill:none"
d="M 88200,33300
89800,33300
Z" /> 
<path style="fill:#840000; fill-opacity:0.0; 
stroke:#840000; stroke-width:200; stroke-opacity:1; 
stroke-linecap:round; stroke-linejoin:round;fill:none"
d="M 88200,32700
89800,32700
Z" /> 
</g>
<g style="fill:#840000; fill-opacity:0.0; 
stroke:#840000; stroke-width:60; stroke-opacity:1; 
stroke-linecap:round; stroke-linejoin:round;">
<path d="M89000 32600
L89000 31500
" />
<path d="M89000 33400
L89000 34500
" />
</g>
<g style="fill:#008484; fill-opacity:0.0; 
stroke:#008484; stroke-width:60; stroke-opacity:1; 
stroke-linecap:round; stroke-linejoin:round;">
<path d="M90570 32730
L90550 32760
L90480 32780
L90430 32780
L90360 32760
L90310 32710
L90290 32660
L90260 32570
L90260 32500
L90290 32400
L90310 32350
L90360 32310
L90430 32280
L90480 32280
L90550 32310
L90570 32330
" />
<path d="M91000 32450
L91000 32780
" />
<path d="M90880 32260
L90760 32610
L91070 32610
" />
<path d="M91240 32330
L91260 32310
L91310 32280
L91430 32280
L91480 32310
L91500 32330
L91530 32380
L91530 32420
L91500 32500
L91220 32780
L91530 32780
" />
<path d="M90550 33690
L90270 33690
" />
<path d="M90410 33690
L90410 33190
L90360 33260
L90310 33310
L90270 33330
" />
<path d="M90980 33360
L90980 33690
" />
<path d="M90770 33360
L90770 33620
L90790 33670
L90840 33690
L90910 33690
L90960 33670
L90980 33640
" />
</g>
</g>
<g style="fill:#008484; fill-opacity:0.0; 
stroke:#008484; stroke-width:0; stroke-opacity:1; 
stroke-linecap:round; stroke-linejoin:round;">
<g >
</g>
<g style="fill:#840000; fill-opacity:0.0; 
stroke:#840000; stroke-width:0; stroke-opacity:1; 
stroke-linecap:round; stroke-linejoin:round;">
</g>
<g style="fill:#840000; fill-opacity:0.0; 
stroke:#840000; stroke-width:200; stroke-opacity:1; 
stroke-linecap:round; stroke-linejoin:round;">
<path style="fill:#840000; fill-opacity:0.0; 
stroke:#840000; stroke-width:200; stroke-opacity:1; 
stroke-linecap:round; stroke-linejoin:round;fill:none"
d="M 88200,49800
89800,49800
Z" /> 
<path style="fill:#840000; fill-opacity:0.0; 
stroke:#840000; stroke-width:200; stroke-opacity:1; 
stroke-linecap:round; stroke-linejoin:round;fill:none"
d="M 88200,49200
89800,49200
Z" /> 
</g>
<g style="fill:#840000; fill-opacity:0.0; 
stroke:#840000; stroke-width:60; stroke-opacity:1; 
stroke-linecap:round; stroke-linejoin:round;">
<path d="M89000 49100
L89000 48000
" />
<path d="M89000 49900
L89000 51000
" />
</g>
<g style="fill:#008484; fill-opacity:0.0; 
stroke:#008484; stroke-width:60; stroke-opacity:1; 
stroke-linecap:round; stroke-linejoin:round;">
<path d="M90570 49230
L90550 49260
L90480 49280
L90430 49280
L90360 49260
L90310 49210
L90290 49160
L90260 49070
L90260 49000
L90290 48900
L90310 48850
L90360 48810
L90430 48780
L90480 48780
L90550 48810
L90570 48830
" />
<path d="M91000 48950
L91000 49280
" />
<path d="M90880 48760
L90760 49110
L91070 49110
" />
<path d="M91220 48780
L91530 48780
L91360 48970
L91430 48970
L91480 49000
L91500 49020
L91530 49070
L91530 49190
L91500 49230
L91480 49260
L91430 49280
L91290 49280
L91240 49260
L91220 49230
" />
<path d="M90550 50190
L90270 50190
" />
<path d="M90410 50190
L90410 49690
L90360 49760
L90310 49810
L90270 49830
" />
<path d="M90980 49860
L90980 50190
" />
<path d="M90770 49860
L90770 50120
L90790 50170
L90840 50190
L90910 50190
L90960 50170
L90980 50140
" />
</g>
</g>
<g style="fill:#008484; fill-opacity:0.0; 
stroke:#008484; stroke-width:0; stroke-opacity:1; 
stroke-linecap:round; stroke-linejoin:round;">
<g >
</g>
<g style="fill:#840000; fill-opacity:0.0; 
stroke:#840000; stroke-width:0; stroke-opacity:1; 
stroke-linecap:round; stroke-linejoin:round;">
</g>
<g style="fill:#FFFFC2; fill-opacity:0.0; 
stroke:#FFFFC2; stroke-width:0; stroke-opacity:1; 
stroke-linecap:round; stroke-linejoin:round;">
</g>
<g style="fill:#FFFFC2; fill-opacity:0.6; 
stroke:#FFFFC2; stroke-width:0; stroke-opacity:1; 
stroke-linecap:round; stroke-linejoin:round;">
<rect x="65000" y="29750" width="4000" height="3750" rx="0" />
</g>
<g style="fill:#840000; fill-opacity:0.6; 
stroke:#840000; stroke-width:0; stroke-opacity:1; 
stroke-linecap:round; stroke-linejoin:round;">
</g>
<g style="fill:#840000; fill-opacity:0.0; 
stroke:#840000; stroke-width:100; stroke-opacity:1; 
stroke-linecap:round; stroke-linejoin:round;">
<rect x="65000" y="29750" width="4000" height="3750" rx="0" />
</g>
<g style="fill:#840000; fill-opacity:0.0; 
stroke:#840000; stroke-width:60; stroke-opacity:1; 
stroke-linecap:round; stroke-linejoin:round;">
<path d="M65000 30500
L64000 30500
" />
</g>
<g style="fill:#008484; fill-opacity:0.0; 
stroke:#008484; stroke-width:60; stroke-opacity:1; 
stroke-linecap:round; stroke-linejoin:round;">
<path d="M65240 30720
L65240 30220
" />
<path d="M65480 30720
L65480 30220
L65770 30720
L65770 30220
" />
</g>
<g style="fill:#840000; fill-opacity:0.0; 
stroke:#840000; stroke-width:60; stroke-opacity:1; 
stroke-linecap:round; stroke-linejoin:round;">
<path d="M64640 30370
L64350 30370
" />
<path d="M64500 30370
L64500 29870
L64450 29940
L64400 29990
L64350 30010
" />
<path d="M67000 33500
L67000 34500
" />
</g>
<g style="fill:#008484; fill-opacity:0.0; 
stroke:#008484; stroke-width:60; stroke-opacity:1; 
stroke-linecap:round; stroke-linejoin:round;">
<path d="M66750 32980
L66720 33030
L66720 33100
L66750 33170
L66790 33220
L66840 33250
L66940 33270
L67010 33270
L67100 33250
L67150 33220
L67200 33170
L67220 33100
L67220 33060
L67200 32980
L67170 32960
L67010 32960
L67010 33060
" />
<path d="M67220 32750
L66720 32750
L67220 32460
L66720 32460
" />
<path d="M67220 32220
L66720 32220
L66720 32100
L66750 32030
L66790 31980
L66840 31960
L66940 31940
L67010 31940
L67100 31960
L67150 31980
L67200 32030
L67220 32100
L67220 32220
" />
</g>
<g style="fill:#840000; fill-opacity:0.0; 
stroke:#840000; stroke-width:60; stroke-opacity:1; 
stroke-linecap:round; stroke-linejoin:round;">
<path d="M66420 34140
L66400 34110
L66370 34070
L66370 33950
L66400 33900
L66420 33880
L66470 33850
L66510 33850
L66590 33880
L66870 34160
L66870 33850
" />
<path d="M65000 31500
L64000 31500
" />
</g>
<g style="fill:#008484; fill-opacity:0.0; 
stroke:#008484; stroke-width:60; stroke-opacity:1; 
stroke-linecap:round; stroke-linejoin:round;">
<path d="M65240 31460
L65410 31460
" />
<path d="M65480 31720
L65240 31720
L65240 31220
L65480 31220
" />
<path d="M65700 31720
L65700 31220
L65980 31720
L65980 31220
" />
</g>
<g style="fill:#840000; fill-opacity:0.0; 
stroke:#840000; stroke-width:60; stroke-opacity:1; 
stroke-linecap:round; stroke-linejoin:round;">
<path d="M64330 30870
L64640 30870
L64470 31060
L64540 31060
L64590 31090
L64610 31110
L64640 31160
L64640 31280
L64610 31320
L64590 31350
L64540 31370
L64400 31370
L64350 31350
L64330 31320
" />
<path d="M69000 30500
L70000 30500
" />
</g>
<g style="fill:#008484; fill-opacity:0.0; 
stroke:#008484; stroke-width:60; stroke-opacity:1; 
stroke-linecap:round; stroke-linejoin:round;">
<path d="M67650 30220
L67750 30220
L67790 30250
L67840 30290
L67870 30390
L67870 30550
L67840 30650
L67790 30700
L67750 30720
L67650 30720
L67600 30700
L67560 30650
L67530 30550
L67530 30390
L67560 30290
L67600 30250
L67650 30220
" />
<path d="M68080 30220
L68080 30630
L68100 30670
L68130 30700
L68170 30720
L68270 30720
L68320 30700
L68340 30670
L68370 30630
L68370 30220
" />
<path d="M68530 30220
L68820 30220
" />
<path d="M68670 30720
L68670 30220
" />
</g>
<g style="fill:#840000; fill-opacity:0.0; 
stroke:#840000; stroke-width:60; stroke-opacity:1; 
stroke-linecap:round; stroke-linejoin:round;">
<path d="M69610 29870
L69380 29870
L69350 30110
L69380 30090
L69420 30060
L69540 30060
L69590 30090
L69610 30110
L69640 30160
L69640 30280
L69610 30320
L69590 30350
L69540 30370
L69420 30370
L69380 30350
L69350 30320
" />
</g>
<g style="fill:#008484; fill-opacity:0.0; 
stroke:#008484; stroke-width:60; stroke-opacity:1; 
stroke-linecap:round; stroke-linejoin:round;">
<path d="M66610 27820
L66610 28230
L66640 28270
L66660 28300
L66710 28320
L66800 28320
L66850 28300
L66880 28270
L66900 28230
L66900 27820
" />
<path d="M67350 27990
L67350 28320
" />
<path d="M67230 27800
L67110 28150
L67420 28150
" />
<path d="M63340 28730
L63630 28730
" />
<path d="M63480 29230
L63480 28730
" />
<path d="M64030 29230
L63790 29230
L63790 28730
" />
<path d="M64130 28730
L64290 29230
L64460 28730
" />
<path d="M64580 28730
L64910 28730
L64700 29230
" />
<path d="M65200 28730
L65250 28730
L65290 28760
L65320 28780
L65340 28830
L65360 28920
L65360 29040
L65340 29140
L65320 29180
L65290 29210
L65250 29230
L65200 29230
L65150 29210
L65130 29180
L65100 29140
L65080 29040
L65080 28920
L65100 28830
L65130 28780
L65150 28760
L65200 28730
" />
<path d="M65550 28780
L65580 28760
L65630 28730
L65750 28730
L65790 28760
L65820 28780
L65840 28830
L65840 28870
L65820 28950
L65530 29230
L65840 29230
" />
<path d="M66030 28780
L66050 28760
L66100 28730
L66220 28730
L66270 28760
L66290 28780
L66320 28830
L66320 28870
L66290 28950
L66010 29230
L66320 29230
" />
<path d="M66600 28950
L66550 28920
L66530 28900
L66510 28850
L66510 28830
L66530 28780
L66550 28760
L66600 28730
L66700 28730
L66750 28760
L66770 28780
L66790 28830
L66790 28850
L66770 28900
L66750 28920
L66700 28950
L66600 28950
L66550 28970
L66530 28990
L66510 29040
L66510 29140
L66530 29180
L66550 29210
L66600 29230
L66700 29230
L66750 29210
L66770 29180
L66790 29140
L66790 29040
L66770 28990
L66750 28970
L66700 28950
" />
<path d="M66890 29280
L67270 29280
" />
<path d="M67360 29210
L67440 29230
L67550 29230
L67600 29210
L67630 29180
L67650 29140
L67650 29090
L67630 29040
L67600 29020
L67550 28990
L67460 28970
L67410 28950
L67390 28920
L67360 28870
L67360 28830
L67390 28780
L67410 28760
L67460 28730
L67580 28730
L67650 28760
" />
<path d="M67960 28730
L68050 28730
L68100 28760
L68150 28800
L68170 28900
L68170 29060
L68150 29160
L68100 29210
L68050 29230
L67960 29230
L67910 29210
L67860 29160
L67840 29060
L67840 28900
L67860 28800
L67910 28760
L67960 28730
" />
<path d="M68320 28730
L68600 28730
" />
<path d="M68460 29230
L68460 28730
" />
<path d="M68750 28780
L68770 28760
L68820 28730
L68940 28730
L68980 28760
L69010 28780
L69030 28830
L69030 28870
L69010 28950
L68720 29230
L69030 29230
" />
<path d="M69200 28730
L69510 28730
L69340 28920
L69410 28920
L69460 28950
L69480 28970
L69510 29020
L69510 29140
L69480 29180
L69460 29210
L69410 29230
L69270 29230
L69220 29210
L69200 29180
" />
<path d="M69720 29040
L70100 29040
" />
<path d="M70580 28730
L70340 28730
L70320 28970
L70340 28950
L70390 28920
L70510 28920
L70550 28950
L70580 28970
L70600 29020
L70600 29140
L70580 29180
L70550 29210
L70510 29230
L70390 29230
L70340 29210
L70320 29180
" />
</g>
</g>
<g style="fill:#008484; fill-opacity:0.0; 
stroke:#008484; stroke-width:0; stroke-opacity:1; 
stroke-linecap:round; stroke-linejoin:round;">
<g >
</g>
<g style="fill:#840000; fill-opacity:0.0; 
stroke:#840000; stroke-width:0; stroke-opacity:1; 
stroke-linecap:round; stroke-linejoin:round;">
</g>
<g style="fill:#FFFFC2; fill-opacity:0.0; 
stroke:#FFFFC2; stroke-width:0; stroke-opacity:1; 
stroke-linecap:round; stroke-linejoin:round;">
</g>
<g style="fill:#FFFFC2; fill-opacity:0.6; 
stroke:#FFFFC2; stroke-width:0; stroke-opacity:1; 
stroke-linecap:round; stroke-linejoin:round;">
<rect x="44000" y="38250" width="4000" height="2750" rx="0" />
</g>
<g style="fill:#840000; fill-opacity:0.6; 
stroke:#840000; stroke-width:0; stroke-opacity:1; 
stroke-linecap:round; stroke-linejoin:round;">
</g>
<g style="fill:#840000; fill-opacity:0.0; 
stroke:#840000; stroke-width:100; stroke-opacity:1; 
stroke-linecap:round; stroke-linejoin:round;">
<rect x="44000" y="38250" width="4000" height="2750" rx="0" />
</g>
<g style="fill:#840000; fill-opacity:0.0; 
stroke:#840000; stroke-width:60; stroke-opacity:1; 
stroke-linecap:round; stroke-linejoin:round;">
<path d="M46000 41000
L46000 42000
" />
</g>
<g style="fill:#008484; fill-opacity:0.0; 
stroke:#008484; stroke-width:60; stroke-opacity:1; 
stroke-linecap:round; stroke-linejoin:round;">
<path d="M45750 40480
L45720 40530
L45720 40600
L45750 40670
L45790 40720
L45840 40750
L45940 40770
L46010 40770
L46100 40750
L46150 40720
L46200 40670
L46220 40600
L46220 40560
L46200 40480
L46170 40460
L46010 40460
L46010 40560
" />
<path d="M46220 40250
L45720 40250
L46220 39960
L45720 39960
" />
<path d="M46220 39720
L45720 39720
L45720 39600
L45750 39530
L45790 39480
L45840 39460
L45940 39440
L46010 39440
L46100 39460
L46150 39480
L46200 39530
L46220 39600
L46220 39720
" />
</g>
<g style="fill:#840000; fill-opacity:0.0; 
stroke:#840000; stroke-width:60; stroke-opacity:1; 
stroke-linecap:round; stroke-linejoin:round;">
<path d="M45870 41350
L45870 41640
" />
<path d="M45870 41500
L45370 41500
L45440 41540
L45490 41590
L45510 41640
" />
<path d="M48000 39000
L49000 39000
" />
</g>
<g style="fill:#008484; fill-opacity:0.0; 
stroke:#008484; stroke-width:60; stroke-opacity:1; 
stroke-linecap:round; stroke-linejoin:round;">
<path d="M46960 38720
L47130 39220
L47290 38720
" />
<path d="M47560 38720
L47650 38720
L47700 38750
L47750 38790
L47770 38890
L47770 39050
L47750 39150
L47700 39200
L47650 39220
L47560 39220
L47510 39200
L47460 39150
L47440 39050
L47440 38890
L47460 38790
L47510 38750
L47560 38720
" />
</g>
<g style="fill:#840000; fill-opacity:0.0; 
stroke:#840000; stroke-width:60; stroke-opacity:1; 
stroke-linecap:round; stroke-linejoin:round;">
<path d="M48350 38420
L48380 38400
L48420 38370
L48540 38370
L48590 38400
L48610 38420
L48640 38470
L48640 38510
L48610 38590
L48330 38870
L48640 38870
" />
<path d="M44000 39000
L43000 39000
" />
</g>
<g style="fill:#008484; fill-opacity:0.0; 
stroke:#008484; stroke-width:60; stroke-opacity:1; 
stroke-linecap:round; stroke-linejoin:round;">
<path d="M44170 38720
L44340 39220
L44510 38720
" />
<path d="M44670 39220
L44670 38720
" />
</g>
<g style="fill:#840000; fill-opacity:0.0; 
stroke:#840000; stroke-width:60; stroke-opacity:1; 
stroke-linecap:round; stroke-linejoin:round;">
<path d="M43330 38370
L43640 38370
L43470 38560
L43540 38560
L43590 38590
L43610 38610
L43640 38660
L43640 38780
L43610 38820
L43590 38850
L43540 38870
L43400 38870
L43350 38850
L43330 38820
" />
</g>
<g style="fill:#008484; fill-opacity:0.0; 
stroke:#008484; stroke-width:60; stroke-opacity:1; 
stroke-linecap:round; stroke-linejoin:round;">
<path d="M45610 36320
L45610 36730
L45640 36770
L45660 36800
L45710 36820
L45800 36820
L45850 36800
L45880 36770
L45900 36730
L45900 36320
" />
<path d="M46110 36370
L46140 36350
L46190 36320
L46300 36320
L46350 36350
L46380 36370
L46400 36420
L46400 36460
L46380 36540
L46090 36820
L46400 36820
" />
<path d="M44010 37730
L43770 37730
L43770 37230
" />
<path d="M44170 37730
L44170 37230
L44340 37590
L44510 37230
L44510 37730
" />
<path d="M45010 37730
L44720 37730
" />
<path d="M44860 37730
L44860 37230
L44820 37300
L44770 37350
L44720 37370
" />
<path d="M45480 37730
L45200 37730
" />
<path d="M45340 37730
L45340 37230
L45290 37300
L45250 37350
L45200 37370
" />
<path d="M45960 37730
L45670 37730
" />
<path d="M45820 37730
L45820 37230
L45770 37300
L45720 37350
L45670 37370
" />
<path d="M46130 37230
L46460 37230
L46250 37730
" />
<path d="M46650 37540
L47030 37540
" />
<path d="M47220 37230
L47530 37230
L47360 37420
L47440 37420
L47480 37450
L47510 37470
L47530 37520
L47530 37640
L47510 37680
L47480 37710
L47440 37730
L47290 37730
L47250 37710
L47220 37680
" />
<path d="M47750 37680
L47770 37710
L47750 37730
L47720 37710
L47750 37680
L47750 37730
" />
<path d="M47940 37230
L48250 37230
L48080 37420
L48150 37420
L48200 37450
L48220 37470
L48250 37520
L48250 37640
L48220 37680
L48200 37710
L48150 37730
L48010 37730
L47960 37710
L47940 37680
" />
</g>
</g>
<g style="fill:#008484; fill-opacity:0.0; 
stroke:#008484; stroke-width:0; stroke-opacity:1; 
stroke-linecap:round; stroke-linejoin:round;">
<g >
</g>
<g style="fill:#840000; fill-opacity:0.0; 
stroke:#840000; stroke-width:0; stroke-opacity:1; 
stroke-linecap:round; stroke-linejoin:round;">
</g>
<g style="fill:#840000; fill-opacity:0.0; 
stroke:#840000; stroke-width:200; stroke-opacity:1; 
stroke-linecap:round; stroke-linejoin:round;">
<path style="fill:#840000; fill-opacity:0.0; 
stroke:#840000; stroke-width:200; stroke-opacity:1; 
stroke-linecap:round; stroke-linejoin:round;fill:none"
d="M 39200,41300
40800,41300
Z" /> 
<path style="fill:#840000; fill-opacity:0.0; 
stroke:#840000; stroke-width:200; stroke-opacity:1; 
stroke-linecap:round; stroke-linejoin:round;fill:none"
d="M 39200,40700
40800,40700
Z" /> 
</g>
<g style="fill:#840000; fill-opacity:0.0; 
stroke:#840000; stroke-width:60; stroke-opacity:1; 
stroke-linecap:round; stroke-linejoin:round;">
<path d="M40000 40600
L40000 39500
" />
<path d="M40000 41400
L40000 42500
" />
</g>
<g style="fill:#008484; fill-opacity:0.0; 
stroke:#008484; stroke-width:60; stroke-opacity:1; 
stroke-linecap:round; stroke-linejoin:round;">
<path d="M41570 40730
L41550 40760
L41480 40780
L41430 40780
L41360 40760
L41310 40710
L41290 40660
L41260 40570
L41260 40500
L41290 40400
L41310 40350
L41360 40310
L41430 40280
L41480 40280
L41550 40310
L41570 40330
" />
<path d="M42050 40780
L41760 40780
" />
<path d="M41910 40780
L41910 40280
L41860 40350
L41810 40400
L41760 40420
" />
<path d="M42290 40780
L42380 40780
L42430 40760
L42450 40730
L42500 40660
L42530 40570
L42530 40380
L42500 40330
L42480 40310
L42430 40280
L42340 40280
L42290 40310
L42260 40330
L42240 40380
L42240 40500
L42260 40540
L42290 40570
L42340 40590
L42430 40590
L42480 40570
L42500 40540
L42530 40500
" />
<path d="M41560 41690
L41270 41690
" />
<path d="M41420 41690
L41420 41190
L41370 41260
L41320 41310
L41270 41330
" />
<path d="M41870 41190
L41920 41190
L41960 41220
L41990 41240
L42010 41290
L42030 41380
L42030 41500
L42010 41600
L41990 41640
L41960 41670
L41920 41690
L41870 41690
L41820 41670
L41800 41640
L41770 41600
L41750 41500
L41750 41380
L41770 41290
L41800 41240
L41820 41220
L41870 41190
" />
<path d="M42250 41190
L42250 41600
L42270 41640
L42300 41670
L42340 41690
L42440 41690
L42490 41670
L42510 41640
L42530 41600
L42530 41190
" />
</g>
</g>
<g style="fill:#008484; fill-opacity:0.0; 
stroke:#008484; stroke-width:0; stroke-opacity:1; 
stroke-linecap:round; stroke-linejoin:round;">
<g >
</g>
<g style="fill:#840000; fill-opacity:0.0; 
stroke:#840000; stroke-width:0; stroke-opacity:1; 
stroke-linecap:round; stroke-linejoin:round;">
</g>
<g style="fill:#840000; fill-opacity:0.0; 
stroke:#840000; stroke-width:200; stroke-opacity:1; 
stroke-linecap:round; stroke-linejoin:round;">
<path style="fill:#840000; fill-opacity:0.0; 
stroke:#840000; stroke-width:200; stroke-opacity:1; 
stroke-linecap:round; stroke-linejoin:round;fill:none"
d="M 50700,41300
52300,41300
Z" /> 
<path style="fill:#840000; fill-opacity:0.0; 
stroke:#840000; stroke-width:200; stroke-opacity:1; 
stroke-linecap:round; stroke-linejoin:round;fill:none"
d="M 50700,40700
52300,40700
Z" /> 
</g>
<g style="fill:#840000; fill-opacity:0.0; 
stroke:#840000; stroke-width:60; stroke-opacity:1; 
stroke-linecap:round; stroke-linejoin:round;">
<path d="M51500 40600
L51500 39500
" />
<path d="M51500 41400
L51500 42500
" />
</g>
<g style="fill:#008484; fill-opacity:0.0; 
stroke:#008484; stroke-width:60; stroke-opacity:1; 
stroke-linecap:round; stroke-linejoin:round;">
<path d="M53070 40730
L53050 40760
L52980 40780
L52930 40780
L52860 40760
L52810 40710
L52790 40660
L52760 40570
L52760 40500
L52790 40400
L52810 40350
L52860 40310
L52930 40280
L52980 40280
L53050 40310
L53070 40330
" />
<path d="M53260 40330
L53290 40310
L53340 40280
L53450 40280
L53500 40310
L53530 40330
L53550 40380
L53550 40420
L53530 40500
L53240 40780
L53550 40780
" />
<path d="M53860 40280
L53910 40280
L53950 40310
L53980 40330
L54000 40380
L54030 40470
L54030 40590
L54000 40690
L53980 40730
L53950 40760
L53910 40780
L53860 40780
L53810 40760
L53790 40730
L53760 40690
L53740 40590
L53740 40470
L53760 40380
L53790 40330
L53810 40310
L53860 40280
" />
<path d="M53060 41690
L52770 41690
" />
<path d="M52920 41690
L52920 41190
L52870 41260
L52820 41310
L52770 41330
" />
<path d="M53370 41190
L53420 41190
L53460 41220
L53490 41240
L53510 41290
L53530 41380
L53530 41500
L53510 41600
L53490 41640
L53460 41670
L53420 41690
L53370 41690
L53320 41670
L53300 41640
L53270 41600
L53250 41500
L53250 41380
L53270 41290
L53300 41240
L53320 41220
L53370 41190
" />
<path d="M53750 41190
L53750 41600
L53770 41640
L53800 41670
L53840 41690
L53940 41690
L53990 41670
L54010 41640
L54030 41600
L54030 41190
" />
</g>
</g>
<g style="fill:#008484; fill-opacity:0.0; 
stroke:#008484; stroke-width:0; stroke-opacity:1; 
stroke-linecap:round; stroke-linejoin:round;">
<g >
</g>
<g style="fill:#840000; fill-opacity:0.0; 
stroke:#840000; stroke-width:0; stroke-opacity:1; 
stroke-linecap:round; stroke-linejoin:round;">
</g>
<g style="fill:#840000; fill-opacity:0.0; 
stroke:#840000; stroke-width:60; stroke-opacity:1; 
stroke-linecap:round; stroke-linejoin:round;">
<path style="fill:#840000; fill-opacity:0.0; 
stroke:#840000; stroke-width:60; stroke-opacity:1; 
stroke-linecap:round; stroke-linejoin:round;fill:none"
d="M 36700,23500
37000,23000
Z" /> 
<path style="fill:#840000; fill-opacity:0.0; 
stroke:#840000; stroke-width:60; stroke-opacity:1; 
stroke-linecap:round; stroke-linejoin:round;fill:none"
d="M 37000,24000
37000,23000
Z" /> 
<path style="fill:#840000; fill-opacity:0.0; 
stroke:#840000; stroke-width:60; stroke-opacity:1; 
stroke-linecap:round; stroke-linejoin:round;fill:none"
d="M 37000,23000
37300,23500
Z" /> 
</g>
<g style="fill:#008484; fill-opacity:0.0; 
stroke:#008484; stroke-width:60; stroke-opacity:1; 
stroke-linecap:round; stroke-linejoin:round;">
<path d="M36500 22320
L36880 22320
" />
<path d="M36690 22510
L36690 22130
" />
<path d="M37360 22010
L37120 22010
L37100 22250
L37120 22230
L37170 22200
L37290 22200
L37340 22230
L37360 22250
L37380 22300
L37380 22420
L37360 22460
L37340 22490
L37290 22510
L37170 22510
L37120 22490
L37100 22460
" />
<path d="M37530 22010
L37690 22510
L37860 22010
" />
</g>
</g>
<g style="fill:#008484; fill-opacity:0.0; 
stroke:#008484; stroke-width:0; stroke-opacity:1; 
stroke-linecap:round; stroke-linejoin:round;">
<g >
</g>
<g style="fill:#840000; fill-opacity:0.0; 
stroke:#840000; stroke-width:0; stroke-opacity:1; 
stroke-linecap:round; stroke-linejoin:round;">
</g>
<g style="fill:#840000; fill-opacity:0.0; 
stroke:#840000; stroke-width:60; stroke-opacity:1; 
stroke-linecap:round; stroke-linejoin:round;">
<path style="fill:#840000; fill-opacity:0.0; 
stroke:#840000; stroke-width:60; stroke-opacity:1; 
stroke-linecap:round; stroke-linejoin:round;fill:none"
d="M 46000,47000
46000,47500
46500,47500
46000,48000
45500,47500
46000,47500
Z" /> 
</g>
<g style="fill:#008484; fill-opacity:0.0; 
stroke:#008484; stroke-width:60; stroke-opacity:1; 
stroke-linecap:round; stroke-linejoin:round;">
<path d="M45660 48500
L45620 48470
L45550 48470
L45470 48500
L45430 48540
L45400 48590
L45380 48690
L45380 48760
L45400 48850
L45430 48900
L45470 48950
L45550 48970
L45590 48970
L45660 48950
L45690 48920
L45690 48760
L45590 48760
" />
<path d="M45900 48970
L45900 48470
L46190 48970
L46190 48470
" />
<path d="M46430 48970
L46430 48470
L46550 48470
L46620 48500
L46660 48540
L46690 48590
L46710 48690
L46710 48760
L46690 48850
L46660 48900
L46620 48950
L46550 48970
L46430 48970
" />
</g>
</g>
<g style="fill:#008484; fill-opacity:0.0; 
stroke:#008484; stroke-width:60; stroke-opacity:1; 
stroke-linecap:round; stroke-linejoin:round;">
</g>
<g style="fill:#008400; fill-opacity:0.0; 
stroke:#008400; stroke-width:60; stroke-opacity:1; 
stroke-linecap:round; stroke-linejoin:round;">
<path d="M51500 45500
L51500 42500
" />
<path d="M26500 39000
L23000 39000
" />
<path d="M85500 35000
L89000 35000
" />
<path d="M23000 42500
L23000 45500
" />
<path d="M73000 47000
L78500 47000
" />
<path d="M73500 30500
L78500 30500
" />
<path d="M81500 47000
L83000 47000
" />
<path d="M23000 45500
L24500 45500
" />
<path d="M40000 42500
L40000 45500
" />
<path d="M81500 30500
L82500 30500
" />
<path d="M40000 45500
L46000 45500
" />
<path d="M24500 45500
L26500 45500
" />
<path d="M19000 45500
L19000 42500
" />
<path d="M26500 45500
L26500 42500
" />
<path d="M86000 51500
L89000 51500
" />
<path d="M23000 45500
L19000 45500
" />
<path d="M19000 39000
L23000 39000
" />
<path d="M19000 39500
L19000 39000
" />
<path d="M46000 42000
L46000 45500
" />
<path d="M33000 39000
L37000 39000
" />
<path d="M24500 47000
L24500 45500
" />
<path d="M89000 34500
L89000 35000
" />
<path d="M73500 27000
L73500 30500
" />
<path d="M89000 27000
L73500 27000
" />
<path d="M89000 31500
L89000 27000
" />
<path d="M73000 43500
L73000 47000
" />
<path d="M89000 43500
L73000 43500
" />
<path d="M89000 48000
L89000 43500
" />
<path d="M86000 47000
L93500 47000
" />
<path d="M85500 30500
L93500 30500
" />
<path d="M89000 51500
L93500 51500
" />
<path d="M89000 51000
L89000 51500
" />
<path d="M89000 35000
L93500 35000
" />
<path d="M63500 47000
L61500 47000
" />
<path d="M73500 35000
L73500 35500
" />
<path d="M73500 35000
L82500 35000
" />
<path d="M93500 35000
L96000 35000
" />
<path d="M93500 30500
L93500 35000
" />
<path d="M93500 51500
L96000 51500
" />
<path d="M93500 47000
L93500 51500
" />
<path d="M73000 51500
L73000 50500
" />
<path d="M73000 51500
L83000 51500
" />
<path d="M73000 41000
L73000 43500
" />
<path d="M73500 25500
L73500 27000
" />
<path d="M37000 39000
L37000 24000
" />
<path d="M66500 52000
L66500 51000
" />
<path d="M67000 35500
L67000 34500
" />
<path d="M55000 47000
L55000 30500
" />
<path d="M57500 47000
L55000 47000
" />
<path d="M57500 30500
L55000 30500
" />
<path d="M51500 39000
L51500 30500
" />
<path d="M51500 39000
L51500 39500
" />
<path d="M49000 39000
L51500 39000
" />
<path d="M57500 31500
L57500 30500
" />
<path d="M55000 30500
L51500 30500
" />
<path d="M57500 47000
L57500 47500
" />
<path d="M61500 47000
L57500 47000
" />
<path d="M40000 39000
L37000 39000
" />
<path d="M57500 52000
L57500 50500
" />
<path d="M73000 47000
L73000 47500
" />
<path d="M69500 47000
L73000 47000
" />
<path d="M40000 39000
L40000 39500
" />
<path d="M73000 52000
L73000 51500
" />
<path d="M61500 31500
L61500 30500
" />
<path d="M26500 39500
L26500 39000
" />
<path d="M23000 39000
L23000 39500
" />
<path d="M51500 30500
L51500 24000
" />
<path d="M30000 39000
L26500 39000
" />
<path d="M23000 24000
L23000 39000
" />
<path d="M61500 30500
L57500 30500
" />
<path d="M64000 31500
L61500 31500
" />
<path d="M46000 45500
L51500 45500
" />
<path d="M46000 47000
L46000 45500
" />
<path d="M43000 39000
L40000 39000
" />
<path d="M63500 48000
L61500 48000
" />
<path d="M61500 48000
L61500 47000
" />
<path d="M73500 34500
L73500 35000
" />
<path d="M73500 30500
L73500 31500
" />
<path d="M64000 30500
L61500 30500
" />
<path d="M70000 30500
L73500 30500
" />
<path d="M57500 35500
L57500 34500
" />
</g>
<g style="fill:#840000; fill-opacity:0.0; 
stroke:#840000; stroke-width:60; stroke-opacity:1; 
stroke-linecap:round; stroke-linejoin:round;">
<path d="M51220 23580
L51220 23270
L51410 23440
L51410 23370
L51440 23320
L51460 23300
L51510 23270
L51630 23270
L51670 23300
L51700 23320
L51720 23370
L51720 23510
L51700 23560
L51670 23580
" />
<path d="M51390 23110
L51720 22990
L51390 22870
" />
<path d="M51220 22730
L51220 22420
L51410 22580
L51410 22510
L51440 22460
L51460 22440
L51510 22420
L51630 22420
L51670 22440
L51700 22460
L51720 22510
L51720 22660
L51700 22700
L51670 22730
" />
</g>
<g style="fill:#840000; fill-opacity:0.0; 
stroke:#840000; stroke-width:100; stroke-opacity:1; 
stroke-linecap:round; stroke-linejoin:round;">
<path style="fill:#840000; fill-opacity:0.0; 
stroke:#840000; stroke-width:100; stroke-opacity:1; 
stroke-linecap:round; stroke-linejoin:round;fill:none"
d="M 51500,24000
51940,23750
51940,22190
51500,22190
51060,22190
51060,23750
51500,24000
Z" /> 
</g>
<g style="fill:#840000; fill-opacity:0.0; 
stroke:#840000; stroke-width:60; stroke-opacity:1; 
stroke-linecap:round; stroke-linejoin:round;">
<path d="M96570 51300
L96540 51280
L96480 51280
L96420 51300
L96390 51340
L96370 51370
L96350 51450
L96350 51500
L96370 51580
L96390 51620
L96420 51650
L96480 51670
L96520 51670
L96570 51650
L96590 51630
L96590 51500
L96520 51500
" />
<path d="M96760 51670
L96760 51280
L96980 51670
L96980 51280
" />
<path d="M97170 51670
L97170 51280
L97260 51280
L97320 51300
L97350 51340
L97370 51370
L97390 51450
L97390 51500
L97370 51580
L97350 51620
L97320 51650
L97260 51670
L97170 51670
" />
<path d="M97540 51560
L97720 51560
" />
<path d="M97500 51670
L97630 51280
L97760 51670
" />
<path d="M97800 51710
L98100 51710
" />
<path d="M98320 51470
L98370 51490
L98390 51500
L98410 51540
L98410 51600
L98390 51630
L98370 51650
L98340 51670
L98190 51670
L98190 51280
L98320 51280
L98360 51300
L98370 51320
L98390 51360
L98390 51390
L98370 51430
L98360 51450
L98320 51470
L98190 51470
" />
</g>
<g style="fill:#840000; fill-opacity:0.0; 
stroke:#840000; stroke-width:100; stroke-opacity:1; 
stroke-linecap:round; stroke-linejoin:round;">
<path style="fill:#840000; fill-opacity:0.0; 
stroke:#840000; stroke-width:100; stroke-opacity:1; 
stroke-linecap:round; stroke-linejoin:round;fill:none"
d="M 96000,51500
96190,51860
98630,51860
98630,51500
98630,51140
96190,51140
96000,51500
Z" /> 
</g>
<g style="fill:#840000; fill-opacity:0.0; 
stroke:#840000; stroke-width:60; stroke-opacity:1; 
stroke-linecap:round; stroke-linejoin:round;">
<path d="M96570 34800
L96540 34780
L96480 34780
L96420 34800
L96390 34840
L96370 34870
L96350 34950
L96350 35000
L96370 35080
L96390 35120
L96420 35150
L96480 35170
L96520 35170
L96570 35150
L96590 35130
L96590 35000
L96520 35000
" />
<path d="M96760 35170
L96760 34780
L96980 35170
L96980 34780
" />
<path d="M97170 35170
L97170 34780
L97260 34780
L97320 34800
L97350 34840
L97370 34870
L97390 34950
L97390 35000
L97370 35080
L97350 35120
L97320 35150
L97260 35170
L97170 35170
" />
<path d="M97540 35060
L97720 35060
" />
<path d="M97500 35170
L97630 34780
L97760 35170
" />
<path d="M97800 35210
L98100 35210
" />
<path d="M98170 35060
L98360 35060
" />
<path d="M98130 35170
L98260 34780
L98390 35170
" />
</g>
<g style="fill:#840000; fill-opacity:0.0; 
stroke:#840000; stroke-width:100; stroke-opacity:1; 
stroke-linecap:round; stroke-linejoin:round;">
<path style="fill:#840000; fill-opacity:0.0; 
stroke:#840000; stroke-width:100; stroke-opacity:1; 
stroke-linecap:round; stroke-linejoin:round;fill:none"
d="M 96000,35000
96190,35360
98570,35360
98570,35000
98570,34640
96190,34640
96000,35000
Z" /> 
</g>
<g style="fill:#840000; fill-opacity:0.0; 
stroke:#840000; stroke-width:60; stroke-opacity:1; 
stroke-linecap:round; stroke-linejoin:round;">
<path d="M72820 40640
L72800 40620
L72780 40590
L72780 40490
L72800 40460
L72820 40440
L72860 40420
L72890 40420
L72950 40440
L73170 40660
L73170 40420
" />
<path d="M72780 40310
L73170 40180
L72780 40050
" />
<path d="M72950 39860
L72930 39900
L72910 39920
L72870 39940
L72860 39940
L72820 39920
L72800 39900
L72780 39860
L72780 39790
L72800 39750
L72820 39730
L72860 39710
L72870 39710
L72910 39730
L72930 39750
L72950 39790
L72950 39860
L72970 39900
L72990 39920
L73020 39940
L73100 39940
L73130 39920
L73150 39900
L73170 39860
L73170 39790
L73150 39750
L73130 39730
L73100 39710
L73020 39710
L72990 39730
L72970 39750
L72950 39790
" />
<path d="M73210 39640
L73210 39340
" />
<path d="M72970 39120
L72990 39060
L73000 39040
L73040 39030
L73100 39030
L73130 39040
L73150 39060
L73170 39100
L73170 39250
L72780 39250
L72780 39120
L72800 39080
L72820 39060
L72860 39040
L72890 39040
L72930 39060
L72950 39080
L72970 39120
L72970 39250
" />
</g>
<g style="fill:#840000; fill-opacity:0.0; 
stroke:#840000; stroke-width:100; stroke-opacity:1; 
stroke-linecap:round; stroke-linejoin:round;">
<path style="fill:#840000; fill-opacity:0.0; 
stroke:#840000; stroke-width:100; stroke-opacity:1; 
stroke-linecap:round; stroke-linejoin:round;fill:none"
d="M 73000,41000
73360,40810
73360,38820
73000,38820
72640,38820
72640,40810
73000,41000
Z" /> 
</g>
<g style="fill:#840000; fill-opacity:0.0; 
stroke:#840000; stroke-width:60; stroke-opacity:1; 
stroke-linecap:round; stroke-linejoin:round;">
<path d="M73320 25140
L73300 25120
L73280 25090
L73280 24990
L73300 24960
L73320 24940
L73360 24920
L73390 24920
L73450 24940
L73670 25160
L73670 24920
" />
<path d="M73280 24810
L73670 24680
L73280 24550
" />
<path d="M73450 24360
L73430 24400
L73410 24420
L73370 24440
L73360 24440
L73320 24420
L73300 24400
L73280 24360
L73280 24290
L73300 24250
L73320 24230
L73360 24210
L73370 24210
L73410 24230
L73430 24250
L73450 24290
L73450 24360
L73470 24400
L73490 24420
L73520 24440
L73600 24440
L73630 24420
L73650 24400
L73670 24360
L73670 24290
L73650 24250
L73630 24230
L73600 24210
L73520 24210
L73490 24230
L73470 24250
L73450 24290
" />
<path d="M73710 24140
L73710 23840
" />
<path d="M73560 23770
L73560 23580
" />
<path d="M73670 23800
L73280 23670
L73670 23540
" />
</g>
<g style="fill:#840000; fill-opacity:0.0; 
stroke:#840000; stroke-width:100; stroke-opacity:1; 
stroke-linecap:round; stroke-linejoin:round;">
<path style="fill:#840000; fill-opacity:0.0; 
stroke:#840000; stroke-width:100; stroke-opacity:1; 
stroke-linecap:round; stroke-linejoin:round;fill:none"
d="M 73500,25500
73860,25310
73860,23370
73500,23370
73140,23370
73140,25310
73500,25500
Z" /> 
</g>
<g style="fill:#840000; fill-opacity:0.0; 
stroke:#840000; stroke-width:0; stroke-opacity:1; 
stroke-linecap:round; stroke-linejoin:round;">
</g>
<g style="fill:#008400; fill-opacity:0.0; 
stroke:#008400; stroke-width:0; stroke-opacity:1; 
stroke-linecap:round; stroke-linejoin:round;">
</g>
<g style="fill:#008400; fill-opacity:1.0; 
stroke:#008400; stroke-width:100; stroke-opacity:1; 
stroke-linecap:round; stroke-linejoin:round;">
<circle cx="23000" cy="45500" r="200" /> 
</g>
<g style="fill:#008400; fill-opacity:1.0; 
stroke:#008400; stroke-width:0; stroke-opacity:1; 
stroke-linecap:round; stroke-linejoin:round;">
</g>
<g style="fill:#008400; fill-opacity:1.0; 
stroke:#008400; stroke-width:100; stroke-opacity:1; 
stroke-linecap:round; stroke-linejoin:round;">
<circle cx="26500" cy="39000" r="200" /> 
</g>
<g style="fill:#008400; fill-opacity:1.0; 
stroke:#008400; stroke-width:0; stroke-opacity:1; 
stroke-linecap:round; stroke-linejoin:round;">
</g>
<g style="fill:#008400; fill-opacity:1.0; 
stroke:#008400; stroke-width:100; stroke-opacity:1; 
stroke-linecap:round; stroke-linejoin:round;">
<circle cx="23000" cy="39000" r="200" /> 
</g>
<g style="fill:#008400; fill-opacity:1.0; 
stroke:#008400; stroke-width:0; stroke-opacity:1; 
stroke-linecap:round; stroke-linejoin:round;">
</g>
<g style="fill:#008400; fill-opacity:1.0; 
stroke:#008400; stroke-width:100; stroke-opacity:1; 
stroke-linecap:round; stroke-linejoin:round;">
<circle cx="73500" cy="27000" r="200" /> 
</g>
<g style="fill:#008400; fill-opacity:1.0; 
stroke:#008400; stroke-width:0; stroke-opacity:1; 
stroke-linecap:round; stroke-linejoin:round;">
</g>
<g style="fill:#008400; fill-opacity:1.0; 
stroke:#008400; stroke-width:100; stroke-opacity:1; 
stroke-linecap:round; stroke-linejoin:round;">
<circle cx="61500" cy="30500" r="200" /> 
</g>
<g style="fill:#008400; fill-opacity:1.0; 
stroke:#008400; stroke-width:0; stroke-opacity:1; 
stroke-linecap:round; stroke-linejoin:round;">
</g>
<g style="fill:#008400; fill-opacity:1.0; 
stroke:#008400; stroke-width:100; stroke-opacity:1; 
stroke-linecap:round; stroke-linejoin:round;">
<circle cx="46000" cy="45500" r="200" /> 
</g>
<g style="fill:#008400; fill-opacity:1.0; 
stroke:#008400; stroke-width:0; stroke-opacity:1; 
stroke-linecap:round; stroke-linejoin:round;">
</g>
<g style="fill:#008400; fill-opacity:1.0; 
stroke:#008400; stroke-width:100; stroke-opacity:1; 
stroke-linecap:round; stroke-linejoin:round;">
<circle cx="24500" cy="45500" r="200" /> 
</g>
<g style="fill:#008400; fill-opacity:1.0; 
stroke:#008400; stroke-width:0; stroke-opacity:1; 
stroke-linecap:round; stroke-linejoin:round;">
</g>
<g style="fill:#008400; fill-opacity:1.0; 
stroke:#008400; stroke-width:100; stroke-opacity:1; 
stroke-linecap:round; stroke-linejoin:round;">
<circle cx="73000" cy="43500" r="200" /> 
</g>
<g style="fill:#008400; fill-opacity:1.0; 
stroke:#008400; stroke-width:0; stroke-opacity:1; 
stroke-linecap:round; stroke-linejoin:round;">
</g>
<g style="fill:#008400; fill-opacity:1.0; 
stroke:#008400; stroke-width:100; stroke-opacity:1; 
stroke-linecap:round; stroke-linejoin:round;">
<circle cx="37000" cy="39000" r="200" /> 
</g>
<g style="fill:#008400; fill-opacity:1.0; 
stroke:#008400; stroke-width:0; stroke-opacity:1; 
stroke-linecap:round; stroke-linejoin:round;">
</g>
<g style="fill:#008400; fill-opacity:1.0; 
stroke:#008400; stroke-width:100; stroke-opacity:1; 
stroke-linecap:round; stroke-linejoin:round;">
<circle cx="73000" cy="47000" r="200" /> 
</g>
<g style="fill:#008400; fill-opacity:1.0; 
stroke:#008400; stroke-width:0; stroke-opacity:1; 
stroke-linecap:round; stroke-linejoin:round;">
</g>
<g style="fill:#008400; fill-opacity:1.0; 
stroke:#008400; stroke-width:100; stroke-opacity:1; 
stroke-linecap:round; stroke-linejoin:round;">
<circle cx="73500" cy="30500" r="200" /> 
</g>
<g style="fill:#008400; fill-opacity:1.0; 
stroke:#008400; stroke-width:0; stroke-opacity:1; 
stroke-linecap:round; stroke-linejoin:round;">
</g>
<g style="fill:#008400; fill-opacity:1.0; 
stroke:#008400; stroke-width:100; stroke-opacity:1; 
stroke-linecap:round; stroke-linejoin:round;">
<circle cx="61500" cy="47000" r="200" /> 
</g>
<g style="fill:#008400; fill-opacity:1.0; 
stroke:#008400; stroke-width:0; stroke-opacity:1; 
stroke-linecap:round; stroke-linejoin:round;">
</g>
<g style="fill:#008400; fill-opacity:1.0; 
stroke:#008400; stroke-width:100; stroke-opacity:1; 
stroke-linecap:round; stroke-linejoin:round;">
<circle cx="51500" cy="30500" r="200" /> 
</g>
<g style="fill:#008400; fill-opacity:1.0; 
stroke:#008400; stroke-width:0; stroke-opacity:1; 
stroke-linecap:round; stroke-linejoin:round;">
</g>
<g style="fill:#008400; fill-opacity:1.0; 
stroke:#008400; stroke-width:100; stroke-opacity:1; 
stroke-linecap:round; stroke-linejoin:round;">
<circle cx="89000" cy="51500" r="200" /> 
</g>
<g style="fill:#008400; fill-opacity:1.0; 
stroke:#008400; stroke-width:0; stroke-opacity:1; 
stroke-linecap:round; stroke-linejoin:round;">
</g>
<g style="fill:#008400; fill-opacity:1.0; 
stroke:#008400; stroke-width:100; stroke-opacity:1; 
stroke-linecap:round; stroke-linejoin:round;">
<circle cx="73000" cy="51500" r="200" /> 
</g>
<g style="fill:#008400; fill-opacity:1.0; 
stroke:#008400; stroke-width:0; stroke-opacity:1; 
stroke-linecap:round; stroke-linejoin:round;">
</g>
<g style="fill:#008400; fill-opacity:1.0; 
stroke:#008400; stroke-width:100; stroke-opacity:1; 
stroke-linecap:round; stroke-linejoin:round;">
<circle cx="55000" cy="30500" r="200" /> 
</g>
<g style="fill:#008400; fill-opacity:1.0; 
stroke:#008400; stroke-width:0; stroke-opacity:1; 
stroke-linecap:round; stroke-linejoin:round;">
</g>
<g style="fill:#008400; fill-opacity:1.0; 
stroke:#008400; stroke-width:100; stroke-opacity:1; 
stroke-linecap:round; stroke-linejoin:round;">
<circle cx="89000" cy="35000" r="200" /> 
</g>
<g style="fill:#008400; fill-opacity:1.0; 
stroke:#008400; stroke-width:0; stroke-opacity:1; 
stroke-linecap:round; stroke-linejoin:round;">
</g>
<g style="fill:#008400; fill-opacity:1.0; 
stroke:#008400; stroke-width:100; stroke-opacity:1; 
stroke-linecap:round; stroke-linejoin:round;">
<circle cx="57500" cy="47000" r="200" /> 
</g>
<g style="fill:#008400; fill-opacity:1.0; 
stroke:#008400; stroke-width:0; stroke-opacity:1; 
stroke-linecap:round; stroke-linejoin:round;">
</g>
<g style="fill:#008400; fill-opacity:1.0; 
stroke:#008400; stroke-width:100; stroke-opacity:1; 
stroke-linecap:round; stroke-linejoin:round;">
<circle cx="51500" cy="39000" r="200" /> 
</g>
<g style="fill:#008400; fill-opacity:1.0; 
stroke:#008400; stroke-width:0; stroke-opacity:1; 
stroke-linecap:round; stroke-linejoin:round;">
</g>
<g style="fill:#008400; fill-opacity:1.0; 
stroke:#008400; stroke-width:100; stroke-opacity:1; 
stroke-linecap:round; stroke-linejoin:round;">
<circle cx="73500" cy="35000" r="200" /> 
</g>
<g style="fill:#008400; fill-opacity:1.0; 
stroke:#008400; stroke-width:0; stroke-opacity:1; 
stroke-linecap:round; stroke-linejoin:round;">
</g>
<g style="fill:#008400; fill-opacity:1.0; 
stroke:#008400; stroke-width:100; stroke-opacity:1; 
stroke-linecap:round; stroke-linejoin:round;">
<circle cx="57500" cy="30500" r="200" /> 
</g>
<g style="fill:#008400; fill-opacity:1.0; 
stroke:#008400; stroke-width:0; stroke-opacity:1; 
stroke-linecap:round; stroke-linejoin:round;">
</g>
<g style="fill:#008400; fill-opacity:1.0; 
stroke:#008400; stroke-width:100; stroke-opacity:1; 
stroke-linecap:round; stroke-linejoin:round;">
<circle cx="40000" cy="39000" r="200" /> 
</g>
<g style="fill:#008400; fill-opacity:1.0; 
stroke:#008400; stroke-width:0; stroke-opacity:1; 
stroke-linecap:round; stroke-linejoin:round;">
</g>
<g style="fill:#008400; fill-opacity:1.0; 
stroke:#008400; stroke-width:100; stroke-opacity:1; 
stroke-linecap:round; stroke-linejoin:round;">
<circle cx="93500" cy="35000" r="200" /> 
</g>
<g style="fill:#008400; fill-opacity:1.0; 
stroke:#008400; stroke-width:0; stroke-opacity:1; 
stroke-linecap:round; stroke-linejoin:round;">
</g>
<g style="fill:#008400; fill-opacity:1.0; 
stroke:#008400; stroke-width:100; stroke-opacity:1; 
stroke-linecap:round; stroke-linejoin:round;">
<circle cx="93500" cy="51500" r="200" /> 
</g> 
</svg>
