<?xml version="1.0" standalone="no"?>
 <!DOCTYPE svg PUBLIC "-//W3C//DTD SVG 1.1//EN" 
 "http://www.w3.org/Graphics/SVG/1.1/DTD/svg11.dtd"> 
<svg xmlns="http://www.w3.org/2000/svg" version="1.1" 
    width="4.22656cm" height="1.88722cm" viewBox="0 0 16640 7430 ">
<title>SVG Picture created as lna-F_SilkS.svg date 2019/10/17 15:50:46 </title>
  <desc>Picture generated by PCBNEW </desc>
<g style="fill:#000000; fill-opacity:1;stroke:#000000; stroke-opacity:1;
stroke-linecap:round; stroke-linejoin:round; "
 transform="translate(0 0) scale(1 1)">
</g>
<g style="fill:#000000; fill-opacity:0.0; 
stroke:#000000; stroke-width:-0.000393701; stroke-opacity:1; 
stroke-linecap:round; stroke-linejoin:round;">
</g>
<g style="fill:#008484; fill-opacity:0.0; 
stroke:#008484; stroke-width:-0.000393701; stroke-opacity:1; 
stroke-linecap:round; stroke-linejoin:round;">
</g>
<g style="fill:#008484; fill-opacity:0.0; 
stroke:#008484; stroke-width:59.0551; stroke-opacity:1; 
stroke-linecap:round; stroke-linejoin:round;">
<path d="M12632 289
L12857 289
" />
<path d="M12744 683
L12744 289
" />
<path d="M12969 570
L13157 570
" />
<path d="M12932 683
L13063 289
L13194 683
" />
<path d="M13551 683
L13419 495
" />
<path d="M13326 683
L13326 289
L13476 289
L13513 308
L13532 326
L13551 364
L13551 420
L13532 458
L13513 476
L13476 495
L13326 495
" />
<path d="M13663 289
L13888 289
" />
<path d="M13776 683
L13776 289
" />
<path d="M2369 531
L2557 531
" />
<path d="M2332 643
L2463 249
L2594 643
" />
<path d="M2726 381
L2726 643
" />
<path d="M2726 418
L2744 399
L2782 381
L2838 381
L2876 399
L2894 437
L2894 643
" />
<path d="M3026 381
L3176 381
" />
<path d="M3082 249
L3082 587
L3101 624
L3138 643
L3176 643
" />
<path d="M3457 624
L3419 643
L3344 643
L3307 624
L3288 587
L3288 437
L3307 399
L3344 381
L3419 381
L3457 399
L3476 437
L3476 474
L3288 512
" />
<path d="M3644 381
L3644 643
" />
<path d="M3644 418
L3663 399
L3701 381
L3757 381
L3794 399
L3813 437
L3813 643
" />
<path d="M4000 381
L4000 643
" />
<path d="M4000 418
L4019 399
L4057 381
L4113 381
L4150 399
L4169 437
L4169 643
" />
<path d="M4525 643
L4525 437
L4507 399
L4469 381
L4394 381
L4357 399
" />
<path d="M4525 624
L4488 643
L4394 643
L4357 624
L4338 587
L4338 549
L4357 512
L4394 493
L4488 493
L4525 474
" />
</g>
<g style="fill:#008484; fill-opacity:0.0; 
stroke:#008484; stroke-width:47.2441; stroke-opacity:1; 
stroke-linecap:round; stroke-linejoin:round;">
<path d="M9841 4433
L9841 4568
" />
<path d="M10242 4433
L10242 4568
" />
<path d="M11789 4575
L11789 5544
" />
<path d="M12368 4575
L11789 4575
" />
<path d="M12368 5544
L12368 4575
" />
<path d="M13949 3715
L12532 3715
" />
<path d="M13949 817
L12532 817
" />
<path d="M11791 2975
L11791 1558
" />
<path d="M14689 2975
L14689 1558
" />
<path d="M4126 3882
L2709 3882
" />
<path d="M4126 985
L2709 985
" />
<path d="M1969 3142
L1969 1725
" />
<path d="M4866 3142
L4866 1725
" />
<path d="M9244 937
L9874 937
" />
<path d="M9244 6056
L9874 6056
" />
<path d="M6882 937
L7512 937
" />
<path d="M6882 6056
L7512 6056
" />
<path d="M11126 2630
L11126 2000
" />
<path d="M5630 2630
L5630 2000
" />
<path d="M11126 4993
L11126 4363
" />
<path d="M5630 4993
L5630 4363
" />
<path d="M10140 2345
L9776 2345
" />
<path d="M10140 1813
L10140 2345
" />
<path d="M9766 1813
L10140 1813
" />
<path d="M9766 2335
L9766 1813
" />
<path d="M8506 2158
L8506 2493
" />
<path d="M8073 2158
L8506 2158
" />
<path d="M8073 2709
L8073 2158
" />
<path d="M8289 2709
L8073 2709
" />
<path d="M8506 2493
L8289 2709
" />
</g>
<g style="fill:#008484; fill-opacity:0.0; 
stroke:#008484; stroke-width:59.0551; stroke-opacity:1; 
stroke-linecap:round; stroke-linejoin:round;">
<path d="M9649 5029
L9461 5160
" />
<path d="M9649 5254
L9255 5254
L9255 5104
L9274 5066
L9292 5047
L9330 5029
L9386 5029
L9424 5047
L9442 5066
L9461 5104
L9461 5254
" />
<path d="M9649 4654
L9649 4879
" />
<path d="M9649 4766
L9255 4766
L9311 4804
L9349 4841
L9367 4879
" />
<path d="M12306 6543
L11912 6543
L11912 6449
L11931 6393
L11969 6356
L12006 6337
L12081 6318
L12137 6318
L12212 6337
L12250 6356
L12287 6393
L12306 6449
L12306 6543
" />
<path d="M11950 6168
L11931 6149
L11912 6112
L11912 6018
L11931 5981
L11950 5962
L11987 5943
L12025 5943
L12081 5962
L12306 6187
L12306 5943
" />
<path d="M13629 3950
L13629 3557
" />
<path d="M13629 3744
L13854 3744
" />
<path d="M13854 3950
L13854 3557
" />
<path d="M14023 3594
L14042 3575
L14079 3557
L14173 3557
L14210 3575
L14229 3594
L14248 3632
L14248 3669
L14229 3725
L14004 3950
L14248 3950
" />
<path d="M2410 3949
L2410 3555
" />
<path d="M2410 3743
L2635 3743
" />
<path d="M2635 3949
L2635 3555
" />
<path d="M3029 3949
L2804 3949
" />
<path d="M2916 3949
L2916 3555
L2879 3612
L2841 3649
L2804 3668
" />
<path d="M12456 3877
L12456 4159
L12437 4215
L12399 4252
L12343 4271
L12306 4271
" />
<path d="M12624 3915
L12643 3896
L12680 3877
L12774 3877
L12812 3896
L12830 3915
L12849 3952
L12849 3990
L12830 4046
L12605 4271
L12849 4271
" />
<path d="M3286 4088
L3286 4369
L3267 4425
L3230 4463
L3174 4482
L3136 4482
" />
<path d="M3680 4482
L3455 4482
" />
<path d="M3567 4482
L3567 4088
L3530 4144
L3492 4182
L3455 4201
" />
<path d="M4922 3628
L5204 3628
L5260 3647
L5297 3684
L5316 3740
L5316 3778
" />
<path d="M4922 3478
L4922 3234
L5072 3365
L5072 3309
L5091 3272
L5110 3253
L5147 3234
L5241 3234
L5279 3253
L5297 3272
L5316 3309
L5316 3422
L5297 3459
L5279 3478
" />
<path d="M10131 1671
L9737 1671
L9737 1577
L9756 1521
L9794 1484
L9831 1465
L9906 1446
L9962 1446
L10037 1465
L10075 1484
L10112 1521
L10131 1577
L10131 1671
" />
<path d="M10131 1071
L10131 1296
" />
<path d="M10131 1184
L9737 1184
L9794 1221
L9831 1259
L9850 1296
" />
<path d="M8084 1985
L8402 1985
L8440 1967
L8459 1948
L8477 1910
L8477 1836
L8459 1798
L8440 1779
L8402 1761
L8084 1761
" />
<path d="M8477 1367
L8477 1592
" />
<path d="M8477 1479
L8084 1479
L8140 1517
L8177 1554
L8196 1592
" />
<path d="M9580 1672
L9580 1860
L9186 1860
" />
<path d="M9224 1560
L9205 1541
L9186 1504
L9186 1410
L9205 1372
L9224 1354
L9261 1335
L9299 1335
L9355 1354
L9580 1579
L9580 1335
" />
<path d="M6986 2151
L6798 2151
L6798 1757
" />
<path d="M7323 2151
L7098 2151
" />
<path d="M7211 2151
L7211 1757
L7173 1814
L7136 1851
L7098 1870
" />
<path d="M9030 1999
L9049 2018
L9068 2074
L9068 2112
L9049 2168
L9012 2205
L8974 2224
L8899 2243
L8843 2243
L8768 2224
L8731 2205
L8693 2168
L8674 2112
L8674 2074
L8693 2018
L8712 1999
" />
<path d="M9068 1624
L9068 1849
" />
<path d="M9068 1737
L8674 1737
L8731 1774
L8768 1812
L8787 1849
" />
<g >
</g>
</g>
<g style="fill:#000000; fill-opacity:0.0; 
stroke:#000000; stroke-width:59.0551; stroke-opacity:1; 
stroke-linecap:round; stroke-linejoin:round;">
</g>
<g style="fill:#C2C200; fill-opacity:0.0; 
stroke:#C2C200; stroke-width:59.0551; stroke-opacity:1; 
stroke-linecap:round; stroke-linejoin:round;">
</g>
<g style="fill:#C2C200; fill-opacity:0.0; 
stroke:#C2C200; stroke-width:19.685; stroke-opacity:1; 
stroke-linecap:round; stroke-linejoin:round;">
<path d="M1331 6804
L1331 111
" />
<path d="M15307 6804
L1331 6804
" />
<path d="M15307 111
L15307 6804
" />
<path d="M1331 111
L15307 111
" />
<g >
</g>
<g >
</g>
<g >
</g>
<g >
</g>
<g >
</g>
<g >
</g>
<g >
</g>
<g >
</g>
<g >
</g>
<g >
</g>
<g >
</g>
<g >
</g>
<g >
</g>
</g> 
</svg>
