<?xml version="1.0" standalone="no"?>
 <!DOCTYPE svg PUBLIC "-//W3C//DTD SVG 1.1//EN" 
 "http://www.w3.org/Graphics/SVG/1.1/DTD/svg11.dtd"> 
<svg xmlns="http://www.w3.org/2000/svg" version="1.1" 
    width="4.22656cm" height="1.88722cm" viewBox="0 0 16640 7430 ">
<title>SVG Picture created as lna-F_Paste.svg date 2019/10/17 15:50:46 </title>
  <desc>Picture generated by PCBNEW </desc>
<g style="fill:#000000; fill-opacity:1;stroke:#000000; stroke-opacity:1;
stroke-linecap:round; stroke-linejoin:round; "
 transform="translate(0 0) scale(1 1)">
</g>
<g style="fill:#000000; fill-opacity:0.0; 
stroke:#000000; stroke-width:-0.000393701; stroke-opacity:1; 
stroke-linecap:round; stroke-linejoin:round;">
<g >
</g>
<g style="fill:#840000; fill-opacity:0.0; 
stroke:#840000; stroke-width:-0.000393701; stroke-opacity:1; 
stroke-linecap:round; stroke-linejoin:round;">
</g>
<g style="fill:#840000; fill-opacity:0.0; 
stroke:#840000; stroke-width:0; stroke-opacity:1; 
stroke-linecap:round; stroke-linejoin:round;">
</g>
<g style="fill:#840000; fill-opacity:1.0; 
stroke:#840000; stroke-width:0; stroke-opacity:1; 
stroke-linecap:round; stroke-linejoin:round;">
<path style="fill:#840000; fill-opacity:1.0; 
stroke:#840000; stroke-width:0; stroke-opacity:1; 
stroke-linecap:round; stroke-linejoin:round;fill-rule:evenodd;"
d="M 10144,4639
10153,4640
10162,4642
10171,4645
10179,4649
10187,4654
10194,4660
10201,4666
10207,4672
10213,4680
10217,4688
10221,4696
10224,4705
10227,4714
10228,4723
10228,4732
10228,4958
10228,4967
10227,4976
10224,4985
10221,4994
10217,5002
10213,5010
10207,5017
10201,5024
10194,5030
10187,5036
10179,5041
10171,5045
10162,5048
10153,5050
10144,5051
10135,5052
9948,5052
9939,5051
9930,5050
9921,5048
9912,5045
9904,5041
9896,5036
9889,5030
9882,5024
9876,5017
9870,5010
9865,5002
9862,4994
9858,4985
9856,4976
9855,4967
9854,4958
9854,4732
9855,4723
9856,4714
9858,4705
9862,4696
9865,4688
9870,4680
9876,4672
9882,4666
9889,4660
9896,4654
9904,4649
9912,4645
9921,4642
9930,4640
9939,4639
9948,4638
10135,4638
10144,4639
Z" /> 
<path style="fill:#840000; fill-opacity:1.0; 
stroke:#840000; stroke-width:0; stroke-opacity:1; 
stroke-linecap:round; stroke-linejoin:round;fill-rule:evenodd;"
d="M 10144,3950
10153,3951
10162,3953
10171,3956
10179,3960
10187,3965
10194,3971
10201,3977
10207,3983
10213,3991
10217,3999
10221,4007
10224,4016
10227,4025
10228,4034
10228,4043
10228,4269
10228,4278
10227,4287
10224,4296
10221,4305
10217,4313
10213,4321
10207,4329
10201,4335
10194,4341
10187,4347
10179,4352
10171,4356
10162,4359
10153,4361
10144,4362
10135,4363
9948,4363
9939,4362
9930,4361
9921,4359
9912,4356
9904,4352
9896,4347
9889,4341
9882,4335
9876,4329
9870,4321
9865,4313
9862,4305
9858,4296
9856,4287
9855,4278
9854,4269
9854,4043
9855,4034
9856,4025
9858,4016
9862,4007
9865,3999
9870,3991
9876,3983
9882,3977
9889,3971
9896,3965
9904,3960
9912,3956
9921,3953
9930,3951
9939,3950
9948,3949
10135,3949
10144,3950
Z" /> 
</g>
<g >
</g>
<g style="fill:#840000; fill-opacity:1.0; 
stroke:#840000; stroke-width:0; stroke-opacity:1; 
stroke-linecap:round; stroke-linejoin:round;">
<path style="fill:#840000; fill-opacity:1.0; 
stroke:#840000; stroke-width:0; stroke-opacity:1; 
stroke-linecap:round; stroke-linejoin:round;fill-rule:evenodd;"
d="M 12182,5367
12191,5368
12200,5371
12208,5374
12216,5378
12224,5382
12232,5388
12238,5394
12245,5401
12250,5408
12255,5416
12259,5424
12262,5433
12264,5442
12265,5451
12266,5460
12266,5687
12265,5696
12264,5705
12262,5714
12259,5722
12255,5731
12250,5738
12245,5746
12238,5753
12232,5759
12224,5764
12216,5769
12208,5773
12200,5776
12191,5778
12182,5780
12172,5780
11985,5780
11976,5780
11967,5778
11958,5776
11950,5773
11941,5769
11933,5764
11926,5759
11919,5753
11913,5746
11908,5738
11903,5731
11899,5722
11896,5714
11894,5705
11892,5696
11892,5687
11892,5460
11892,5451
11894,5442
11896,5433
11899,5424
11903,5416
11908,5408
11913,5401
11919,5394
11926,5388
11933,5382
11941,5378
11950,5374
11958,5371
11967,5368
11976,5367
11985,5367
12172,5367
12182,5367
Z" /> 
<path style="fill:#840000; fill-opacity:1.0; 
stroke:#840000; stroke-width:0; stroke-opacity:1; 
stroke-linecap:round; stroke-linejoin:round;fill-rule:evenodd;"
d="M 12182,4678
12191,4679
12200,4682
12208,4685
12216,4689
12224,4693
12232,4699
12238,4705
12245,4712
12250,4719
12255,4727
12259,4735
12262,4744
12264,4753
12265,4762
12266,4771
12266,4998
12265,5007
12264,5016
12262,5025
12259,5033
12255,5042
12250,5049
12245,5057
12238,5064
12232,5070
12224,5075
12216,5080
12208,5084
12200,5087
12191,5089
12182,5091
12172,5091
11985,5091
11976,5091
11967,5089
11958,5087
11950,5084
11941,5080
11933,5075
11926,5070
11919,5064
11913,5057
11908,5049
11903,5042
11899,5033
11896,5025
11894,5016
11892,5007
11892,4998
11892,4771
11892,4762
11894,4753
11896,4744
11899,4735
11903,4727
11908,4719
11913,4712
11919,4705
11926,4699
11933,4693
11941,4689
11950,4685
11958,4682
11967,4679
11976,4678
11985,4678
12172,4678
12182,4678
Z" /> 
</g>
<g >
</g>
<g >
</g>
<g >
</g>
<g >
</g>
<g >
</g>
<g style="fill:#840000; fill-opacity:1.0; 
stroke:#840000; stroke-width:0; stroke-opacity:1; 
stroke-linecap:round; stroke-linejoin:round;">
<path style="fill:#840000; fill-opacity:1.0; 
stroke:#840000; stroke-width:0; stroke-opacity:1; 
stroke-linecap:round; stroke-linejoin:round;fill-rule:evenodd;"
d="M 10831,1233
9992,1233
9992,839
10831,839
10831,1233
Z" /> 
<path style="fill:#840000; fill-opacity:1.0; 
stroke:#840000; stroke-width:0; stroke-opacity:1; 
stroke-linecap:round; stroke-linejoin:round;fill-rule:evenodd;"
d="M 10831,6154
9992,6154
9992,5760
10831,5760
10831,6154
Z" /> 
<path style="fill:#840000; fill-opacity:1.0; 
stroke:#840000; stroke-width:0; stroke-opacity:1; 
stroke-linecap:round; stroke-linejoin:round;fill-rule:evenodd;"
d="M 9126,1233
7630,1233
7630,839
9126,839
9126,1233
Z" /> 
<path style="fill:#840000; fill-opacity:1.0; 
stroke:#840000; stroke-width:0; stroke-opacity:1; 
stroke-linecap:round; stroke-linejoin:round;fill-rule:evenodd;"
d="M 9126,6154
7630,6154
7630,5760
9126,5760
9126,6154
Z" /> 
<path style="fill:#840000; fill-opacity:1.0; 
stroke:#840000; stroke-width:0; stroke-opacity:1; 
stroke-linecap:round; stroke-linejoin:round;fill-rule:evenodd;"
d="M 6764,1233
5925,1233
5925,839
6764,839
6764,1233
Z" /> 
<path style="fill:#840000; fill-opacity:1.0; 
stroke:#840000; stroke-width:0; stroke-opacity:1; 
stroke-linecap:round; stroke-linejoin:round;fill-rule:evenodd;"
d="M 6764,6154
5925,6154
5925,5760
6764,5760
6764,6154
Z" /> 
<path style="fill:#840000; fill-opacity:1.0; 
stroke:#840000; stroke-width:0; stroke-opacity:1; 
stroke-linecap:round; stroke-linejoin:round;fill-rule:evenodd;"
d="M 11225,1882
10831,1882
10831,1233
11225,1233
11225,1882
Z" /> 
<path style="fill:#840000; fill-opacity:1.0; 
stroke:#840000; stroke-width:0; stroke-opacity:1; 
stroke-linecap:round; stroke-linejoin:round;fill-rule:evenodd;"
d="M 5925,1882
5532,1882
5532,1233
5925,1233
5925,1882
Z" /> 
<path style="fill:#840000; fill-opacity:1.0; 
stroke:#840000; stroke-width:0; stroke-opacity:1; 
stroke-linecap:round; stroke-linejoin:round;fill-rule:evenodd;"
d="M 11225,4245
10831,4245
10831,2749
11225,2749
11225,4245
Z" /> 
<path style="fill:#840000; fill-opacity:1.0; 
stroke:#840000; stroke-width:0; stroke-opacity:1; 
stroke-linecap:round; stroke-linejoin:round;fill-rule:evenodd;"
d="M 5925,4245
5532,4245
5532,2749
5925,2749
5925,4245
Z" /> 
<path style="fill:#840000; fill-opacity:1.0; 
stroke:#840000; stroke-width:0; stroke-opacity:1; 
stroke-linecap:round; stroke-linejoin:round;fill-rule:evenodd;"
d="M 11225,5760
10831,5760
10831,5111
11225,5111
11225,5760
Z" /> 
<path style="fill:#840000; fill-opacity:1.0; 
stroke:#840000; stroke-width:0; stroke-opacity:1; 
stroke-linecap:round; stroke-linejoin:round;fill-rule:evenodd;"
d="M 5925,5760
5532,5760
5532,5111
5925,5111
5925,5760
Z" /> 
<path style="fill:#840000; fill-opacity:1.0; 
stroke:#840000; stroke-width:0; stroke-opacity:1; 
stroke-linecap:round; stroke-linejoin:round;fill-rule:evenodd;"
d="M 11225,6154
10831,6154
10831,5760
11225,5760
11225,6154
Z" /> 
<path style="fill:#840000; fill-opacity:1.0; 
stroke:#840000; stroke-width:0; stroke-opacity:1; 
stroke-linecap:round; stroke-linejoin:round;fill-rule:evenodd;"
d="M 11225,1233
10831,1233
10831,839
11225,839
11225,1233
Z" /> 
<path style="fill:#840000; fill-opacity:1.0; 
stroke:#840000; stroke-width:0; stroke-opacity:1; 
stroke-linecap:round; stroke-linejoin:round;fill-rule:evenodd;"
d="M 5925,1233
5532,1233
5532,839
5925,839
5925,1233
Z" /> 
<path style="fill:#840000; fill-opacity:1.0; 
stroke:#840000; stroke-width:0; stroke-opacity:1; 
stroke-linecap:round; stroke-linejoin:round;fill-rule:evenodd;"
d="M 5925,6154
5532,6154
5532,5760
5925,5760
5925,6154
Z" /> 
</g>
<g >
</g>
<g style="fill:#840000; fill-opacity:1.0; 
stroke:#840000; stroke-width:0; stroke-opacity:1; 
stroke-linecap:round; stroke-linejoin:round;">
<path style="fill:#840000; fill-opacity:1.0; 
stroke:#840000; stroke-width:0; stroke-opacity:1; 
stroke-linecap:round; stroke-linejoin:round;fill-rule:evenodd;"
d="M 9845,2266
9845,2148
10061,2148
10061,2266
9845,2266
Z" /> 
<path style="fill:#840000; fill-opacity:1.0; 
stroke:#840000; stroke-width:0; stroke-opacity:1; 
stroke-linecap:round; stroke-linejoin:round;fill-rule:evenodd;"
d="M 9845,2010
9845,1892
10061,1892
10061,2010
9845,2010
Z" /> 
</g>
<g >
</g>
<g style="fill:#840000; fill-opacity:1.0; 
stroke:#840000; stroke-width:0; stroke-opacity:1; 
stroke-linecap:round; stroke-linejoin:round;">
<path style="fill:#840000; fill-opacity:1.0; 
stroke:#840000; stroke-width:0; stroke-opacity:1; 
stroke-linecap:round; stroke-linejoin:round;fill-rule:evenodd;"
d="M 8427,2315
8329,2315
8329,2237
8427,2237
8427,2315
Z" /> 
<path style="fill:#840000; fill-opacity:1.0; 
stroke:#840000; stroke-width:0; stroke-opacity:1; 
stroke-linecap:round; stroke-linejoin:round;fill-rule:evenodd;"
d="M 8250,2315
8152,2315
8152,2237
8250,2237
8250,2315
Z" /> 
<path style="fill:#840000; fill-opacity:1.0; 
stroke:#840000; stroke-width:0; stroke-opacity:1; 
stroke-linecap:round; stroke-linejoin:round;fill-rule:evenodd;"
d="M 8427,2473
8329,2473
8329,2394
8427,2394
8427,2473
Z" /> 
<path style="fill:#840000; fill-opacity:1.0; 
stroke:#840000; stroke-width:0; stroke-opacity:1; 
stroke-linecap:round; stroke-linejoin:round;fill-rule:evenodd;"
d="M 8250,2473
8152,2473
8152,2394
8250,2394
8250,2473
Z" /> 
<path style="fill:#840000; fill-opacity:1.0; 
stroke:#840000; stroke-width:0; stroke-opacity:1; 
stroke-linecap:round; stroke-linejoin:round;fill-rule:evenodd;"
d="M 8427,2630
8329,2630
8329,2552
8427,2552
8427,2630
Z" /> 
<path style="fill:#840000; fill-opacity:1.0; 
stroke:#840000; stroke-width:0; stroke-opacity:1; 
stroke-linecap:round; stroke-linejoin:round;fill-rule:evenodd;"
d="M 8250,2630
8152,2630
8152,2552
8250,2552
8250,2630
Z" /> 
</g>
<g >
</g>
<g style="fill:#840000; fill-opacity:1.0; 
stroke:#840000; stroke-width:0; stroke-opacity:1; 
stroke-linecap:round; stroke-linejoin:round;">
<path style="fill:#840000; fill-opacity:1.0; 
stroke:#840000; stroke-width:0; stroke-opacity:1; 
stroke-linecap:round; stroke-linejoin:round;fill-rule:evenodd;"
d="M 9475,2160
9481,2161
9486,2162
9492,2164
9497,2167
9502,2170
9506,2173
9511,2177
9514,2181
9518,2186
9521,2191
9523,2196
9525,2201
9527,2207
9527,2212
9528,2218
9528,2334
9527,2340
9527,2345
9525,2351
9523,2356
9521,2362
9518,2366
9514,2371
9511,2375
9506,2379
9502,2382
9497,2385
9492,2388
9486,2390
9481,2391
9475,2392
9470,2392
9334,2392
9328,2392
9322,2391
9317,2390
9312,2388
9306,2385
9302,2382
9297,2379
9293,2375
9289,2371
9285,2366
9283,2362
9280,2356
9278,2351
9277,2345
9276,2340
9276,2334
9276,2218
9276,2212
9277,2207
9278,2201
9280,2196
9283,2191
9285,2186
9289,2181
9293,2177
9297,2173
9302,2170
9306,2167
9312,2164
9317,2162
9322,2161
9328,2160
9334,2160
9470,2160
9475,2160
Z" /> 
<path style="fill:#840000; fill-opacity:1.0; 
stroke:#840000; stroke-width:0; stroke-opacity:1; 
stroke-linecap:round; stroke-linejoin:round;fill-rule:evenodd;"
d="M 9475,2542
9481,2543
9486,2544
9492,2546
9497,2549
9502,2552
9506,2555
9511,2559
9514,2563
9518,2568
9521,2573
9523,2578
9525,2583
9527,2589
9527,2594
9528,2600
9528,2716
9527,2722
9527,2727
9525,2733
9523,2738
9521,2743
9518,2748
9514,2753
9511,2757
9506,2761
9502,2764
9497,2767
9492,2770
9486,2772
9481,2773
9475,2774
9470,2774
9334,2774
9328,2774
9322,2773
9317,2772
9312,2770
9306,2767
9302,2764
9297,2761
9293,2757
9289,2753
9285,2748
9283,2743
9280,2738
9278,2733
9277,2727
9276,2722
9276,2716
9276,2600
9276,2594
9277,2589
9278,2583
9280,2578
9283,2573
9285,2568
9289,2563
9293,2559
9297,2555
9302,2552
9306,2549
9312,2546
9317,2544
9322,2543
9328,2542
9334,2542
9470,2542
9475,2542
Z" /> 
</g>
<g >
</g>
<g style="fill:#840000; fill-opacity:1.0; 
stroke:#840000; stroke-width:0; stroke-opacity:1; 
stroke-linecap:round; stroke-linejoin:round;">
<path style="fill:#840000; fill-opacity:1.0; 
stroke:#840000; stroke-width:0; stroke-opacity:1; 
stroke-linecap:round; stroke-linejoin:round;fill-rule:evenodd;"
d="M 7306,2308
7312,2309
7317,2310
7323,2312
7328,2314
7333,2317
7337,2321
7341,2325
7345,2329
7349,2333
7352,2338
7354,2343
7356,2349
7357,2354
7358,2360
7358,2366
7358,2501
7358,2507
7357,2513
7356,2518
7354,2524
7352,2529
7349,2534
7345,2538
7341,2543
7337,2546
7333,2550
7328,2553
7323,2555
7317,2557
7312,2558
7306,2559
7300,2560
7184,2560
7178,2559
7173,2558
7167,2557
7162,2555
7157,2553
7152,2550
7147,2546
7143,2543
7139,2538
7136,2534
7133,2529
7131,2524
7129,2518
7127,2513
7126,2507
7126,2501
7126,2366
7126,2360
7127,2354
7129,2349
7131,2343
7133,2338
7136,2333
7139,2329
7143,2325
7147,2321
7152,2317
7157,2314
7162,2312
7167,2310
7173,2309
7178,2308
7184,2308
7300,2308
7306,2308
Z" /> 
<path style="fill:#840000; fill-opacity:1.0; 
stroke:#840000; stroke-width:0; stroke-opacity:1; 
stroke-linecap:round; stroke-linejoin:round;fill-rule:evenodd;"
d="M 6924,2308
6930,2309
6935,2310
6941,2312
6946,2314
6951,2317
6955,2321
6959,2325
6963,2329
6967,2333
6970,2338
6972,2343
6974,2349
6975,2354
6976,2360
6977,2366
6977,2501
6976,2507
6975,2513
6974,2518
6972,2524
6970,2529
6967,2534
6963,2538
6959,2543
6955,2546
6951,2550
6946,2553
6941,2555
6935,2557
6930,2558
6924,2559
6918,2560
6802,2560
6797,2559
6791,2558
6785,2557
6780,2555
6775,2553
6770,2550
6765,2546
6761,2543
6757,2538
6754,2534
6751,2529
6749,2524
6747,2518
6745,2513
6744,2507
6744,2501
6744,2366
6744,2360
6745,2354
6747,2349
6749,2343
6751,2338
6754,2333
6757,2329
6761,2325
6765,2321
6770,2317
6775,2314
6780,2312
6785,2310
6791,2309
6797,2308
6802,2308
6918,2308
6924,2308
Z" /> 
</g>
<g >
</g>
<g style="fill:#840000; fill-opacity:1.0; 
stroke:#840000; stroke-width:0; stroke-opacity:1; 
stroke-linecap:round; stroke-linejoin:round;">
<path style="fill:#840000; fill-opacity:1.0; 
stroke:#840000; stroke-width:0; stroke-opacity:1; 
stroke-linecap:round; stroke-linejoin:round;fill-rule:evenodd;"
d="M 8963,2723
8969,2724
8975,2725
8980,2727
8985,2730
8990,2733
8995,2736
8999,2740
9003,2744
9006,2749
9009,2754
9011,2759
9013,2764
9015,2770
9016,2775
9016,2781
9016,2897
9016,2903
9015,2908
9013,2914
9011,2919
9009,2925
9006,2929
9003,2934
8999,2938
8995,2942
8990,2945
8985,2948
8980,2951
8975,2953
8969,2954
8963,2955
8958,2955
8822,2955
8816,2955
8811,2954
8805,2953
8800,2951
8795,2948
8790,2945
8785,2942
8781,2938
8777,2934
8774,2929
8771,2925
8768,2919
8766,2914
8765,2908
8764,2903
8764,2897
8764,2781
8764,2775
8765,2770
8766,2764
8768,2759
8771,2754
8774,2749
8777,2744
8781,2740
8785,2736
8790,2733
8795,2730
8800,2727
8805,2725
8811,2724
8816,2723
8822,2723
8958,2723
8963,2723
Z" /> 
<path style="fill:#840000; fill-opacity:1.0; 
stroke:#840000; stroke-width:0; stroke-opacity:1; 
stroke-linecap:round; stroke-linejoin:round;fill-rule:evenodd;"
d="M 8963,3105
8969,3106
8975,3107
8980,3109
8985,3112
8990,3115
8995,3118
8999,3122
9003,3126
9006,3131
9009,3136
9011,3141
9013,3146
9015,3152
9016,3157
9016,3163
9016,3279
9016,3285
9015,3290
9013,3296
9011,3301
9009,3306
9006,3311
9003,3316
8999,3320
8995,3324
8990,3327
8985,3330
8980,3333
8975,3335
8969,3336
8963,3337
8958,3337
8822,3337
8816,3337
8811,3336
8805,3335
8800,3333
8795,3330
8790,3327
8785,3324
8781,3320
8777,3316
8774,3311
8771,3306
8768,3301
8766,3296
8765,3290
8764,3285
8764,3279
8764,3163
8764,3157
8765,3152
8766,3146
8768,3141
8771,3136
8774,3131
8777,3126
8781,3122
8785,3118
8790,3115
8795,3112
8800,3109
8805,3107
8811,3106
8816,3105
8822,3105
8958,3105
8963,3105
Z" /> 
</g>
<g >
</g>
<g >
</g>
<g >
</g>
</g>
<g style="fill:#000000; fill-opacity:1.0; 
stroke:#000000; stroke-width:0; stroke-opacity:1; 
stroke-linecap:round; stroke-linejoin:round;">
</g>
<g style="fill:#C2C200; fill-opacity:1.0; 
stroke:#C2C200; stroke-width:0; stroke-opacity:1; 
stroke-linecap:round; stroke-linejoin:round;">
</g>
<g style="fill:#C2C200; fill-opacity:1.0; 
stroke:#C2C200; stroke-width:19.685; stroke-opacity:1; 
stroke-linecap:round; stroke-linejoin:round;">
</g>
<g style="fill:#C2C200; fill-opacity:0.0; 
stroke:#C2C200; stroke-width:19.685; stroke-opacity:1; 
stroke-linecap:round; stroke-linejoin:round;">
<path d="M1331 6804
L1331 111
" />
<path d="M15307 6804
L1331 6804
" />
<path d="M15307 111
L15307 6804
" />
<path d="M1331 111
L15307 111
" />
<g >
</g>
<g >
</g>
<g >
</g>
<g >
</g>
<g >
</g>
<g >
</g>
<g >
</g>
<g >
</g>
<g >
</g>
<g >
</g>
<g >
</g>
<g >
</g>
<g >
</g>
</g> 
</svg>
