G04 #@! TF.GenerationSoftware,KiCad,Pcbnew,5.1.4+dfsg1-1*
G04 #@! TF.CreationDate,2019-09-19T10:38:50+12:00*
G04 #@! TF.ProjectId,lna,6c6e612e-6b69-4636-9164-5f7063625858,rev?*
G04 #@! TF.SameCoordinates,Original*
G04 #@! TF.FileFunction,Copper,L1,Top*
G04 #@! TF.FilePolarity,Positive*
%FSLAX46Y46*%
G04 Gerber Fmt 4.6, Leading zero omitted, Abs format (unit mm)*
G04 Created by KiCad (PCBNEW 5.1.4+dfsg1-1) date 2019-09-19 10:38:50*
%MOMM*%
%LPD*%
G04 APERTURE LIST*
%ADD10C,0.100000*%
%ADD11C,0.950000*%
%ADD12C,0.800000*%
%ADD13C,6.400000*%
%ADD14C,2.250000*%
%ADD15C,2.050000*%
%ADD16R,2.130000X1.000000*%
%ADD17R,3.800000X1.000000*%
%ADD18R,1.000000X1.650000*%
%ADD19R,1.000000X3.800000*%
%ADD20R,1.000000X1.000000*%
%ADD21R,0.550000X0.300000*%
%ADD22R,0.250000X0.200000*%
%ADD23C,0.590000*%
%ADD24C,0.200000*%
%ADD25C,0.400000*%
%ADD26C,0.293370*%
%ADD27C,1.000000*%
%ADD28C,0.300000*%
%ADD29C,0.254000*%
G04 APERTURE END LIST*
D10*
G36*
X184385779Y-111501144D02*
G01*
X184408834Y-111504563D01*
X184431443Y-111510227D01*
X184453387Y-111518079D01*
X184474457Y-111528044D01*
X184494448Y-111540026D01*
X184513168Y-111553910D01*
X184530438Y-111569562D01*
X184546090Y-111586832D01*
X184559974Y-111605552D01*
X184571956Y-111625543D01*
X184581921Y-111646613D01*
X184589773Y-111668557D01*
X184595437Y-111691166D01*
X184598856Y-111714221D01*
X184600000Y-111737500D01*
X184600000Y-112312500D01*
X184598856Y-112335779D01*
X184595437Y-112358834D01*
X184589773Y-112381443D01*
X184581921Y-112403387D01*
X184571956Y-112424457D01*
X184559974Y-112444448D01*
X184546090Y-112463168D01*
X184530438Y-112480438D01*
X184513168Y-112496090D01*
X184494448Y-112509974D01*
X184474457Y-112521956D01*
X184453387Y-112531921D01*
X184431443Y-112539773D01*
X184408834Y-112545437D01*
X184385779Y-112548856D01*
X184362500Y-112550000D01*
X183887500Y-112550000D01*
X183864221Y-112548856D01*
X183841166Y-112545437D01*
X183818557Y-112539773D01*
X183796613Y-112531921D01*
X183775543Y-112521956D01*
X183755552Y-112509974D01*
X183736832Y-112496090D01*
X183719562Y-112480438D01*
X183703910Y-112463168D01*
X183690026Y-112444448D01*
X183678044Y-112424457D01*
X183668079Y-112403387D01*
X183660227Y-112381443D01*
X183654563Y-112358834D01*
X183651144Y-112335779D01*
X183650000Y-112312500D01*
X183650000Y-111737500D01*
X183651144Y-111714221D01*
X183654563Y-111691166D01*
X183660227Y-111668557D01*
X183668079Y-111646613D01*
X183678044Y-111625543D01*
X183690026Y-111605552D01*
X183703910Y-111586832D01*
X183719562Y-111569562D01*
X183736832Y-111553910D01*
X183755552Y-111540026D01*
X183775543Y-111528044D01*
X183796613Y-111518079D01*
X183818557Y-111510227D01*
X183841166Y-111504563D01*
X183864221Y-111501144D01*
X183887500Y-111500000D01*
X184362500Y-111500000D01*
X184385779Y-111501144D01*
X184385779Y-111501144D01*
G37*
D11*
X184125000Y-112025000D03*
D10*
G36*
X184385779Y-109751144D02*
G01*
X184408834Y-109754563D01*
X184431443Y-109760227D01*
X184453387Y-109768079D01*
X184474457Y-109778044D01*
X184494448Y-109790026D01*
X184513168Y-109803910D01*
X184530438Y-109819562D01*
X184546090Y-109836832D01*
X184559974Y-109855552D01*
X184571956Y-109875543D01*
X184581921Y-109896613D01*
X184589773Y-109918557D01*
X184595437Y-109941166D01*
X184598856Y-109964221D01*
X184600000Y-109987500D01*
X184600000Y-110562500D01*
X184598856Y-110585779D01*
X184595437Y-110608834D01*
X184589773Y-110631443D01*
X184581921Y-110653387D01*
X184571956Y-110674457D01*
X184559974Y-110694448D01*
X184546090Y-110713168D01*
X184530438Y-110730438D01*
X184513168Y-110746090D01*
X184494448Y-110759974D01*
X184474457Y-110771956D01*
X184453387Y-110781921D01*
X184431443Y-110789773D01*
X184408834Y-110795437D01*
X184385779Y-110798856D01*
X184362500Y-110800000D01*
X183887500Y-110800000D01*
X183864221Y-110798856D01*
X183841166Y-110795437D01*
X183818557Y-110789773D01*
X183796613Y-110781921D01*
X183775543Y-110771956D01*
X183755552Y-110759974D01*
X183736832Y-110746090D01*
X183719562Y-110730438D01*
X183703910Y-110713168D01*
X183690026Y-110694448D01*
X183678044Y-110674457D01*
X183668079Y-110653387D01*
X183660227Y-110631443D01*
X183654563Y-110608834D01*
X183651144Y-110585779D01*
X183650000Y-110562500D01*
X183650000Y-109987500D01*
X183651144Y-109964221D01*
X183654563Y-109941166D01*
X183660227Y-109918557D01*
X183668079Y-109896613D01*
X183678044Y-109875543D01*
X183690026Y-109855552D01*
X183703910Y-109836832D01*
X183719562Y-109819562D01*
X183736832Y-109803910D01*
X183755552Y-109790026D01*
X183775543Y-109778044D01*
X183796613Y-109768079D01*
X183818557Y-109760227D01*
X183841166Y-109754563D01*
X183864221Y-109751144D01*
X183887500Y-109750000D01*
X184362500Y-109750000D01*
X184385779Y-109751144D01*
X184385779Y-109751144D01*
G37*
D11*
X184125000Y-110275000D03*
D10*
G36*
X189560779Y-113351144D02*
G01*
X189583834Y-113354563D01*
X189606443Y-113360227D01*
X189628387Y-113368079D01*
X189649457Y-113378044D01*
X189669448Y-113390026D01*
X189688168Y-113403910D01*
X189705438Y-113419562D01*
X189721090Y-113436832D01*
X189734974Y-113455552D01*
X189746956Y-113475543D01*
X189756921Y-113496613D01*
X189764773Y-113518557D01*
X189770437Y-113541166D01*
X189773856Y-113564221D01*
X189775000Y-113587500D01*
X189775000Y-114162500D01*
X189773856Y-114185779D01*
X189770437Y-114208834D01*
X189764773Y-114231443D01*
X189756921Y-114253387D01*
X189746956Y-114274457D01*
X189734974Y-114294448D01*
X189721090Y-114313168D01*
X189705438Y-114330438D01*
X189688168Y-114346090D01*
X189669448Y-114359974D01*
X189649457Y-114371956D01*
X189628387Y-114381921D01*
X189606443Y-114389773D01*
X189583834Y-114395437D01*
X189560779Y-114398856D01*
X189537500Y-114400000D01*
X189062500Y-114400000D01*
X189039221Y-114398856D01*
X189016166Y-114395437D01*
X188993557Y-114389773D01*
X188971613Y-114381921D01*
X188950543Y-114371956D01*
X188930552Y-114359974D01*
X188911832Y-114346090D01*
X188894562Y-114330438D01*
X188878910Y-114313168D01*
X188865026Y-114294448D01*
X188853044Y-114274457D01*
X188843079Y-114253387D01*
X188835227Y-114231443D01*
X188829563Y-114208834D01*
X188826144Y-114185779D01*
X188825000Y-114162500D01*
X188825000Y-113587500D01*
X188826144Y-113564221D01*
X188829563Y-113541166D01*
X188835227Y-113518557D01*
X188843079Y-113496613D01*
X188853044Y-113475543D01*
X188865026Y-113455552D01*
X188878910Y-113436832D01*
X188894562Y-113419562D01*
X188911832Y-113403910D01*
X188930552Y-113390026D01*
X188950543Y-113378044D01*
X188971613Y-113368079D01*
X188993557Y-113360227D01*
X189016166Y-113354563D01*
X189039221Y-113351144D01*
X189062500Y-113350000D01*
X189537500Y-113350000D01*
X189560779Y-113351144D01*
X189560779Y-113351144D01*
G37*
D11*
X189300000Y-113875000D03*
D10*
G36*
X189560779Y-111601144D02*
G01*
X189583834Y-111604563D01*
X189606443Y-111610227D01*
X189628387Y-111618079D01*
X189649457Y-111628044D01*
X189669448Y-111640026D01*
X189688168Y-111653910D01*
X189705438Y-111669562D01*
X189721090Y-111686832D01*
X189734974Y-111705552D01*
X189746956Y-111725543D01*
X189756921Y-111746613D01*
X189764773Y-111768557D01*
X189770437Y-111791166D01*
X189773856Y-111814221D01*
X189775000Y-111837500D01*
X189775000Y-112412500D01*
X189773856Y-112435779D01*
X189770437Y-112458834D01*
X189764773Y-112481443D01*
X189756921Y-112503387D01*
X189746956Y-112524457D01*
X189734974Y-112544448D01*
X189721090Y-112563168D01*
X189705438Y-112580438D01*
X189688168Y-112596090D01*
X189669448Y-112609974D01*
X189649457Y-112621956D01*
X189628387Y-112631921D01*
X189606443Y-112639773D01*
X189583834Y-112645437D01*
X189560779Y-112648856D01*
X189537500Y-112650000D01*
X189062500Y-112650000D01*
X189039221Y-112648856D01*
X189016166Y-112645437D01*
X188993557Y-112639773D01*
X188971613Y-112631921D01*
X188950543Y-112621956D01*
X188930552Y-112609974D01*
X188911832Y-112596090D01*
X188894562Y-112580438D01*
X188878910Y-112563168D01*
X188865026Y-112544448D01*
X188853044Y-112524457D01*
X188843079Y-112503387D01*
X188835227Y-112481443D01*
X188829563Y-112458834D01*
X188826144Y-112435779D01*
X188825000Y-112412500D01*
X188825000Y-111837500D01*
X188826144Y-111814221D01*
X188829563Y-111791166D01*
X188835227Y-111768557D01*
X188843079Y-111746613D01*
X188853044Y-111725543D01*
X188865026Y-111705552D01*
X188878910Y-111686832D01*
X188894562Y-111669562D01*
X188911832Y-111653910D01*
X188930552Y-111640026D01*
X188950543Y-111628044D01*
X188971613Y-111618079D01*
X188993557Y-111610227D01*
X189016166Y-111604563D01*
X189039221Y-111601144D01*
X189062500Y-111600000D01*
X189537500Y-111600000D01*
X189560779Y-111601144D01*
X189560779Y-111601144D01*
G37*
D11*
X189300000Y-112125000D03*
D12*
X195697056Y-111802944D03*
X194000000Y-111100000D03*
X192302944Y-111802944D03*
X191600000Y-113500000D03*
X192302944Y-115197056D03*
X194000000Y-115900000D03*
X195697056Y-115197056D03*
X196400000Y-113500000D03*
D13*
X194000000Y-113500000D03*
D12*
X167200000Y-111800000D03*
X165502944Y-111097056D03*
X163805888Y-111800000D03*
X163102944Y-113497056D03*
X163805888Y-115194112D03*
X165502944Y-115897056D03*
X167200000Y-115194112D03*
X167902944Y-113497056D03*
D13*
X165502944Y-113497056D03*
D14*
X194790000Y-102935000D03*
X194790000Y-108015000D03*
X189710000Y-108015000D03*
X189710000Y-102935000D03*
D15*
X192250000Y-105475000D03*
D14*
X169840000Y-103360000D03*
X169840000Y-108440000D03*
X164760000Y-108440000D03*
X164760000Y-103360000D03*
D15*
X167300000Y-105900000D03*
D16*
X185065000Y-102350000D03*
X185065000Y-114850000D03*
D17*
X179900000Y-102350000D03*
X179900000Y-114850000D03*
D16*
X174735000Y-102350000D03*
X174735000Y-114850000D03*
D18*
X186630000Y-103675000D03*
X173170000Y-103675000D03*
D19*
X186630000Y-108600000D03*
X173170000Y-108600000D03*
D18*
X186630000Y-113525000D03*
X173170000Y-113525000D03*
D20*
X186630000Y-114850000D03*
X186630000Y-102350000D03*
X173170000Y-102350000D03*
X173170000Y-114850000D03*
D21*
X183900000Y-105325000D03*
X183900000Y-104675000D03*
D22*
X179900000Y-105500000D03*
X179450000Y-105500000D03*
X179900000Y-105900000D03*
X179450000Y-105900000D03*
X179900000Y-106300000D03*
X179450000Y-106300000D03*
D10*
G36*
X182686958Y-105205710D02*
G01*
X182701276Y-105207834D01*
X182715317Y-105211351D01*
X182728946Y-105216228D01*
X182742031Y-105222417D01*
X182754447Y-105229858D01*
X182766073Y-105238481D01*
X182776798Y-105248202D01*
X182786519Y-105258927D01*
X182795142Y-105270553D01*
X182802583Y-105282969D01*
X182808772Y-105296054D01*
X182813649Y-105309683D01*
X182817166Y-105323724D01*
X182819290Y-105338042D01*
X182820000Y-105352500D01*
X182820000Y-105647500D01*
X182819290Y-105661958D01*
X182817166Y-105676276D01*
X182813649Y-105690317D01*
X182808772Y-105703946D01*
X182802583Y-105717031D01*
X182795142Y-105729447D01*
X182786519Y-105741073D01*
X182776798Y-105751798D01*
X182766073Y-105761519D01*
X182754447Y-105770142D01*
X182742031Y-105777583D01*
X182728946Y-105783772D01*
X182715317Y-105788649D01*
X182701276Y-105792166D01*
X182686958Y-105794290D01*
X182672500Y-105795000D01*
X182327500Y-105795000D01*
X182313042Y-105794290D01*
X182298724Y-105792166D01*
X182284683Y-105788649D01*
X182271054Y-105783772D01*
X182257969Y-105777583D01*
X182245553Y-105770142D01*
X182233927Y-105761519D01*
X182223202Y-105751798D01*
X182213481Y-105741073D01*
X182204858Y-105729447D01*
X182197417Y-105717031D01*
X182191228Y-105703946D01*
X182186351Y-105690317D01*
X182182834Y-105676276D01*
X182180710Y-105661958D01*
X182180000Y-105647500D01*
X182180000Y-105352500D01*
X182180710Y-105338042D01*
X182182834Y-105323724D01*
X182186351Y-105309683D01*
X182191228Y-105296054D01*
X182197417Y-105282969D01*
X182204858Y-105270553D01*
X182213481Y-105258927D01*
X182223202Y-105248202D01*
X182233927Y-105238481D01*
X182245553Y-105229858D01*
X182257969Y-105222417D01*
X182271054Y-105216228D01*
X182284683Y-105211351D01*
X182298724Y-105207834D01*
X182313042Y-105205710D01*
X182327500Y-105205000D01*
X182672500Y-105205000D01*
X182686958Y-105205710D01*
X182686958Y-105205710D01*
G37*
D23*
X182500000Y-105500000D03*
D10*
G36*
X182686958Y-106175710D02*
G01*
X182701276Y-106177834D01*
X182715317Y-106181351D01*
X182728946Y-106186228D01*
X182742031Y-106192417D01*
X182754447Y-106199858D01*
X182766073Y-106208481D01*
X182776798Y-106218202D01*
X182786519Y-106228927D01*
X182795142Y-106240553D01*
X182802583Y-106252969D01*
X182808772Y-106266054D01*
X182813649Y-106279683D01*
X182817166Y-106293724D01*
X182819290Y-106308042D01*
X182820000Y-106322500D01*
X182820000Y-106617500D01*
X182819290Y-106631958D01*
X182817166Y-106646276D01*
X182813649Y-106660317D01*
X182808772Y-106673946D01*
X182802583Y-106687031D01*
X182795142Y-106699447D01*
X182786519Y-106711073D01*
X182776798Y-106721798D01*
X182766073Y-106731519D01*
X182754447Y-106740142D01*
X182742031Y-106747583D01*
X182728946Y-106753772D01*
X182715317Y-106758649D01*
X182701276Y-106762166D01*
X182686958Y-106764290D01*
X182672500Y-106765000D01*
X182327500Y-106765000D01*
X182313042Y-106764290D01*
X182298724Y-106762166D01*
X182284683Y-106758649D01*
X182271054Y-106753772D01*
X182257969Y-106747583D01*
X182245553Y-106740142D01*
X182233927Y-106731519D01*
X182223202Y-106721798D01*
X182213481Y-106711073D01*
X182204858Y-106699447D01*
X182197417Y-106687031D01*
X182191228Y-106673946D01*
X182186351Y-106660317D01*
X182182834Y-106646276D01*
X182180710Y-106631958D01*
X182180000Y-106617500D01*
X182180000Y-106322500D01*
X182180710Y-106308042D01*
X182182834Y-106293724D01*
X182186351Y-106279683D01*
X182191228Y-106266054D01*
X182197417Y-106252969D01*
X182204858Y-106240553D01*
X182213481Y-106228927D01*
X182223202Y-106218202D01*
X182233927Y-106208481D01*
X182245553Y-106199858D01*
X182257969Y-106192417D01*
X182271054Y-106186228D01*
X182284683Y-106181351D01*
X182298724Y-106177834D01*
X182313042Y-106175710D01*
X182327500Y-106175000D01*
X182672500Y-106175000D01*
X182686958Y-106175710D01*
X182686958Y-106175710D01*
G37*
D23*
X182500000Y-106470000D03*
D10*
G36*
X177176958Y-105580710D02*
G01*
X177191276Y-105582834D01*
X177205317Y-105586351D01*
X177218946Y-105591228D01*
X177232031Y-105597417D01*
X177244447Y-105604858D01*
X177256073Y-105613481D01*
X177266798Y-105623202D01*
X177276519Y-105633927D01*
X177285142Y-105645553D01*
X177292583Y-105657969D01*
X177298772Y-105671054D01*
X177303649Y-105684683D01*
X177307166Y-105698724D01*
X177309290Y-105713042D01*
X177310000Y-105727500D01*
X177310000Y-106072500D01*
X177309290Y-106086958D01*
X177307166Y-106101276D01*
X177303649Y-106115317D01*
X177298772Y-106128946D01*
X177292583Y-106142031D01*
X177285142Y-106154447D01*
X177276519Y-106166073D01*
X177266798Y-106176798D01*
X177256073Y-106186519D01*
X177244447Y-106195142D01*
X177232031Y-106202583D01*
X177218946Y-106208772D01*
X177205317Y-106213649D01*
X177191276Y-106217166D01*
X177176958Y-106219290D01*
X177162500Y-106220000D01*
X176867500Y-106220000D01*
X176853042Y-106219290D01*
X176838724Y-106217166D01*
X176824683Y-106213649D01*
X176811054Y-106208772D01*
X176797969Y-106202583D01*
X176785553Y-106195142D01*
X176773927Y-106186519D01*
X176763202Y-106176798D01*
X176753481Y-106166073D01*
X176744858Y-106154447D01*
X176737417Y-106142031D01*
X176731228Y-106128946D01*
X176726351Y-106115317D01*
X176722834Y-106101276D01*
X176720710Y-106086958D01*
X176720000Y-106072500D01*
X176720000Y-105727500D01*
X176720710Y-105713042D01*
X176722834Y-105698724D01*
X176726351Y-105684683D01*
X176731228Y-105671054D01*
X176737417Y-105657969D01*
X176744858Y-105645553D01*
X176753481Y-105633927D01*
X176763202Y-105623202D01*
X176773927Y-105613481D01*
X176785553Y-105604858D01*
X176797969Y-105597417D01*
X176811054Y-105591228D01*
X176824683Y-105586351D01*
X176838724Y-105582834D01*
X176853042Y-105580710D01*
X176867500Y-105580000D01*
X177162500Y-105580000D01*
X177176958Y-105580710D01*
X177176958Y-105580710D01*
G37*
D23*
X177015000Y-105900000D03*
D10*
G36*
X176206958Y-105580710D02*
G01*
X176221276Y-105582834D01*
X176235317Y-105586351D01*
X176248946Y-105591228D01*
X176262031Y-105597417D01*
X176274447Y-105604858D01*
X176286073Y-105613481D01*
X176296798Y-105623202D01*
X176306519Y-105633927D01*
X176315142Y-105645553D01*
X176322583Y-105657969D01*
X176328772Y-105671054D01*
X176333649Y-105684683D01*
X176337166Y-105698724D01*
X176339290Y-105713042D01*
X176340000Y-105727500D01*
X176340000Y-106072500D01*
X176339290Y-106086958D01*
X176337166Y-106101276D01*
X176333649Y-106115317D01*
X176328772Y-106128946D01*
X176322583Y-106142031D01*
X176315142Y-106154447D01*
X176306519Y-106166073D01*
X176296798Y-106176798D01*
X176286073Y-106186519D01*
X176274447Y-106195142D01*
X176262031Y-106202583D01*
X176248946Y-106208772D01*
X176235317Y-106213649D01*
X176221276Y-106217166D01*
X176206958Y-106219290D01*
X176192500Y-106220000D01*
X175897500Y-106220000D01*
X175883042Y-106219290D01*
X175868724Y-106217166D01*
X175854683Y-106213649D01*
X175841054Y-106208772D01*
X175827969Y-106202583D01*
X175815553Y-106195142D01*
X175803927Y-106186519D01*
X175793202Y-106176798D01*
X175783481Y-106166073D01*
X175774858Y-106154447D01*
X175767417Y-106142031D01*
X175761228Y-106128946D01*
X175756351Y-106115317D01*
X175752834Y-106101276D01*
X175750710Y-106086958D01*
X175750000Y-106072500D01*
X175750000Y-105727500D01*
X175750710Y-105713042D01*
X175752834Y-105698724D01*
X175756351Y-105684683D01*
X175761228Y-105671054D01*
X175767417Y-105657969D01*
X175774858Y-105645553D01*
X175783481Y-105633927D01*
X175793202Y-105623202D01*
X175803927Y-105613481D01*
X175815553Y-105604858D01*
X175827969Y-105597417D01*
X175841054Y-105591228D01*
X175854683Y-105586351D01*
X175868724Y-105582834D01*
X175883042Y-105580710D01*
X175897500Y-105580000D01*
X176192500Y-105580000D01*
X176206958Y-105580710D01*
X176206958Y-105580710D01*
G37*
D23*
X176045000Y-105900000D03*
D10*
G36*
X181386958Y-106635710D02*
G01*
X181401276Y-106637834D01*
X181415317Y-106641351D01*
X181428946Y-106646228D01*
X181442031Y-106652417D01*
X181454447Y-106659858D01*
X181466073Y-106668481D01*
X181476798Y-106678202D01*
X181486519Y-106688927D01*
X181495142Y-106700553D01*
X181502583Y-106712969D01*
X181508772Y-106726054D01*
X181513649Y-106739683D01*
X181517166Y-106753724D01*
X181519290Y-106768042D01*
X181520000Y-106782500D01*
X181520000Y-107077500D01*
X181519290Y-107091958D01*
X181517166Y-107106276D01*
X181513649Y-107120317D01*
X181508772Y-107133946D01*
X181502583Y-107147031D01*
X181495142Y-107159447D01*
X181486519Y-107171073D01*
X181476798Y-107181798D01*
X181466073Y-107191519D01*
X181454447Y-107200142D01*
X181442031Y-107207583D01*
X181428946Y-107213772D01*
X181415317Y-107218649D01*
X181401276Y-107222166D01*
X181386958Y-107224290D01*
X181372500Y-107225000D01*
X181027500Y-107225000D01*
X181013042Y-107224290D01*
X180998724Y-107222166D01*
X180984683Y-107218649D01*
X180971054Y-107213772D01*
X180957969Y-107207583D01*
X180945553Y-107200142D01*
X180933927Y-107191519D01*
X180923202Y-107181798D01*
X180913481Y-107171073D01*
X180904858Y-107159447D01*
X180897417Y-107147031D01*
X180891228Y-107133946D01*
X180886351Y-107120317D01*
X180882834Y-107106276D01*
X180880710Y-107091958D01*
X180880000Y-107077500D01*
X180880000Y-106782500D01*
X180880710Y-106768042D01*
X180882834Y-106753724D01*
X180886351Y-106739683D01*
X180891228Y-106726054D01*
X180897417Y-106712969D01*
X180904858Y-106700553D01*
X180913481Y-106688927D01*
X180923202Y-106678202D01*
X180933927Y-106668481D01*
X180945553Y-106659858D01*
X180957969Y-106652417D01*
X180971054Y-106646228D01*
X180984683Y-106641351D01*
X180998724Y-106637834D01*
X181013042Y-106635710D01*
X181027500Y-106635000D01*
X181372500Y-106635000D01*
X181386958Y-106635710D01*
X181386958Y-106635710D01*
G37*
D23*
X181200000Y-106930000D03*
D10*
G36*
X181386958Y-107605710D02*
G01*
X181401276Y-107607834D01*
X181415317Y-107611351D01*
X181428946Y-107616228D01*
X181442031Y-107622417D01*
X181454447Y-107629858D01*
X181466073Y-107638481D01*
X181476798Y-107648202D01*
X181486519Y-107658927D01*
X181495142Y-107670553D01*
X181502583Y-107682969D01*
X181508772Y-107696054D01*
X181513649Y-107709683D01*
X181517166Y-107723724D01*
X181519290Y-107738042D01*
X181520000Y-107752500D01*
X181520000Y-108047500D01*
X181519290Y-108061958D01*
X181517166Y-108076276D01*
X181513649Y-108090317D01*
X181508772Y-108103946D01*
X181502583Y-108117031D01*
X181495142Y-108129447D01*
X181486519Y-108141073D01*
X181476798Y-108151798D01*
X181466073Y-108161519D01*
X181454447Y-108170142D01*
X181442031Y-108177583D01*
X181428946Y-108183772D01*
X181415317Y-108188649D01*
X181401276Y-108192166D01*
X181386958Y-108194290D01*
X181372500Y-108195000D01*
X181027500Y-108195000D01*
X181013042Y-108194290D01*
X180998724Y-108192166D01*
X180984683Y-108188649D01*
X180971054Y-108183772D01*
X180957969Y-108177583D01*
X180945553Y-108170142D01*
X180933927Y-108161519D01*
X180923202Y-108151798D01*
X180913481Y-108141073D01*
X180904858Y-108129447D01*
X180897417Y-108117031D01*
X180891228Y-108103946D01*
X180886351Y-108090317D01*
X180882834Y-108076276D01*
X180880710Y-108061958D01*
X180880000Y-108047500D01*
X180880000Y-107752500D01*
X180880710Y-107738042D01*
X180882834Y-107723724D01*
X180886351Y-107709683D01*
X180891228Y-107696054D01*
X180897417Y-107682969D01*
X180904858Y-107670553D01*
X180913481Y-107658927D01*
X180923202Y-107648202D01*
X180933927Y-107638481D01*
X180945553Y-107629858D01*
X180957969Y-107622417D01*
X180971054Y-107616228D01*
X180984683Y-107611351D01*
X180998724Y-107607834D01*
X181013042Y-107605710D01*
X181027500Y-107605000D01*
X181372500Y-107605000D01*
X181386958Y-107605710D01*
X181386958Y-107605710D01*
G37*
D23*
X181200000Y-107900000D03*
D12*
X178700000Y-107000000D03*
X182500000Y-107400000D03*
X181200000Y-108800000D03*
X179900000Y-107000000D03*
X183900000Y-103800000D03*
X185500000Y-111200000D03*
X182900000Y-103500000D03*
X179900000Y-111600000D03*
X176800000Y-111600000D03*
X176900000Y-103500000D03*
X174300000Y-111600000D03*
X182900000Y-113700000D03*
X176900000Y-113700000D03*
X188025000Y-111200000D03*
X187900000Y-107200000D03*
X187900000Y-103800000D03*
X182900000Y-102400000D03*
X176900000Y-102400000D03*
X174300000Y-110100000D03*
X176900000Y-108800000D03*
X174300000Y-107200000D03*
X179800000Y-108800000D03*
X182700000Y-108800000D03*
X185500000Y-108600000D03*
X182700000Y-111200000D03*
X175700000Y-104500000D03*
X178500000Y-104200000D03*
X181100000Y-104200000D03*
X182300000Y-104200000D03*
X174300000Y-104700000D03*
X176900000Y-107200000D03*
X184200000Y-107200000D03*
X185500000Y-107200000D03*
X185500000Y-103500000D03*
X179499994Y-104699978D03*
X179900000Y-103500000D03*
X174300000Y-103500000D03*
X174300000Y-108600000D03*
X174300000Y-113700000D03*
X179900000Y-113700000D03*
X185500000Y-113700000D03*
X186700000Y-111200000D03*
X182900000Y-115000000D03*
X176900000Y-115000000D03*
X173100000Y-111600000D03*
X185500000Y-110100000D03*
X190275000Y-111200000D03*
X169700000Y-111600000D03*
X171700000Y-104400000D03*
X171700000Y-107200000D03*
X171100000Y-113700000D03*
X169700000Y-113700000D03*
X169700000Y-116000000D03*
X189600000Y-116000000D03*
X171100000Y-111600000D03*
X188000000Y-114025000D03*
X188000000Y-116000000D03*
X171100000Y-116000000D03*
X167400000Y-102500000D03*
X163100000Y-101100000D03*
X171400000Y-101100000D03*
X188200000Y-101100000D03*
X192300000Y-102000000D03*
X196500000Y-101100000D03*
X196500000Y-105500000D03*
X192300000Y-109700000D03*
X167400000Y-109900000D03*
X163100000Y-105900000D03*
X163100000Y-109900000D03*
X196500000Y-109700000D03*
D24*
X179450000Y-106300000D02*
X179400000Y-106300000D01*
X179400000Y-106300000D02*
X178700000Y-107000000D01*
D25*
X182500000Y-106470000D02*
X182500000Y-107400000D01*
X181620000Y-106930000D02*
X181990000Y-107300000D01*
X181200000Y-106930000D02*
X181620000Y-106930000D01*
X182400000Y-107300000D02*
X182500000Y-107400000D01*
X181990000Y-107300000D02*
X182400000Y-107300000D01*
D24*
X180250000Y-105900000D02*
X181200000Y-106930000D01*
X179900000Y-105900000D02*
X180250000Y-105900000D01*
D25*
X184125000Y-109025000D02*
X182500000Y-107400000D01*
X184125000Y-110275000D02*
X184125000Y-109025000D01*
X176025000Y-105900000D02*
X176045000Y-105920000D01*
D26*
X167300000Y-105900000D02*
X176025000Y-105900000D01*
D25*
X181200000Y-107900000D02*
X181200000Y-108800000D01*
D24*
X179900000Y-106300000D02*
X179900000Y-106700000D01*
X179900000Y-106700000D02*
X179900000Y-107000000D01*
D25*
X183900000Y-104675000D02*
X183900000Y-103800000D01*
D24*
X179450000Y-105500000D02*
X179450000Y-104749972D01*
X179450000Y-104749972D02*
X179499994Y-104699978D01*
D27*
X179900000Y-103500000D02*
X179900000Y-102350000D01*
X185500000Y-103480000D02*
X186630000Y-102350000D01*
X185500000Y-103500000D02*
X185500000Y-103480000D01*
X185500000Y-108600000D02*
X186630000Y-108600000D01*
X174300000Y-103480000D02*
X173170000Y-102350000D01*
X174300000Y-103500000D02*
X174300000Y-103480000D01*
X174300000Y-108600000D02*
X173170000Y-108600000D01*
X174300000Y-113720000D02*
X173170000Y-114850000D01*
X174300000Y-113700000D02*
X174300000Y-113720000D01*
X185500000Y-113720000D02*
X186630000Y-114850000D01*
X185500000Y-113700000D02*
X185500000Y-113720000D01*
X179900000Y-113700000D02*
X179900000Y-114850000D01*
D24*
X179450000Y-105900000D02*
X179100000Y-105900000D01*
D26*
X179100000Y-105900000D02*
X178900000Y-105900000D01*
D28*
X178900000Y-105900000D02*
X177015000Y-105900000D01*
D24*
X180700000Y-105500000D02*
X180200000Y-105500000D01*
X179900000Y-105500000D02*
X180700000Y-105500000D01*
D28*
X183900000Y-105488572D02*
X183894286Y-105494286D01*
X183900000Y-105325000D02*
X183900000Y-105488572D01*
D26*
X182500000Y-105500000D02*
X183894286Y-105494286D01*
X181000000Y-105500000D02*
X180475000Y-105500000D01*
X182500000Y-105500000D02*
X181000000Y-105500000D01*
X183894286Y-105494286D02*
X192250000Y-105475000D01*
D25*
X189200000Y-112025000D02*
X189300000Y-112125000D01*
X184125000Y-112025000D02*
X189200000Y-112025000D01*
D29*
G36*
X197248001Y-112124871D02*
G01*
X197125587Y-111829339D01*
X196739600Y-111251668D01*
X196248332Y-110760400D01*
X195670661Y-110374413D01*
X195028788Y-110108540D01*
X194347379Y-109973000D01*
X193652621Y-109973000D01*
X192971212Y-110108540D01*
X192329339Y-110374413D01*
X191751668Y-110760400D01*
X191260400Y-111251668D01*
X190874413Y-111829339D01*
X190608540Y-112471212D01*
X190473000Y-113152621D01*
X190473000Y-113847379D01*
X190608540Y-114528788D01*
X190874413Y-115170661D01*
X191260400Y-115748332D01*
X191751668Y-116239600D01*
X192329339Y-116625587D01*
X192624870Y-116748000D01*
X166870967Y-116748000D01*
X167173605Y-116622643D01*
X167751276Y-116236656D01*
X168242544Y-115745388D01*
X168628531Y-115167717D01*
X168894404Y-114525844D01*
X168929381Y-114350000D01*
X172031928Y-114350000D01*
X172035000Y-114564250D01*
X172098375Y-114627625D01*
X172139463Y-114704494D01*
X172218815Y-114801185D01*
X172315506Y-114880537D01*
X172425820Y-114939502D01*
X172545518Y-114975812D01*
X172557580Y-114977000D01*
X172193750Y-114977000D01*
X172035000Y-115135750D01*
X172031928Y-115350000D01*
X172044188Y-115474482D01*
X172080498Y-115594180D01*
X172139463Y-115704494D01*
X172218815Y-115801185D01*
X172315506Y-115880537D01*
X172425820Y-115939502D01*
X172545518Y-115975812D01*
X172670000Y-115988072D01*
X172884250Y-115985000D01*
X173043000Y-115826250D01*
X173043000Y-115462420D01*
X173044188Y-115474482D01*
X173080498Y-115594180D01*
X173139463Y-115704494D01*
X173218815Y-115801185D01*
X173315506Y-115880537D01*
X173392375Y-115921625D01*
X173455750Y-115985000D01*
X173670000Y-115988072D01*
X174449250Y-115985000D01*
X174608000Y-115826250D01*
X174608000Y-114977000D01*
X174862000Y-114977000D01*
X174862000Y-115826250D01*
X175020750Y-115985000D01*
X175800000Y-115988072D01*
X175924482Y-115975812D01*
X176044180Y-115939502D01*
X176154494Y-115880537D01*
X176251185Y-115801185D01*
X176330537Y-115704494D01*
X176389502Y-115594180D01*
X176425812Y-115474482D01*
X176438072Y-115350000D01*
X177361928Y-115350000D01*
X177374188Y-115474482D01*
X177410498Y-115594180D01*
X177469463Y-115704494D01*
X177548815Y-115801185D01*
X177645506Y-115880537D01*
X177755820Y-115939502D01*
X177875518Y-115975812D01*
X178000000Y-115988072D01*
X179614250Y-115985000D01*
X179773000Y-115826250D01*
X179773000Y-114977000D01*
X180027000Y-114977000D01*
X180027000Y-115826250D01*
X180185750Y-115985000D01*
X181800000Y-115988072D01*
X181924482Y-115975812D01*
X182044180Y-115939502D01*
X182154494Y-115880537D01*
X182251185Y-115801185D01*
X182330537Y-115704494D01*
X182389502Y-115594180D01*
X182425812Y-115474482D01*
X182438072Y-115350000D01*
X183361928Y-115350000D01*
X183374188Y-115474482D01*
X183410498Y-115594180D01*
X183469463Y-115704494D01*
X183548815Y-115801185D01*
X183645506Y-115880537D01*
X183755820Y-115939502D01*
X183875518Y-115975812D01*
X184000000Y-115988072D01*
X184779250Y-115985000D01*
X184938000Y-115826250D01*
X184938000Y-114977000D01*
X183523750Y-114977000D01*
X183365000Y-115135750D01*
X183361928Y-115350000D01*
X182438072Y-115350000D01*
X182435000Y-115135750D01*
X182276250Y-114977000D01*
X180027000Y-114977000D01*
X179773000Y-114977000D01*
X177523750Y-114977000D01*
X177365000Y-115135750D01*
X177361928Y-115350000D01*
X176438072Y-115350000D01*
X176435000Y-115135750D01*
X176276250Y-114977000D01*
X174862000Y-114977000D01*
X174608000Y-114977000D01*
X173782420Y-114977000D01*
X173794482Y-114975812D01*
X173914180Y-114939502D01*
X174024494Y-114880537D01*
X174121185Y-114801185D01*
X174185350Y-114723000D01*
X174608000Y-114723000D01*
X174608000Y-113873750D01*
X174862000Y-113873750D01*
X174862000Y-114723000D01*
X176276250Y-114723000D01*
X176435000Y-114564250D01*
X176438072Y-114350000D01*
X177361928Y-114350000D01*
X177365000Y-114564250D01*
X177523750Y-114723000D01*
X179773000Y-114723000D01*
X179773000Y-113873750D01*
X180027000Y-113873750D01*
X180027000Y-114723000D01*
X182276250Y-114723000D01*
X182435000Y-114564250D01*
X182438072Y-114350000D01*
X183361928Y-114350000D01*
X183365000Y-114564250D01*
X183523750Y-114723000D01*
X184938000Y-114723000D01*
X184938000Y-113873750D01*
X185192000Y-113873750D01*
X185192000Y-114723000D01*
X185614650Y-114723000D01*
X185678815Y-114801185D01*
X185775506Y-114880537D01*
X185885820Y-114939502D01*
X186005518Y-114975812D01*
X186017580Y-114977000D01*
X185192000Y-114977000D01*
X185192000Y-115826250D01*
X185350750Y-115985000D01*
X186130000Y-115988072D01*
X186344250Y-115985000D01*
X186407625Y-115921625D01*
X186484494Y-115880537D01*
X186581185Y-115801185D01*
X186660537Y-115704494D01*
X186719502Y-115594180D01*
X186755812Y-115474482D01*
X186757000Y-115462420D01*
X186757000Y-115826250D01*
X186915750Y-115985000D01*
X187130000Y-115988072D01*
X187254482Y-115975812D01*
X187374180Y-115939502D01*
X187484494Y-115880537D01*
X187581185Y-115801185D01*
X187660537Y-115704494D01*
X187719502Y-115594180D01*
X187755812Y-115474482D01*
X187768072Y-115350000D01*
X187765000Y-115135750D01*
X187606250Y-114977000D01*
X187242420Y-114977000D01*
X187254482Y-114975812D01*
X187374180Y-114939502D01*
X187484494Y-114880537D01*
X187581185Y-114801185D01*
X187660537Y-114704494D01*
X187701625Y-114627625D01*
X187765000Y-114564250D01*
X187767355Y-114400000D01*
X188186928Y-114400000D01*
X188199188Y-114524482D01*
X188235498Y-114644180D01*
X188294463Y-114754494D01*
X188373815Y-114851185D01*
X188470506Y-114930537D01*
X188580820Y-114989502D01*
X188700518Y-115025812D01*
X188825000Y-115038072D01*
X189014250Y-115035000D01*
X189173000Y-114876250D01*
X189173000Y-114002000D01*
X189427000Y-114002000D01*
X189427000Y-114876250D01*
X189585750Y-115035000D01*
X189775000Y-115038072D01*
X189899482Y-115025812D01*
X190019180Y-114989502D01*
X190129494Y-114930537D01*
X190226185Y-114851185D01*
X190305537Y-114754494D01*
X190364502Y-114644180D01*
X190400812Y-114524482D01*
X190413072Y-114400000D01*
X190410000Y-114160750D01*
X190251250Y-114002000D01*
X189427000Y-114002000D01*
X189173000Y-114002000D01*
X188348750Y-114002000D01*
X188190000Y-114160750D01*
X188186928Y-114400000D01*
X187767355Y-114400000D01*
X187768072Y-114350000D01*
X187765000Y-113810750D01*
X187606250Y-113652000D01*
X186757000Y-113652000D01*
X186757000Y-114237580D01*
X186755812Y-114225518D01*
X186719502Y-114105820D01*
X186660537Y-113995506D01*
X186581185Y-113898815D01*
X186503000Y-113834650D01*
X186503000Y-113652000D01*
X185653750Y-113652000D01*
X185591700Y-113714050D01*
X185350750Y-113715000D01*
X185192000Y-113873750D01*
X184938000Y-113873750D01*
X184779250Y-113715000D01*
X184000000Y-113711928D01*
X183875518Y-113724188D01*
X183755820Y-113760498D01*
X183645506Y-113819463D01*
X183548815Y-113898815D01*
X183469463Y-113995506D01*
X183410498Y-114105820D01*
X183374188Y-114225518D01*
X183361928Y-114350000D01*
X182438072Y-114350000D01*
X182425812Y-114225518D01*
X182389502Y-114105820D01*
X182330537Y-113995506D01*
X182251185Y-113898815D01*
X182154494Y-113819463D01*
X182044180Y-113760498D01*
X181924482Y-113724188D01*
X181800000Y-113711928D01*
X180185750Y-113715000D01*
X180027000Y-113873750D01*
X179773000Y-113873750D01*
X179614250Y-113715000D01*
X178000000Y-113711928D01*
X177875518Y-113724188D01*
X177755820Y-113760498D01*
X177645506Y-113819463D01*
X177548815Y-113898815D01*
X177469463Y-113995506D01*
X177410498Y-114105820D01*
X177374188Y-114225518D01*
X177361928Y-114350000D01*
X176438072Y-114350000D01*
X176425812Y-114225518D01*
X176389502Y-114105820D01*
X176330537Y-113995506D01*
X176251185Y-113898815D01*
X176154494Y-113819463D01*
X176044180Y-113760498D01*
X175924482Y-113724188D01*
X175800000Y-113711928D01*
X175020750Y-113715000D01*
X174862000Y-113873750D01*
X174608000Y-113873750D01*
X174449250Y-113715000D01*
X174208300Y-113714050D01*
X174146250Y-113652000D01*
X173297000Y-113652000D01*
X173297000Y-113834650D01*
X173218815Y-113898815D01*
X173139463Y-113995506D01*
X173080498Y-114105820D01*
X173044188Y-114225518D01*
X173043000Y-114237580D01*
X173043000Y-113652000D01*
X172193750Y-113652000D01*
X172035000Y-113810750D01*
X172031928Y-114350000D01*
X168929381Y-114350000D01*
X169029944Y-113844435D01*
X169029944Y-113149677D01*
X168940499Y-112700000D01*
X172031928Y-112700000D01*
X172035000Y-113239250D01*
X172193750Y-113398000D01*
X173043000Y-113398000D01*
X173043000Y-112223750D01*
X173297000Y-112223750D01*
X173297000Y-113398000D01*
X174146250Y-113398000D01*
X174305000Y-113239250D01*
X174308072Y-112700000D01*
X174295812Y-112575518D01*
X174259502Y-112455820D01*
X174200537Y-112345506D01*
X174121185Y-112248815D01*
X174024494Y-112169463D01*
X173914180Y-112110498D01*
X173794482Y-112074188D01*
X173670000Y-112061928D01*
X173455750Y-112065000D01*
X173297000Y-112223750D01*
X173043000Y-112223750D01*
X172884250Y-112065000D01*
X172670000Y-112061928D01*
X172545518Y-112074188D01*
X172425820Y-112110498D01*
X172315506Y-112169463D01*
X172218815Y-112248815D01*
X172139463Y-112345506D01*
X172080498Y-112455820D01*
X172044188Y-112575518D01*
X172031928Y-112700000D01*
X168940499Y-112700000D01*
X168894404Y-112468268D01*
X168628531Y-111826395D01*
X168569134Y-111737500D01*
X183321418Y-111737500D01*
X183321418Y-112312500D01*
X183332295Y-112422937D01*
X183364508Y-112529130D01*
X183416820Y-112626998D01*
X183487220Y-112712780D01*
X183573002Y-112783180D01*
X183670870Y-112835492D01*
X183777063Y-112867705D01*
X183887500Y-112878582D01*
X184362500Y-112878582D01*
X184472937Y-112867705D01*
X184579130Y-112835492D01*
X184676998Y-112783180D01*
X184762780Y-112712780D01*
X184833180Y-112626998D01*
X184873268Y-112552000D01*
X185511322Y-112552000D01*
X185504188Y-112575518D01*
X185491928Y-112700000D01*
X185495000Y-113239250D01*
X185653750Y-113398000D01*
X186503000Y-113398000D01*
X186503000Y-113378000D01*
X186757000Y-113378000D01*
X186757000Y-113398000D01*
X187606250Y-113398000D01*
X187765000Y-113239250D01*
X187768072Y-112700000D01*
X187755812Y-112575518D01*
X187748678Y-112552000D01*
X188516111Y-112552000D01*
X188539508Y-112629130D01*
X188591820Y-112726998D01*
X188611640Y-112751149D01*
X188580820Y-112760498D01*
X188470506Y-112819463D01*
X188373815Y-112898815D01*
X188294463Y-112995506D01*
X188235498Y-113105820D01*
X188199188Y-113225518D01*
X188186928Y-113350000D01*
X188190000Y-113589250D01*
X188348750Y-113748000D01*
X189173000Y-113748000D01*
X189173000Y-113728000D01*
X189427000Y-113728000D01*
X189427000Y-113748000D01*
X190251250Y-113748000D01*
X190410000Y-113589250D01*
X190413072Y-113350000D01*
X190400812Y-113225518D01*
X190364502Y-113105820D01*
X190305537Y-112995506D01*
X190226185Y-112898815D01*
X190129494Y-112819463D01*
X190019180Y-112760498D01*
X189988360Y-112751149D01*
X190008180Y-112726998D01*
X190060492Y-112629130D01*
X190092705Y-112522937D01*
X190103582Y-112412500D01*
X190103582Y-111837500D01*
X190092705Y-111727063D01*
X190060492Y-111620870D01*
X190008180Y-111523002D01*
X189937780Y-111437220D01*
X189851998Y-111366820D01*
X189754130Y-111314508D01*
X189647937Y-111282295D01*
X189537500Y-111271418D01*
X189062500Y-111271418D01*
X188952063Y-111282295D01*
X188845870Y-111314508D01*
X188748002Y-111366820D01*
X188662220Y-111437220D01*
X188612339Y-111498000D01*
X184873268Y-111498000D01*
X184833180Y-111423002D01*
X184762780Y-111337220D01*
X184676998Y-111266820D01*
X184579130Y-111214508D01*
X184472937Y-111182295D01*
X184362500Y-111171418D01*
X183887500Y-111171418D01*
X183777063Y-111182295D01*
X183670870Y-111214508D01*
X183573002Y-111266820D01*
X183487220Y-111337220D01*
X183416820Y-111423002D01*
X183364508Y-111520870D01*
X183332295Y-111627063D01*
X183321418Y-111737500D01*
X168569134Y-111737500D01*
X168242544Y-111248724D01*
X167751276Y-110757456D01*
X167365966Y-110500000D01*
X172031928Y-110500000D01*
X172044188Y-110624482D01*
X172080498Y-110744180D01*
X172139463Y-110854494D01*
X172218815Y-110951185D01*
X172315506Y-111030537D01*
X172425820Y-111089502D01*
X172545518Y-111125812D01*
X172670000Y-111138072D01*
X172884250Y-111135000D01*
X173043000Y-110976250D01*
X173043000Y-108727000D01*
X173297000Y-108727000D01*
X173297000Y-110976250D01*
X173455750Y-111135000D01*
X173670000Y-111138072D01*
X173794482Y-111125812D01*
X173914180Y-111089502D01*
X174024494Y-111030537D01*
X174121185Y-110951185D01*
X174200537Y-110854494D01*
X174259502Y-110744180D01*
X174295812Y-110624482D01*
X174308072Y-110500000D01*
X174305000Y-108885750D01*
X174146250Y-108727000D01*
X173297000Y-108727000D01*
X173043000Y-108727000D01*
X172193750Y-108727000D01*
X172035000Y-108885750D01*
X172031928Y-110500000D01*
X167365966Y-110500000D01*
X167173605Y-110371469D01*
X166531732Y-110105596D01*
X165850323Y-109970056D01*
X165641055Y-109970056D01*
X165694079Y-109941714D01*
X165804926Y-109664531D01*
X168795074Y-109664531D01*
X168905921Y-109941714D01*
X169216840Y-110095089D01*
X169551705Y-110184860D01*
X169897650Y-110207576D01*
X170241380Y-110162366D01*
X170569685Y-110050966D01*
X170774079Y-109941714D01*
X170884926Y-109664531D01*
X169840000Y-108619605D01*
X168795074Y-109664531D01*
X165804926Y-109664531D01*
X164760000Y-108619605D01*
X163715074Y-109664531D01*
X163825921Y-109941714D01*
X164136840Y-110095089D01*
X164357020Y-110154115D01*
X163832283Y-110371469D01*
X163254612Y-110757456D01*
X162763344Y-111248724D01*
X162377357Y-111826395D01*
X162252000Y-112129033D01*
X162252000Y-108497650D01*
X162992424Y-108497650D01*
X163037634Y-108841380D01*
X163149034Y-109169685D01*
X163258286Y-109374079D01*
X163535469Y-109484926D01*
X164580395Y-108440000D01*
X164939605Y-108440000D01*
X165984531Y-109484926D01*
X166261714Y-109374079D01*
X166415089Y-109063160D01*
X166504860Y-108728295D01*
X166520004Y-108497650D01*
X168072424Y-108497650D01*
X168117634Y-108841380D01*
X168229034Y-109169685D01*
X168338286Y-109374079D01*
X168615469Y-109484926D01*
X169660395Y-108440000D01*
X170019605Y-108440000D01*
X171064531Y-109484926D01*
X171341714Y-109374079D01*
X171495089Y-109063160D01*
X171584860Y-108728295D01*
X171607576Y-108382350D01*
X171562366Y-108038620D01*
X171450966Y-107710315D01*
X171341714Y-107505921D01*
X171064531Y-107395074D01*
X170019605Y-108440000D01*
X169660395Y-108440000D01*
X168615469Y-107395074D01*
X168338286Y-107505921D01*
X168184911Y-107816840D01*
X168095140Y-108151705D01*
X168072424Y-108497650D01*
X166520004Y-108497650D01*
X166527576Y-108382350D01*
X166482366Y-108038620D01*
X166370966Y-107710315D01*
X166261714Y-107505921D01*
X165984531Y-107395074D01*
X164939605Y-108440000D01*
X164580395Y-108440000D01*
X163535469Y-107395074D01*
X163258286Y-107505921D01*
X163104911Y-107816840D01*
X163015140Y-108151705D01*
X162992424Y-108497650D01*
X162252000Y-108497650D01*
X162252000Y-107215469D01*
X163715074Y-107215469D01*
X164760000Y-108260395D01*
X165804926Y-107215469D01*
X165694079Y-106938286D01*
X165383160Y-106784911D01*
X165048295Y-106695140D01*
X164702350Y-106672424D01*
X164358620Y-106717634D01*
X164030315Y-106829034D01*
X163825921Y-106938286D01*
X163715074Y-107215469D01*
X162252000Y-107215469D01*
X162252000Y-105766840D01*
X165948000Y-105766840D01*
X165948000Y-106033160D01*
X165999956Y-106294364D01*
X166101873Y-106540412D01*
X166249833Y-106761850D01*
X166438150Y-106950167D01*
X166659588Y-107098127D01*
X166905636Y-107200044D01*
X167166840Y-107252000D01*
X167433160Y-107252000D01*
X167616816Y-107215469D01*
X168795074Y-107215469D01*
X169840000Y-108260395D01*
X170884926Y-107215469D01*
X170774079Y-106938286D01*
X170463160Y-106784911D01*
X170128295Y-106695140D01*
X169782350Y-106672424D01*
X169438620Y-106717634D01*
X169110315Y-106829034D01*
X168905921Y-106938286D01*
X168795074Y-107215469D01*
X167616816Y-107215469D01*
X167694364Y-107200044D01*
X167940412Y-107098127D01*
X168161850Y-106950167D01*
X168350167Y-106761850D01*
X168498127Y-106540412D01*
X168567188Y-106373685D01*
X172124401Y-106373685D01*
X172080498Y-106455820D01*
X172044188Y-106575518D01*
X172031928Y-106700000D01*
X172035000Y-108314250D01*
X172193750Y-108473000D01*
X173043000Y-108473000D01*
X173043000Y-108453000D01*
X173297000Y-108453000D01*
X173297000Y-108473000D01*
X174146250Y-108473000D01*
X174305000Y-108314250D01*
X174305226Y-108195000D01*
X180241928Y-108195000D01*
X180254188Y-108319482D01*
X180290498Y-108439180D01*
X180349463Y-108549494D01*
X180428815Y-108646185D01*
X180525506Y-108725537D01*
X180635820Y-108784502D01*
X180755518Y-108820812D01*
X180880000Y-108833072D01*
X180914250Y-108830000D01*
X181073000Y-108671250D01*
X181073000Y-108027000D01*
X180403750Y-108027000D01*
X180245000Y-108185750D01*
X180241928Y-108195000D01*
X174305226Y-108195000D01*
X174308072Y-106700000D01*
X174295812Y-106575518D01*
X174259502Y-106455820D01*
X174215599Y-106373685D01*
X175531761Y-106373685D01*
X175560859Y-106409141D01*
X175633003Y-106468348D01*
X175715311Y-106512342D01*
X175804621Y-106539434D01*
X175897500Y-106548582D01*
X176192500Y-106548582D01*
X176285379Y-106539434D01*
X176374689Y-106512342D01*
X176456997Y-106468348D01*
X176529141Y-106409141D01*
X176530000Y-106408094D01*
X176530859Y-106409141D01*
X176603003Y-106468348D01*
X176685311Y-106512342D01*
X176774621Y-106539434D01*
X176867500Y-106548582D01*
X177162500Y-106548582D01*
X177255379Y-106539434D01*
X177344689Y-106512342D01*
X177426997Y-106468348D01*
X177499141Y-106409141D01*
X177525518Y-106377000D01*
X178323820Y-106377000D01*
X178236564Y-106435302D01*
X178135302Y-106536564D01*
X178055741Y-106655636D01*
X178000938Y-106787942D01*
X177973000Y-106928397D01*
X177973000Y-107071603D01*
X178000938Y-107212058D01*
X178055741Y-107344364D01*
X178135302Y-107463436D01*
X178236564Y-107564698D01*
X178355636Y-107644259D01*
X178487942Y-107699062D01*
X178628397Y-107727000D01*
X178771603Y-107727000D01*
X178912058Y-107699062D01*
X179044364Y-107644259D01*
X179163436Y-107564698D01*
X179264698Y-107463436D01*
X179344259Y-107344364D01*
X179399062Y-107212058D01*
X179427000Y-107071603D01*
X179427000Y-106931803D01*
X179456427Y-106952853D01*
X179570404Y-107004381D01*
X179692244Y-107032683D01*
X179741250Y-107035000D01*
X179900000Y-106876250D01*
X180058750Y-107035000D01*
X180107756Y-107032683D01*
X180229596Y-107004381D01*
X180343573Y-106952853D01*
X180445308Y-106880080D01*
X180509731Y-106811411D01*
X180551418Y-106856608D01*
X180551418Y-107060613D01*
X180525506Y-107074463D01*
X180428815Y-107153815D01*
X180349463Y-107250506D01*
X180290498Y-107360820D01*
X180254188Y-107480518D01*
X180241928Y-107605000D01*
X180245000Y-107614250D01*
X180403750Y-107773000D01*
X181073000Y-107773000D01*
X181073000Y-107753000D01*
X181327000Y-107753000D01*
X181327000Y-107773000D01*
X181347000Y-107773000D01*
X181347000Y-108027000D01*
X181327000Y-108027000D01*
X181327000Y-108671250D01*
X181485750Y-108830000D01*
X181520000Y-108833072D01*
X181644482Y-108820812D01*
X181764180Y-108784502D01*
X181874494Y-108725537D01*
X181971185Y-108646185D01*
X182050537Y-108549494D01*
X182109502Y-108439180D01*
X182145812Y-108319482D01*
X182158072Y-108195000D01*
X182155000Y-108185750D01*
X181996252Y-108027002D01*
X182129809Y-108027002D01*
X182155636Y-108044259D01*
X182287942Y-108099062D01*
X182428397Y-108127000D01*
X182481711Y-108127000D01*
X183598001Y-109243291D01*
X183598001Y-109503458D01*
X183573002Y-109516820D01*
X183487220Y-109587220D01*
X183416820Y-109673002D01*
X183364508Y-109770870D01*
X183332295Y-109877063D01*
X183321418Y-109987500D01*
X183321418Y-110562500D01*
X183332295Y-110672937D01*
X183364508Y-110779130D01*
X183416820Y-110876998D01*
X183487220Y-110962780D01*
X183573002Y-111033180D01*
X183670870Y-111085492D01*
X183777063Y-111117705D01*
X183887500Y-111128582D01*
X184362500Y-111128582D01*
X184472937Y-111117705D01*
X184579130Y-111085492D01*
X184676998Y-111033180D01*
X184762780Y-110962780D01*
X184833180Y-110876998D01*
X184885492Y-110779130D01*
X184917705Y-110672937D01*
X184928582Y-110562500D01*
X184928582Y-110500000D01*
X185491928Y-110500000D01*
X185504188Y-110624482D01*
X185540498Y-110744180D01*
X185599463Y-110854494D01*
X185678815Y-110951185D01*
X185775506Y-111030537D01*
X185885820Y-111089502D01*
X186005518Y-111125812D01*
X186130000Y-111138072D01*
X186344250Y-111135000D01*
X186503000Y-110976250D01*
X186503000Y-108727000D01*
X186757000Y-108727000D01*
X186757000Y-110976250D01*
X186915750Y-111135000D01*
X187130000Y-111138072D01*
X187254482Y-111125812D01*
X187374180Y-111089502D01*
X187484494Y-111030537D01*
X187581185Y-110951185D01*
X187660537Y-110854494D01*
X187719502Y-110744180D01*
X187755812Y-110624482D01*
X187768072Y-110500000D01*
X187765674Y-109239531D01*
X188665074Y-109239531D01*
X188775921Y-109516714D01*
X189086840Y-109670089D01*
X189421705Y-109759860D01*
X189767650Y-109782576D01*
X190111380Y-109737366D01*
X190439685Y-109625966D01*
X190644079Y-109516714D01*
X190754926Y-109239531D01*
X193745074Y-109239531D01*
X193855921Y-109516714D01*
X194166840Y-109670089D01*
X194501705Y-109759860D01*
X194847650Y-109782576D01*
X195191380Y-109737366D01*
X195519685Y-109625966D01*
X195724079Y-109516714D01*
X195834926Y-109239531D01*
X194790000Y-108194605D01*
X193745074Y-109239531D01*
X190754926Y-109239531D01*
X189710000Y-108194605D01*
X188665074Y-109239531D01*
X187765674Y-109239531D01*
X187765000Y-108885750D01*
X187606250Y-108727000D01*
X186757000Y-108727000D01*
X186503000Y-108727000D01*
X185653750Y-108727000D01*
X185495000Y-108885750D01*
X185491928Y-110500000D01*
X184928582Y-110500000D01*
X184928582Y-109987500D01*
X184917705Y-109877063D01*
X184885492Y-109770870D01*
X184833180Y-109673002D01*
X184762780Y-109587220D01*
X184676998Y-109516820D01*
X184652000Y-109503458D01*
X184652000Y-109050880D01*
X184654549Y-109024999D01*
X184644374Y-108921690D01*
X184614239Y-108822350D01*
X184565304Y-108730798D01*
X184560986Y-108725537D01*
X184499448Y-108650552D01*
X184479339Y-108634049D01*
X183227000Y-107381711D01*
X183227000Y-107328397D01*
X183199062Y-107187942D01*
X183144259Y-107055636D01*
X183064698Y-106936564D01*
X183042106Y-106913972D01*
X183068348Y-106881997D01*
X183112342Y-106799689D01*
X183139434Y-106710379D01*
X183140456Y-106700000D01*
X185491928Y-106700000D01*
X185495000Y-108314250D01*
X185653750Y-108473000D01*
X186503000Y-108473000D01*
X186503000Y-106223750D01*
X186757000Y-106223750D01*
X186757000Y-108473000D01*
X187606250Y-108473000D01*
X187765000Y-108314250D01*
X187765459Y-108072650D01*
X187942424Y-108072650D01*
X187987634Y-108416380D01*
X188099034Y-108744685D01*
X188208286Y-108949079D01*
X188485469Y-109059926D01*
X189530395Y-108015000D01*
X189889605Y-108015000D01*
X190934531Y-109059926D01*
X191211714Y-108949079D01*
X191365089Y-108638160D01*
X191454860Y-108303295D01*
X191470004Y-108072650D01*
X193022424Y-108072650D01*
X193067634Y-108416380D01*
X193179034Y-108744685D01*
X193288286Y-108949079D01*
X193565469Y-109059926D01*
X194610395Y-108015000D01*
X194969605Y-108015000D01*
X196014531Y-109059926D01*
X196291714Y-108949079D01*
X196445089Y-108638160D01*
X196534860Y-108303295D01*
X196557576Y-107957350D01*
X196512366Y-107613620D01*
X196400966Y-107285315D01*
X196291714Y-107080921D01*
X196014531Y-106970074D01*
X194969605Y-108015000D01*
X194610395Y-108015000D01*
X193565469Y-106970074D01*
X193288286Y-107080921D01*
X193134911Y-107391840D01*
X193045140Y-107726705D01*
X193022424Y-108072650D01*
X191470004Y-108072650D01*
X191477576Y-107957350D01*
X191432366Y-107613620D01*
X191320966Y-107285315D01*
X191211714Y-107080921D01*
X190934531Y-106970074D01*
X189889605Y-108015000D01*
X189530395Y-108015000D01*
X188485469Y-106970074D01*
X188208286Y-107080921D01*
X188054911Y-107391840D01*
X187965140Y-107726705D01*
X187942424Y-108072650D01*
X187765459Y-108072650D01*
X187767899Y-106790469D01*
X188665074Y-106790469D01*
X189710000Y-107835395D01*
X190754926Y-106790469D01*
X190644079Y-106513286D01*
X190333160Y-106359911D01*
X189998295Y-106270140D01*
X189652350Y-106247424D01*
X189308620Y-106292634D01*
X188980315Y-106404034D01*
X188775921Y-106513286D01*
X188665074Y-106790469D01*
X187767899Y-106790469D01*
X187768072Y-106700000D01*
X187755812Y-106575518D01*
X187719502Y-106455820D01*
X187660537Y-106345506D01*
X187581185Y-106248815D01*
X187484494Y-106169463D01*
X187374180Y-106110498D01*
X187254482Y-106074188D01*
X187130000Y-106061928D01*
X186915750Y-106065000D01*
X186757000Y-106223750D01*
X186503000Y-106223750D01*
X186344250Y-106065000D01*
X186130000Y-106061928D01*
X186005518Y-106074188D01*
X185885820Y-106110498D01*
X185775506Y-106169463D01*
X185678815Y-106248815D01*
X185599463Y-106345506D01*
X185540498Y-106455820D01*
X185504188Y-106575518D01*
X185491928Y-106700000D01*
X183140456Y-106700000D01*
X183148582Y-106617500D01*
X183148582Y-106322500D01*
X183139434Y-106229621D01*
X183112342Y-106140311D01*
X183068348Y-106058003D01*
X183009141Y-105985859D01*
X183008094Y-105985000D01*
X183009141Y-105984141D01*
X183019466Y-105971560D01*
X183839523Y-105968199D01*
X183894286Y-105973592D01*
X183952722Y-105967837D01*
X190984023Y-105951608D01*
X191051873Y-106115412D01*
X191199833Y-106336850D01*
X191388150Y-106525167D01*
X191609588Y-106673127D01*
X191855636Y-106775044D01*
X192116840Y-106827000D01*
X192383160Y-106827000D01*
X192566816Y-106790469D01*
X193745074Y-106790469D01*
X194790000Y-107835395D01*
X195834926Y-106790469D01*
X195724079Y-106513286D01*
X195413160Y-106359911D01*
X195078295Y-106270140D01*
X194732350Y-106247424D01*
X194388620Y-106292634D01*
X194060315Y-106404034D01*
X193855921Y-106513286D01*
X193745074Y-106790469D01*
X192566816Y-106790469D01*
X192644364Y-106775044D01*
X192890412Y-106673127D01*
X193111850Y-106525167D01*
X193300167Y-106336850D01*
X193448127Y-106115412D01*
X193550044Y-105869364D01*
X193602000Y-105608160D01*
X193602000Y-105341840D01*
X193550044Y-105080636D01*
X193448127Y-104834588D01*
X193300167Y-104613150D01*
X193111850Y-104424833D01*
X192890412Y-104276873D01*
X192644364Y-104174956D01*
X192566817Y-104159531D01*
X193745074Y-104159531D01*
X193855921Y-104436714D01*
X194166840Y-104590089D01*
X194501705Y-104679860D01*
X194847650Y-104702576D01*
X195191380Y-104657366D01*
X195519685Y-104545966D01*
X195724079Y-104436714D01*
X195834926Y-104159531D01*
X194790000Y-103114605D01*
X193745074Y-104159531D01*
X192566817Y-104159531D01*
X192383160Y-104123000D01*
X192116840Y-104123000D01*
X191855636Y-104174956D01*
X191609588Y-104276873D01*
X191388150Y-104424833D01*
X191199833Y-104613150D01*
X191051873Y-104834588D01*
X190981600Y-105004242D01*
X187506762Y-105012262D01*
X187581185Y-104951185D01*
X187660537Y-104854494D01*
X187719502Y-104744180D01*
X187755812Y-104624482D01*
X187768072Y-104500000D01*
X187766133Y-104159531D01*
X188665074Y-104159531D01*
X188775921Y-104436714D01*
X189086840Y-104590089D01*
X189421705Y-104679860D01*
X189767650Y-104702576D01*
X190111380Y-104657366D01*
X190439685Y-104545966D01*
X190644079Y-104436714D01*
X190754926Y-104159531D01*
X189710000Y-103114605D01*
X188665074Y-104159531D01*
X187766133Y-104159531D01*
X187765000Y-103960750D01*
X187606250Y-103802000D01*
X186757000Y-103802000D01*
X186757000Y-103822000D01*
X186503000Y-103822000D01*
X186503000Y-103802000D01*
X185653750Y-103802000D01*
X185495000Y-103960750D01*
X185491928Y-104500000D01*
X185504188Y-104624482D01*
X185540498Y-104744180D01*
X185599463Y-104854494D01*
X185678815Y-104951185D01*
X185758155Y-105016298D01*
X184779826Y-105018556D01*
X184797253Y-104966199D01*
X184810000Y-104856750D01*
X184651250Y-104698000D01*
X184027000Y-104698000D01*
X184027000Y-104822000D01*
X183773000Y-104822000D01*
X183773000Y-104698000D01*
X183148750Y-104698000D01*
X182990000Y-104856750D01*
X183002747Y-104966199D01*
X183022043Y-105024172D01*
X183015984Y-105024197D01*
X183009141Y-105015859D01*
X182936997Y-104956652D01*
X182854689Y-104912658D01*
X182765379Y-104885566D01*
X182672500Y-104876418D01*
X182327500Y-104876418D01*
X182234621Y-104885566D01*
X182145311Y-104912658D01*
X182063003Y-104956652D01*
X181990859Y-105015859D01*
X181982278Y-105026315D01*
X180451740Y-105026315D01*
X180382142Y-105033170D01*
X180292852Y-105060256D01*
X180269009Y-105073000D01*
X180119428Y-105073000D01*
X180080891Y-105011143D01*
X179995308Y-104919920D01*
X179893573Y-104847147D01*
X179779596Y-104795619D01*
X179657756Y-104767317D01*
X179608750Y-104765000D01*
X179450000Y-104923750D01*
X179291250Y-104765000D01*
X179242244Y-104767317D01*
X179120404Y-104795619D01*
X179006427Y-104847147D01*
X178904692Y-104919920D01*
X178819109Y-105011143D01*
X178752967Y-105117309D01*
X178708808Y-105234339D01*
X178690000Y-105341250D01*
X178721748Y-105372998D01*
X178690000Y-105372998D01*
X178690000Y-105423000D01*
X177525518Y-105423000D01*
X177499141Y-105390859D01*
X177426997Y-105331652D01*
X177344689Y-105287658D01*
X177255379Y-105260566D01*
X177162500Y-105251418D01*
X176867500Y-105251418D01*
X176774621Y-105260566D01*
X176685311Y-105287658D01*
X176603003Y-105331652D01*
X176530859Y-105390859D01*
X176530000Y-105391906D01*
X176529141Y-105390859D01*
X176456997Y-105331652D01*
X176374689Y-105287658D01*
X176285379Y-105260566D01*
X176192500Y-105251418D01*
X175897500Y-105251418D01*
X175804621Y-105260566D01*
X175715311Y-105287658D01*
X175633003Y-105331652D01*
X175560859Y-105390859D01*
X175531761Y-105426315D01*
X168567188Y-105426315D01*
X168498127Y-105259588D01*
X168350167Y-105038150D01*
X168161850Y-104849833D01*
X167940412Y-104701873D01*
X167694364Y-104599956D01*
X167616817Y-104584531D01*
X168795074Y-104584531D01*
X168905921Y-104861714D01*
X169216840Y-105015089D01*
X169551705Y-105104860D01*
X169897650Y-105127576D01*
X170241380Y-105082366D01*
X170569685Y-104970966D01*
X170774079Y-104861714D01*
X170884926Y-104584531D01*
X170800395Y-104500000D01*
X172031928Y-104500000D01*
X172044188Y-104624482D01*
X172080498Y-104744180D01*
X172139463Y-104854494D01*
X172218815Y-104951185D01*
X172315506Y-105030537D01*
X172425820Y-105089502D01*
X172545518Y-105125812D01*
X172670000Y-105138072D01*
X172884250Y-105135000D01*
X173043000Y-104976250D01*
X173043000Y-103802000D01*
X173297000Y-103802000D01*
X173297000Y-104976250D01*
X173455750Y-105135000D01*
X173670000Y-105138072D01*
X173794482Y-105125812D01*
X173914180Y-105089502D01*
X174024494Y-105030537D01*
X174121185Y-104951185D01*
X174200537Y-104854494D01*
X174259502Y-104744180D01*
X174295812Y-104624482D01*
X174308072Y-104500000D01*
X174308034Y-104493250D01*
X182990000Y-104493250D01*
X183148750Y-104652000D01*
X183773000Y-104652000D01*
X183773000Y-104048750D01*
X184027000Y-104048750D01*
X184027000Y-104652000D01*
X184651250Y-104652000D01*
X184810000Y-104493250D01*
X184797253Y-104383801D01*
X184757750Y-104265119D01*
X184695853Y-104156424D01*
X184613939Y-104061892D01*
X184515157Y-103985158D01*
X184403303Y-103929170D01*
X184282676Y-103896079D01*
X184185750Y-103890000D01*
X184027000Y-104048750D01*
X183773000Y-104048750D01*
X183614250Y-103890000D01*
X183517324Y-103896079D01*
X183396697Y-103929170D01*
X183284843Y-103985158D01*
X183186061Y-104061892D01*
X183104147Y-104156424D01*
X183042250Y-104265119D01*
X183002747Y-104383801D01*
X182990000Y-104493250D01*
X174308034Y-104493250D01*
X174305000Y-103960750D01*
X174146250Y-103802000D01*
X173297000Y-103802000D01*
X173043000Y-103802000D01*
X172193750Y-103802000D01*
X172035000Y-103960750D01*
X172031928Y-104500000D01*
X170800395Y-104500000D01*
X169840000Y-103539605D01*
X168795074Y-104584531D01*
X167616817Y-104584531D01*
X167433160Y-104548000D01*
X167166840Y-104548000D01*
X166905636Y-104599956D01*
X166659588Y-104701873D01*
X166438150Y-104849833D01*
X166249833Y-105038150D01*
X166101873Y-105259588D01*
X165999956Y-105505636D01*
X165948000Y-105766840D01*
X162252000Y-105766840D01*
X162252000Y-104584531D01*
X163715074Y-104584531D01*
X163825921Y-104861714D01*
X164136840Y-105015089D01*
X164471705Y-105104860D01*
X164817650Y-105127576D01*
X165161380Y-105082366D01*
X165489685Y-104970966D01*
X165694079Y-104861714D01*
X165804926Y-104584531D01*
X164760000Y-103539605D01*
X163715074Y-104584531D01*
X162252000Y-104584531D01*
X162252000Y-103417650D01*
X162992424Y-103417650D01*
X163037634Y-103761380D01*
X163149034Y-104089685D01*
X163258286Y-104294079D01*
X163535469Y-104404926D01*
X164580395Y-103360000D01*
X164939605Y-103360000D01*
X165984531Y-104404926D01*
X166261714Y-104294079D01*
X166415089Y-103983160D01*
X166504860Y-103648295D01*
X166520004Y-103417650D01*
X168072424Y-103417650D01*
X168117634Y-103761380D01*
X168229034Y-104089685D01*
X168338286Y-104294079D01*
X168615469Y-104404926D01*
X169660395Y-103360000D01*
X170019605Y-103360000D01*
X171064531Y-104404926D01*
X171341714Y-104294079D01*
X171495089Y-103983160D01*
X171584860Y-103648295D01*
X171607576Y-103302350D01*
X171562366Y-102958620D01*
X171450966Y-102630315D01*
X171341714Y-102425921D01*
X171064531Y-102315074D01*
X170019605Y-103360000D01*
X169660395Y-103360000D01*
X168615469Y-102315074D01*
X168338286Y-102425921D01*
X168184911Y-102736840D01*
X168095140Y-103071705D01*
X168072424Y-103417650D01*
X166520004Y-103417650D01*
X166527576Y-103302350D01*
X166482366Y-102958620D01*
X166370966Y-102630315D01*
X166261714Y-102425921D01*
X165984531Y-102315074D01*
X164939605Y-103360000D01*
X164580395Y-103360000D01*
X163535469Y-102315074D01*
X163258286Y-102425921D01*
X163104911Y-102736840D01*
X163015140Y-103071705D01*
X162992424Y-103417650D01*
X162252000Y-103417650D01*
X162252000Y-102135469D01*
X163715074Y-102135469D01*
X164760000Y-103180395D01*
X165804926Y-102135469D01*
X168795074Y-102135469D01*
X169840000Y-103180395D01*
X170884926Y-102135469D01*
X170774079Y-101858286D01*
X170757282Y-101850000D01*
X172031928Y-101850000D01*
X172035000Y-102064250D01*
X172193750Y-102223000D01*
X172557580Y-102223000D01*
X172545518Y-102224188D01*
X172425820Y-102260498D01*
X172315506Y-102319463D01*
X172218815Y-102398815D01*
X172139463Y-102495506D01*
X172098375Y-102572375D01*
X172035000Y-102635750D01*
X172031928Y-102850000D01*
X172035000Y-103389250D01*
X172193750Y-103548000D01*
X173043000Y-103548000D01*
X173043000Y-102962420D01*
X173044188Y-102974482D01*
X173080498Y-103094180D01*
X173139463Y-103204494D01*
X173218815Y-103301185D01*
X173297000Y-103365350D01*
X173297000Y-103548000D01*
X174146250Y-103548000D01*
X174208300Y-103485950D01*
X174449250Y-103485000D01*
X174608000Y-103326250D01*
X174608000Y-102477000D01*
X174862000Y-102477000D01*
X174862000Y-103326250D01*
X175020750Y-103485000D01*
X175800000Y-103488072D01*
X175924482Y-103475812D01*
X176044180Y-103439502D01*
X176154494Y-103380537D01*
X176251185Y-103301185D01*
X176330537Y-103204494D01*
X176389502Y-103094180D01*
X176425812Y-102974482D01*
X176438072Y-102850000D01*
X177361928Y-102850000D01*
X177374188Y-102974482D01*
X177410498Y-103094180D01*
X177469463Y-103204494D01*
X177548815Y-103301185D01*
X177645506Y-103380537D01*
X177755820Y-103439502D01*
X177875518Y-103475812D01*
X178000000Y-103488072D01*
X179614250Y-103485000D01*
X179773000Y-103326250D01*
X179773000Y-102477000D01*
X180027000Y-102477000D01*
X180027000Y-103326250D01*
X180185750Y-103485000D01*
X181800000Y-103488072D01*
X181924482Y-103475812D01*
X182044180Y-103439502D01*
X182154494Y-103380537D01*
X182251185Y-103301185D01*
X182330537Y-103204494D01*
X182389502Y-103094180D01*
X182425812Y-102974482D01*
X182438072Y-102850000D01*
X183361928Y-102850000D01*
X183374188Y-102974482D01*
X183410498Y-103094180D01*
X183469463Y-103204494D01*
X183548815Y-103301185D01*
X183645506Y-103380537D01*
X183755820Y-103439502D01*
X183875518Y-103475812D01*
X184000000Y-103488072D01*
X184779250Y-103485000D01*
X184938000Y-103326250D01*
X184938000Y-102477000D01*
X183523750Y-102477000D01*
X183365000Y-102635750D01*
X183361928Y-102850000D01*
X182438072Y-102850000D01*
X182435000Y-102635750D01*
X182276250Y-102477000D01*
X180027000Y-102477000D01*
X179773000Y-102477000D01*
X177523750Y-102477000D01*
X177365000Y-102635750D01*
X177361928Y-102850000D01*
X176438072Y-102850000D01*
X176435000Y-102635750D01*
X176276250Y-102477000D01*
X174862000Y-102477000D01*
X174608000Y-102477000D01*
X174185350Y-102477000D01*
X174121185Y-102398815D01*
X174024494Y-102319463D01*
X173914180Y-102260498D01*
X173794482Y-102224188D01*
X173782420Y-102223000D01*
X174608000Y-102223000D01*
X174608000Y-101373750D01*
X174862000Y-101373750D01*
X174862000Y-102223000D01*
X176276250Y-102223000D01*
X176435000Y-102064250D01*
X176438072Y-101850000D01*
X177361928Y-101850000D01*
X177365000Y-102064250D01*
X177523750Y-102223000D01*
X179773000Y-102223000D01*
X179773000Y-101373750D01*
X180027000Y-101373750D01*
X180027000Y-102223000D01*
X182276250Y-102223000D01*
X182435000Y-102064250D01*
X182438072Y-101850000D01*
X183361928Y-101850000D01*
X183365000Y-102064250D01*
X183523750Y-102223000D01*
X184938000Y-102223000D01*
X184938000Y-101373750D01*
X185192000Y-101373750D01*
X185192000Y-102223000D01*
X186017580Y-102223000D01*
X186005518Y-102224188D01*
X185885820Y-102260498D01*
X185775506Y-102319463D01*
X185678815Y-102398815D01*
X185614650Y-102477000D01*
X185192000Y-102477000D01*
X185192000Y-103326250D01*
X185350750Y-103485000D01*
X185591700Y-103485950D01*
X185653750Y-103548000D01*
X186503000Y-103548000D01*
X186503000Y-103365350D01*
X186581185Y-103301185D01*
X186660537Y-103204494D01*
X186719502Y-103094180D01*
X186755812Y-102974482D01*
X186757000Y-102962420D01*
X186757000Y-103548000D01*
X187606250Y-103548000D01*
X187765000Y-103389250D01*
X187767259Y-102992650D01*
X187942424Y-102992650D01*
X187987634Y-103336380D01*
X188099034Y-103664685D01*
X188208286Y-103869079D01*
X188485469Y-103979926D01*
X189530395Y-102935000D01*
X189889605Y-102935000D01*
X190934531Y-103979926D01*
X191211714Y-103869079D01*
X191365089Y-103558160D01*
X191454860Y-103223295D01*
X191470004Y-102992650D01*
X193022424Y-102992650D01*
X193067634Y-103336380D01*
X193179034Y-103664685D01*
X193288286Y-103869079D01*
X193565469Y-103979926D01*
X194610395Y-102935000D01*
X194969605Y-102935000D01*
X196014531Y-103979926D01*
X196291714Y-103869079D01*
X196445089Y-103558160D01*
X196534860Y-103223295D01*
X196557576Y-102877350D01*
X196512366Y-102533620D01*
X196400966Y-102205315D01*
X196291714Y-102000921D01*
X196014531Y-101890074D01*
X194969605Y-102935000D01*
X194610395Y-102935000D01*
X193565469Y-101890074D01*
X193288286Y-102000921D01*
X193134911Y-102311840D01*
X193045140Y-102646705D01*
X193022424Y-102992650D01*
X191470004Y-102992650D01*
X191477576Y-102877350D01*
X191432366Y-102533620D01*
X191320966Y-102205315D01*
X191211714Y-102000921D01*
X190934531Y-101890074D01*
X189889605Y-102935000D01*
X189530395Y-102935000D01*
X188485469Y-101890074D01*
X188208286Y-102000921D01*
X188054911Y-102311840D01*
X187965140Y-102646705D01*
X187942424Y-102992650D01*
X187767259Y-102992650D01*
X187768072Y-102850000D01*
X187765000Y-102635750D01*
X187701625Y-102572375D01*
X187660537Y-102495506D01*
X187581185Y-102398815D01*
X187484494Y-102319463D01*
X187374180Y-102260498D01*
X187254482Y-102224188D01*
X187242420Y-102223000D01*
X187606250Y-102223000D01*
X187765000Y-102064250D01*
X187768072Y-101850000D01*
X187755812Y-101725518D01*
X187751247Y-101710469D01*
X188665074Y-101710469D01*
X189710000Y-102755395D01*
X190754926Y-101710469D01*
X193745074Y-101710469D01*
X194790000Y-102755395D01*
X195834926Y-101710469D01*
X195724079Y-101433286D01*
X195413160Y-101279911D01*
X195078295Y-101190140D01*
X194732350Y-101167424D01*
X194388620Y-101212634D01*
X194060315Y-101324034D01*
X193855921Y-101433286D01*
X193745074Y-101710469D01*
X190754926Y-101710469D01*
X190644079Y-101433286D01*
X190333160Y-101279911D01*
X189998295Y-101190140D01*
X189652350Y-101167424D01*
X189308620Y-101212634D01*
X188980315Y-101324034D01*
X188775921Y-101433286D01*
X188665074Y-101710469D01*
X187751247Y-101710469D01*
X187719502Y-101605820D01*
X187660537Y-101495506D01*
X187581185Y-101398815D01*
X187484494Y-101319463D01*
X187374180Y-101260498D01*
X187254482Y-101224188D01*
X187130000Y-101211928D01*
X186915750Y-101215000D01*
X186757000Y-101373750D01*
X186757000Y-101737580D01*
X186755812Y-101725518D01*
X186719502Y-101605820D01*
X186660537Y-101495506D01*
X186581185Y-101398815D01*
X186484494Y-101319463D01*
X186407625Y-101278375D01*
X186344250Y-101215000D01*
X186130000Y-101211928D01*
X185350750Y-101215000D01*
X185192000Y-101373750D01*
X184938000Y-101373750D01*
X184779250Y-101215000D01*
X184000000Y-101211928D01*
X183875518Y-101224188D01*
X183755820Y-101260498D01*
X183645506Y-101319463D01*
X183548815Y-101398815D01*
X183469463Y-101495506D01*
X183410498Y-101605820D01*
X183374188Y-101725518D01*
X183361928Y-101850000D01*
X182438072Y-101850000D01*
X182425812Y-101725518D01*
X182389502Y-101605820D01*
X182330537Y-101495506D01*
X182251185Y-101398815D01*
X182154494Y-101319463D01*
X182044180Y-101260498D01*
X181924482Y-101224188D01*
X181800000Y-101211928D01*
X180185750Y-101215000D01*
X180027000Y-101373750D01*
X179773000Y-101373750D01*
X179614250Y-101215000D01*
X178000000Y-101211928D01*
X177875518Y-101224188D01*
X177755820Y-101260498D01*
X177645506Y-101319463D01*
X177548815Y-101398815D01*
X177469463Y-101495506D01*
X177410498Y-101605820D01*
X177374188Y-101725518D01*
X177361928Y-101850000D01*
X176438072Y-101850000D01*
X176425812Y-101725518D01*
X176389502Y-101605820D01*
X176330537Y-101495506D01*
X176251185Y-101398815D01*
X176154494Y-101319463D01*
X176044180Y-101260498D01*
X175924482Y-101224188D01*
X175800000Y-101211928D01*
X175020750Y-101215000D01*
X174862000Y-101373750D01*
X174608000Y-101373750D01*
X174449250Y-101215000D01*
X173670000Y-101211928D01*
X173455750Y-101215000D01*
X173392375Y-101278375D01*
X173315506Y-101319463D01*
X173218815Y-101398815D01*
X173139463Y-101495506D01*
X173080498Y-101605820D01*
X173044188Y-101725518D01*
X173043000Y-101737580D01*
X173043000Y-101373750D01*
X172884250Y-101215000D01*
X172670000Y-101211928D01*
X172545518Y-101224188D01*
X172425820Y-101260498D01*
X172315506Y-101319463D01*
X172218815Y-101398815D01*
X172139463Y-101495506D01*
X172080498Y-101605820D01*
X172044188Y-101725518D01*
X172031928Y-101850000D01*
X170757282Y-101850000D01*
X170463160Y-101704911D01*
X170128295Y-101615140D01*
X169782350Y-101592424D01*
X169438620Y-101637634D01*
X169110315Y-101749034D01*
X168905921Y-101858286D01*
X168795074Y-102135469D01*
X165804926Y-102135469D01*
X165694079Y-101858286D01*
X165383160Y-101704911D01*
X165048295Y-101615140D01*
X164702350Y-101592424D01*
X164358620Y-101637634D01*
X164030315Y-101749034D01*
X163825921Y-101858286D01*
X163715074Y-102135469D01*
X162252000Y-102135469D01*
X162252000Y-100252000D01*
X197248000Y-100252000D01*
X197248001Y-112124871D01*
X197248001Y-112124871D01*
G37*
X197248001Y-112124871D02*
X197125587Y-111829339D01*
X196739600Y-111251668D01*
X196248332Y-110760400D01*
X195670661Y-110374413D01*
X195028788Y-110108540D01*
X194347379Y-109973000D01*
X193652621Y-109973000D01*
X192971212Y-110108540D01*
X192329339Y-110374413D01*
X191751668Y-110760400D01*
X191260400Y-111251668D01*
X190874413Y-111829339D01*
X190608540Y-112471212D01*
X190473000Y-113152621D01*
X190473000Y-113847379D01*
X190608540Y-114528788D01*
X190874413Y-115170661D01*
X191260400Y-115748332D01*
X191751668Y-116239600D01*
X192329339Y-116625587D01*
X192624870Y-116748000D01*
X166870967Y-116748000D01*
X167173605Y-116622643D01*
X167751276Y-116236656D01*
X168242544Y-115745388D01*
X168628531Y-115167717D01*
X168894404Y-114525844D01*
X168929381Y-114350000D01*
X172031928Y-114350000D01*
X172035000Y-114564250D01*
X172098375Y-114627625D01*
X172139463Y-114704494D01*
X172218815Y-114801185D01*
X172315506Y-114880537D01*
X172425820Y-114939502D01*
X172545518Y-114975812D01*
X172557580Y-114977000D01*
X172193750Y-114977000D01*
X172035000Y-115135750D01*
X172031928Y-115350000D01*
X172044188Y-115474482D01*
X172080498Y-115594180D01*
X172139463Y-115704494D01*
X172218815Y-115801185D01*
X172315506Y-115880537D01*
X172425820Y-115939502D01*
X172545518Y-115975812D01*
X172670000Y-115988072D01*
X172884250Y-115985000D01*
X173043000Y-115826250D01*
X173043000Y-115462420D01*
X173044188Y-115474482D01*
X173080498Y-115594180D01*
X173139463Y-115704494D01*
X173218815Y-115801185D01*
X173315506Y-115880537D01*
X173392375Y-115921625D01*
X173455750Y-115985000D01*
X173670000Y-115988072D01*
X174449250Y-115985000D01*
X174608000Y-115826250D01*
X174608000Y-114977000D01*
X174862000Y-114977000D01*
X174862000Y-115826250D01*
X175020750Y-115985000D01*
X175800000Y-115988072D01*
X175924482Y-115975812D01*
X176044180Y-115939502D01*
X176154494Y-115880537D01*
X176251185Y-115801185D01*
X176330537Y-115704494D01*
X176389502Y-115594180D01*
X176425812Y-115474482D01*
X176438072Y-115350000D01*
X177361928Y-115350000D01*
X177374188Y-115474482D01*
X177410498Y-115594180D01*
X177469463Y-115704494D01*
X177548815Y-115801185D01*
X177645506Y-115880537D01*
X177755820Y-115939502D01*
X177875518Y-115975812D01*
X178000000Y-115988072D01*
X179614250Y-115985000D01*
X179773000Y-115826250D01*
X179773000Y-114977000D01*
X180027000Y-114977000D01*
X180027000Y-115826250D01*
X180185750Y-115985000D01*
X181800000Y-115988072D01*
X181924482Y-115975812D01*
X182044180Y-115939502D01*
X182154494Y-115880537D01*
X182251185Y-115801185D01*
X182330537Y-115704494D01*
X182389502Y-115594180D01*
X182425812Y-115474482D01*
X182438072Y-115350000D01*
X183361928Y-115350000D01*
X183374188Y-115474482D01*
X183410498Y-115594180D01*
X183469463Y-115704494D01*
X183548815Y-115801185D01*
X183645506Y-115880537D01*
X183755820Y-115939502D01*
X183875518Y-115975812D01*
X184000000Y-115988072D01*
X184779250Y-115985000D01*
X184938000Y-115826250D01*
X184938000Y-114977000D01*
X183523750Y-114977000D01*
X183365000Y-115135750D01*
X183361928Y-115350000D01*
X182438072Y-115350000D01*
X182435000Y-115135750D01*
X182276250Y-114977000D01*
X180027000Y-114977000D01*
X179773000Y-114977000D01*
X177523750Y-114977000D01*
X177365000Y-115135750D01*
X177361928Y-115350000D01*
X176438072Y-115350000D01*
X176435000Y-115135750D01*
X176276250Y-114977000D01*
X174862000Y-114977000D01*
X174608000Y-114977000D01*
X173782420Y-114977000D01*
X173794482Y-114975812D01*
X173914180Y-114939502D01*
X174024494Y-114880537D01*
X174121185Y-114801185D01*
X174185350Y-114723000D01*
X174608000Y-114723000D01*
X174608000Y-113873750D01*
X174862000Y-113873750D01*
X174862000Y-114723000D01*
X176276250Y-114723000D01*
X176435000Y-114564250D01*
X176438072Y-114350000D01*
X177361928Y-114350000D01*
X177365000Y-114564250D01*
X177523750Y-114723000D01*
X179773000Y-114723000D01*
X179773000Y-113873750D01*
X180027000Y-113873750D01*
X180027000Y-114723000D01*
X182276250Y-114723000D01*
X182435000Y-114564250D01*
X182438072Y-114350000D01*
X183361928Y-114350000D01*
X183365000Y-114564250D01*
X183523750Y-114723000D01*
X184938000Y-114723000D01*
X184938000Y-113873750D01*
X185192000Y-113873750D01*
X185192000Y-114723000D01*
X185614650Y-114723000D01*
X185678815Y-114801185D01*
X185775506Y-114880537D01*
X185885820Y-114939502D01*
X186005518Y-114975812D01*
X186017580Y-114977000D01*
X185192000Y-114977000D01*
X185192000Y-115826250D01*
X185350750Y-115985000D01*
X186130000Y-115988072D01*
X186344250Y-115985000D01*
X186407625Y-115921625D01*
X186484494Y-115880537D01*
X186581185Y-115801185D01*
X186660537Y-115704494D01*
X186719502Y-115594180D01*
X186755812Y-115474482D01*
X186757000Y-115462420D01*
X186757000Y-115826250D01*
X186915750Y-115985000D01*
X187130000Y-115988072D01*
X187254482Y-115975812D01*
X187374180Y-115939502D01*
X187484494Y-115880537D01*
X187581185Y-115801185D01*
X187660537Y-115704494D01*
X187719502Y-115594180D01*
X187755812Y-115474482D01*
X187768072Y-115350000D01*
X187765000Y-115135750D01*
X187606250Y-114977000D01*
X187242420Y-114977000D01*
X187254482Y-114975812D01*
X187374180Y-114939502D01*
X187484494Y-114880537D01*
X187581185Y-114801185D01*
X187660537Y-114704494D01*
X187701625Y-114627625D01*
X187765000Y-114564250D01*
X187767355Y-114400000D01*
X188186928Y-114400000D01*
X188199188Y-114524482D01*
X188235498Y-114644180D01*
X188294463Y-114754494D01*
X188373815Y-114851185D01*
X188470506Y-114930537D01*
X188580820Y-114989502D01*
X188700518Y-115025812D01*
X188825000Y-115038072D01*
X189014250Y-115035000D01*
X189173000Y-114876250D01*
X189173000Y-114002000D01*
X189427000Y-114002000D01*
X189427000Y-114876250D01*
X189585750Y-115035000D01*
X189775000Y-115038072D01*
X189899482Y-115025812D01*
X190019180Y-114989502D01*
X190129494Y-114930537D01*
X190226185Y-114851185D01*
X190305537Y-114754494D01*
X190364502Y-114644180D01*
X190400812Y-114524482D01*
X190413072Y-114400000D01*
X190410000Y-114160750D01*
X190251250Y-114002000D01*
X189427000Y-114002000D01*
X189173000Y-114002000D01*
X188348750Y-114002000D01*
X188190000Y-114160750D01*
X188186928Y-114400000D01*
X187767355Y-114400000D01*
X187768072Y-114350000D01*
X187765000Y-113810750D01*
X187606250Y-113652000D01*
X186757000Y-113652000D01*
X186757000Y-114237580D01*
X186755812Y-114225518D01*
X186719502Y-114105820D01*
X186660537Y-113995506D01*
X186581185Y-113898815D01*
X186503000Y-113834650D01*
X186503000Y-113652000D01*
X185653750Y-113652000D01*
X185591700Y-113714050D01*
X185350750Y-113715000D01*
X185192000Y-113873750D01*
X184938000Y-113873750D01*
X184779250Y-113715000D01*
X184000000Y-113711928D01*
X183875518Y-113724188D01*
X183755820Y-113760498D01*
X183645506Y-113819463D01*
X183548815Y-113898815D01*
X183469463Y-113995506D01*
X183410498Y-114105820D01*
X183374188Y-114225518D01*
X183361928Y-114350000D01*
X182438072Y-114350000D01*
X182425812Y-114225518D01*
X182389502Y-114105820D01*
X182330537Y-113995506D01*
X182251185Y-113898815D01*
X182154494Y-113819463D01*
X182044180Y-113760498D01*
X181924482Y-113724188D01*
X181800000Y-113711928D01*
X180185750Y-113715000D01*
X180027000Y-113873750D01*
X179773000Y-113873750D01*
X179614250Y-113715000D01*
X178000000Y-113711928D01*
X177875518Y-113724188D01*
X177755820Y-113760498D01*
X177645506Y-113819463D01*
X177548815Y-113898815D01*
X177469463Y-113995506D01*
X177410498Y-114105820D01*
X177374188Y-114225518D01*
X177361928Y-114350000D01*
X176438072Y-114350000D01*
X176425812Y-114225518D01*
X176389502Y-114105820D01*
X176330537Y-113995506D01*
X176251185Y-113898815D01*
X176154494Y-113819463D01*
X176044180Y-113760498D01*
X175924482Y-113724188D01*
X175800000Y-113711928D01*
X175020750Y-113715000D01*
X174862000Y-113873750D01*
X174608000Y-113873750D01*
X174449250Y-113715000D01*
X174208300Y-113714050D01*
X174146250Y-113652000D01*
X173297000Y-113652000D01*
X173297000Y-113834650D01*
X173218815Y-113898815D01*
X173139463Y-113995506D01*
X173080498Y-114105820D01*
X173044188Y-114225518D01*
X173043000Y-114237580D01*
X173043000Y-113652000D01*
X172193750Y-113652000D01*
X172035000Y-113810750D01*
X172031928Y-114350000D01*
X168929381Y-114350000D01*
X169029944Y-113844435D01*
X169029944Y-113149677D01*
X168940499Y-112700000D01*
X172031928Y-112700000D01*
X172035000Y-113239250D01*
X172193750Y-113398000D01*
X173043000Y-113398000D01*
X173043000Y-112223750D01*
X173297000Y-112223750D01*
X173297000Y-113398000D01*
X174146250Y-113398000D01*
X174305000Y-113239250D01*
X174308072Y-112700000D01*
X174295812Y-112575518D01*
X174259502Y-112455820D01*
X174200537Y-112345506D01*
X174121185Y-112248815D01*
X174024494Y-112169463D01*
X173914180Y-112110498D01*
X173794482Y-112074188D01*
X173670000Y-112061928D01*
X173455750Y-112065000D01*
X173297000Y-112223750D01*
X173043000Y-112223750D01*
X172884250Y-112065000D01*
X172670000Y-112061928D01*
X172545518Y-112074188D01*
X172425820Y-112110498D01*
X172315506Y-112169463D01*
X172218815Y-112248815D01*
X172139463Y-112345506D01*
X172080498Y-112455820D01*
X172044188Y-112575518D01*
X172031928Y-112700000D01*
X168940499Y-112700000D01*
X168894404Y-112468268D01*
X168628531Y-111826395D01*
X168569134Y-111737500D01*
X183321418Y-111737500D01*
X183321418Y-112312500D01*
X183332295Y-112422937D01*
X183364508Y-112529130D01*
X183416820Y-112626998D01*
X183487220Y-112712780D01*
X183573002Y-112783180D01*
X183670870Y-112835492D01*
X183777063Y-112867705D01*
X183887500Y-112878582D01*
X184362500Y-112878582D01*
X184472937Y-112867705D01*
X184579130Y-112835492D01*
X184676998Y-112783180D01*
X184762780Y-112712780D01*
X184833180Y-112626998D01*
X184873268Y-112552000D01*
X185511322Y-112552000D01*
X185504188Y-112575518D01*
X185491928Y-112700000D01*
X185495000Y-113239250D01*
X185653750Y-113398000D01*
X186503000Y-113398000D01*
X186503000Y-113378000D01*
X186757000Y-113378000D01*
X186757000Y-113398000D01*
X187606250Y-113398000D01*
X187765000Y-113239250D01*
X187768072Y-112700000D01*
X187755812Y-112575518D01*
X187748678Y-112552000D01*
X188516111Y-112552000D01*
X188539508Y-112629130D01*
X188591820Y-112726998D01*
X188611640Y-112751149D01*
X188580820Y-112760498D01*
X188470506Y-112819463D01*
X188373815Y-112898815D01*
X188294463Y-112995506D01*
X188235498Y-113105820D01*
X188199188Y-113225518D01*
X188186928Y-113350000D01*
X188190000Y-113589250D01*
X188348750Y-113748000D01*
X189173000Y-113748000D01*
X189173000Y-113728000D01*
X189427000Y-113728000D01*
X189427000Y-113748000D01*
X190251250Y-113748000D01*
X190410000Y-113589250D01*
X190413072Y-113350000D01*
X190400812Y-113225518D01*
X190364502Y-113105820D01*
X190305537Y-112995506D01*
X190226185Y-112898815D01*
X190129494Y-112819463D01*
X190019180Y-112760498D01*
X189988360Y-112751149D01*
X190008180Y-112726998D01*
X190060492Y-112629130D01*
X190092705Y-112522937D01*
X190103582Y-112412500D01*
X190103582Y-111837500D01*
X190092705Y-111727063D01*
X190060492Y-111620870D01*
X190008180Y-111523002D01*
X189937780Y-111437220D01*
X189851998Y-111366820D01*
X189754130Y-111314508D01*
X189647937Y-111282295D01*
X189537500Y-111271418D01*
X189062500Y-111271418D01*
X188952063Y-111282295D01*
X188845870Y-111314508D01*
X188748002Y-111366820D01*
X188662220Y-111437220D01*
X188612339Y-111498000D01*
X184873268Y-111498000D01*
X184833180Y-111423002D01*
X184762780Y-111337220D01*
X184676998Y-111266820D01*
X184579130Y-111214508D01*
X184472937Y-111182295D01*
X184362500Y-111171418D01*
X183887500Y-111171418D01*
X183777063Y-111182295D01*
X183670870Y-111214508D01*
X183573002Y-111266820D01*
X183487220Y-111337220D01*
X183416820Y-111423002D01*
X183364508Y-111520870D01*
X183332295Y-111627063D01*
X183321418Y-111737500D01*
X168569134Y-111737500D01*
X168242544Y-111248724D01*
X167751276Y-110757456D01*
X167365966Y-110500000D01*
X172031928Y-110500000D01*
X172044188Y-110624482D01*
X172080498Y-110744180D01*
X172139463Y-110854494D01*
X172218815Y-110951185D01*
X172315506Y-111030537D01*
X172425820Y-111089502D01*
X172545518Y-111125812D01*
X172670000Y-111138072D01*
X172884250Y-111135000D01*
X173043000Y-110976250D01*
X173043000Y-108727000D01*
X173297000Y-108727000D01*
X173297000Y-110976250D01*
X173455750Y-111135000D01*
X173670000Y-111138072D01*
X173794482Y-111125812D01*
X173914180Y-111089502D01*
X174024494Y-111030537D01*
X174121185Y-110951185D01*
X174200537Y-110854494D01*
X174259502Y-110744180D01*
X174295812Y-110624482D01*
X174308072Y-110500000D01*
X174305000Y-108885750D01*
X174146250Y-108727000D01*
X173297000Y-108727000D01*
X173043000Y-108727000D01*
X172193750Y-108727000D01*
X172035000Y-108885750D01*
X172031928Y-110500000D01*
X167365966Y-110500000D01*
X167173605Y-110371469D01*
X166531732Y-110105596D01*
X165850323Y-109970056D01*
X165641055Y-109970056D01*
X165694079Y-109941714D01*
X165804926Y-109664531D01*
X168795074Y-109664531D01*
X168905921Y-109941714D01*
X169216840Y-110095089D01*
X169551705Y-110184860D01*
X169897650Y-110207576D01*
X170241380Y-110162366D01*
X170569685Y-110050966D01*
X170774079Y-109941714D01*
X170884926Y-109664531D01*
X169840000Y-108619605D01*
X168795074Y-109664531D01*
X165804926Y-109664531D01*
X164760000Y-108619605D01*
X163715074Y-109664531D01*
X163825921Y-109941714D01*
X164136840Y-110095089D01*
X164357020Y-110154115D01*
X163832283Y-110371469D01*
X163254612Y-110757456D01*
X162763344Y-111248724D01*
X162377357Y-111826395D01*
X162252000Y-112129033D01*
X162252000Y-108497650D01*
X162992424Y-108497650D01*
X163037634Y-108841380D01*
X163149034Y-109169685D01*
X163258286Y-109374079D01*
X163535469Y-109484926D01*
X164580395Y-108440000D01*
X164939605Y-108440000D01*
X165984531Y-109484926D01*
X166261714Y-109374079D01*
X166415089Y-109063160D01*
X166504860Y-108728295D01*
X166520004Y-108497650D01*
X168072424Y-108497650D01*
X168117634Y-108841380D01*
X168229034Y-109169685D01*
X168338286Y-109374079D01*
X168615469Y-109484926D01*
X169660395Y-108440000D01*
X170019605Y-108440000D01*
X171064531Y-109484926D01*
X171341714Y-109374079D01*
X171495089Y-109063160D01*
X171584860Y-108728295D01*
X171607576Y-108382350D01*
X171562366Y-108038620D01*
X171450966Y-107710315D01*
X171341714Y-107505921D01*
X171064531Y-107395074D01*
X170019605Y-108440000D01*
X169660395Y-108440000D01*
X168615469Y-107395074D01*
X168338286Y-107505921D01*
X168184911Y-107816840D01*
X168095140Y-108151705D01*
X168072424Y-108497650D01*
X166520004Y-108497650D01*
X166527576Y-108382350D01*
X166482366Y-108038620D01*
X166370966Y-107710315D01*
X166261714Y-107505921D01*
X165984531Y-107395074D01*
X164939605Y-108440000D01*
X164580395Y-108440000D01*
X163535469Y-107395074D01*
X163258286Y-107505921D01*
X163104911Y-107816840D01*
X163015140Y-108151705D01*
X162992424Y-108497650D01*
X162252000Y-108497650D01*
X162252000Y-107215469D01*
X163715074Y-107215469D01*
X164760000Y-108260395D01*
X165804926Y-107215469D01*
X165694079Y-106938286D01*
X165383160Y-106784911D01*
X165048295Y-106695140D01*
X164702350Y-106672424D01*
X164358620Y-106717634D01*
X164030315Y-106829034D01*
X163825921Y-106938286D01*
X163715074Y-107215469D01*
X162252000Y-107215469D01*
X162252000Y-105766840D01*
X165948000Y-105766840D01*
X165948000Y-106033160D01*
X165999956Y-106294364D01*
X166101873Y-106540412D01*
X166249833Y-106761850D01*
X166438150Y-106950167D01*
X166659588Y-107098127D01*
X166905636Y-107200044D01*
X167166840Y-107252000D01*
X167433160Y-107252000D01*
X167616816Y-107215469D01*
X168795074Y-107215469D01*
X169840000Y-108260395D01*
X170884926Y-107215469D01*
X170774079Y-106938286D01*
X170463160Y-106784911D01*
X170128295Y-106695140D01*
X169782350Y-106672424D01*
X169438620Y-106717634D01*
X169110315Y-106829034D01*
X168905921Y-106938286D01*
X168795074Y-107215469D01*
X167616816Y-107215469D01*
X167694364Y-107200044D01*
X167940412Y-107098127D01*
X168161850Y-106950167D01*
X168350167Y-106761850D01*
X168498127Y-106540412D01*
X168567188Y-106373685D01*
X172124401Y-106373685D01*
X172080498Y-106455820D01*
X172044188Y-106575518D01*
X172031928Y-106700000D01*
X172035000Y-108314250D01*
X172193750Y-108473000D01*
X173043000Y-108473000D01*
X173043000Y-108453000D01*
X173297000Y-108453000D01*
X173297000Y-108473000D01*
X174146250Y-108473000D01*
X174305000Y-108314250D01*
X174305226Y-108195000D01*
X180241928Y-108195000D01*
X180254188Y-108319482D01*
X180290498Y-108439180D01*
X180349463Y-108549494D01*
X180428815Y-108646185D01*
X180525506Y-108725537D01*
X180635820Y-108784502D01*
X180755518Y-108820812D01*
X180880000Y-108833072D01*
X180914250Y-108830000D01*
X181073000Y-108671250D01*
X181073000Y-108027000D01*
X180403750Y-108027000D01*
X180245000Y-108185750D01*
X180241928Y-108195000D01*
X174305226Y-108195000D01*
X174308072Y-106700000D01*
X174295812Y-106575518D01*
X174259502Y-106455820D01*
X174215599Y-106373685D01*
X175531761Y-106373685D01*
X175560859Y-106409141D01*
X175633003Y-106468348D01*
X175715311Y-106512342D01*
X175804621Y-106539434D01*
X175897500Y-106548582D01*
X176192500Y-106548582D01*
X176285379Y-106539434D01*
X176374689Y-106512342D01*
X176456997Y-106468348D01*
X176529141Y-106409141D01*
X176530000Y-106408094D01*
X176530859Y-106409141D01*
X176603003Y-106468348D01*
X176685311Y-106512342D01*
X176774621Y-106539434D01*
X176867500Y-106548582D01*
X177162500Y-106548582D01*
X177255379Y-106539434D01*
X177344689Y-106512342D01*
X177426997Y-106468348D01*
X177499141Y-106409141D01*
X177525518Y-106377000D01*
X178323820Y-106377000D01*
X178236564Y-106435302D01*
X178135302Y-106536564D01*
X178055741Y-106655636D01*
X178000938Y-106787942D01*
X177973000Y-106928397D01*
X177973000Y-107071603D01*
X178000938Y-107212058D01*
X178055741Y-107344364D01*
X178135302Y-107463436D01*
X178236564Y-107564698D01*
X178355636Y-107644259D01*
X178487942Y-107699062D01*
X178628397Y-107727000D01*
X178771603Y-107727000D01*
X178912058Y-107699062D01*
X179044364Y-107644259D01*
X179163436Y-107564698D01*
X179264698Y-107463436D01*
X179344259Y-107344364D01*
X179399062Y-107212058D01*
X179427000Y-107071603D01*
X179427000Y-106931803D01*
X179456427Y-106952853D01*
X179570404Y-107004381D01*
X179692244Y-107032683D01*
X179741250Y-107035000D01*
X179900000Y-106876250D01*
X180058750Y-107035000D01*
X180107756Y-107032683D01*
X180229596Y-107004381D01*
X180343573Y-106952853D01*
X180445308Y-106880080D01*
X180509731Y-106811411D01*
X180551418Y-106856608D01*
X180551418Y-107060613D01*
X180525506Y-107074463D01*
X180428815Y-107153815D01*
X180349463Y-107250506D01*
X180290498Y-107360820D01*
X180254188Y-107480518D01*
X180241928Y-107605000D01*
X180245000Y-107614250D01*
X180403750Y-107773000D01*
X181073000Y-107773000D01*
X181073000Y-107753000D01*
X181327000Y-107753000D01*
X181327000Y-107773000D01*
X181347000Y-107773000D01*
X181347000Y-108027000D01*
X181327000Y-108027000D01*
X181327000Y-108671250D01*
X181485750Y-108830000D01*
X181520000Y-108833072D01*
X181644482Y-108820812D01*
X181764180Y-108784502D01*
X181874494Y-108725537D01*
X181971185Y-108646185D01*
X182050537Y-108549494D01*
X182109502Y-108439180D01*
X182145812Y-108319482D01*
X182158072Y-108195000D01*
X182155000Y-108185750D01*
X181996252Y-108027002D01*
X182129809Y-108027002D01*
X182155636Y-108044259D01*
X182287942Y-108099062D01*
X182428397Y-108127000D01*
X182481711Y-108127000D01*
X183598001Y-109243291D01*
X183598001Y-109503458D01*
X183573002Y-109516820D01*
X183487220Y-109587220D01*
X183416820Y-109673002D01*
X183364508Y-109770870D01*
X183332295Y-109877063D01*
X183321418Y-109987500D01*
X183321418Y-110562500D01*
X183332295Y-110672937D01*
X183364508Y-110779130D01*
X183416820Y-110876998D01*
X183487220Y-110962780D01*
X183573002Y-111033180D01*
X183670870Y-111085492D01*
X183777063Y-111117705D01*
X183887500Y-111128582D01*
X184362500Y-111128582D01*
X184472937Y-111117705D01*
X184579130Y-111085492D01*
X184676998Y-111033180D01*
X184762780Y-110962780D01*
X184833180Y-110876998D01*
X184885492Y-110779130D01*
X184917705Y-110672937D01*
X184928582Y-110562500D01*
X184928582Y-110500000D01*
X185491928Y-110500000D01*
X185504188Y-110624482D01*
X185540498Y-110744180D01*
X185599463Y-110854494D01*
X185678815Y-110951185D01*
X185775506Y-111030537D01*
X185885820Y-111089502D01*
X186005518Y-111125812D01*
X186130000Y-111138072D01*
X186344250Y-111135000D01*
X186503000Y-110976250D01*
X186503000Y-108727000D01*
X186757000Y-108727000D01*
X186757000Y-110976250D01*
X186915750Y-111135000D01*
X187130000Y-111138072D01*
X187254482Y-111125812D01*
X187374180Y-111089502D01*
X187484494Y-111030537D01*
X187581185Y-110951185D01*
X187660537Y-110854494D01*
X187719502Y-110744180D01*
X187755812Y-110624482D01*
X187768072Y-110500000D01*
X187765674Y-109239531D01*
X188665074Y-109239531D01*
X188775921Y-109516714D01*
X189086840Y-109670089D01*
X189421705Y-109759860D01*
X189767650Y-109782576D01*
X190111380Y-109737366D01*
X190439685Y-109625966D01*
X190644079Y-109516714D01*
X190754926Y-109239531D01*
X193745074Y-109239531D01*
X193855921Y-109516714D01*
X194166840Y-109670089D01*
X194501705Y-109759860D01*
X194847650Y-109782576D01*
X195191380Y-109737366D01*
X195519685Y-109625966D01*
X195724079Y-109516714D01*
X195834926Y-109239531D01*
X194790000Y-108194605D01*
X193745074Y-109239531D01*
X190754926Y-109239531D01*
X189710000Y-108194605D01*
X188665074Y-109239531D01*
X187765674Y-109239531D01*
X187765000Y-108885750D01*
X187606250Y-108727000D01*
X186757000Y-108727000D01*
X186503000Y-108727000D01*
X185653750Y-108727000D01*
X185495000Y-108885750D01*
X185491928Y-110500000D01*
X184928582Y-110500000D01*
X184928582Y-109987500D01*
X184917705Y-109877063D01*
X184885492Y-109770870D01*
X184833180Y-109673002D01*
X184762780Y-109587220D01*
X184676998Y-109516820D01*
X184652000Y-109503458D01*
X184652000Y-109050880D01*
X184654549Y-109024999D01*
X184644374Y-108921690D01*
X184614239Y-108822350D01*
X184565304Y-108730798D01*
X184560986Y-108725537D01*
X184499448Y-108650552D01*
X184479339Y-108634049D01*
X183227000Y-107381711D01*
X183227000Y-107328397D01*
X183199062Y-107187942D01*
X183144259Y-107055636D01*
X183064698Y-106936564D01*
X183042106Y-106913972D01*
X183068348Y-106881997D01*
X183112342Y-106799689D01*
X183139434Y-106710379D01*
X183140456Y-106700000D01*
X185491928Y-106700000D01*
X185495000Y-108314250D01*
X185653750Y-108473000D01*
X186503000Y-108473000D01*
X186503000Y-106223750D01*
X186757000Y-106223750D01*
X186757000Y-108473000D01*
X187606250Y-108473000D01*
X187765000Y-108314250D01*
X187765459Y-108072650D01*
X187942424Y-108072650D01*
X187987634Y-108416380D01*
X188099034Y-108744685D01*
X188208286Y-108949079D01*
X188485469Y-109059926D01*
X189530395Y-108015000D01*
X189889605Y-108015000D01*
X190934531Y-109059926D01*
X191211714Y-108949079D01*
X191365089Y-108638160D01*
X191454860Y-108303295D01*
X191470004Y-108072650D01*
X193022424Y-108072650D01*
X193067634Y-108416380D01*
X193179034Y-108744685D01*
X193288286Y-108949079D01*
X193565469Y-109059926D01*
X194610395Y-108015000D01*
X194969605Y-108015000D01*
X196014531Y-109059926D01*
X196291714Y-108949079D01*
X196445089Y-108638160D01*
X196534860Y-108303295D01*
X196557576Y-107957350D01*
X196512366Y-107613620D01*
X196400966Y-107285315D01*
X196291714Y-107080921D01*
X196014531Y-106970074D01*
X194969605Y-108015000D01*
X194610395Y-108015000D01*
X193565469Y-106970074D01*
X193288286Y-107080921D01*
X193134911Y-107391840D01*
X193045140Y-107726705D01*
X193022424Y-108072650D01*
X191470004Y-108072650D01*
X191477576Y-107957350D01*
X191432366Y-107613620D01*
X191320966Y-107285315D01*
X191211714Y-107080921D01*
X190934531Y-106970074D01*
X189889605Y-108015000D01*
X189530395Y-108015000D01*
X188485469Y-106970074D01*
X188208286Y-107080921D01*
X188054911Y-107391840D01*
X187965140Y-107726705D01*
X187942424Y-108072650D01*
X187765459Y-108072650D01*
X187767899Y-106790469D01*
X188665074Y-106790469D01*
X189710000Y-107835395D01*
X190754926Y-106790469D01*
X190644079Y-106513286D01*
X190333160Y-106359911D01*
X189998295Y-106270140D01*
X189652350Y-106247424D01*
X189308620Y-106292634D01*
X188980315Y-106404034D01*
X188775921Y-106513286D01*
X188665074Y-106790469D01*
X187767899Y-106790469D01*
X187768072Y-106700000D01*
X187755812Y-106575518D01*
X187719502Y-106455820D01*
X187660537Y-106345506D01*
X187581185Y-106248815D01*
X187484494Y-106169463D01*
X187374180Y-106110498D01*
X187254482Y-106074188D01*
X187130000Y-106061928D01*
X186915750Y-106065000D01*
X186757000Y-106223750D01*
X186503000Y-106223750D01*
X186344250Y-106065000D01*
X186130000Y-106061928D01*
X186005518Y-106074188D01*
X185885820Y-106110498D01*
X185775506Y-106169463D01*
X185678815Y-106248815D01*
X185599463Y-106345506D01*
X185540498Y-106455820D01*
X185504188Y-106575518D01*
X185491928Y-106700000D01*
X183140456Y-106700000D01*
X183148582Y-106617500D01*
X183148582Y-106322500D01*
X183139434Y-106229621D01*
X183112342Y-106140311D01*
X183068348Y-106058003D01*
X183009141Y-105985859D01*
X183008094Y-105985000D01*
X183009141Y-105984141D01*
X183019466Y-105971560D01*
X183839523Y-105968199D01*
X183894286Y-105973592D01*
X183952722Y-105967837D01*
X190984023Y-105951608D01*
X191051873Y-106115412D01*
X191199833Y-106336850D01*
X191388150Y-106525167D01*
X191609588Y-106673127D01*
X191855636Y-106775044D01*
X192116840Y-106827000D01*
X192383160Y-106827000D01*
X192566816Y-106790469D01*
X193745074Y-106790469D01*
X194790000Y-107835395D01*
X195834926Y-106790469D01*
X195724079Y-106513286D01*
X195413160Y-106359911D01*
X195078295Y-106270140D01*
X194732350Y-106247424D01*
X194388620Y-106292634D01*
X194060315Y-106404034D01*
X193855921Y-106513286D01*
X193745074Y-106790469D01*
X192566816Y-106790469D01*
X192644364Y-106775044D01*
X192890412Y-106673127D01*
X193111850Y-106525167D01*
X193300167Y-106336850D01*
X193448127Y-106115412D01*
X193550044Y-105869364D01*
X193602000Y-105608160D01*
X193602000Y-105341840D01*
X193550044Y-105080636D01*
X193448127Y-104834588D01*
X193300167Y-104613150D01*
X193111850Y-104424833D01*
X192890412Y-104276873D01*
X192644364Y-104174956D01*
X192566817Y-104159531D01*
X193745074Y-104159531D01*
X193855921Y-104436714D01*
X194166840Y-104590089D01*
X194501705Y-104679860D01*
X194847650Y-104702576D01*
X195191380Y-104657366D01*
X195519685Y-104545966D01*
X195724079Y-104436714D01*
X195834926Y-104159531D01*
X194790000Y-103114605D01*
X193745074Y-104159531D01*
X192566817Y-104159531D01*
X192383160Y-104123000D01*
X192116840Y-104123000D01*
X191855636Y-104174956D01*
X191609588Y-104276873D01*
X191388150Y-104424833D01*
X191199833Y-104613150D01*
X191051873Y-104834588D01*
X190981600Y-105004242D01*
X187506762Y-105012262D01*
X187581185Y-104951185D01*
X187660537Y-104854494D01*
X187719502Y-104744180D01*
X187755812Y-104624482D01*
X187768072Y-104500000D01*
X187766133Y-104159531D01*
X188665074Y-104159531D01*
X188775921Y-104436714D01*
X189086840Y-104590089D01*
X189421705Y-104679860D01*
X189767650Y-104702576D01*
X190111380Y-104657366D01*
X190439685Y-104545966D01*
X190644079Y-104436714D01*
X190754926Y-104159531D01*
X189710000Y-103114605D01*
X188665074Y-104159531D01*
X187766133Y-104159531D01*
X187765000Y-103960750D01*
X187606250Y-103802000D01*
X186757000Y-103802000D01*
X186757000Y-103822000D01*
X186503000Y-103822000D01*
X186503000Y-103802000D01*
X185653750Y-103802000D01*
X185495000Y-103960750D01*
X185491928Y-104500000D01*
X185504188Y-104624482D01*
X185540498Y-104744180D01*
X185599463Y-104854494D01*
X185678815Y-104951185D01*
X185758155Y-105016298D01*
X184779826Y-105018556D01*
X184797253Y-104966199D01*
X184810000Y-104856750D01*
X184651250Y-104698000D01*
X184027000Y-104698000D01*
X184027000Y-104822000D01*
X183773000Y-104822000D01*
X183773000Y-104698000D01*
X183148750Y-104698000D01*
X182990000Y-104856750D01*
X183002747Y-104966199D01*
X183022043Y-105024172D01*
X183015984Y-105024197D01*
X183009141Y-105015859D01*
X182936997Y-104956652D01*
X182854689Y-104912658D01*
X182765379Y-104885566D01*
X182672500Y-104876418D01*
X182327500Y-104876418D01*
X182234621Y-104885566D01*
X182145311Y-104912658D01*
X182063003Y-104956652D01*
X181990859Y-105015859D01*
X181982278Y-105026315D01*
X180451740Y-105026315D01*
X180382142Y-105033170D01*
X180292852Y-105060256D01*
X180269009Y-105073000D01*
X180119428Y-105073000D01*
X180080891Y-105011143D01*
X179995308Y-104919920D01*
X179893573Y-104847147D01*
X179779596Y-104795619D01*
X179657756Y-104767317D01*
X179608750Y-104765000D01*
X179450000Y-104923750D01*
X179291250Y-104765000D01*
X179242244Y-104767317D01*
X179120404Y-104795619D01*
X179006427Y-104847147D01*
X178904692Y-104919920D01*
X178819109Y-105011143D01*
X178752967Y-105117309D01*
X178708808Y-105234339D01*
X178690000Y-105341250D01*
X178721748Y-105372998D01*
X178690000Y-105372998D01*
X178690000Y-105423000D01*
X177525518Y-105423000D01*
X177499141Y-105390859D01*
X177426997Y-105331652D01*
X177344689Y-105287658D01*
X177255379Y-105260566D01*
X177162500Y-105251418D01*
X176867500Y-105251418D01*
X176774621Y-105260566D01*
X176685311Y-105287658D01*
X176603003Y-105331652D01*
X176530859Y-105390859D01*
X176530000Y-105391906D01*
X176529141Y-105390859D01*
X176456997Y-105331652D01*
X176374689Y-105287658D01*
X176285379Y-105260566D01*
X176192500Y-105251418D01*
X175897500Y-105251418D01*
X175804621Y-105260566D01*
X175715311Y-105287658D01*
X175633003Y-105331652D01*
X175560859Y-105390859D01*
X175531761Y-105426315D01*
X168567188Y-105426315D01*
X168498127Y-105259588D01*
X168350167Y-105038150D01*
X168161850Y-104849833D01*
X167940412Y-104701873D01*
X167694364Y-104599956D01*
X167616817Y-104584531D01*
X168795074Y-104584531D01*
X168905921Y-104861714D01*
X169216840Y-105015089D01*
X169551705Y-105104860D01*
X169897650Y-105127576D01*
X170241380Y-105082366D01*
X170569685Y-104970966D01*
X170774079Y-104861714D01*
X170884926Y-104584531D01*
X170800395Y-104500000D01*
X172031928Y-104500000D01*
X172044188Y-104624482D01*
X172080498Y-104744180D01*
X172139463Y-104854494D01*
X172218815Y-104951185D01*
X172315506Y-105030537D01*
X172425820Y-105089502D01*
X172545518Y-105125812D01*
X172670000Y-105138072D01*
X172884250Y-105135000D01*
X173043000Y-104976250D01*
X173043000Y-103802000D01*
X173297000Y-103802000D01*
X173297000Y-104976250D01*
X173455750Y-105135000D01*
X173670000Y-105138072D01*
X173794482Y-105125812D01*
X173914180Y-105089502D01*
X174024494Y-105030537D01*
X174121185Y-104951185D01*
X174200537Y-104854494D01*
X174259502Y-104744180D01*
X174295812Y-104624482D01*
X174308072Y-104500000D01*
X174308034Y-104493250D01*
X182990000Y-104493250D01*
X183148750Y-104652000D01*
X183773000Y-104652000D01*
X183773000Y-104048750D01*
X184027000Y-104048750D01*
X184027000Y-104652000D01*
X184651250Y-104652000D01*
X184810000Y-104493250D01*
X184797253Y-104383801D01*
X184757750Y-104265119D01*
X184695853Y-104156424D01*
X184613939Y-104061892D01*
X184515157Y-103985158D01*
X184403303Y-103929170D01*
X184282676Y-103896079D01*
X184185750Y-103890000D01*
X184027000Y-104048750D01*
X183773000Y-104048750D01*
X183614250Y-103890000D01*
X183517324Y-103896079D01*
X183396697Y-103929170D01*
X183284843Y-103985158D01*
X183186061Y-104061892D01*
X183104147Y-104156424D01*
X183042250Y-104265119D01*
X183002747Y-104383801D01*
X182990000Y-104493250D01*
X174308034Y-104493250D01*
X174305000Y-103960750D01*
X174146250Y-103802000D01*
X173297000Y-103802000D01*
X173043000Y-103802000D01*
X172193750Y-103802000D01*
X172035000Y-103960750D01*
X172031928Y-104500000D01*
X170800395Y-104500000D01*
X169840000Y-103539605D01*
X168795074Y-104584531D01*
X167616817Y-104584531D01*
X167433160Y-104548000D01*
X167166840Y-104548000D01*
X166905636Y-104599956D01*
X166659588Y-104701873D01*
X166438150Y-104849833D01*
X166249833Y-105038150D01*
X166101873Y-105259588D01*
X165999956Y-105505636D01*
X165948000Y-105766840D01*
X162252000Y-105766840D01*
X162252000Y-104584531D01*
X163715074Y-104584531D01*
X163825921Y-104861714D01*
X164136840Y-105015089D01*
X164471705Y-105104860D01*
X164817650Y-105127576D01*
X165161380Y-105082366D01*
X165489685Y-104970966D01*
X165694079Y-104861714D01*
X165804926Y-104584531D01*
X164760000Y-103539605D01*
X163715074Y-104584531D01*
X162252000Y-104584531D01*
X162252000Y-103417650D01*
X162992424Y-103417650D01*
X163037634Y-103761380D01*
X163149034Y-104089685D01*
X163258286Y-104294079D01*
X163535469Y-104404926D01*
X164580395Y-103360000D01*
X164939605Y-103360000D01*
X165984531Y-104404926D01*
X166261714Y-104294079D01*
X166415089Y-103983160D01*
X166504860Y-103648295D01*
X166520004Y-103417650D01*
X168072424Y-103417650D01*
X168117634Y-103761380D01*
X168229034Y-104089685D01*
X168338286Y-104294079D01*
X168615469Y-104404926D01*
X169660395Y-103360000D01*
X170019605Y-103360000D01*
X171064531Y-104404926D01*
X171341714Y-104294079D01*
X171495089Y-103983160D01*
X171584860Y-103648295D01*
X171607576Y-103302350D01*
X171562366Y-102958620D01*
X171450966Y-102630315D01*
X171341714Y-102425921D01*
X171064531Y-102315074D01*
X170019605Y-103360000D01*
X169660395Y-103360000D01*
X168615469Y-102315074D01*
X168338286Y-102425921D01*
X168184911Y-102736840D01*
X168095140Y-103071705D01*
X168072424Y-103417650D01*
X166520004Y-103417650D01*
X166527576Y-103302350D01*
X166482366Y-102958620D01*
X166370966Y-102630315D01*
X166261714Y-102425921D01*
X165984531Y-102315074D01*
X164939605Y-103360000D01*
X164580395Y-103360000D01*
X163535469Y-102315074D01*
X163258286Y-102425921D01*
X163104911Y-102736840D01*
X163015140Y-103071705D01*
X162992424Y-103417650D01*
X162252000Y-103417650D01*
X162252000Y-102135469D01*
X163715074Y-102135469D01*
X164760000Y-103180395D01*
X165804926Y-102135469D01*
X168795074Y-102135469D01*
X169840000Y-103180395D01*
X170884926Y-102135469D01*
X170774079Y-101858286D01*
X170757282Y-101850000D01*
X172031928Y-101850000D01*
X172035000Y-102064250D01*
X172193750Y-102223000D01*
X172557580Y-102223000D01*
X172545518Y-102224188D01*
X172425820Y-102260498D01*
X172315506Y-102319463D01*
X172218815Y-102398815D01*
X172139463Y-102495506D01*
X172098375Y-102572375D01*
X172035000Y-102635750D01*
X172031928Y-102850000D01*
X172035000Y-103389250D01*
X172193750Y-103548000D01*
X173043000Y-103548000D01*
X173043000Y-102962420D01*
X173044188Y-102974482D01*
X173080498Y-103094180D01*
X173139463Y-103204494D01*
X173218815Y-103301185D01*
X173297000Y-103365350D01*
X173297000Y-103548000D01*
X174146250Y-103548000D01*
X174208300Y-103485950D01*
X174449250Y-103485000D01*
X174608000Y-103326250D01*
X174608000Y-102477000D01*
X174862000Y-102477000D01*
X174862000Y-103326250D01*
X175020750Y-103485000D01*
X175800000Y-103488072D01*
X175924482Y-103475812D01*
X176044180Y-103439502D01*
X176154494Y-103380537D01*
X176251185Y-103301185D01*
X176330537Y-103204494D01*
X176389502Y-103094180D01*
X176425812Y-102974482D01*
X176438072Y-102850000D01*
X177361928Y-102850000D01*
X177374188Y-102974482D01*
X177410498Y-103094180D01*
X177469463Y-103204494D01*
X177548815Y-103301185D01*
X177645506Y-103380537D01*
X177755820Y-103439502D01*
X177875518Y-103475812D01*
X178000000Y-103488072D01*
X179614250Y-103485000D01*
X179773000Y-103326250D01*
X179773000Y-102477000D01*
X180027000Y-102477000D01*
X180027000Y-103326250D01*
X180185750Y-103485000D01*
X181800000Y-103488072D01*
X181924482Y-103475812D01*
X182044180Y-103439502D01*
X182154494Y-103380537D01*
X182251185Y-103301185D01*
X182330537Y-103204494D01*
X182389502Y-103094180D01*
X182425812Y-102974482D01*
X182438072Y-102850000D01*
X183361928Y-102850000D01*
X183374188Y-102974482D01*
X183410498Y-103094180D01*
X183469463Y-103204494D01*
X183548815Y-103301185D01*
X183645506Y-103380537D01*
X183755820Y-103439502D01*
X183875518Y-103475812D01*
X184000000Y-103488072D01*
X184779250Y-103485000D01*
X184938000Y-103326250D01*
X184938000Y-102477000D01*
X183523750Y-102477000D01*
X183365000Y-102635750D01*
X183361928Y-102850000D01*
X182438072Y-102850000D01*
X182435000Y-102635750D01*
X182276250Y-102477000D01*
X180027000Y-102477000D01*
X179773000Y-102477000D01*
X177523750Y-102477000D01*
X177365000Y-102635750D01*
X177361928Y-102850000D01*
X176438072Y-102850000D01*
X176435000Y-102635750D01*
X176276250Y-102477000D01*
X174862000Y-102477000D01*
X174608000Y-102477000D01*
X174185350Y-102477000D01*
X174121185Y-102398815D01*
X174024494Y-102319463D01*
X173914180Y-102260498D01*
X173794482Y-102224188D01*
X173782420Y-102223000D01*
X174608000Y-102223000D01*
X174608000Y-101373750D01*
X174862000Y-101373750D01*
X174862000Y-102223000D01*
X176276250Y-102223000D01*
X176435000Y-102064250D01*
X176438072Y-101850000D01*
X177361928Y-101850000D01*
X177365000Y-102064250D01*
X177523750Y-102223000D01*
X179773000Y-102223000D01*
X179773000Y-101373750D01*
X180027000Y-101373750D01*
X180027000Y-102223000D01*
X182276250Y-102223000D01*
X182435000Y-102064250D01*
X182438072Y-101850000D01*
X183361928Y-101850000D01*
X183365000Y-102064250D01*
X183523750Y-102223000D01*
X184938000Y-102223000D01*
X184938000Y-101373750D01*
X185192000Y-101373750D01*
X185192000Y-102223000D01*
X186017580Y-102223000D01*
X186005518Y-102224188D01*
X185885820Y-102260498D01*
X185775506Y-102319463D01*
X185678815Y-102398815D01*
X185614650Y-102477000D01*
X185192000Y-102477000D01*
X185192000Y-103326250D01*
X185350750Y-103485000D01*
X185591700Y-103485950D01*
X185653750Y-103548000D01*
X186503000Y-103548000D01*
X186503000Y-103365350D01*
X186581185Y-103301185D01*
X186660537Y-103204494D01*
X186719502Y-103094180D01*
X186755812Y-102974482D01*
X186757000Y-102962420D01*
X186757000Y-103548000D01*
X187606250Y-103548000D01*
X187765000Y-103389250D01*
X187767259Y-102992650D01*
X187942424Y-102992650D01*
X187987634Y-103336380D01*
X188099034Y-103664685D01*
X188208286Y-103869079D01*
X188485469Y-103979926D01*
X189530395Y-102935000D01*
X189889605Y-102935000D01*
X190934531Y-103979926D01*
X191211714Y-103869079D01*
X191365089Y-103558160D01*
X191454860Y-103223295D01*
X191470004Y-102992650D01*
X193022424Y-102992650D01*
X193067634Y-103336380D01*
X193179034Y-103664685D01*
X193288286Y-103869079D01*
X193565469Y-103979926D01*
X194610395Y-102935000D01*
X194969605Y-102935000D01*
X196014531Y-103979926D01*
X196291714Y-103869079D01*
X196445089Y-103558160D01*
X196534860Y-103223295D01*
X196557576Y-102877350D01*
X196512366Y-102533620D01*
X196400966Y-102205315D01*
X196291714Y-102000921D01*
X196014531Y-101890074D01*
X194969605Y-102935000D01*
X194610395Y-102935000D01*
X193565469Y-101890074D01*
X193288286Y-102000921D01*
X193134911Y-102311840D01*
X193045140Y-102646705D01*
X193022424Y-102992650D01*
X191470004Y-102992650D01*
X191477576Y-102877350D01*
X191432366Y-102533620D01*
X191320966Y-102205315D01*
X191211714Y-102000921D01*
X190934531Y-101890074D01*
X189889605Y-102935000D01*
X189530395Y-102935000D01*
X188485469Y-101890074D01*
X188208286Y-102000921D01*
X188054911Y-102311840D01*
X187965140Y-102646705D01*
X187942424Y-102992650D01*
X187767259Y-102992650D01*
X187768072Y-102850000D01*
X187765000Y-102635750D01*
X187701625Y-102572375D01*
X187660537Y-102495506D01*
X187581185Y-102398815D01*
X187484494Y-102319463D01*
X187374180Y-102260498D01*
X187254482Y-102224188D01*
X187242420Y-102223000D01*
X187606250Y-102223000D01*
X187765000Y-102064250D01*
X187768072Y-101850000D01*
X187755812Y-101725518D01*
X187751247Y-101710469D01*
X188665074Y-101710469D01*
X189710000Y-102755395D01*
X190754926Y-101710469D01*
X193745074Y-101710469D01*
X194790000Y-102755395D01*
X195834926Y-101710469D01*
X195724079Y-101433286D01*
X195413160Y-101279911D01*
X195078295Y-101190140D01*
X194732350Y-101167424D01*
X194388620Y-101212634D01*
X194060315Y-101324034D01*
X193855921Y-101433286D01*
X193745074Y-101710469D01*
X190754926Y-101710469D01*
X190644079Y-101433286D01*
X190333160Y-101279911D01*
X189998295Y-101190140D01*
X189652350Y-101167424D01*
X189308620Y-101212634D01*
X188980315Y-101324034D01*
X188775921Y-101433286D01*
X188665074Y-101710469D01*
X187751247Y-101710469D01*
X187719502Y-101605820D01*
X187660537Y-101495506D01*
X187581185Y-101398815D01*
X187484494Y-101319463D01*
X187374180Y-101260498D01*
X187254482Y-101224188D01*
X187130000Y-101211928D01*
X186915750Y-101215000D01*
X186757000Y-101373750D01*
X186757000Y-101737580D01*
X186755812Y-101725518D01*
X186719502Y-101605820D01*
X186660537Y-101495506D01*
X186581185Y-101398815D01*
X186484494Y-101319463D01*
X186407625Y-101278375D01*
X186344250Y-101215000D01*
X186130000Y-101211928D01*
X185350750Y-101215000D01*
X185192000Y-101373750D01*
X184938000Y-101373750D01*
X184779250Y-101215000D01*
X184000000Y-101211928D01*
X183875518Y-101224188D01*
X183755820Y-101260498D01*
X183645506Y-101319463D01*
X183548815Y-101398815D01*
X183469463Y-101495506D01*
X183410498Y-101605820D01*
X183374188Y-101725518D01*
X183361928Y-101850000D01*
X182438072Y-101850000D01*
X182425812Y-101725518D01*
X182389502Y-101605820D01*
X182330537Y-101495506D01*
X182251185Y-101398815D01*
X182154494Y-101319463D01*
X182044180Y-101260498D01*
X181924482Y-101224188D01*
X181800000Y-101211928D01*
X180185750Y-101215000D01*
X180027000Y-101373750D01*
X179773000Y-101373750D01*
X179614250Y-101215000D01*
X178000000Y-101211928D01*
X177875518Y-101224188D01*
X177755820Y-101260498D01*
X177645506Y-101319463D01*
X177548815Y-101398815D01*
X177469463Y-101495506D01*
X177410498Y-101605820D01*
X177374188Y-101725518D01*
X177361928Y-101850000D01*
X176438072Y-101850000D01*
X176425812Y-101725518D01*
X176389502Y-101605820D01*
X176330537Y-101495506D01*
X176251185Y-101398815D01*
X176154494Y-101319463D01*
X176044180Y-101260498D01*
X175924482Y-101224188D01*
X175800000Y-101211928D01*
X175020750Y-101215000D01*
X174862000Y-101373750D01*
X174608000Y-101373750D01*
X174449250Y-101215000D01*
X173670000Y-101211928D01*
X173455750Y-101215000D01*
X173392375Y-101278375D01*
X173315506Y-101319463D01*
X173218815Y-101398815D01*
X173139463Y-101495506D01*
X173080498Y-101605820D01*
X173044188Y-101725518D01*
X173043000Y-101737580D01*
X173043000Y-101373750D01*
X172884250Y-101215000D01*
X172670000Y-101211928D01*
X172545518Y-101224188D01*
X172425820Y-101260498D01*
X172315506Y-101319463D01*
X172218815Y-101398815D01*
X172139463Y-101495506D01*
X172080498Y-101605820D01*
X172044188Y-101725518D01*
X172031928Y-101850000D01*
X170757282Y-101850000D01*
X170463160Y-101704911D01*
X170128295Y-101615140D01*
X169782350Y-101592424D01*
X169438620Y-101637634D01*
X169110315Y-101749034D01*
X168905921Y-101858286D01*
X168795074Y-102135469D01*
X165804926Y-102135469D01*
X165694079Y-101858286D01*
X165383160Y-101704911D01*
X165048295Y-101615140D01*
X164702350Y-101592424D01*
X164358620Y-101637634D01*
X164030315Y-101749034D01*
X163825921Y-101858286D01*
X163715074Y-102135469D01*
X162252000Y-102135469D01*
X162252000Y-100252000D01*
X197248000Y-100252000D01*
X197248001Y-112124871D01*
G36*
X173193750Y-114723000D02*
G01*
X173297000Y-114723000D01*
X173297000Y-114826250D01*
X173447750Y-114977000D01*
X173193750Y-114977000D01*
X173043000Y-115127750D01*
X173043000Y-114977000D01*
X172892250Y-114977000D01*
X173043000Y-114826250D01*
X173043000Y-114572250D01*
X173193750Y-114723000D01*
X173193750Y-114723000D01*
G37*
X173193750Y-114723000D02*
X173297000Y-114723000D01*
X173297000Y-114826250D01*
X173447750Y-114977000D01*
X173193750Y-114977000D01*
X173043000Y-115127750D01*
X173043000Y-114977000D01*
X172892250Y-114977000D01*
X173043000Y-114826250D01*
X173043000Y-114572250D01*
X173193750Y-114723000D01*
G36*
X186757000Y-114826250D02*
G01*
X186907750Y-114977000D01*
X186757000Y-114977000D01*
X186757000Y-115127750D01*
X186606250Y-114977000D01*
X186352250Y-114977000D01*
X186503000Y-114826250D01*
X186503000Y-114723000D01*
X186606250Y-114723000D01*
X186757000Y-114572250D01*
X186757000Y-114826250D01*
X186757000Y-114826250D01*
G37*
X186757000Y-114826250D02*
X186907750Y-114977000D01*
X186757000Y-114977000D01*
X186757000Y-115127750D01*
X186606250Y-114977000D01*
X186352250Y-114977000D01*
X186503000Y-114826250D01*
X186503000Y-114723000D01*
X186606250Y-114723000D01*
X186757000Y-114572250D01*
X186757000Y-114826250D01*
G36*
X186757000Y-102223000D02*
G01*
X186907750Y-102223000D01*
X186757000Y-102373750D01*
X186757000Y-102627750D01*
X186606250Y-102477000D01*
X186503000Y-102477000D01*
X186503000Y-102373750D01*
X186352250Y-102223000D01*
X186606250Y-102223000D01*
X186757000Y-102072250D01*
X186757000Y-102223000D01*
X186757000Y-102223000D01*
G37*
X186757000Y-102223000D02*
X186907750Y-102223000D01*
X186757000Y-102373750D01*
X186757000Y-102627750D01*
X186606250Y-102477000D01*
X186503000Y-102477000D01*
X186503000Y-102373750D01*
X186352250Y-102223000D01*
X186606250Y-102223000D01*
X186757000Y-102072250D01*
X186757000Y-102223000D01*
G36*
X173193750Y-102223000D02*
G01*
X173447750Y-102223000D01*
X173297000Y-102373750D01*
X173297000Y-102477000D01*
X173193750Y-102477000D01*
X173043000Y-102627750D01*
X173043000Y-102373750D01*
X172892250Y-102223000D01*
X173043000Y-102223000D01*
X173043000Y-102072250D01*
X173193750Y-102223000D01*
X173193750Y-102223000D01*
G37*
X173193750Y-102223000D02*
X173447750Y-102223000D01*
X173297000Y-102373750D01*
X173297000Y-102477000D01*
X173193750Y-102477000D01*
X173043000Y-102627750D01*
X173043000Y-102373750D01*
X172892250Y-102223000D01*
X173043000Y-102223000D01*
X173043000Y-102072250D01*
X173193750Y-102223000D01*
M02*
