G04 #@! TF.GenerationSoftware,KiCad,Pcbnew,5.1.4+dfsg1-1*
G04 #@! TF.CreationDate,2019-09-19T10:38:50+12:00*
G04 #@! TF.ProjectId,lna,6c6e612e-6b69-4636-9164-5f7063625858,rev?*
G04 #@! TF.SameCoordinates,Original*
G04 #@! TF.FileFunction,Legend,Bot*
G04 #@! TF.FilePolarity,Positive*
%FSLAX46Y46*%
G04 Gerber Fmt 4.6, Leading zero omitted, Abs format (unit mm)*
G04 Created by KiCad (PCBNEW 5.1.4+dfsg1-1) date 2019-09-19 10:38:50*
%MOMM*%
%LPD*%
G04 APERTURE LIST*
%ADD10C,0.150000*%
G04 APERTURE END LIST*
D10*
X192714285Y-110457142D02*
X192200000Y-110457142D01*
X192457142Y-111357142D02*
X192457142Y-110457142D01*
X191942857Y-111100000D02*
X191514285Y-111100000D01*
X192028571Y-111357142D02*
X191728571Y-110457142D01*
X191428571Y-111357142D01*
X190614285Y-111357142D02*
X190914285Y-110928571D01*
X191128571Y-111357142D02*
X191128571Y-110457142D01*
X190785714Y-110457142D01*
X190700000Y-110500000D01*
X190657142Y-110542857D01*
X190614285Y-110628571D01*
X190614285Y-110757142D01*
X190657142Y-110842857D01*
X190700000Y-110885714D01*
X190785714Y-110928571D01*
X191128571Y-110928571D01*
X190357142Y-110457142D02*
X189842857Y-110457142D01*
X190100000Y-111357142D02*
X190100000Y-110457142D01*
X189542857Y-111014285D02*
X188857142Y-111014285D01*
X188514285Y-110457142D02*
X187957142Y-110457142D01*
X188257142Y-110800000D01*
X188128571Y-110800000D01*
X188042857Y-110842857D01*
X188000000Y-110885714D01*
X187957142Y-110971428D01*
X187957142Y-111185714D01*
X188000000Y-111271428D01*
X188042857Y-111314285D01*
X188128571Y-111357142D01*
X188385714Y-111357142D01*
X188471428Y-111314285D01*
X188514285Y-111271428D01*
X186457142Y-111357142D02*
X186885714Y-111357142D01*
X186885714Y-110457142D01*
X186028571Y-111357142D02*
X186114285Y-111314285D01*
X186157142Y-111271428D01*
X186200000Y-111185714D01*
X186200000Y-110928571D01*
X186157142Y-110842857D01*
X186114285Y-110800000D01*
X186028571Y-110757142D01*
X185900000Y-110757142D01*
X185814285Y-110800000D01*
X185771428Y-110842857D01*
X185728571Y-110928571D01*
X185728571Y-111185714D01*
X185771428Y-111271428D01*
X185814285Y-111314285D01*
X185900000Y-111357142D01*
X186028571Y-111357142D01*
X185428571Y-110757142D02*
X185257142Y-111357142D01*
X185085714Y-110928571D01*
X184914285Y-111357142D01*
X184742857Y-110757142D01*
X183714285Y-111357142D02*
X183714285Y-110457142D01*
X183200000Y-111357142D01*
X183200000Y-110457142D01*
X182642857Y-111357142D02*
X182728571Y-111314285D01*
X182771428Y-111271428D01*
X182814285Y-111185714D01*
X182814285Y-110928571D01*
X182771428Y-110842857D01*
X182728571Y-110800000D01*
X182642857Y-110757142D01*
X182514285Y-110757142D01*
X182428571Y-110800000D01*
X182385714Y-110842857D01*
X182342857Y-110928571D01*
X182342857Y-111185714D01*
X182385714Y-111271428D01*
X182428571Y-111314285D01*
X182514285Y-111357142D01*
X182642857Y-111357142D01*
X181957142Y-111357142D02*
X181957142Y-110757142D01*
X181957142Y-110457142D02*
X182000000Y-110500000D01*
X181957142Y-110542857D01*
X181914285Y-110500000D01*
X181957142Y-110457142D01*
X181957142Y-110542857D01*
X181571428Y-111314285D02*
X181485714Y-111357142D01*
X181314285Y-111357142D01*
X181228571Y-111314285D01*
X181185714Y-111228571D01*
X181185714Y-111185714D01*
X181228571Y-111100000D01*
X181314285Y-111057142D01*
X181442857Y-111057142D01*
X181528571Y-111014285D01*
X181571428Y-110928571D01*
X181571428Y-110885714D01*
X181528571Y-110800000D01*
X181442857Y-110757142D01*
X181314285Y-110757142D01*
X181228571Y-110800000D01*
X180457142Y-111314285D02*
X180542857Y-111357142D01*
X180714285Y-111357142D01*
X180800000Y-111314285D01*
X180842857Y-111228571D01*
X180842857Y-110885714D01*
X180800000Y-110800000D01*
X180714285Y-110757142D01*
X180542857Y-110757142D01*
X180457142Y-110800000D01*
X180414285Y-110885714D01*
X180414285Y-110971428D01*
X180842857Y-111057142D01*
X179385714Y-111100000D02*
X178957142Y-111100000D01*
X179471428Y-111357142D02*
X179171428Y-110457142D01*
X178871428Y-111357142D01*
X178571428Y-110757142D02*
X178571428Y-111357142D01*
X178571428Y-110842857D02*
X178528571Y-110800000D01*
X178442857Y-110757142D01*
X178314285Y-110757142D01*
X178228571Y-110800000D01*
X178185714Y-110885714D01*
X178185714Y-111357142D01*
X177885714Y-110757142D02*
X177542857Y-110757142D01*
X177757142Y-110457142D02*
X177757142Y-111228571D01*
X177714285Y-111314285D01*
X177628571Y-111357142D01*
X177542857Y-111357142D01*
X176900000Y-111314285D02*
X176985714Y-111357142D01*
X177157142Y-111357142D01*
X177242857Y-111314285D01*
X177285714Y-111228571D01*
X177285714Y-110885714D01*
X177242857Y-110800000D01*
X177157142Y-110757142D01*
X176985714Y-110757142D01*
X176900000Y-110800000D01*
X176857142Y-110885714D01*
X176857142Y-110971428D01*
X177285714Y-111057142D01*
X176471428Y-110757142D02*
X176471428Y-111357142D01*
X176471428Y-110842857D02*
X176428571Y-110800000D01*
X176342857Y-110757142D01*
X176214285Y-110757142D01*
X176128571Y-110800000D01*
X176085714Y-110885714D01*
X176085714Y-111357142D01*
X175657142Y-110757142D02*
X175657142Y-111357142D01*
X175657142Y-110842857D02*
X175614285Y-110800000D01*
X175528571Y-110757142D01*
X175400000Y-110757142D01*
X175314285Y-110800000D01*
X175271428Y-110885714D01*
X175271428Y-111357142D01*
X174457142Y-111357142D02*
X174457142Y-110885714D01*
X174500000Y-110800000D01*
X174585714Y-110757142D01*
X174757142Y-110757142D01*
X174842857Y-110800000D01*
X174457142Y-111314285D02*
X174542857Y-111357142D01*
X174757142Y-111357142D01*
X174842857Y-111314285D01*
X174885714Y-111228571D01*
X174885714Y-111142857D01*
X174842857Y-111057142D01*
X174757142Y-111014285D01*
X174542857Y-111014285D01*
X174457142Y-110971428D01*
X173385714Y-111100000D02*
X172957142Y-111100000D01*
X173471428Y-111357142D02*
X173171428Y-110457142D01*
X172871428Y-111357142D01*
X172571428Y-111357142D02*
X172571428Y-110757142D01*
X172571428Y-110842857D02*
X172528571Y-110800000D01*
X172442857Y-110757142D01*
X172314285Y-110757142D01*
X172228571Y-110800000D01*
X172185714Y-110885714D01*
X172185714Y-111357142D01*
X172185714Y-110885714D02*
X172142857Y-110800000D01*
X172057142Y-110757142D01*
X171928571Y-110757142D01*
X171842857Y-110800000D01*
X171800000Y-110885714D01*
X171800000Y-111357142D01*
X171371428Y-110757142D02*
X171371428Y-111657142D01*
X171371428Y-110800000D02*
X171285714Y-110757142D01*
X171114285Y-110757142D01*
X171028571Y-110800000D01*
X170985714Y-110842857D01*
X170942857Y-110928571D01*
X170942857Y-111185714D01*
X170985714Y-111271428D01*
X171028571Y-111314285D01*
X171114285Y-111357142D01*
X171285714Y-111357142D01*
X171371428Y-111314285D01*
X170428571Y-111357142D02*
X170514285Y-111314285D01*
X170557142Y-111228571D01*
X170557142Y-110457142D01*
X170085714Y-111357142D02*
X170085714Y-110757142D01*
X170085714Y-110457142D02*
X170128571Y-110500000D01*
X170085714Y-110542857D01*
X170042857Y-110500000D01*
X170085714Y-110457142D01*
X170085714Y-110542857D01*
X169785714Y-110757142D02*
X169442857Y-110757142D01*
X169657142Y-111357142D02*
X169657142Y-110585714D01*
X169614285Y-110500000D01*
X169528571Y-110457142D01*
X169442857Y-110457142D01*
X169142857Y-111357142D02*
X169142857Y-110757142D01*
X169142857Y-110457142D02*
X169185714Y-110500000D01*
X169142857Y-110542857D01*
X169100000Y-110500000D01*
X169142857Y-110457142D01*
X169142857Y-110542857D01*
X168371428Y-111314285D02*
X168457142Y-111357142D01*
X168628571Y-111357142D01*
X168714285Y-111314285D01*
X168757142Y-111228571D01*
X168757142Y-110885714D01*
X168714285Y-110800000D01*
X168628571Y-110757142D01*
X168457142Y-110757142D01*
X168371428Y-110800000D01*
X168328571Y-110885714D01*
X168328571Y-110971428D01*
X168757142Y-111057142D01*
X167942857Y-111357142D02*
X167942857Y-110757142D01*
X167942857Y-110928571D02*
X167900000Y-110842857D01*
X167857142Y-110800000D01*
X167771428Y-110757142D01*
X167685714Y-110757142D01*
X186500000Y-113200000D02*
X186542857Y-113157142D01*
X186628571Y-113028571D01*
X186671428Y-112942857D01*
X186714285Y-112814285D01*
X186757142Y-112600000D01*
X186757142Y-112428571D01*
X186714285Y-112214285D01*
X186671428Y-112085714D01*
X186628571Y-112000000D01*
X186542857Y-111871428D01*
X186500000Y-111828571D01*
X185771428Y-112814285D02*
X185857142Y-112857142D01*
X186028571Y-112857142D01*
X186114285Y-112814285D01*
X186157142Y-112771428D01*
X186200000Y-112685714D01*
X186200000Y-112428571D01*
X186157142Y-112342857D01*
X186114285Y-112300000D01*
X186028571Y-112257142D01*
X185857142Y-112257142D01*
X185771428Y-112300000D01*
X185471428Y-113200000D02*
X185428571Y-113157142D01*
X185342857Y-113028571D01*
X185300000Y-112942857D01*
X185257142Y-112814285D01*
X185214285Y-112600000D01*
X185214285Y-112428571D01*
X185257142Y-112214285D01*
X185300000Y-112085714D01*
X185342857Y-112000000D01*
X185428571Y-111871428D01*
X185471428Y-111828571D01*
X184828571Y-112042857D02*
X184785714Y-112000000D01*
X184700000Y-111957142D01*
X184485714Y-111957142D01*
X184400000Y-112000000D01*
X184357142Y-112042857D01*
X184314285Y-112128571D01*
X184314285Y-112214285D01*
X184357142Y-112342857D01*
X184871428Y-112857142D01*
X184314285Y-112857142D01*
X183757142Y-111957142D02*
X183671428Y-111957142D01*
X183585714Y-112000000D01*
X183542857Y-112042857D01*
X183500000Y-112128571D01*
X183457142Y-112300000D01*
X183457142Y-112514285D01*
X183500000Y-112685714D01*
X183542857Y-112771428D01*
X183585714Y-112814285D01*
X183671428Y-112857142D01*
X183757142Y-112857142D01*
X183842857Y-112814285D01*
X183885714Y-112771428D01*
X183928571Y-112685714D01*
X183971428Y-112514285D01*
X183971428Y-112300000D01*
X183928571Y-112128571D01*
X183885714Y-112042857D01*
X183842857Y-112000000D01*
X183757142Y-111957142D01*
X182600000Y-112857142D02*
X183114285Y-112857142D01*
X182857142Y-112857142D02*
X182857142Y-111957142D01*
X182942857Y-112085714D01*
X183028571Y-112171428D01*
X183114285Y-112214285D01*
X182171428Y-112857142D02*
X182000000Y-112857142D01*
X181914285Y-112814285D01*
X181871428Y-112771428D01*
X181785714Y-112642857D01*
X181742857Y-112471428D01*
X181742857Y-112128571D01*
X181785714Y-112042857D01*
X181828571Y-112000000D01*
X181914285Y-111957142D01*
X182085714Y-111957142D01*
X182171428Y-112000000D01*
X182214285Y-112042857D01*
X182257142Y-112128571D01*
X182257142Y-112342857D01*
X182214285Y-112428571D01*
X182171428Y-112471428D01*
X182085714Y-112514285D01*
X181914285Y-112514285D01*
X181828571Y-112471428D01*
X181785714Y-112428571D01*
X181742857Y-112342857D01*
X180285714Y-112257142D02*
X180285714Y-112857142D01*
X180500000Y-111914285D02*
X180714285Y-112557142D01*
X180157142Y-112557142D01*
X179814285Y-112857142D02*
X179814285Y-112257142D01*
X179814285Y-111957142D02*
X179857142Y-112000000D01*
X179814285Y-112042857D01*
X179771428Y-112000000D01*
X179814285Y-111957142D01*
X179814285Y-112042857D01*
X178742857Y-112814285D02*
X178614285Y-112857142D01*
X178400000Y-112857142D01*
X178314285Y-112814285D01*
X178271428Y-112771428D01*
X178228571Y-112685714D01*
X178228571Y-112600000D01*
X178271428Y-112514285D01*
X178314285Y-112471428D01*
X178400000Y-112428571D01*
X178571428Y-112385714D01*
X178657142Y-112342857D01*
X178700000Y-112300000D01*
X178742857Y-112214285D01*
X178742857Y-112128571D01*
X178700000Y-112042857D01*
X178657142Y-112000000D01*
X178571428Y-111957142D01*
X178357142Y-111957142D01*
X178228571Y-112000000D01*
X177928571Y-112257142D02*
X177714285Y-112857142D01*
X177500000Y-112257142D02*
X177714285Y-112857142D01*
X177800000Y-113071428D01*
X177842857Y-113114285D01*
X177928571Y-113157142D01*
X177200000Y-112814285D02*
X177114285Y-112857142D01*
X176942857Y-112857142D01*
X176857142Y-112814285D01*
X176814285Y-112728571D01*
X176814285Y-112685714D01*
X176857142Y-112600000D01*
X176942857Y-112557142D01*
X177071428Y-112557142D01*
X177157142Y-112514285D01*
X177200000Y-112428571D01*
X177200000Y-112385714D01*
X177157142Y-112300000D01*
X177071428Y-112257142D01*
X176942857Y-112257142D01*
X176857142Y-112300000D01*
X176557142Y-112257142D02*
X176214285Y-112257142D01*
X176428571Y-111957142D02*
X176428571Y-112728571D01*
X176385714Y-112814285D01*
X176300000Y-112857142D01*
X176214285Y-112857142D01*
X175571428Y-112814285D02*
X175657142Y-112857142D01*
X175828571Y-112857142D01*
X175914285Y-112814285D01*
X175957142Y-112728571D01*
X175957142Y-112385714D01*
X175914285Y-112300000D01*
X175828571Y-112257142D01*
X175657142Y-112257142D01*
X175571428Y-112300000D01*
X175528571Y-112385714D01*
X175528571Y-112471428D01*
X175957142Y-112557142D01*
X175142857Y-112857142D02*
X175142857Y-112257142D01*
X175142857Y-112342857D02*
X175100000Y-112300000D01*
X175014285Y-112257142D01*
X174885714Y-112257142D01*
X174800000Y-112300000D01*
X174757142Y-112385714D01*
X174757142Y-112857142D01*
X174757142Y-112385714D02*
X174714285Y-112300000D01*
X174628571Y-112257142D01*
X174500000Y-112257142D01*
X174414285Y-112300000D01*
X174371428Y-112385714D01*
X174371428Y-112857142D01*
X173985714Y-112814285D02*
X173900000Y-112857142D01*
X173728571Y-112857142D01*
X173642857Y-112814285D01*
X173600000Y-112728571D01*
X173600000Y-112685714D01*
X173642857Y-112600000D01*
X173728571Y-112557142D01*
X173857142Y-112557142D01*
X173942857Y-112514285D01*
X173985714Y-112428571D01*
X173985714Y-112385714D01*
X173942857Y-112300000D01*
X173857142Y-112257142D01*
X173728571Y-112257142D01*
X173642857Y-112300000D01*
M02*
