G04 #@! TF.GenerationSoftware,KiCad,Pcbnew,5.1.4+dfsg1-1*
G04 #@! TF.CreationDate,2019-09-19T10:38:50+12:00*
G04 #@! TF.ProjectId,lna,6c6e612e-6b69-4636-9164-5f7063625858,rev?*
G04 #@! TF.SameCoordinates,Original*
G04 #@! TF.FileFunction,Paste,Top*
G04 #@! TF.FilePolarity,Positive*
%FSLAX46Y46*%
G04 Gerber Fmt 4.6, Leading zero omitted, Abs format (unit mm)*
G04 Created by KiCad (PCBNEW 5.1.4+dfsg1-1) date 2019-09-19 10:38:50*
%MOMM*%
%LPD*%
G04 APERTURE LIST*
%ADD10C,0.100000*%
%ADD11C,0.950000*%
%ADD12R,2.130000X1.000000*%
%ADD13R,3.800000X1.000000*%
%ADD14R,1.000000X1.650000*%
%ADD15R,1.000000X3.800000*%
%ADD16R,1.000000X1.000000*%
%ADD17R,0.550000X0.300000*%
%ADD18R,0.250000X0.200000*%
%ADD19C,0.590000*%
G04 APERTURE END LIST*
D10*
G36*
X184385779Y-111501144D02*
G01*
X184408834Y-111504563D01*
X184431443Y-111510227D01*
X184453387Y-111518079D01*
X184474457Y-111528044D01*
X184494448Y-111540026D01*
X184513168Y-111553910D01*
X184530438Y-111569562D01*
X184546090Y-111586832D01*
X184559974Y-111605552D01*
X184571956Y-111625543D01*
X184581921Y-111646613D01*
X184589773Y-111668557D01*
X184595437Y-111691166D01*
X184598856Y-111714221D01*
X184600000Y-111737500D01*
X184600000Y-112312500D01*
X184598856Y-112335779D01*
X184595437Y-112358834D01*
X184589773Y-112381443D01*
X184581921Y-112403387D01*
X184571956Y-112424457D01*
X184559974Y-112444448D01*
X184546090Y-112463168D01*
X184530438Y-112480438D01*
X184513168Y-112496090D01*
X184494448Y-112509974D01*
X184474457Y-112521956D01*
X184453387Y-112531921D01*
X184431443Y-112539773D01*
X184408834Y-112545437D01*
X184385779Y-112548856D01*
X184362500Y-112550000D01*
X183887500Y-112550000D01*
X183864221Y-112548856D01*
X183841166Y-112545437D01*
X183818557Y-112539773D01*
X183796613Y-112531921D01*
X183775543Y-112521956D01*
X183755552Y-112509974D01*
X183736832Y-112496090D01*
X183719562Y-112480438D01*
X183703910Y-112463168D01*
X183690026Y-112444448D01*
X183678044Y-112424457D01*
X183668079Y-112403387D01*
X183660227Y-112381443D01*
X183654563Y-112358834D01*
X183651144Y-112335779D01*
X183650000Y-112312500D01*
X183650000Y-111737500D01*
X183651144Y-111714221D01*
X183654563Y-111691166D01*
X183660227Y-111668557D01*
X183668079Y-111646613D01*
X183678044Y-111625543D01*
X183690026Y-111605552D01*
X183703910Y-111586832D01*
X183719562Y-111569562D01*
X183736832Y-111553910D01*
X183755552Y-111540026D01*
X183775543Y-111528044D01*
X183796613Y-111518079D01*
X183818557Y-111510227D01*
X183841166Y-111504563D01*
X183864221Y-111501144D01*
X183887500Y-111500000D01*
X184362500Y-111500000D01*
X184385779Y-111501144D01*
X184385779Y-111501144D01*
G37*
D11*
X184125000Y-112025000D03*
D10*
G36*
X184385779Y-109751144D02*
G01*
X184408834Y-109754563D01*
X184431443Y-109760227D01*
X184453387Y-109768079D01*
X184474457Y-109778044D01*
X184494448Y-109790026D01*
X184513168Y-109803910D01*
X184530438Y-109819562D01*
X184546090Y-109836832D01*
X184559974Y-109855552D01*
X184571956Y-109875543D01*
X184581921Y-109896613D01*
X184589773Y-109918557D01*
X184595437Y-109941166D01*
X184598856Y-109964221D01*
X184600000Y-109987500D01*
X184600000Y-110562500D01*
X184598856Y-110585779D01*
X184595437Y-110608834D01*
X184589773Y-110631443D01*
X184581921Y-110653387D01*
X184571956Y-110674457D01*
X184559974Y-110694448D01*
X184546090Y-110713168D01*
X184530438Y-110730438D01*
X184513168Y-110746090D01*
X184494448Y-110759974D01*
X184474457Y-110771956D01*
X184453387Y-110781921D01*
X184431443Y-110789773D01*
X184408834Y-110795437D01*
X184385779Y-110798856D01*
X184362500Y-110800000D01*
X183887500Y-110800000D01*
X183864221Y-110798856D01*
X183841166Y-110795437D01*
X183818557Y-110789773D01*
X183796613Y-110781921D01*
X183775543Y-110771956D01*
X183755552Y-110759974D01*
X183736832Y-110746090D01*
X183719562Y-110730438D01*
X183703910Y-110713168D01*
X183690026Y-110694448D01*
X183678044Y-110674457D01*
X183668079Y-110653387D01*
X183660227Y-110631443D01*
X183654563Y-110608834D01*
X183651144Y-110585779D01*
X183650000Y-110562500D01*
X183650000Y-109987500D01*
X183651144Y-109964221D01*
X183654563Y-109941166D01*
X183660227Y-109918557D01*
X183668079Y-109896613D01*
X183678044Y-109875543D01*
X183690026Y-109855552D01*
X183703910Y-109836832D01*
X183719562Y-109819562D01*
X183736832Y-109803910D01*
X183755552Y-109790026D01*
X183775543Y-109778044D01*
X183796613Y-109768079D01*
X183818557Y-109760227D01*
X183841166Y-109754563D01*
X183864221Y-109751144D01*
X183887500Y-109750000D01*
X184362500Y-109750000D01*
X184385779Y-109751144D01*
X184385779Y-109751144D01*
G37*
D11*
X184125000Y-110275000D03*
D10*
G36*
X189560779Y-113351144D02*
G01*
X189583834Y-113354563D01*
X189606443Y-113360227D01*
X189628387Y-113368079D01*
X189649457Y-113378044D01*
X189669448Y-113390026D01*
X189688168Y-113403910D01*
X189705438Y-113419562D01*
X189721090Y-113436832D01*
X189734974Y-113455552D01*
X189746956Y-113475543D01*
X189756921Y-113496613D01*
X189764773Y-113518557D01*
X189770437Y-113541166D01*
X189773856Y-113564221D01*
X189775000Y-113587500D01*
X189775000Y-114162500D01*
X189773856Y-114185779D01*
X189770437Y-114208834D01*
X189764773Y-114231443D01*
X189756921Y-114253387D01*
X189746956Y-114274457D01*
X189734974Y-114294448D01*
X189721090Y-114313168D01*
X189705438Y-114330438D01*
X189688168Y-114346090D01*
X189669448Y-114359974D01*
X189649457Y-114371956D01*
X189628387Y-114381921D01*
X189606443Y-114389773D01*
X189583834Y-114395437D01*
X189560779Y-114398856D01*
X189537500Y-114400000D01*
X189062500Y-114400000D01*
X189039221Y-114398856D01*
X189016166Y-114395437D01*
X188993557Y-114389773D01*
X188971613Y-114381921D01*
X188950543Y-114371956D01*
X188930552Y-114359974D01*
X188911832Y-114346090D01*
X188894562Y-114330438D01*
X188878910Y-114313168D01*
X188865026Y-114294448D01*
X188853044Y-114274457D01*
X188843079Y-114253387D01*
X188835227Y-114231443D01*
X188829563Y-114208834D01*
X188826144Y-114185779D01*
X188825000Y-114162500D01*
X188825000Y-113587500D01*
X188826144Y-113564221D01*
X188829563Y-113541166D01*
X188835227Y-113518557D01*
X188843079Y-113496613D01*
X188853044Y-113475543D01*
X188865026Y-113455552D01*
X188878910Y-113436832D01*
X188894562Y-113419562D01*
X188911832Y-113403910D01*
X188930552Y-113390026D01*
X188950543Y-113378044D01*
X188971613Y-113368079D01*
X188993557Y-113360227D01*
X189016166Y-113354563D01*
X189039221Y-113351144D01*
X189062500Y-113350000D01*
X189537500Y-113350000D01*
X189560779Y-113351144D01*
X189560779Y-113351144D01*
G37*
D11*
X189300000Y-113875000D03*
D10*
G36*
X189560779Y-111601144D02*
G01*
X189583834Y-111604563D01*
X189606443Y-111610227D01*
X189628387Y-111618079D01*
X189649457Y-111628044D01*
X189669448Y-111640026D01*
X189688168Y-111653910D01*
X189705438Y-111669562D01*
X189721090Y-111686832D01*
X189734974Y-111705552D01*
X189746956Y-111725543D01*
X189756921Y-111746613D01*
X189764773Y-111768557D01*
X189770437Y-111791166D01*
X189773856Y-111814221D01*
X189775000Y-111837500D01*
X189775000Y-112412500D01*
X189773856Y-112435779D01*
X189770437Y-112458834D01*
X189764773Y-112481443D01*
X189756921Y-112503387D01*
X189746956Y-112524457D01*
X189734974Y-112544448D01*
X189721090Y-112563168D01*
X189705438Y-112580438D01*
X189688168Y-112596090D01*
X189669448Y-112609974D01*
X189649457Y-112621956D01*
X189628387Y-112631921D01*
X189606443Y-112639773D01*
X189583834Y-112645437D01*
X189560779Y-112648856D01*
X189537500Y-112650000D01*
X189062500Y-112650000D01*
X189039221Y-112648856D01*
X189016166Y-112645437D01*
X188993557Y-112639773D01*
X188971613Y-112631921D01*
X188950543Y-112621956D01*
X188930552Y-112609974D01*
X188911832Y-112596090D01*
X188894562Y-112580438D01*
X188878910Y-112563168D01*
X188865026Y-112544448D01*
X188853044Y-112524457D01*
X188843079Y-112503387D01*
X188835227Y-112481443D01*
X188829563Y-112458834D01*
X188826144Y-112435779D01*
X188825000Y-112412500D01*
X188825000Y-111837500D01*
X188826144Y-111814221D01*
X188829563Y-111791166D01*
X188835227Y-111768557D01*
X188843079Y-111746613D01*
X188853044Y-111725543D01*
X188865026Y-111705552D01*
X188878910Y-111686832D01*
X188894562Y-111669562D01*
X188911832Y-111653910D01*
X188930552Y-111640026D01*
X188950543Y-111628044D01*
X188971613Y-111618079D01*
X188993557Y-111610227D01*
X189016166Y-111604563D01*
X189039221Y-111601144D01*
X189062500Y-111600000D01*
X189537500Y-111600000D01*
X189560779Y-111601144D01*
X189560779Y-111601144D01*
G37*
D11*
X189300000Y-112125000D03*
D12*
X185065000Y-102350000D03*
X185065000Y-114850000D03*
D13*
X179900000Y-102350000D03*
X179900000Y-114850000D03*
D12*
X174735000Y-102350000D03*
X174735000Y-114850000D03*
D14*
X186630000Y-103675000D03*
X173170000Y-103675000D03*
D15*
X186630000Y-108600000D03*
X173170000Y-108600000D03*
D14*
X186630000Y-113525000D03*
X173170000Y-113525000D03*
D16*
X186630000Y-114850000D03*
X186630000Y-102350000D03*
X173170000Y-102350000D03*
X173170000Y-114850000D03*
D17*
X183900000Y-105325000D03*
X183900000Y-104675000D03*
D18*
X179900000Y-105500000D03*
X179450000Y-105500000D03*
X179900000Y-105900000D03*
X179450000Y-105900000D03*
X179900000Y-106300000D03*
X179450000Y-106300000D03*
D10*
G36*
X182686958Y-105205710D02*
G01*
X182701276Y-105207834D01*
X182715317Y-105211351D01*
X182728946Y-105216228D01*
X182742031Y-105222417D01*
X182754447Y-105229858D01*
X182766073Y-105238481D01*
X182776798Y-105248202D01*
X182786519Y-105258927D01*
X182795142Y-105270553D01*
X182802583Y-105282969D01*
X182808772Y-105296054D01*
X182813649Y-105309683D01*
X182817166Y-105323724D01*
X182819290Y-105338042D01*
X182820000Y-105352500D01*
X182820000Y-105647500D01*
X182819290Y-105661958D01*
X182817166Y-105676276D01*
X182813649Y-105690317D01*
X182808772Y-105703946D01*
X182802583Y-105717031D01*
X182795142Y-105729447D01*
X182786519Y-105741073D01*
X182776798Y-105751798D01*
X182766073Y-105761519D01*
X182754447Y-105770142D01*
X182742031Y-105777583D01*
X182728946Y-105783772D01*
X182715317Y-105788649D01*
X182701276Y-105792166D01*
X182686958Y-105794290D01*
X182672500Y-105795000D01*
X182327500Y-105795000D01*
X182313042Y-105794290D01*
X182298724Y-105792166D01*
X182284683Y-105788649D01*
X182271054Y-105783772D01*
X182257969Y-105777583D01*
X182245553Y-105770142D01*
X182233927Y-105761519D01*
X182223202Y-105751798D01*
X182213481Y-105741073D01*
X182204858Y-105729447D01*
X182197417Y-105717031D01*
X182191228Y-105703946D01*
X182186351Y-105690317D01*
X182182834Y-105676276D01*
X182180710Y-105661958D01*
X182180000Y-105647500D01*
X182180000Y-105352500D01*
X182180710Y-105338042D01*
X182182834Y-105323724D01*
X182186351Y-105309683D01*
X182191228Y-105296054D01*
X182197417Y-105282969D01*
X182204858Y-105270553D01*
X182213481Y-105258927D01*
X182223202Y-105248202D01*
X182233927Y-105238481D01*
X182245553Y-105229858D01*
X182257969Y-105222417D01*
X182271054Y-105216228D01*
X182284683Y-105211351D01*
X182298724Y-105207834D01*
X182313042Y-105205710D01*
X182327500Y-105205000D01*
X182672500Y-105205000D01*
X182686958Y-105205710D01*
X182686958Y-105205710D01*
G37*
D19*
X182500000Y-105500000D03*
D10*
G36*
X182686958Y-106175710D02*
G01*
X182701276Y-106177834D01*
X182715317Y-106181351D01*
X182728946Y-106186228D01*
X182742031Y-106192417D01*
X182754447Y-106199858D01*
X182766073Y-106208481D01*
X182776798Y-106218202D01*
X182786519Y-106228927D01*
X182795142Y-106240553D01*
X182802583Y-106252969D01*
X182808772Y-106266054D01*
X182813649Y-106279683D01*
X182817166Y-106293724D01*
X182819290Y-106308042D01*
X182820000Y-106322500D01*
X182820000Y-106617500D01*
X182819290Y-106631958D01*
X182817166Y-106646276D01*
X182813649Y-106660317D01*
X182808772Y-106673946D01*
X182802583Y-106687031D01*
X182795142Y-106699447D01*
X182786519Y-106711073D01*
X182776798Y-106721798D01*
X182766073Y-106731519D01*
X182754447Y-106740142D01*
X182742031Y-106747583D01*
X182728946Y-106753772D01*
X182715317Y-106758649D01*
X182701276Y-106762166D01*
X182686958Y-106764290D01*
X182672500Y-106765000D01*
X182327500Y-106765000D01*
X182313042Y-106764290D01*
X182298724Y-106762166D01*
X182284683Y-106758649D01*
X182271054Y-106753772D01*
X182257969Y-106747583D01*
X182245553Y-106740142D01*
X182233927Y-106731519D01*
X182223202Y-106721798D01*
X182213481Y-106711073D01*
X182204858Y-106699447D01*
X182197417Y-106687031D01*
X182191228Y-106673946D01*
X182186351Y-106660317D01*
X182182834Y-106646276D01*
X182180710Y-106631958D01*
X182180000Y-106617500D01*
X182180000Y-106322500D01*
X182180710Y-106308042D01*
X182182834Y-106293724D01*
X182186351Y-106279683D01*
X182191228Y-106266054D01*
X182197417Y-106252969D01*
X182204858Y-106240553D01*
X182213481Y-106228927D01*
X182223202Y-106218202D01*
X182233927Y-106208481D01*
X182245553Y-106199858D01*
X182257969Y-106192417D01*
X182271054Y-106186228D01*
X182284683Y-106181351D01*
X182298724Y-106177834D01*
X182313042Y-106175710D01*
X182327500Y-106175000D01*
X182672500Y-106175000D01*
X182686958Y-106175710D01*
X182686958Y-106175710D01*
G37*
D19*
X182500000Y-106470000D03*
D10*
G36*
X177176958Y-105580710D02*
G01*
X177191276Y-105582834D01*
X177205317Y-105586351D01*
X177218946Y-105591228D01*
X177232031Y-105597417D01*
X177244447Y-105604858D01*
X177256073Y-105613481D01*
X177266798Y-105623202D01*
X177276519Y-105633927D01*
X177285142Y-105645553D01*
X177292583Y-105657969D01*
X177298772Y-105671054D01*
X177303649Y-105684683D01*
X177307166Y-105698724D01*
X177309290Y-105713042D01*
X177310000Y-105727500D01*
X177310000Y-106072500D01*
X177309290Y-106086958D01*
X177307166Y-106101276D01*
X177303649Y-106115317D01*
X177298772Y-106128946D01*
X177292583Y-106142031D01*
X177285142Y-106154447D01*
X177276519Y-106166073D01*
X177266798Y-106176798D01*
X177256073Y-106186519D01*
X177244447Y-106195142D01*
X177232031Y-106202583D01*
X177218946Y-106208772D01*
X177205317Y-106213649D01*
X177191276Y-106217166D01*
X177176958Y-106219290D01*
X177162500Y-106220000D01*
X176867500Y-106220000D01*
X176853042Y-106219290D01*
X176838724Y-106217166D01*
X176824683Y-106213649D01*
X176811054Y-106208772D01*
X176797969Y-106202583D01*
X176785553Y-106195142D01*
X176773927Y-106186519D01*
X176763202Y-106176798D01*
X176753481Y-106166073D01*
X176744858Y-106154447D01*
X176737417Y-106142031D01*
X176731228Y-106128946D01*
X176726351Y-106115317D01*
X176722834Y-106101276D01*
X176720710Y-106086958D01*
X176720000Y-106072500D01*
X176720000Y-105727500D01*
X176720710Y-105713042D01*
X176722834Y-105698724D01*
X176726351Y-105684683D01*
X176731228Y-105671054D01*
X176737417Y-105657969D01*
X176744858Y-105645553D01*
X176753481Y-105633927D01*
X176763202Y-105623202D01*
X176773927Y-105613481D01*
X176785553Y-105604858D01*
X176797969Y-105597417D01*
X176811054Y-105591228D01*
X176824683Y-105586351D01*
X176838724Y-105582834D01*
X176853042Y-105580710D01*
X176867500Y-105580000D01*
X177162500Y-105580000D01*
X177176958Y-105580710D01*
X177176958Y-105580710D01*
G37*
D19*
X177015000Y-105900000D03*
D10*
G36*
X176206958Y-105580710D02*
G01*
X176221276Y-105582834D01*
X176235317Y-105586351D01*
X176248946Y-105591228D01*
X176262031Y-105597417D01*
X176274447Y-105604858D01*
X176286073Y-105613481D01*
X176296798Y-105623202D01*
X176306519Y-105633927D01*
X176315142Y-105645553D01*
X176322583Y-105657969D01*
X176328772Y-105671054D01*
X176333649Y-105684683D01*
X176337166Y-105698724D01*
X176339290Y-105713042D01*
X176340000Y-105727500D01*
X176340000Y-106072500D01*
X176339290Y-106086958D01*
X176337166Y-106101276D01*
X176333649Y-106115317D01*
X176328772Y-106128946D01*
X176322583Y-106142031D01*
X176315142Y-106154447D01*
X176306519Y-106166073D01*
X176296798Y-106176798D01*
X176286073Y-106186519D01*
X176274447Y-106195142D01*
X176262031Y-106202583D01*
X176248946Y-106208772D01*
X176235317Y-106213649D01*
X176221276Y-106217166D01*
X176206958Y-106219290D01*
X176192500Y-106220000D01*
X175897500Y-106220000D01*
X175883042Y-106219290D01*
X175868724Y-106217166D01*
X175854683Y-106213649D01*
X175841054Y-106208772D01*
X175827969Y-106202583D01*
X175815553Y-106195142D01*
X175803927Y-106186519D01*
X175793202Y-106176798D01*
X175783481Y-106166073D01*
X175774858Y-106154447D01*
X175767417Y-106142031D01*
X175761228Y-106128946D01*
X175756351Y-106115317D01*
X175752834Y-106101276D01*
X175750710Y-106086958D01*
X175750000Y-106072500D01*
X175750000Y-105727500D01*
X175750710Y-105713042D01*
X175752834Y-105698724D01*
X175756351Y-105684683D01*
X175761228Y-105671054D01*
X175767417Y-105657969D01*
X175774858Y-105645553D01*
X175783481Y-105633927D01*
X175793202Y-105623202D01*
X175803927Y-105613481D01*
X175815553Y-105604858D01*
X175827969Y-105597417D01*
X175841054Y-105591228D01*
X175854683Y-105586351D01*
X175868724Y-105582834D01*
X175883042Y-105580710D01*
X175897500Y-105580000D01*
X176192500Y-105580000D01*
X176206958Y-105580710D01*
X176206958Y-105580710D01*
G37*
D19*
X176045000Y-105900000D03*
D10*
G36*
X181386958Y-106635710D02*
G01*
X181401276Y-106637834D01*
X181415317Y-106641351D01*
X181428946Y-106646228D01*
X181442031Y-106652417D01*
X181454447Y-106659858D01*
X181466073Y-106668481D01*
X181476798Y-106678202D01*
X181486519Y-106688927D01*
X181495142Y-106700553D01*
X181502583Y-106712969D01*
X181508772Y-106726054D01*
X181513649Y-106739683D01*
X181517166Y-106753724D01*
X181519290Y-106768042D01*
X181520000Y-106782500D01*
X181520000Y-107077500D01*
X181519290Y-107091958D01*
X181517166Y-107106276D01*
X181513649Y-107120317D01*
X181508772Y-107133946D01*
X181502583Y-107147031D01*
X181495142Y-107159447D01*
X181486519Y-107171073D01*
X181476798Y-107181798D01*
X181466073Y-107191519D01*
X181454447Y-107200142D01*
X181442031Y-107207583D01*
X181428946Y-107213772D01*
X181415317Y-107218649D01*
X181401276Y-107222166D01*
X181386958Y-107224290D01*
X181372500Y-107225000D01*
X181027500Y-107225000D01*
X181013042Y-107224290D01*
X180998724Y-107222166D01*
X180984683Y-107218649D01*
X180971054Y-107213772D01*
X180957969Y-107207583D01*
X180945553Y-107200142D01*
X180933927Y-107191519D01*
X180923202Y-107181798D01*
X180913481Y-107171073D01*
X180904858Y-107159447D01*
X180897417Y-107147031D01*
X180891228Y-107133946D01*
X180886351Y-107120317D01*
X180882834Y-107106276D01*
X180880710Y-107091958D01*
X180880000Y-107077500D01*
X180880000Y-106782500D01*
X180880710Y-106768042D01*
X180882834Y-106753724D01*
X180886351Y-106739683D01*
X180891228Y-106726054D01*
X180897417Y-106712969D01*
X180904858Y-106700553D01*
X180913481Y-106688927D01*
X180923202Y-106678202D01*
X180933927Y-106668481D01*
X180945553Y-106659858D01*
X180957969Y-106652417D01*
X180971054Y-106646228D01*
X180984683Y-106641351D01*
X180998724Y-106637834D01*
X181013042Y-106635710D01*
X181027500Y-106635000D01*
X181372500Y-106635000D01*
X181386958Y-106635710D01*
X181386958Y-106635710D01*
G37*
D19*
X181200000Y-106930000D03*
D10*
G36*
X181386958Y-107605710D02*
G01*
X181401276Y-107607834D01*
X181415317Y-107611351D01*
X181428946Y-107616228D01*
X181442031Y-107622417D01*
X181454447Y-107629858D01*
X181466073Y-107638481D01*
X181476798Y-107648202D01*
X181486519Y-107658927D01*
X181495142Y-107670553D01*
X181502583Y-107682969D01*
X181508772Y-107696054D01*
X181513649Y-107709683D01*
X181517166Y-107723724D01*
X181519290Y-107738042D01*
X181520000Y-107752500D01*
X181520000Y-108047500D01*
X181519290Y-108061958D01*
X181517166Y-108076276D01*
X181513649Y-108090317D01*
X181508772Y-108103946D01*
X181502583Y-108117031D01*
X181495142Y-108129447D01*
X181486519Y-108141073D01*
X181476798Y-108151798D01*
X181466073Y-108161519D01*
X181454447Y-108170142D01*
X181442031Y-108177583D01*
X181428946Y-108183772D01*
X181415317Y-108188649D01*
X181401276Y-108192166D01*
X181386958Y-108194290D01*
X181372500Y-108195000D01*
X181027500Y-108195000D01*
X181013042Y-108194290D01*
X180998724Y-108192166D01*
X180984683Y-108188649D01*
X180971054Y-108183772D01*
X180957969Y-108177583D01*
X180945553Y-108170142D01*
X180933927Y-108161519D01*
X180923202Y-108151798D01*
X180913481Y-108141073D01*
X180904858Y-108129447D01*
X180897417Y-108117031D01*
X180891228Y-108103946D01*
X180886351Y-108090317D01*
X180882834Y-108076276D01*
X180880710Y-108061958D01*
X180880000Y-108047500D01*
X180880000Y-107752500D01*
X180880710Y-107738042D01*
X180882834Y-107723724D01*
X180886351Y-107709683D01*
X180891228Y-107696054D01*
X180897417Y-107682969D01*
X180904858Y-107670553D01*
X180913481Y-107658927D01*
X180923202Y-107648202D01*
X180933927Y-107638481D01*
X180945553Y-107629858D01*
X180957969Y-107622417D01*
X180971054Y-107616228D01*
X180984683Y-107611351D01*
X180998724Y-107607834D01*
X181013042Y-107605710D01*
X181027500Y-107605000D01*
X181372500Y-107605000D01*
X181386958Y-107605710D01*
X181386958Y-107605710D01*
G37*
D19*
X181200000Y-107900000D03*
M02*
