G04 #@! TF.GenerationSoftware,KiCad,Pcbnew,5.1.4+dfsg1-1*
G04 #@! TF.CreationDate,2019-09-19T10:38:50+12:00*
G04 #@! TF.ProjectId,lna,6c6e612e-6b69-4636-9164-5f7063625858,rev?*
G04 #@! TF.SameCoordinates,Original*
G04 #@! TF.FileFunction,Legend,Top*
G04 #@! TF.FilePolarity,Positive*
%FSLAX46Y46*%
G04 Gerber Fmt 4.6, Leading zero omitted, Abs format (unit mm)*
G04 Created by KiCad (PCBNEW 5.1.4+dfsg1-1) date 2019-09-19 10:38:50*
%MOMM*%
%LPD*%
G04 APERTURE LIST*
%ADD10C,0.150000*%
%ADD11C,0.120000*%
G04 APERTURE END LIST*
D10*
X190704761Y-100452380D02*
X191276190Y-100452380D01*
X190990476Y-101452380D02*
X190990476Y-100452380D01*
X191561904Y-101166666D02*
X192038095Y-101166666D01*
X191466666Y-101452380D02*
X191800000Y-100452380D01*
X192133333Y-101452380D01*
X193038095Y-101452380D02*
X192704761Y-100976190D01*
X192466666Y-101452380D02*
X192466666Y-100452380D01*
X192847619Y-100452380D01*
X192942857Y-100500000D01*
X192990476Y-100547619D01*
X193038095Y-100642857D01*
X193038095Y-100785714D01*
X192990476Y-100880952D01*
X192942857Y-100928571D01*
X192847619Y-100976190D01*
X192466666Y-100976190D01*
X193323809Y-100452380D02*
X193895238Y-100452380D01*
X193609523Y-101452380D02*
X193609523Y-100452380D01*
X164638095Y-101066666D02*
X165114285Y-101066666D01*
X164542857Y-101352380D02*
X164876190Y-100352380D01*
X165209523Y-101352380D01*
X165542857Y-100685714D02*
X165542857Y-101352380D01*
X165542857Y-100780952D02*
X165590476Y-100733333D01*
X165685714Y-100685714D01*
X165828571Y-100685714D01*
X165923809Y-100733333D01*
X165971428Y-100828571D01*
X165971428Y-101352380D01*
X166304761Y-100685714D02*
X166685714Y-100685714D01*
X166447619Y-100352380D02*
X166447619Y-101209523D01*
X166495238Y-101304761D01*
X166590476Y-101352380D01*
X166685714Y-101352380D01*
X167400000Y-101304761D02*
X167304761Y-101352380D01*
X167114285Y-101352380D01*
X167019047Y-101304761D01*
X166971428Y-101209523D01*
X166971428Y-100828571D01*
X167019047Y-100733333D01*
X167114285Y-100685714D01*
X167304761Y-100685714D01*
X167400000Y-100733333D01*
X167447619Y-100828571D01*
X167447619Y-100923809D01*
X166971428Y-101019047D01*
X167876190Y-100685714D02*
X167876190Y-101352380D01*
X167876190Y-100780952D02*
X167923809Y-100733333D01*
X168019047Y-100685714D01*
X168161904Y-100685714D01*
X168257142Y-100733333D01*
X168304761Y-100828571D01*
X168304761Y-101352380D01*
X168780952Y-100685714D02*
X168780952Y-101352380D01*
X168780952Y-100780952D02*
X168828571Y-100733333D01*
X168923809Y-100685714D01*
X169066666Y-100685714D01*
X169161904Y-100733333D01*
X169209523Y-100828571D01*
X169209523Y-101352380D01*
X170114285Y-101352380D02*
X170114285Y-100828571D01*
X170066666Y-100733333D01*
X169971428Y-100685714D01*
X169780952Y-100685714D01*
X169685714Y-100733333D01*
X170114285Y-101304761D02*
X170019047Y-101352380D01*
X169780952Y-101352380D01*
X169685714Y-101304761D01*
X169638095Y-101209523D01*
X169638095Y-101114285D01*
X169685714Y-101019047D01*
X169780952Y-100971428D01*
X170019047Y-100971428D01*
X170114285Y-100923809D01*
D11*
X183615000Y-110978733D02*
X183615000Y-111321267D01*
X184635000Y-110978733D02*
X184635000Y-111321267D01*
X188565000Y-111340000D02*
X188565000Y-113800000D01*
X190035000Y-111340000D02*
X188565000Y-111340000D01*
X190035000Y-113800000D02*
X190035000Y-111340000D01*
X194050000Y-109155000D02*
X190450000Y-109155000D01*
X194050000Y-101795000D02*
X190450000Y-101795000D01*
X188570000Y-107275000D02*
X188570000Y-103675000D01*
X195930000Y-107275000D02*
X195930000Y-103675000D01*
X169100000Y-109580000D02*
X165500000Y-109580000D01*
X169100000Y-102220000D02*
X165500000Y-102220000D01*
X163620000Y-107700000D02*
X163620000Y-104100000D01*
X170980000Y-107700000D02*
X170980000Y-104100000D01*
X182100000Y-102100000D02*
X183700000Y-102100000D01*
X182100000Y-115100000D02*
X183700000Y-115100000D01*
X176100000Y-102100000D02*
X177700000Y-102100000D01*
X176100000Y-115100000D02*
X177700000Y-115100000D01*
X186880000Y-106400000D02*
X186880000Y-104800000D01*
X172920000Y-106400000D02*
X172920000Y-104800000D01*
X186880000Y-112400000D02*
X186880000Y-110800000D01*
X172920000Y-112400000D02*
X172920000Y-110800000D01*
X184375000Y-105675000D02*
X183450000Y-105675000D01*
X184375000Y-104325000D02*
X184375000Y-105675000D01*
X183425000Y-104325000D02*
X184375000Y-104325000D01*
X183425000Y-105650000D02*
X183425000Y-104325000D01*
X180225000Y-105200000D02*
X180225000Y-106050000D01*
X179125000Y-105200000D02*
X180225000Y-105200000D01*
X179125000Y-106600000D02*
X179125000Y-105200000D01*
X179675000Y-106600000D02*
X179125000Y-106600000D01*
X180225000Y-106050000D02*
X179675000Y-106600000D01*
D10*
X183127380Y-112491666D02*
X182651190Y-112825000D01*
X183127380Y-113063095D02*
X182127380Y-113063095D01*
X182127380Y-112682142D01*
X182175000Y-112586904D01*
X182222619Y-112539285D01*
X182317857Y-112491666D01*
X182460714Y-112491666D01*
X182555952Y-112539285D01*
X182603571Y-112586904D01*
X182651190Y-112682142D01*
X182651190Y-113063095D01*
X183127380Y-111539285D02*
X183127380Y-112110714D01*
X183127380Y-111825000D02*
X182127380Y-111825000D01*
X182270238Y-111920238D01*
X182365476Y-112015476D01*
X182413095Y-112110714D01*
X189877380Y-116338095D02*
X188877380Y-116338095D01*
X188877380Y-116100000D01*
X188925000Y-115957142D01*
X189020238Y-115861904D01*
X189115476Y-115814285D01*
X189305952Y-115766666D01*
X189448809Y-115766666D01*
X189639285Y-115814285D01*
X189734523Y-115861904D01*
X189829761Y-115957142D01*
X189877380Y-116100000D01*
X189877380Y-116338095D01*
X188972619Y-115385714D02*
X188925000Y-115338095D01*
X188877380Y-115242857D01*
X188877380Y-115004761D01*
X188925000Y-114909523D01*
X188972619Y-114861904D01*
X189067857Y-114814285D01*
X189163095Y-114814285D01*
X189305952Y-114861904D01*
X189877380Y-115433333D01*
X189877380Y-114814285D01*
X193238095Y-109752380D02*
X193238095Y-108752380D01*
X193238095Y-109228571D02*
X193809523Y-109228571D01*
X193809523Y-109752380D02*
X193809523Y-108752380D01*
X194238095Y-108847619D02*
X194285714Y-108800000D01*
X194380952Y-108752380D01*
X194619047Y-108752380D01*
X194714285Y-108800000D01*
X194761904Y-108847619D01*
X194809523Y-108942857D01*
X194809523Y-109038095D01*
X194761904Y-109180952D01*
X194190476Y-109752380D01*
X194809523Y-109752380D01*
X164741039Y-109749436D02*
X164741039Y-108749436D01*
X164741039Y-109225627D02*
X165312467Y-109225627D01*
X165312467Y-109749436D02*
X165312467Y-108749436D01*
X166312467Y-109749436D02*
X165741039Y-109749436D01*
X166026753Y-109749436D02*
X166026753Y-108749436D01*
X165931515Y-108892294D01*
X165836277Y-108987532D01*
X165741039Y-109035151D01*
X190256666Y-109567380D02*
X190256666Y-110281666D01*
X190209047Y-110424523D01*
X190113809Y-110519761D01*
X189970952Y-110567380D01*
X189875714Y-110567380D01*
X190685238Y-109662619D02*
X190732857Y-109615000D01*
X190828095Y-109567380D01*
X191066190Y-109567380D01*
X191161428Y-109615000D01*
X191209047Y-109662619D01*
X191256666Y-109757857D01*
X191256666Y-109853095D01*
X191209047Y-109995952D01*
X190637619Y-110567380D01*
X191256666Y-110567380D01*
X166966666Y-110102380D02*
X166966666Y-110816666D01*
X166919047Y-110959523D01*
X166823809Y-111054761D01*
X166680952Y-111102380D01*
X166585714Y-111102380D01*
X167966666Y-111102380D02*
X167395238Y-111102380D01*
X167680952Y-111102380D02*
X167680952Y-110102380D01*
X167585714Y-110245238D01*
X167490476Y-110340476D01*
X167395238Y-110388095D01*
X171122380Y-108933333D02*
X171836666Y-108933333D01*
X171979523Y-108980952D01*
X172074761Y-109076190D01*
X172122380Y-109219047D01*
X172122380Y-109314285D01*
X171122380Y-108552380D02*
X171122380Y-107933333D01*
X171503333Y-108266666D01*
X171503333Y-108123809D01*
X171550952Y-108028571D01*
X171598571Y-107980952D01*
X171693809Y-107933333D01*
X171931904Y-107933333D01*
X172027142Y-107980952D01*
X172074761Y-108028571D01*
X172122380Y-108123809D01*
X172122380Y-108409523D01*
X172074761Y-108504761D01*
X172027142Y-108552380D01*
X184352380Y-103963095D02*
X183352380Y-103963095D01*
X183352380Y-103725000D01*
X183400000Y-103582142D01*
X183495238Y-103486904D01*
X183590476Y-103439285D01*
X183780952Y-103391666D01*
X183923809Y-103391666D01*
X184114285Y-103439285D01*
X184209523Y-103486904D01*
X184304761Y-103582142D01*
X184352380Y-103725000D01*
X184352380Y-103963095D01*
X184352380Y-102439285D02*
X184352380Y-103010714D01*
X184352380Y-102725000D02*
X183352380Y-102725000D01*
X183495238Y-102820238D01*
X183590476Y-102915476D01*
X183638095Y-103010714D01*
X179152380Y-104761904D02*
X179961904Y-104761904D01*
X180057142Y-104714285D01*
X180104761Y-104666666D01*
X180152380Y-104571428D01*
X180152380Y-104380952D01*
X180104761Y-104285714D01*
X180057142Y-104238095D01*
X179961904Y-104190476D01*
X179152380Y-104190476D01*
X180152380Y-103190476D02*
X180152380Y-103761904D01*
X180152380Y-103476190D02*
X179152380Y-103476190D01*
X179295238Y-103571428D01*
X179390476Y-103666666D01*
X179438095Y-103761904D01*
X182952380Y-103966666D02*
X182952380Y-104442857D01*
X181952380Y-104442857D01*
X182047619Y-103680952D02*
X182000000Y-103633333D01*
X181952380Y-103538095D01*
X181952380Y-103300000D01*
X182000000Y-103204761D01*
X182047619Y-103157142D01*
X182142857Y-103109523D01*
X182238095Y-103109523D01*
X182380952Y-103157142D01*
X182952380Y-103728571D01*
X182952380Y-103109523D01*
X176363333Y-105182380D02*
X175887142Y-105182380D01*
X175887142Y-104182380D01*
X177220476Y-105182380D02*
X176649047Y-105182380D01*
X176934761Y-105182380D02*
X176934761Y-104182380D01*
X176839523Y-104325238D01*
X176744285Y-104420476D01*
X176649047Y-104468095D01*
X181557142Y-104796666D02*
X181604761Y-104844285D01*
X181652380Y-104987142D01*
X181652380Y-105082380D01*
X181604761Y-105225238D01*
X181509523Y-105320476D01*
X181414285Y-105368095D01*
X181223809Y-105415714D01*
X181080952Y-105415714D01*
X180890476Y-105368095D01*
X180795238Y-105320476D01*
X180700000Y-105225238D01*
X180652380Y-105082380D01*
X180652380Y-104987142D01*
X180700000Y-104844285D01*
X180747619Y-104796666D01*
X181652380Y-103844285D02*
X181652380Y-104415714D01*
X181652380Y-104130000D02*
X180652380Y-104130000D01*
X180795238Y-104225238D01*
X180890476Y-104320476D01*
X180938095Y-104415714D01*
M02*
