G04 #@! TF.GenerationSoftware,KiCad,Pcbnew,5.1.4+dfsg1-1*
G04 #@! TF.CreationDate,2019-09-19T10:38:50+12:00*
G04 #@! TF.ProjectId,lna,6c6e612e-6b69-4636-9164-5f7063625858,rev?*
G04 #@! TF.SameCoordinates,Original*
G04 #@! TF.FileFunction,Soldermask,Top*
G04 #@! TF.FilePolarity,Negative*
%FSLAX46Y46*%
G04 Gerber Fmt 4.6, Leading zero omitted, Abs format (unit mm)*
G04 Created by KiCad (PCBNEW 5.1.4+dfsg1-1) date 2019-09-19 10:38:50*
%MOMM*%
%LPD*%
G04 APERTURE LIST*
%ADD10C,0.100000*%
G04 APERTURE END LIST*
D10*
G36*
X194634239Y-110311467D02*
G01*
X194948282Y-110373934D01*
X195539926Y-110619001D01*
X195857174Y-110830980D01*
X196072391Y-110974783D01*
X196525217Y-111427609D01*
X196571400Y-111496727D01*
X196880999Y-111960074D01*
X197126066Y-112551718D01*
X197148939Y-112666708D01*
X197251000Y-113179803D01*
X197251000Y-113820197D01*
X197188533Y-114134239D01*
X197126066Y-114448282D01*
X196880999Y-115039926D01*
X196635232Y-115407741D01*
X196543903Y-115544426D01*
X196525216Y-115572392D01*
X196072392Y-116025216D01*
X195539926Y-116380999D01*
X194948282Y-116626066D01*
X194634239Y-116688533D01*
X194320197Y-116751000D01*
X193679803Y-116751000D01*
X193365761Y-116688533D01*
X193051718Y-116626066D01*
X192460074Y-116380999D01*
X191927608Y-116025216D01*
X191474784Y-115572392D01*
X191456098Y-115544426D01*
X191364768Y-115407741D01*
X191119001Y-115039926D01*
X190873934Y-114448282D01*
X190811467Y-114134239D01*
X190749000Y-113820197D01*
X190749000Y-113179803D01*
X190851061Y-112666708D01*
X190873934Y-112551718D01*
X191119001Y-111960074D01*
X191428600Y-111496727D01*
X191474783Y-111427609D01*
X191927609Y-110974783D01*
X192142826Y-110830980D01*
X192460074Y-110619001D01*
X193051718Y-110373934D01*
X193365761Y-110311467D01*
X193679803Y-110249000D01*
X194320197Y-110249000D01*
X194634239Y-110311467D01*
X194634239Y-110311467D01*
G37*
G36*
X166137183Y-110308523D02*
G01*
X166451226Y-110370990D01*
X167042870Y-110616057D01*
X167364524Y-110830980D01*
X167575335Y-110971839D01*
X168028161Y-111424665D01*
X168057798Y-111469020D01*
X168383943Y-111957130D01*
X168629010Y-112548774D01*
X168658405Y-112696555D01*
X168753944Y-113176859D01*
X168753944Y-113817253D01*
X168727340Y-113951000D01*
X168629010Y-114445338D01*
X168383943Y-115036982D01*
X168028160Y-115569448D01*
X167575336Y-116022272D01*
X167042870Y-116378055D01*
X166451226Y-116623122D01*
X166137183Y-116685589D01*
X165823141Y-116748056D01*
X165182747Y-116748056D01*
X164868705Y-116685589D01*
X164554662Y-116623122D01*
X163963018Y-116378055D01*
X163430552Y-116022272D01*
X162977728Y-115569448D01*
X162621945Y-115036982D01*
X162376878Y-114445338D01*
X162278548Y-113951000D01*
X162251944Y-113817253D01*
X162251944Y-113176859D01*
X162347483Y-112696555D01*
X162376878Y-112548774D01*
X162621945Y-111957130D01*
X162948090Y-111469020D01*
X162977727Y-111424665D01*
X163430553Y-110971839D01*
X163641364Y-110830980D01*
X163963018Y-110616057D01*
X164554662Y-110370990D01*
X164868705Y-110308523D01*
X165182747Y-110246056D01*
X165823141Y-110246056D01*
X166137183Y-110308523D01*
X166137183Y-110308523D01*
G37*
G36*
X173721000Y-114174001D02*
G01*
X173723402Y-114198387D01*
X173730515Y-114221836D01*
X173742066Y-114243447D01*
X173757611Y-114262389D01*
X173776553Y-114277934D01*
X173798164Y-114289485D01*
X173821613Y-114296598D01*
X173845999Y-114299000D01*
X175851000Y-114299000D01*
X175851000Y-115401000D01*
X172619000Y-115401000D01*
X172619000Y-112649000D01*
X173721000Y-112649000D01*
X173721000Y-114174001D01*
X173721000Y-114174001D01*
G37*
G36*
X181851000Y-115401000D02*
G01*
X177949000Y-115401000D01*
X177949000Y-114299000D01*
X181851000Y-114299000D01*
X181851000Y-115401000D01*
X181851000Y-115401000D01*
G37*
G36*
X187181000Y-115401000D02*
G01*
X183949000Y-115401000D01*
X183949000Y-114299000D01*
X185954001Y-114299000D01*
X185978387Y-114296598D01*
X186001836Y-114289485D01*
X186023447Y-114277934D01*
X186042389Y-114262389D01*
X186057934Y-114243447D01*
X186069485Y-114221836D01*
X186076598Y-114198387D01*
X186079000Y-114174001D01*
X186079000Y-112649000D01*
X187181000Y-112649000D01*
X187181000Y-115401000D01*
X187181000Y-115401000D01*
G37*
G36*
X189664499Y-113303445D02*
G01*
X189701995Y-113314820D01*
X189736554Y-113333292D01*
X189766847Y-113358153D01*
X189791708Y-113388446D01*
X189810180Y-113423005D01*
X189821555Y-113460501D01*
X189826000Y-113505638D01*
X189826000Y-114244362D01*
X189821555Y-114289499D01*
X189810180Y-114326995D01*
X189791708Y-114361554D01*
X189766847Y-114391847D01*
X189736554Y-114416708D01*
X189701995Y-114435180D01*
X189664499Y-114446555D01*
X189619362Y-114451000D01*
X188980638Y-114451000D01*
X188935501Y-114446555D01*
X188898005Y-114435180D01*
X188863446Y-114416708D01*
X188833153Y-114391847D01*
X188808292Y-114361554D01*
X188789820Y-114326995D01*
X188778445Y-114289499D01*
X188774000Y-114244362D01*
X188774000Y-113505638D01*
X188778445Y-113460501D01*
X188789820Y-113423005D01*
X188808292Y-113388446D01*
X188833153Y-113358153D01*
X188863446Y-113333292D01*
X188898005Y-113314820D01*
X188935501Y-113303445D01*
X188980638Y-113299000D01*
X189619362Y-113299000D01*
X189664499Y-113303445D01*
X189664499Y-113303445D01*
G37*
G36*
X189664499Y-111553445D02*
G01*
X189701995Y-111564820D01*
X189736554Y-111583292D01*
X189766847Y-111608153D01*
X189791708Y-111638446D01*
X189810180Y-111673005D01*
X189821555Y-111710501D01*
X189826000Y-111755638D01*
X189826000Y-112494362D01*
X189821555Y-112539499D01*
X189810180Y-112576995D01*
X189791708Y-112611554D01*
X189766847Y-112641847D01*
X189736554Y-112666708D01*
X189701995Y-112685180D01*
X189664499Y-112696555D01*
X189619362Y-112701000D01*
X188980638Y-112701000D01*
X188935501Y-112696555D01*
X188898005Y-112685180D01*
X188863446Y-112666708D01*
X188833153Y-112641847D01*
X188808292Y-112611554D01*
X188789820Y-112576995D01*
X188778445Y-112539499D01*
X188774000Y-112494362D01*
X188774000Y-111755638D01*
X188778445Y-111710501D01*
X188789820Y-111673005D01*
X188808292Y-111638446D01*
X188833153Y-111608153D01*
X188863446Y-111583292D01*
X188898005Y-111564820D01*
X188935501Y-111553445D01*
X188980638Y-111549000D01*
X189619362Y-111549000D01*
X189664499Y-111553445D01*
X189664499Y-111553445D01*
G37*
G36*
X184489499Y-111453445D02*
G01*
X184526995Y-111464820D01*
X184561554Y-111483292D01*
X184591847Y-111508153D01*
X184616708Y-111538446D01*
X184635180Y-111573005D01*
X184646555Y-111610501D01*
X184651000Y-111655638D01*
X184651000Y-112394362D01*
X184646555Y-112439499D01*
X184635180Y-112476995D01*
X184616708Y-112511554D01*
X184591847Y-112541847D01*
X184561554Y-112566708D01*
X184526995Y-112585180D01*
X184489499Y-112596555D01*
X184444362Y-112601000D01*
X183805638Y-112601000D01*
X183760501Y-112596555D01*
X183723005Y-112585180D01*
X183688446Y-112566708D01*
X183658153Y-112541847D01*
X183633292Y-112511554D01*
X183614820Y-112476995D01*
X183603445Y-112439499D01*
X183599000Y-112394362D01*
X183599000Y-111655638D01*
X183603445Y-111610501D01*
X183614820Y-111573005D01*
X183633292Y-111538446D01*
X183658153Y-111508153D01*
X183688446Y-111483292D01*
X183723005Y-111464820D01*
X183760501Y-111453445D01*
X183805638Y-111449000D01*
X184444362Y-111449000D01*
X184489499Y-111453445D01*
X184489499Y-111453445D01*
G37*
G36*
X184489499Y-109703445D02*
G01*
X184526995Y-109714820D01*
X184561554Y-109733292D01*
X184591847Y-109758153D01*
X184616708Y-109788446D01*
X184635180Y-109823005D01*
X184646555Y-109860501D01*
X184651000Y-109905638D01*
X184651000Y-110644362D01*
X184646555Y-110689499D01*
X184635180Y-110726995D01*
X184616708Y-110761554D01*
X184591847Y-110791847D01*
X184561554Y-110816708D01*
X184526995Y-110835180D01*
X184489499Y-110846555D01*
X184444362Y-110851000D01*
X183805638Y-110851000D01*
X183760501Y-110846555D01*
X183723005Y-110835180D01*
X183688446Y-110816708D01*
X183658153Y-110791847D01*
X183633292Y-110761554D01*
X183614820Y-110726995D01*
X183603445Y-110689499D01*
X183599000Y-110644362D01*
X183599000Y-109905638D01*
X183603445Y-109860501D01*
X183614820Y-109823005D01*
X183633292Y-109788446D01*
X183658153Y-109758153D01*
X183688446Y-109733292D01*
X183723005Y-109714820D01*
X183760501Y-109703445D01*
X183805638Y-109699000D01*
X184444362Y-109699000D01*
X184489499Y-109703445D01*
X184489499Y-109703445D01*
G37*
G36*
X187181000Y-110551000D02*
G01*
X186079000Y-110551000D01*
X186079000Y-106649000D01*
X187181000Y-106649000D01*
X187181000Y-110551000D01*
X187181000Y-110551000D01*
G37*
G36*
X173721000Y-110551000D02*
G01*
X172619000Y-110551000D01*
X172619000Y-106649000D01*
X173721000Y-106649000D01*
X173721000Y-110551000D01*
X173721000Y-110551000D01*
G37*
G36*
X170002500Y-107273284D02*
G01*
X170183027Y-107309193D01*
X170397045Y-107397842D01*
X170397046Y-107397843D01*
X170589654Y-107526539D01*
X170753461Y-107690346D01*
X170777952Y-107727000D01*
X170882158Y-107882955D01*
X170970807Y-108096973D01*
X171016000Y-108324174D01*
X171016000Y-108555826D01*
X170970807Y-108783027D01*
X170882158Y-108997045D01*
X170882157Y-108997046D01*
X170753461Y-109189654D01*
X170589654Y-109353461D01*
X170461249Y-109439258D01*
X170397045Y-109482158D01*
X170183027Y-109570807D01*
X170031560Y-109600936D01*
X169955827Y-109616000D01*
X169724173Y-109616000D01*
X169648440Y-109600936D01*
X169496973Y-109570807D01*
X169282955Y-109482158D01*
X169218751Y-109439258D01*
X169090346Y-109353461D01*
X168926539Y-109189654D01*
X168797843Y-108997046D01*
X168797842Y-108997045D01*
X168709193Y-108783027D01*
X168664000Y-108555826D01*
X168664000Y-108324174D01*
X168709193Y-108096973D01*
X168797842Y-107882955D01*
X168902048Y-107727000D01*
X168926539Y-107690346D01*
X169090346Y-107526539D01*
X169282954Y-107397843D01*
X169282955Y-107397842D01*
X169496973Y-107309193D01*
X169677500Y-107273284D01*
X169724173Y-107264000D01*
X169955827Y-107264000D01*
X170002500Y-107273284D01*
X170002500Y-107273284D01*
G37*
G36*
X164922500Y-107273284D02*
G01*
X165103027Y-107309193D01*
X165317045Y-107397842D01*
X165317046Y-107397843D01*
X165509654Y-107526539D01*
X165673461Y-107690346D01*
X165697952Y-107727000D01*
X165802158Y-107882955D01*
X165890807Y-108096973D01*
X165936000Y-108324174D01*
X165936000Y-108555826D01*
X165890807Y-108783027D01*
X165802158Y-108997045D01*
X165802157Y-108997046D01*
X165673461Y-109189654D01*
X165509654Y-109353461D01*
X165381249Y-109439258D01*
X165317045Y-109482158D01*
X165103027Y-109570807D01*
X164951560Y-109600936D01*
X164875827Y-109616000D01*
X164644173Y-109616000D01*
X164568440Y-109600936D01*
X164416973Y-109570807D01*
X164202955Y-109482158D01*
X164138751Y-109439258D01*
X164010346Y-109353461D01*
X163846539Y-109189654D01*
X163717843Y-108997046D01*
X163717842Y-108997045D01*
X163629193Y-108783027D01*
X163584000Y-108555826D01*
X163584000Y-108324174D01*
X163629193Y-108096973D01*
X163717842Y-107882955D01*
X163822048Y-107727000D01*
X163846539Y-107690346D01*
X164010346Y-107526539D01*
X164202954Y-107397843D01*
X164202955Y-107397842D01*
X164416973Y-107309193D01*
X164597500Y-107273284D01*
X164644173Y-107264000D01*
X164875827Y-107264000D01*
X164922500Y-107273284D01*
X164922500Y-107273284D01*
G37*
G36*
X194978914Y-106853538D02*
G01*
X195133027Y-106884193D01*
X195347045Y-106972842D01*
X195347046Y-106972843D01*
X195539654Y-107101539D01*
X195703461Y-107265346D01*
X195789258Y-107393751D01*
X195832158Y-107457955D01*
X195920807Y-107671973D01*
X195966000Y-107899174D01*
X195966000Y-108130826D01*
X195920807Y-108358027D01*
X195832158Y-108572045D01*
X195832157Y-108572046D01*
X195703461Y-108764654D01*
X195539654Y-108928461D01*
X195437010Y-108997045D01*
X195347045Y-109057158D01*
X195133027Y-109145807D01*
X194981560Y-109175936D01*
X194905827Y-109191000D01*
X194674173Y-109191000D01*
X194598440Y-109175936D01*
X194446973Y-109145807D01*
X194232955Y-109057158D01*
X194142990Y-108997045D01*
X194040346Y-108928461D01*
X193876539Y-108764654D01*
X193747843Y-108572046D01*
X193747842Y-108572045D01*
X193659193Y-108358027D01*
X193614000Y-108130826D01*
X193614000Y-107899174D01*
X193659193Y-107671973D01*
X193747842Y-107457955D01*
X193790742Y-107393751D01*
X193876539Y-107265346D01*
X194040346Y-107101539D01*
X194232954Y-106972843D01*
X194232955Y-106972842D01*
X194446973Y-106884193D01*
X194601086Y-106853538D01*
X194674173Y-106839000D01*
X194905827Y-106839000D01*
X194978914Y-106853538D01*
X194978914Y-106853538D01*
G37*
G36*
X189898914Y-106853538D02*
G01*
X190053027Y-106884193D01*
X190267045Y-106972842D01*
X190267046Y-106972843D01*
X190459654Y-107101539D01*
X190623461Y-107265346D01*
X190709258Y-107393751D01*
X190752158Y-107457955D01*
X190840807Y-107671973D01*
X190886000Y-107899174D01*
X190886000Y-108130826D01*
X190840807Y-108358027D01*
X190752158Y-108572045D01*
X190752157Y-108572046D01*
X190623461Y-108764654D01*
X190459654Y-108928461D01*
X190357010Y-108997045D01*
X190267045Y-109057158D01*
X190053027Y-109145807D01*
X189901560Y-109175936D01*
X189825827Y-109191000D01*
X189594173Y-109191000D01*
X189518440Y-109175936D01*
X189366973Y-109145807D01*
X189152955Y-109057158D01*
X189062990Y-108997045D01*
X188960346Y-108928461D01*
X188796539Y-108764654D01*
X188667843Y-108572046D01*
X188667842Y-108572045D01*
X188579193Y-108358027D01*
X188534000Y-108130826D01*
X188534000Y-107899174D01*
X188579193Y-107671973D01*
X188667842Y-107457955D01*
X188710742Y-107393751D01*
X188796539Y-107265346D01*
X188960346Y-107101539D01*
X189152954Y-106972843D01*
X189152955Y-106972842D01*
X189366973Y-106884193D01*
X189521086Y-106853538D01*
X189594173Y-106839000D01*
X189825827Y-106839000D01*
X189898914Y-106853538D01*
X189898914Y-106853538D01*
G37*
G36*
X181481938Y-107556716D02*
G01*
X181502557Y-107562971D01*
X181521553Y-107573124D01*
X181538208Y-107586792D01*
X181551876Y-107603447D01*
X181562029Y-107622443D01*
X181568284Y-107643062D01*
X181571000Y-107670640D01*
X181571000Y-108129360D01*
X181568284Y-108156938D01*
X181562029Y-108177557D01*
X181551876Y-108196553D01*
X181538208Y-108213208D01*
X181521553Y-108226876D01*
X181502557Y-108237029D01*
X181481938Y-108243284D01*
X181454360Y-108246000D01*
X180945640Y-108246000D01*
X180918062Y-108243284D01*
X180897443Y-108237029D01*
X180878447Y-108226876D01*
X180861792Y-108213208D01*
X180848124Y-108196553D01*
X180837971Y-108177557D01*
X180831716Y-108156938D01*
X180829000Y-108129360D01*
X180829000Y-107670640D01*
X180831716Y-107643062D01*
X180837971Y-107622443D01*
X180848124Y-107603447D01*
X180861792Y-107586792D01*
X180878447Y-107573124D01*
X180897443Y-107562971D01*
X180918062Y-107556716D01*
X180945640Y-107554000D01*
X181454360Y-107554000D01*
X181481938Y-107556716D01*
X181481938Y-107556716D01*
G37*
G36*
X181481938Y-106586716D02*
G01*
X181502557Y-106592971D01*
X181521553Y-106603124D01*
X181538208Y-106616792D01*
X181551876Y-106633447D01*
X181562029Y-106652443D01*
X181568284Y-106673062D01*
X181571000Y-106700640D01*
X181571000Y-107159360D01*
X181568284Y-107186938D01*
X181562029Y-107207557D01*
X181551876Y-107226553D01*
X181538208Y-107243208D01*
X181521553Y-107256876D01*
X181502557Y-107267029D01*
X181481938Y-107273284D01*
X181454360Y-107276000D01*
X180945640Y-107276000D01*
X180918062Y-107273284D01*
X180897443Y-107267029D01*
X180878447Y-107256876D01*
X180861792Y-107243208D01*
X180848124Y-107226553D01*
X180837971Y-107207557D01*
X180831716Y-107186938D01*
X180829000Y-107159360D01*
X180829000Y-106700640D01*
X180831716Y-106673062D01*
X180837971Y-106652443D01*
X180848124Y-106633447D01*
X180861792Y-106616792D01*
X180878447Y-106603124D01*
X180897443Y-106592971D01*
X180918062Y-106586716D01*
X180945640Y-106584000D01*
X181454360Y-106584000D01*
X181481938Y-106586716D01*
X181481938Y-106586716D01*
G37*
G36*
X167475271Y-104837783D02*
G01*
X167613858Y-104865350D01*
X167809677Y-104946461D01*
X167985910Y-105064216D01*
X168135784Y-105214090D01*
X168253539Y-105390323D01*
X168334650Y-105586142D01*
X168376000Y-105794023D01*
X168376000Y-106005977D01*
X168334650Y-106213858D01*
X168253539Y-106409677D01*
X168135784Y-106585910D01*
X167985910Y-106735784D01*
X167809677Y-106853539D01*
X167613858Y-106934650D01*
X167475271Y-106962217D01*
X167405978Y-106976000D01*
X167194022Y-106976000D01*
X167124729Y-106962217D01*
X166986142Y-106934650D01*
X166790323Y-106853539D01*
X166614090Y-106735784D01*
X166464216Y-106585910D01*
X166346461Y-106409677D01*
X166265350Y-106213858D01*
X166224000Y-106005977D01*
X166224000Y-105794023D01*
X166265350Y-105586142D01*
X166346461Y-105390323D01*
X166464216Y-105214090D01*
X166614090Y-105064216D01*
X166790323Y-104946461D01*
X166986142Y-104865350D01*
X167124729Y-104837783D01*
X167194022Y-104824000D01*
X167405978Y-104824000D01*
X167475271Y-104837783D01*
X167475271Y-104837783D01*
G37*
G36*
X182781938Y-106126716D02*
G01*
X182802557Y-106132971D01*
X182821553Y-106143124D01*
X182838208Y-106156792D01*
X182851876Y-106173447D01*
X182862029Y-106192443D01*
X182868284Y-106213062D01*
X182871000Y-106240640D01*
X182871000Y-106699360D01*
X182868284Y-106726938D01*
X182862029Y-106747557D01*
X182851876Y-106766553D01*
X182838208Y-106783208D01*
X182821553Y-106796876D01*
X182802557Y-106807029D01*
X182781938Y-106813284D01*
X182754360Y-106816000D01*
X182245640Y-106816000D01*
X182218062Y-106813284D01*
X182197443Y-106807029D01*
X182178447Y-106796876D01*
X182161792Y-106783208D01*
X182148124Y-106766553D01*
X182137971Y-106747557D01*
X182131716Y-106726938D01*
X182129000Y-106699360D01*
X182129000Y-106240640D01*
X182131716Y-106213062D01*
X182137971Y-106192443D01*
X182148124Y-106173447D01*
X182161792Y-106156792D01*
X182178447Y-106143124D01*
X182197443Y-106132971D01*
X182218062Y-106126716D01*
X182245640Y-106124000D01*
X182754360Y-106124000D01*
X182781938Y-106126716D01*
X182781938Y-106126716D01*
G37*
G36*
X192425271Y-104412783D02*
G01*
X192563858Y-104440350D01*
X192759677Y-104521461D01*
X192935910Y-104639216D01*
X193085784Y-104789090D01*
X193203539Y-104965323D01*
X193284650Y-105161142D01*
X193326000Y-105369023D01*
X193326000Y-105580977D01*
X193284650Y-105788858D01*
X193203539Y-105984677D01*
X193085784Y-106160910D01*
X192935910Y-106310784D01*
X192759677Y-106428539D01*
X192563858Y-106509650D01*
X192425271Y-106537217D01*
X192355978Y-106551000D01*
X192144022Y-106551000D01*
X192074729Y-106537217D01*
X191936142Y-106509650D01*
X191740323Y-106428539D01*
X191564090Y-106310784D01*
X191414216Y-106160910D01*
X191296461Y-105984677D01*
X191215350Y-105788858D01*
X191174000Y-105580977D01*
X191174000Y-105369023D01*
X191215350Y-105161142D01*
X191296461Y-104965323D01*
X191414216Y-104789090D01*
X191564090Y-104639216D01*
X191740323Y-104521461D01*
X191936142Y-104440350D01*
X192074729Y-104412783D01*
X192144022Y-104399000D01*
X192355978Y-104399000D01*
X192425271Y-104412783D01*
X192425271Y-104412783D01*
G37*
G36*
X180076000Y-106451000D02*
G01*
X179274000Y-106451000D01*
X179274000Y-105349000D01*
X180076000Y-105349000D01*
X180076000Y-106451000D01*
X180076000Y-106451000D01*
G37*
G36*
X177271938Y-105531716D02*
G01*
X177292557Y-105537971D01*
X177311553Y-105548124D01*
X177328208Y-105561792D01*
X177341876Y-105578447D01*
X177352029Y-105597443D01*
X177358284Y-105618062D01*
X177361000Y-105645640D01*
X177361000Y-106154360D01*
X177358284Y-106181938D01*
X177352029Y-106202557D01*
X177341876Y-106221553D01*
X177328208Y-106238208D01*
X177311553Y-106251876D01*
X177292557Y-106262029D01*
X177271938Y-106268284D01*
X177244360Y-106271000D01*
X176785640Y-106271000D01*
X176758062Y-106268284D01*
X176737443Y-106262029D01*
X176718447Y-106251876D01*
X176701792Y-106238208D01*
X176688124Y-106221553D01*
X176677971Y-106202557D01*
X176671716Y-106181938D01*
X176669000Y-106154360D01*
X176669000Y-105645640D01*
X176671716Y-105618062D01*
X176677971Y-105597443D01*
X176688124Y-105578447D01*
X176701792Y-105561792D01*
X176718447Y-105548124D01*
X176737443Y-105537971D01*
X176758062Y-105531716D01*
X176785640Y-105529000D01*
X177244360Y-105529000D01*
X177271938Y-105531716D01*
X177271938Y-105531716D01*
G37*
G36*
X176301938Y-105531716D02*
G01*
X176322557Y-105537971D01*
X176341553Y-105548124D01*
X176358208Y-105561792D01*
X176371876Y-105578447D01*
X176382029Y-105597443D01*
X176388284Y-105618062D01*
X176391000Y-105645640D01*
X176391000Y-106154360D01*
X176388284Y-106181938D01*
X176382029Y-106202557D01*
X176371876Y-106221553D01*
X176358208Y-106238208D01*
X176341553Y-106251876D01*
X176322557Y-106262029D01*
X176301938Y-106268284D01*
X176274360Y-106271000D01*
X175815640Y-106271000D01*
X175788062Y-106268284D01*
X175767443Y-106262029D01*
X175748447Y-106251876D01*
X175731792Y-106238208D01*
X175718124Y-106221553D01*
X175707971Y-106202557D01*
X175701716Y-106181938D01*
X175699000Y-106154360D01*
X175699000Y-105645640D01*
X175701716Y-105618062D01*
X175707971Y-105597443D01*
X175718124Y-105578447D01*
X175731792Y-105561792D01*
X175748447Y-105548124D01*
X175767443Y-105537971D01*
X175788062Y-105531716D01*
X175815640Y-105529000D01*
X176274360Y-105529000D01*
X176301938Y-105531716D01*
X176301938Y-105531716D01*
G37*
G36*
X182781938Y-105156716D02*
G01*
X182802557Y-105162971D01*
X182821553Y-105173124D01*
X182838208Y-105186792D01*
X182851876Y-105203447D01*
X182862029Y-105222443D01*
X182868284Y-105243062D01*
X182871000Y-105270640D01*
X182871000Y-105729360D01*
X182868284Y-105756938D01*
X182862029Y-105777557D01*
X182851876Y-105796553D01*
X182838208Y-105813208D01*
X182821553Y-105826876D01*
X182802557Y-105837029D01*
X182781938Y-105843284D01*
X182754360Y-105846000D01*
X182245640Y-105846000D01*
X182218062Y-105843284D01*
X182197443Y-105837029D01*
X182178447Y-105826876D01*
X182161792Y-105813208D01*
X182148124Y-105796553D01*
X182137971Y-105777557D01*
X182131716Y-105756938D01*
X182129000Y-105729360D01*
X182129000Y-105270640D01*
X182131716Y-105243062D01*
X182137971Y-105222443D01*
X182148124Y-105203447D01*
X182161792Y-105186792D01*
X182178447Y-105173124D01*
X182197443Y-105162971D01*
X182218062Y-105156716D01*
X182245640Y-105154000D01*
X182754360Y-105154000D01*
X182781938Y-105156716D01*
X182781938Y-105156716D01*
G37*
G36*
X184226000Y-105526000D02*
G01*
X183574000Y-105526000D01*
X183574000Y-104474000D01*
X184226000Y-104474000D01*
X184226000Y-105526000D01*
X184226000Y-105526000D01*
G37*
G36*
X175851000Y-102901000D02*
G01*
X173845999Y-102901000D01*
X173821613Y-102903402D01*
X173798164Y-102910515D01*
X173776553Y-102922066D01*
X173757611Y-102937611D01*
X173742066Y-102956553D01*
X173730515Y-102978164D01*
X173723402Y-103001613D01*
X173721000Y-103025999D01*
X173721000Y-104551000D01*
X172619000Y-104551000D01*
X172619000Y-101799000D01*
X175851000Y-101799000D01*
X175851000Y-102901000D01*
X175851000Y-102901000D01*
G37*
G36*
X187181000Y-104551000D02*
G01*
X186079000Y-104551000D01*
X186079000Y-103025999D01*
X186076598Y-103001613D01*
X186069485Y-102978164D01*
X186057934Y-102956553D01*
X186042389Y-102937611D01*
X186023447Y-102922066D01*
X186001836Y-102910515D01*
X185978387Y-102903402D01*
X185954001Y-102901000D01*
X183949000Y-102901000D01*
X183949000Y-101799000D01*
X187181000Y-101799000D01*
X187181000Y-104551000D01*
X187181000Y-104551000D01*
G37*
G36*
X170031560Y-102199064D02*
G01*
X170183027Y-102229193D01*
X170397045Y-102317842D01*
X170397046Y-102317843D01*
X170589654Y-102446539D01*
X170753461Y-102610346D01*
X170839258Y-102738751D01*
X170882158Y-102802955D01*
X170970807Y-103016973D01*
X171016000Y-103244174D01*
X171016000Y-103475826D01*
X170970807Y-103703027D01*
X170882158Y-103917045D01*
X170882157Y-103917046D01*
X170753461Y-104109654D01*
X170589654Y-104273461D01*
X170461249Y-104359258D01*
X170397045Y-104402158D01*
X170183027Y-104490807D01*
X170031560Y-104520936D01*
X169955827Y-104536000D01*
X169724173Y-104536000D01*
X169648440Y-104520936D01*
X169496973Y-104490807D01*
X169282955Y-104402158D01*
X169218751Y-104359258D01*
X169090346Y-104273461D01*
X168926539Y-104109654D01*
X168797843Y-103917046D01*
X168797842Y-103917045D01*
X168709193Y-103703027D01*
X168664000Y-103475826D01*
X168664000Y-103244174D01*
X168709193Y-103016973D01*
X168797842Y-102802955D01*
X168840742Y-102738751D01*
X168926539Y-102610346D01*
X169090346Y-102446539D01*
X169282954Y-102317843D01*
X169282955Y-102317842D01*
X169496973Y-102229193D01*
X169648440Y-102199064D01*
X169724173Y-102184000D01*
X169955827Y-102184000D01*
X170031560Y-102199064D01*
X170031560Y-102199064D01*
G37*
G36*
X164951560Y-102199064D02*
G01*
X165103027Y-102229193D01*
X165317045Y-102317842D01*
X165317046Y-102317843D01*
X165509654Y-102446539D01*
X165673461Y-102610346D01*
X165759258Y-102738751D01*
X165802158Y-102802955D01*
X165890807Y-103016973D01*
X165936000Y-103244174D01*
X165936000Y-103475826D01*
X165890807Y-103703027D01*
X165802158Y-103917045D01*
X165802157Y-103917046D01*
X165673461Y-104109654D01*
X165509654Y-104273461D01*
X165381249Y-104359258D01*
X165317045Y-104402158D01*
X165103027Y-104490807D01*
X164951560Y-104520936D01*
X164875827Y-104536000D01*
X164644173Y-104536000D01*
X164568440Y-104520936D01*
X164416973Y-104490807D01*
X164202955Y-104402158D01*
X164138751Y-104359258D01*
X164010346Y-104273461D01*
X163846539Y-104109654D01*
X163717843Y-103917046D01*
X163717842Y-103917045D01*
X163629193Y-103703027D01*
X163584000Y-103475826D01*
X163584000Y-103244174D01*
X163629193Y-103016973D01*
X163717842Y-102802955D01*
X163760742Y-102738751D01*
X163846539Y-102610346D01*
X164010346Y-102446539D01*
X164202954Y-102317843D01*
X164202955Y-102317842D01*
X164416973Y-102229193D01*
X164568440Y-102199064D01*
X164644173Y-102184000D01*
X164875827Y-102184000D01*
X164951560Y-102199064D01*
X164951560Y-102199064D01*
G37*
G36*
X194981560Y-101774064D02*
G01*
X195133027Y-101804193D01*
X195347045Y-101892842D01*
X195347046Y-101892843D01*
X195539654Y-102021539D01*
X195703461Y-102185346D01*
X195789258Y-102313751D01*
X195832158Y-102377955D01*
X195920807Y-102591973D01*
X195966000Y-102819174D01*
X195966000Y-103050826D01*
X195920807Y-103278027D01*
X195832158Y-103492045D01*
X195832157Y-103492046D01*
X195703461Y-103684654D01*
X195539654Y-103848461D01*
X195437010Y-103917045D01*
X195347045Y-103977158D01*
X195133027Y-104065807D01*
X194981560Y-104095936D01*
X194905827Y-104111000D01*
X194674173Y-104111000D01*
X194598440Y-104095936D01*
X194446973Y-104065807D01*
X194232955Y-103977158D01*
X194142990Y-103917045D01*
X194040346Y-103848461D01*
X193876539Y-103684654D01*
X193747843Y-103492046D01*
X193747842Y-103492045D01*
X193659193Y-103278027D01*
X193614000Y-103050826D01*
X193614000Y-102819174D01*
X193659193Y-102591973D01*
X193747842Y-102377955D01*
X193790742Y-102313751D01*
X193876539Y-102185346D01*
X194040346Y-102021539D01*
X194232954Y-101892843D01*
X194232955Y-101892842D01*
X194446973Y-101804193D01*
X194598440Y-101774064D01*
X194674173Y-101759000D01*
X194905827Y-101759000D01*
X194981560Y-101774064D01*
X194981560Y-101774064D01*
G37*
G36*
X189901560Y-101774064D02*
G01*
X190053027Y-101804193D01*
X190267045Y-101892842D01*
X190267046Y-101892843D01*
X190459654Y-102021539D01*
X190623461Y-102185346D01*
X190709258Y-102313751D01*
X190752158Y-102377955D01*
X190840807Y-102591973D01*
X190886000Y-102819174D01*
X190886000Y-103050826D01*
X190840807Y-103278027D01*
X190752158Y-103492045D01*
X190752157Y-103492046D01*
X190623461Y-103684654D01*
X190459654Y-103848461D01*
X190357010Y-103917045D01*
X190267045Y-103977158D01*
X190053027Y-104065807D01*
X189901560Y-104095936D01*
X189825827Y-104111000D01*
X189594173Y-104111000D01*
X189518440Y-104095936D01*
X189366973Y-104065807D01*
X189152955Y-103977158D01*
X189062990Y-103917045D01*
X188960346Y-103848461D01*
X188796539Y-103684654D01*
X188667843Y-103492046D01*
X188667842Y-103492045D01*
X188579193Y-103278027D01*
X188534000Y-103050826D01*
X188534000Y-102819174D01*
X188579193Y-102591973D01*
X188667842Y-102377955D01*
X188710742Y-102313751D01*
X188796539Y-102185346D01*
X188960346Y-102021539D01*
X189152954Y-101892843D01*
X189152955Y-101892842D01*
X189366973Y-101804193D01*
X189518440Y-101774064D01*
X189594173Y-101759000D01*
X189825827Y-101759000D01*
X189901560Y-101774064D01*
X189901560Y-101774064D01*
G37*
G36*
X181851000Y-102901000D02*
G01*
X177949000Y-102901000D01*
X177949000Y-101799000D01*
X181851000Y-101799000D01*
X181851000Y-102901000D01*
X181851000Y-102901000D01*
G37*
M02*
