<?xml version="1.0" standalone="no"?>
 <!DOCTYPE svg PUBLIC "-//W3C//DTD SVG 1.1//EN" 
 "http://www.w3.org/Graphics/SVG/1.1/DTD/svg11.dtd"> 
<svg xmlns="http://www.w3.org/2000/svg" version="1.1" 
    width="7.19836cm" height="3.9878cm" viewBox="0 0 28340 15700 ">
<title>SVG Picture created as radio_module-F_SilkS.svg date 2019/11/07 15:18:23 </title>
  <desc>Picture generated by PCBNEW </desc>
<g style="fill:#000000; fill-opacity:1;stroke:#000000; stroke-opacity:1;
stroke-linecap:round; stroke-linejoin:round; "
 transform="translate(0 0) scale(1 1)">
</g>
<g style="fill:#000000; fill-opacity:0.0; 
stroke:#000000; stroke-width:-0.000393701; stroke-opacity:1; 
stroke-linecap:round; stroke-linejoin:round;">
</g>
<g style="fill:#008484; fill-opacity:0.0; 
stroke:#008484; stroke-width:-0.000393701; stroke-opacity:1; 
stroke-linecap:round; stroke-linejoin:round;">
</g>
<g style="fill:#008484; fill-opacity:0.0; 
stroke:#008484; stroke-width:47.2441; stroke-opacity:1; 
stroke-linecap:round; stroke-linejoin:round;">
<path d="M18065 1519
L18194 1519
" />
<path d="M18065 1118
L18194 1118
" />
<path d="M18940 2240
L18940 2053
" />
<path d="M16885 4108
L17072 4108
" />
<path d="M16885 3921
L16885 4108
" />
<path d="M16885 2053
L17072 2053
" />
<path d="M16885 2240
L16885 2053
" />
<path d="M18940 4108
L18753 4108
" />
<path d="M18940 3921
L18940 4108
" />
<path d="M15688 1525
L16988 1525
" />
<path d="M15688 423
L15688 1525
" />
<path d="M21066 832
L20167 832
" />
<path d="M21066 1411
L21066 832
" />
<path d="M20167 1411
L21066 1411
" />
</g>
<g style="fill:#008484; fill-opacity:0.0; 
stroke:#008484; stroke-width:59.0551; stroke-opacity:1; 
stroke-linecap:round; stroke-linejoin:round;">
<path d="M13907 8218
L13356 8218
" />
<path d="M13907 10226
L15541 10226
" />
<path d="M13907 8198
L15541 8198
" />
<path d="M13907 10226
L13907 10169
" />
<path d="M15541 10226
L15541 10169
" />
<path d="M15541 8198
L15541 8255
" />
<path d="M13907 8198
L13907 8218
" />
<path d="M13927 10856
L13375 10856
" />
<path d="M13927 12864
L15561 12864
" />
<path d="M13927 10836
L15561 10836
" />
<path d="M13927 12864
L13927 12807
" />
<path d="M15561 12864
L15561 12807
" />
<path d="M15561 10836
L15561 10893
" />
<path d="M13927 10836
L13927 10856
" />
<path d="M13917 2789
L13366 2789
" />
<path d="M13917 4797
L15551 4797
" />
<path d="M13917 2769
L15551 2769
" />
<path d="M13917 4797
L13917 4740
" />
<path d="M15551 4797
L15551 4740
" />
<path d="M15551 2769
L15551 2826
" />
<path d="M13917 2769
L13917 2789
" />
<path d="M13917 5472
L13366 5472
" />
<path d="M13917 7480
L15551 7480
" />
<path d="M13917 5452
L15551 5452
" />
<path d="M13917 7480
L13917 7423
" />
<path d="M15551 7480
L15551 7423
" />
<path d="M15551 5452
L15551 5509
" />
<path d="M13917 5452
L13917 5472
" />
</g>
<g style="fill:#008484; fill-opacity:0.0; 
stroke:#008484; stroke-width:47.2441; stroke-opacity:1; 
stroke-linecap:round; stroke-linejoin:round;">
<path d="M22682 1078
L22554 1078
" />
<path d="M22682 1480
L22554 1480
" />
<path d="M11767 13405
L11767 13533
" />
<path d="M12169 13405
L12169 13533
" />
<path d="M12090 1875
L12090 1746
" />
<path d="M11688 1875
L11688 1746
" />
<path d="M20267 12429
L17724 12429
" />
<path d="M20267 14212
L20267 13188
" />
<path d="M20267 14972
L17724 14972
" />
<path d="M17724 14212
L17724 13188
" />
<path d="M20267 14960
L20267 14972
" />
<path d="M20267 12429
L20267 12440
" />
<path d="M17724 12429
L17724 12440
" />
<path d="M17724 14972
L17724 14960
" />
<path d="M16413 13400
L16413 13528
" />
<path d="M16814 13400
L16814 13528
" />
<path d="M18318 11224
L18522 11224
" />
<path d="M18318 10665
L18522 10665
" />
<path d="M11397 12135
L11397 12765
" />
<path d="M4783 12135
L4783 12765
" />
<path d="M11397 9773
L11397 10403
" />
<path d="M4783 9773
L4783 10403
" />
<path d="M8956 14576
L9586 14576
" />
<path d="M8956 7962
L9586 7962
" />
<path d="M6594 14576
L7224 14576
" />
<path d="M6594 7962
L7224 7962
" />
<path d="M11366 4846
L11366 5476
" />
<path d="M4751 4846
L4751 5476
" />
<path d="M11366 2484
L11366 3114
" />
<path d="M4751 2484
L4751 3114
" />
<path d="M8925 7287
L9555 7287
" />
<path d="M8925 673
L9555 673
" />
<path d="M6562 7287
L7192 7287
" />
<path d="M6562 673
L7192 673
" />
<path d="M7082 12041
L7082 12326
" />
<path d="M9137 10271
L8852 10271
" />
<path d="M9137 10557
L9137 10271
" />
<path d="M9137 12326
L8852 12326
" />
<path d="M9137 12041
L9137 12326
" />
<path d="M7082 10271
L7368 10271
" />
<path d="M7082 10557
L7082 10271
" />
<path d="M7043 4757
L7043 5043
" />
<path d="M9098 2988
L8812 2988
" />
<path d="M9098 3273
L9098 2988
" />
<path d="M9098 5043
L8812 5043
" />
<path d="M9098 4757
L9098 5043
" />
<path d="M7043 2988
L7328 2988
" />
<path d="M7043 3273
L7043 2988
" />
<path d="M25511 3385
L27795 3385
" />
<path d="M25511 6259
L27795 6259
" />
<path d="M27795 6259
L27795 3385
" />
<path d="M25511 3385
L25511 6259
" />
<path d="M27795 11417
L25511 11417
" />
<path d="M27795 6968
L27795 11417
" />
<path d="M25511 6968
L27795 6968
" />
<path d="M25511 11417
L25511 6968
" />
<path d="M24251 6259
L25511 6259
" />
<path d="M24251 6968
L24251 6259
" />
<path d="M25511 6968
L24251 6968
" />
</g>
<g style="fill:#008484; fill-opacity:0.0; 
stroke:#008484; stroke-width:59.0551; stroke-opacity:1; 
stroke-linecap:round; stroke-linejoin:round;">
<path d="M20472 2834
L19783 2834
" />
<path d="M20472 5100
L22637 5100
" />
<path d="M20472 2576
L22637 2576
" />
<path d="M20472 5100
L20472 4805
" />
<path d="M22637 5100
L22637 4805
" />
<path d="M22637 2576
L22637 2872
" />
<path d="M20472 2576
L20472 2834
" />
</g>
<g style="fill:#008484; fill-opacity:0.0; 
stroke:#008484; stroke-width:47.2441; stroke-opacity:1; 
stroke-linecap:round; stroke-linejoin:round;">
<path d="M13346 2129
L14311 2129
" />
<path d="M14055 862
L13346 862
" />
<path d="M13602 14472
L14566 14472
" />
<path d="M14311 13204
L13602 13204
" />
<path d="M20000 10417
L17633 10417
" />
<path d="M19114 7732
L17633 7732
" />
<path d="M17633 10417
L17633 9921
" />
<path d="M17633 7732
L17633 8228
" />
<path d="M1673 8088
L2814 8088
" />
<path d="M1673 10730
L2814 10730
" />
<path d="M3564 8838
L3564 9980
" />
<path d="M923 8838
L923 9980
" />
<path d="M1633 805
L2775 805
" />
<path d="M1633 3446
L2775 3446
" />
<path d="M3525 1555
L3525 2696
" />
<path d="M883 1555
L883 2696
" />
<path d="M675 13635
L1574 13635
" />
<path d="M675 13057
L675 13635
" />
<path d="M1574 13057
L675 13057
" />
<path d="M635 6312
L1535 6312
" />
<path d="M635 5734
L635 6312
" />
<path d="M1535 5734
L635 5734
" />
<path d="M675 12454
L1574 12454
" />
<path d="M675 11875
L675 12454
" />
<path d="M1574 11875
L675 11875
" />
<path d="M635 5131
L1535 5131
" />
<path d="M635 4553
L635 5131
" />
<path d="M1535 4553
L635 4553
" />
<path d="M20729 6549
L21628 6549
" />
<path d="M20729 5970
L20729 6549
" />
<path d="M21628 5970
L20729 5970
" />
<path d="M1918 14316
L1018 14316
" />
<path d="M1918 14895
L1918 14316
" />
<path d="M1018 14895
L1918 14895
" />
<path d="M1805 6836
L905 6836
" />
<path d="M1805 7415
L1805 6836
" />
<path d="M905 7415
L1805 7415
" />
<path d="M22682 1905
L22554 1905
" />
<path d="M22682 2307
L22554 2307
" />
<path d="M18361 870
L18489 870
" />
<path d="M18361 468
L18489 468
" />
<path d="M12769 1875
L12769 1746
" />
<path d="M12368 1875
L12368 1746
" />
<path d="M12437 13405
L12437 13533
" />
<path d="M12838 13405
L12838 13533
" />
<path d="M14917 13700
L14917 13828
" />
<path d="M15318 13700
L15318 13828
" />
<path d="M14622 1294
L14622 1422
" />
<path d="M15023 1294
L15023 1422
" />
<path d="M20330 9251
L20330 9725
" />
<path d="M21047 9251
L21047 9725
" />
<path d="M20904 8409
L21378 8409
" />
<path d="M20904 7692
L21378 7692
" />
<path d="M22051 9725
L22051 9251
" />
<path d="M21334 9725
L21334 9251
" />
<path d="M22740 9276
L22740 9148
" />
<path d="M22338 9276
L22338 9148
" />
<path d="M22879 7830
L22750 7830
" />
<path d="M22879 8232
L22750 8232
" />
</g>
<g style="fill:#008484; fill-opacity:0.0; 
stroke:#008484; stroke-width:59.0551; stroke-opacity:1; 
stroke-linecap:round; stroke-linejoin:round;">
<path d="M18838 1614
L18825 1627
L18786 1640
L18759 1640
L18720 1627
L18694 1601
L18681 1574
L18667 1522
L18667 1482
L18681 1430
L18694 1404
L18720 1377
L18759 1364
L18786 1364
L18825 1377
L18838 1391
" />
<path d="M19087 1364
L18956 1364
L18943 1496
L18956 1482
L18982 1469
L19048 1469
L19074 1482
L19087 1496
L19101 1522
L19101 1587
L19087 1614
L19074 1627
L19048 1640
L18982 1640
L18956 1627
L18943 1614
" />
<path d="M19363 1640
L19206 1640
" />
<path d="M19284 1640
L19284 1364
L19258 1404
L19232 1430
L19206 1443
" />
<path d="M21273 1776
L21168 1626
" />
<path d="M21093 1776
L21093 1461
L21213 1461
L21243 1476
L21258 1491
L21273 1521
L21273 1566
L21258 1596
L21243 1611
L21213 1626
L21093 1626
" />
<path d="M21393 1491
L21408 1476
L21438 1461
L21513 1461
L21543 1476
L21558 1491
L21573 1521
L21573 1551
L21558 1596
L21378 1776
L21573 1776
" />
<path d="M21678 1461
L21888 1461
L21753 1776
" />
<path d="M20210 1776
L20105 1626
" />
<path d="M20030 1776
L20030 1461
L20150 1461
L20180 1476
L20195 1491
L20210 1521
L20210 1566
L20195 1596
L20180 1611
L20150 1626
L20030 1626
" />
<path d="M20330 1491
L20345 1476
L20375 1461
L20450 1461
L20480 1476
L20495 1491
L20510 1521
L20510 1551
L20495 1596
L20315 1776
L20510 1776
" />
<path d="M20780 1461
L20720 1461
L20690 1476
L20675 1491
L20645 1536
L20630 1596
L20630 1716
L20645 1746
L20660 1761
L20690 1776
L20750 1776
L20780 1761
L20795 1746
L20810 1716
L20810 1641
L20795 1611
L20780 1596
L20750 1581
L20690 1581
L20660 1596
L20645 1611
L20630 1641
" />
<path d="M18350 4374
L18350 4629
L18365 4659
L18380 4674
L18410 4689
L18470 4689
L18500 4674
L18515 4659
L18530 4629
L18530 4374
" />
<path d="M18845 4689
L18665 4689
" />
<path d="M18755 4689
L18755 4374
L18725 4419
L18695 4449
L18665 4464
" />
<path d="M18950 4374
L19145 4374
L19040 4494
L19085 4494
L19115 4509
L19130 4524
L19145 4554
L19145 4629
L19130 4659
L19115 4674
L19085 4689
L18995 4689
L18965 4674
L18950 4659
" />
<path d="M15775 1764
L15775 1914
" />
<path d="M15670 1599
L15775 1764
L15880 1599
" />
<path d="M15970 1629
L15985 1614
L16015 1599
L16090 1599
L16120 1614
L16135 1629
L16150 1659
L16150 1689
L16135 1734
L15955 1914
L16150 1914
" />
<path d="M19232 803
L19127 653
" />
<path d="M19052 803
L19052 488
L19172 488
L19202 503
L19217 518
L19232 548
L19232 593
L19217 623
L19202 638
L19172 653
L19052 653
" />
<path d="M19352 518
L19367 503
L19397 488
L19472 488
L19502 503
L19517 518
L19532 548
L19532 578
L19517 623
L19337 803
L19532 803
" />
<path d="M19817 488
L19667 488
L19652 638
L19667 623
L19697 608
L19772 608
L19802 623
L19817 638
L19832 668
L19832 743
L19817 773
L19802 788
L19772 803
L19697 803
L19667 788
L19652 773
" />
<path d="M20313 792
L20313 477
L20388 477
L20433 492
L20463 522
L20478 552
L20493 612
L20493 657
L20478 717
L20463 747
L20433 777
L20388 792
L20313 792
" />
<path d="M20673 612
L20643 597
L20628 582
L20613 552
L20613 537
L20628 507
L20643 492
L20673 477
L20733 477
L20763 492
L20778 507
L20793 537
L20793 552
L20778 582
L20763 597
L20733 612
L20673 612
L20643 627
L20628 642
L20613 672
L20613 732
L20628 762
L20643 777
L20673 792
L20733 792
L20763 777
L20778 762
L20793 732
L20793 672
L20778 642
L20763 627
L20733 612
" />
<path d="M22219 12658
L22219 12264
" />
<path d="M22219 12452
L22444 12452
" />
<path d="M22444 12658
L22444 12264
" />
<path d="M22838 12658
L22613 12658
" />
<path d="M22725 12658
L22725 12264
L22688 12320
L22650 12358
L22613 12377
" />
<path d="M14344 7966
L14329 7981
L14284 7996
L14254 7996
L14209 7981
L14179 7951
L14164 7921
L14149 7861
L14149 7816
L14164 7756
L14179 7726
L14209 7696
L14254 7681
L14284 7681
L14329 7696
L14344 7711
" />
<path d="M14629 7681
L14479 7681
L14464 7831
L14479 7816
L14509 7801
L14584 7801
L14614 7816
L14629 7831
L14644 7861
L14644 7936
L14629 7966
L14614 7981
L14584 7996
L14509 7996
L14479 7981
L14464 7966
" />
<path d="M14839 7681
L14869 7681
L14899 7696
L14914 7711
L14929 7741
L14944 7801
L14944 7876
L14929 7936
L14914 7966
L14899 7981
L14869 7996
L14839 7996
L14809 7981
L14794 7966
L14779 7936
L14764 7876
L14764 7801
L14779 7741
L14794 7711
L14809 7696
L14839 7681
" />
<path d="M14108 5269
L14093 5284
L14048 5299
L14018 5299
L13973 5284
L13943 5254
L13928 5224
L13913 5164
L13913 5119
L13928 5059
L13943 5029
L13973 5000
L14018 4985
L14048 4985
L14093 5000
L14108 5014
" />
<path d="M14378 5089
L14378 5299
" />
<path d="M14303 4970
L14228 5194
L14423 5194
" />
<path d="M14588 5119
L14558 5104
L14543 5089
L14528 5059
L14528 5044
L14543 5014
L14558 5000
L14588 4985
L14648 4985
L14678 5000
L14693 5014
L14708 5044
L14708 5059
L14693 5089
L14678 5104
L14648 5119
L14588 5119
L14558 5134
L14543 5149
L14528 5179
L14528 5239
L14543 5269
L14558 5284
L14588 5299
L14648 5299
L14678 5284
L14693 5269
L14708 5239
L14708 5179
L14693 5149
L14678 5134
L14648 5119
" />
<path d="M14502 10643
L14487 10658
L14442 10673
L14412 10673
L14367 10658
L14337 10628
L14322 10598
L14307 10538
L14307 10494
L14322 10434
L14337 10404
L14367 10374
L14412 10359
L14442 10359
L14487 10374
L14502 10389
" />
<path d="M14772 10464
L14772 10673
" />
<path d="M14697 10344
L14622 10568
L14817 10568
" />
<path d="M14952 10673
L15012 10673
L15042 10658
L15057 10643
L15087 10598
L15102 10538
L15102 10419
L15087 10389
L15072 10374
L15042 10359
L14982 10359
L14952 10374
L14937 10389
L14922 10419
L14922 10494
L14937 10523
L14952 10538
L14982 10553
L15042 10553
L15072 10538
L15087 10523
L15102 10494
" />
<path d="M14325 2592
L14310 2607
L14265 2622
L14235 2622
L14190 2607
L14160 2577
L14145 2547
L14130 2487
L14130 2442
L14145 2382
L14160 2352
L14190 2322
L14235 2307
L14265 2307
L14310 2322
L14325 2337
" />
<path d="M14595 2412
L14595 2622
" />
<path d="M14520 2292
L14445 2517
L14640 2517
" />
<path d="M14730 2307
L14940 2307
L14805 2622
" />
<path d="M17573 5832
L17588 5847
L17603 5892
L17603 5922
L17588 5967
L17558 5997
L17528 6012
L17468 6027
L17423 6027
L17363 6012
L17333 5997
L17303 5967
L17288 5922
L17288 5892
L17303 5847
L17318 5832
" />
<path d="M17393 5562
L17603 5562
" />
<path d="M17273 5637
L17498 5712
L17498 5517
" />
<path d="M17288 5262
L17288 5322
L17303 5352
L17318 5367
L17363 5397
L17423 5412
L17543 5412
L17573 5397
L17588 5382
L17603 5352
L17603 5292
L17588 5262
L17573 5247
L17543 5232
L17468 5232
L17438 5247
L17423 5262
L17408 5292
L17408 5352
L17423 5382
L17438 5397
L17468 5412
" />
<path d="M11751 12053
L11660 11922
" />
<path d="M11594 12053
L11594 11778
L11699 11778
L11725 11791
L11738 11804
L11751 11830
L11751 11870
L11738 11896
L11725 11909
L11699 11922
L11594 11922
" />
<path d="M11856 11804
L11870 11791
L11896 11778
L11961 11778
L11988 11791
L12001 11804
L12014 11830
L12014 11856
L12001 11896
L11843 12053
L12014 12053
" />
<path d="M12250 11870
L12250 12053
" />
<path d="M12185 11765
L12119 11961
L12290 11961
" />
<path d="M11732 11561
L11640 11430
" />
<path d="M11574 11561
L11574 11286
L11679 11286
L11706 11299
L11719 11312
L11732 11338
L11732 11377
L11719 11404
L11706 11417
L11679 11430
L11574 11430
" />
<path d="M11837 11312
L11850 11299
L11876 11286
L11942 11286
L11968 11299
L11981 11312
L11994 11338
L11994 11364
L11981 11404
L11824 11561
L11994 11561
" />
<path d="M12086 11286
L12257 11286
L12165 11391
L12204 11391
L12230 11404
L12244 11417
L12257 11443
L12257 11509
L12244 11535
L12230 11548
L12204 11561
L12125 11561
L12099 11548
L12086 11535
" />
<path d="M11785 9593
L11693 9461
" />
<path d="M11627 9593
L11627 9317
L11732 9317
L11759 9330
L11772 9343
L11785 9370
L11785 9409
L11772 9435
L11759 9448
L11732 9461
L11627 9461
" />
<path d="M11890 9343
L11903 9330
L11929 9317
L11995 9317
L12021 9330
L12034 9343
L12047 9370
L12047 9396
L12034 9435
L11877 9593
L12047 9593
" />
<path d="M12152 9343
L12166 9330
L12192 9317
L12257 9317
L12284 9330
L12297 9343
L12310 9370
L12310 9396
L12297 9435
L12139 9593
L12310 9593
" />
<path d="M11791 9120
L11699 8989
" />
<path d="M11633 9120
L11633 8845
L11738 8845
L11765 8858
L11778 8871
L11791 8897
L11791 8937
L11778 8963
L11765 8976
L11738 8989
L11633 8989
" />
<path d="M11896 8871
L11909 8858
L11935 8845
L12001 8845
L12027 8858
L12040 8871
L12053 8897
L12053 8923
L12040 8963
L11883 9120
L12053 9120
" />
<path d="M12316 9120
L12158 9120
" />
<path d="M12237 9120
L12237 8845
L12211 8884
L12185 8910
L12158 8923
" />
<path d="M11687 6855
L11582 6705
" />
<path d="M11507 6855
L11507 6540
L11627 6540
L11657 6555
L11672 6570
L11687 6600
L11687 6645
L11672 6675
L11657 6690
L11627 6705
L11507 6705
" />
<path d="M11807 6570
L11822 6555
L11852 6540
L11927 6540
L11957 6555
L11972 6570
L11987 6600
L11987 6630
L11972 6675
L11792 6855
L11987 6855
" />
<path d="M12182 6540
L12212 6540
L12242 6555
L12257 6570
L12272 6600
L12287 6660
L12287 6735
L12272 6795
L12257 6825
L12242 6840
L12212 6855
L12182 6855
L12152 6840
L12137 6825
L12122 6795
L12107 6735
L12107 6660
L12122 6600
L12137 6570
L12152 6555
L12182 6540
" />
<path d="M11687 6382
L11582 6232
" />
<path d="M11507 6382
L11507 6067
L11627 6067
L11657 6082
L11672 6097
L11687 6127
L11687 6172
L11672 6202
L11657 6217
L11627 6232
L11507 6232
" />
<path d="M11987 6382
L11807 6382
" />
<path d="M11897 6382
L11897 6067
L11867 6112
L11837 6142
L11807 6157
" />
<path d="M12137 6382
L12197 6382
L12227 6367
L12242 6352
L12272 6307
L12287 6247
L12287 6127
L12272 6097
L12257 6082
L12227 6067
L12167 6067
L12137 6082
L12122 6097
L12107 6127
L12107 6202
L12122 6232
L12137 6247
L12167 6262
L12227 6262
L12257 6247
L12272 6232
L12287 6202
" />
<path d="M11687 4177
L11582 4027
" />
<path d="M11507 4177
L11507 3862
L11627 3862
L11657 3877
L11672 3892
L11687 3922
L11687 3967
L11672 3997
L11657 4012
L11627 4027
L11507 4027
" />
<path d="M11987 4177
L11807 4177
" />
<path d="M11897 4177
L11897 3862
L11867 3907
L11837 3937
L11807 3952
" />
<path d="M12167 3997
L12137 3982
L12122 3967
L12107 3937
L12107 3922
L12122 3892
L12137 3877
L12167 3862
L12227 3862
L12257 3877
L12272 3892
L12287 3922
L12287 3937
L12272 3967
L12257 3982
L12227 3997
L12167 3997
L12137 4012
L12122 4027
L12107 4057
L12107 4117
L12122 4147
L12137 4162
L12167 4177
L12227 4177
L12257 4162
L12272 4147
L12287 4117
L12287 4057
L12272 4027
L12257 4012
L12227 3997
" />
<path d="M11687 3666
L11582 3516
" />
<path d="M11507 3666
L11507 3351
L11627 3351
L11657 3366
L11672 3381
L11687 3411
L11687 3456
L11672 3486
L11657 3501
L11627 3516
L11507 3516
" />
<path d="M11987 3666
L11807 3666
" />
<path d="M11897 3666
L11897 3351
L11867 3396
L11837 3426
L11807 3441
" />
<path d="M12092 3351
L12302 3351
L12167 3666
" />
<path d="M19551 2899
L19401 3004
" />
<path d="M19551 3079
L19236 3079
L19236 2959
L19251 2929
L19266 2914
L19296 2899
L19341 2899
L19371 2914
L19386 2929
L19401 2959
L19401 3079
" />
<path d="M19551 2599
L19551 2779
" />
<path d="M19551 2689
L19236 2689
L19281 2719
L19311 2749
L19326 2779
" />
<path d="M19266 2479
L19251 2464
L19236 2434
L19236 2359
L19251 2329
L19266 2314
L19296 2299
L19326 2299
L19371 2314
L19551 2494
L19551 2299
" />
<path d="M2975 13985
L2844 13797
" />
<path d="M2750 13985
L2750 13591
L2900 13591
L2937 13610
L2956 13628
L2975 13666
L2975 13722
L2956 13760
L2937 13778
L2900 13797
L2750 13797
" />
<path d="M3350 13985
L3125 13985
" />
<path d="M3237 13985
L3237 13591
L3200 13647
L3162 13685
L3125 13703
" />
<path d="M3725 13985
L3500 13985
" />
<path d="M3612 13985
L3612 13591
L3575 13647
L3537 13685
L3500 13703
" />
<path d="M2817 6662
L2686 6474
" />
<path d="M2592 6662
L2592 6268
L2742 6268
L2780 6287
L2799 6306
L2817 6343
L2817 6399
L2799 6437
L2780 6456
L2742 6474
L2592 6474
" />
<path d="M3192 6662
L2967 6662
" />
<path d="M3080 6662
L3080 6268
L3042 6324
L3005 6362
L2967 6381
" />
<path d="M3436 6268
L3473 6268
L3511 6287
L3530 6306
L3548 6343
L3567 6418
L3567 6512
L3548 6587
L3530 6624
L3511 6643
L3473 6662
L3436 6662
L3398 6643
L3380 6624
L3361 6587
L3342 6512
L3342 6418
L3361 6343
L3380 6306
L3398 6287
L3436 6268
" />
<path d="M3162 12843
L3031 12655
" />
<path d="M2937 12843
L2937 12449
L3087 12449
L3125 12468
L3143 12487
L3162 12524
L3162 12580
L3143 12618
L3125 12637
L3087 12655
L2937 12655
" />
<path d="M3350 12843
L3425 12843
L3462 12824
L3481 12805
L3518 12749
L3537 12674
L3537 12524
L3518 12487
L3500 12468
L3462 12449
L3387 12449
L3350 12468
L3331 12487
L3312 12524
L3312 12618
L3331 12655
L3350 12674
L3387 12693
L3462 12693
L3500 12674
L3518 12655
L3537 12618
" />
<path d="M3044 5481
L2913 5293
" />
<path d="M2819 5481
L2819 5087
L2969 5087
L3007 5106
L3025 5125
L3044 5162
L3044 5218
L3025 5256
L3007 5275
L2969 5293
L2819 5293
" />
<path d="M3269 5256
L3232 5237
L3213 5218
L3194 5181
L3194 5162
L3213 5125
L3232 5106
L3269 5087
L3344 5087
L3382 5106
L3400 5125
L3419 5162
L3419 5181
L3400 5218
L3382 5237
L3344 5256
L3269 5256
L3232 5275
L3213 5293
L3194 5331
L3194 5406
L3213 5443
L3232 5462
L3269 5481
L3344 5481
L3382 5462
L3400 5443
L3419 5406
L3419 5331
L3400 5293
L3382 5275
L3344 5256
" />
<path d="M23058 6556
L22927 6368
" />
<path d="M22833 6556
L22833 6162
L22983 6162
L23020 6181
L23039 6199
L23058 6237
L23058 6293
L23039 6331
L23020 6349
L22983 6368
L22833 6368
" />
<path d="M23189 6162
L23452 6162
L23283 6556
" />
<path d="M12841 14670
L12736 14520
" />
<path d="M12661 14670
L12661 14355
L12781 14355
L12811 14370
L12826 14385
L12841 14415
L12841 14460
L12826 14490
L12811 14505
L12781 14520
L12661 14520
" />
<path d="M13111 14355
L13051 14355
L13021 14370
L13006 14385
L12976 14430
L12961 14490
L12961 14610
L12976 14640
L12991 14655
L13021 14670
L13081 14670
L13111 14655
L13126 14640
L13141 14610
L13141 14535
L13126 14505
L13111 14490
L13081 14475
L13021 14475
L12991 14490
L12976 14505
L12961 14535
" />
<path d="M12171 1225
L12066 1075
" />
<path d="M11991 1225
L11991 910
L12111 910
L12141 925
L12156 940
L12171 970
L12171 1015
L12156 1045
L12141 1060
L12111 1075
L11991 1075
" />
<path d="M12456 910
L12306 910
L12291 1060
L12306 1045
L12336 1030
L12411 1030
L12441 1045
L12456 1060
L12471 1090
L12471 1165
L12456 1195
L12441 1210
L12411 1225
L12336 1225
L12306 1210
L12291 1195
" />
<path d="M3871 14745
L3740 14557
" />
<path d="M3646 14745
L3646 14351
L3796 14351
L3833 14370
L3852 14388
L3871 14426
L3871 14482
L3852 14520
L3833 14538
L3796 14557
L3646 14557
" />
<path d="M4208 14482
L4208 14745
" />
<path d="M4115 14332
L4021 14613
L4265 14613
" />
<path d="M3871 7461
L3740 7274
" />
<path d="M3646 7461
L3646 7067
L3796 7067
L3833 7086
L3852 7105
L3871 7142
L3871 7199
L3852 7236
L3833 7255
L3796 7274
L3646 7274
" />
<path d="M4002 7067
L4246 7067
L4115 7217
L4171 7217
L4208 7236
L4227 7255
L4246 7292
L4246 7386
L4227 7424
L4208 7442
L4171 7461
L4058 7461
L4021 7442
L4002 7424
" />
<path d="M15456 10319
L15456 10574
L15471 10604
L15486 10619
L15516 10634
L15576 10634
L15606 10619
L15621 10604
L15636 10574
L15636 10319
" />
<path d="M15951 10634
L15771 10634
" />
<path d="M15861 10634
L15861 10319
L15831 10364
L15801 10394
L15771 10409
" />
<path d="M16071 10349
L16086 10334
L16116 10319
L16191 10319
L16221 10334
L16236 10349
L16251 10379
L16251 10409
L16236 10454
L16056 10634
L16251 10634
" />
<path d="M15476 12957
L15476 13212
L15491 13242
L15506 13257
L15536 13272
L15596 13272
L15626 13257
L15641 13242
L15656 13212
L15656 12957
" />
<path d="M15971 13272
L15791 13272
" />
<path d="M15881 13272
L15881 12957
L15851 13002
L15821 13032
L15791 13047
" />
<path d="M16271 13272
L16091 13272
" />
<path d="M16181 13272
L16181 12957
L16151 13002
L16121 13032
L16091 13047
" />
<path d="M15308 4929
L15308 5184
L15323 5214
L15338 5229
L15368 5244
L15428 5244
L15458 5229
L15473 5214
L15488 5184
L15488 4929
" />
<path d="M15803 5244
L15623 5244
" />
<path d="M15713 5244
L15713 4929
L15683 4974
L15653 5004
L15623 5019
" />
<path d="M15998 4929
L16028 4929
L16058 4944
L16073 4959
L16088 4989
L16103 5049
L16103 5124
L16088 5184
L16073 5214
L16058 5229
L16028 5244
L15998 5244
L15968 5229
L15953 5214
L15938 5184
L15923 5124
L15923 5049
L15938 4989
L15953 4959
L15968 4944
L15998 4929
" />
<path d="M15596 7632
L15596 7887
L15611 7917
L15626 7932
L15656 7947
L15716 7947
L15746 7932
L15761 7917
L15776 7887
L15776 7632
" />
<path d="M15941 7947
L16001 7947
L16031 7932
L16046 7917
L16076 7872
L16091 7812
L16091 7692
L16076 7662
L16061 7647
L16031 7632
L15971 7632
L15941 7647
L15926 7662
L15911 7692
L15911 7767
L15926 7797
L15941 7812
L15971 7827
L16031 7827
L16061 7812
L16076 7797
L16091 7767
" />
<path d="M23439 1422
L23334 1272
" />
<path d="M23259 1422
L23259 1107
L23379 1107
L23409 1122
L23424 1137
L23439 1167
L23439 1212
L23424 1242
L23409 1257
L23379 1272
L23259 1272
" />
<path d="M23739 1422
L23559 1422
" />
<path d="M23649 1422
L23649 1107
L23619 1152
L23589 1182
L23559 1197
" />
<path d="M24009 1107
L23949 1107
L23919 1122
L23904 1137
L23874 1182
L23859 1242
L23859 1362
L23874 1392
L23889 1407
L23919 1422
L23979 1422
L24009 1407
L24024 1392
L24039 1362
L24039 1287
L24024 1257
L24009 1242
L23979 1227
L23919 1227
L23889 1242
L23874 1257
L23859 1287
" />
<path d="M16884 1785
L16869 1800
L16824 1815
L16794 1815
L16749 1800
L16719 1770
L16704 1740
L16689 1680
L16689 1635
L16704 1575
L16719 1545
L16749 1515
L16794 1500
L16824 1500
L16869 1515
L16884 1530
" />
<path d="M17154 1605
L17154 1815
" />
<path d="M17079 1485
L17004 1710
L17199 1710
" />
<path d="M17469 1500
L17319 1500
L17304 1650
L17319 1635
L17349 1620
L17424 1620
L17454 1635
L17469 1650
L17484 1680
L17484 1755
L17469 1785
L17454 1800
L17424 1815
L17349 1815
L17319 1800
L17304 1785
" />
<path d="M15613 2595
L15631 2614
L15650 2670
L15650 2708
L15631 2764
L15594 2801
L15556 2820
L15481 2839
L15425 2839
L15350 2820
L15313 2801
L15275 2764
L15256 2708
L15256 2670
L15275 2614
L15294 2595
" />
<path d="M15388 2258
L15650 2258
" />
<path d="M15238 2351
L15519 2445
L15519 2201
" />
<path d="M15388 1883
L15650 1883
" />
<path d="M15238 1976
L15519 2070
L15519 1826
" />
<path d="M12080 12722
L12095 12737
L12110 12782
L12110 12812
L12095 12857
L12065 12887
L12035 12902
L11976 12917
L11931 12917
L11871 12902
L11841 12887
L11811 12857
L11796 12812
L11796 12782
L11811 12737
L11826 12722
" />
<path d="M11901 12452
L12110 12452
" />
<path d="M11781 12527
L12005 12602
L12005 12407
" />
<path d="M11796 12317
L11796 12122
L11916 12227
L11916 12182
L11931 12152
L11946 12137
L11976 12122
L12050 12122
L12080 12137
L12095 12152
L12110 12182
L12110 12272
L12095 12302
L12080 12317
" />
<path d="M12021 3037
L12036 3052
L12051 3097
L12051 3127
L12036 3172
L12006 3202
L11976 3217
L11916 3232
L11871 3232
L11811 3217
L11781 3202
L11751 3172
L11736 3127
L11736 3097
L11751 3052
L11766 3037
" />
<path d="M11841 2767
L12051 2767
" />
<path d="M11721 2842
L11946 2917
L11946 2722
" />
<path d="M11766 2617
L11751 2602
L11736 2572
L11736 2497
L11751 2467
L11766 2452
L11796 2437
L11826 2437
L11871 2452
L12051 2632
L12051 2437
" />
<path d="M18502 12305
L18558 12323
L18652 12323
L18690 12305
L18708 12286
L18727 12248
L18727 12211
L18708 12173
L18690 12155
L18652 12136
L18577 12117
L18540 12098
L18521 12080
L18502 12042
L18502 12005
L18521 11967
L18540 11948
L18577 11930
L18671 11930
L18727 11948
" />
<path d="M18858 11930
L18952 12323
L19027 12042
L19102 12323
L19196 11930
" />
<path d="M19552 12323
L19327 12323
" />
<path d="M19440 12323
L19440 11930
L19402 11986
L19365 12023
L19327 12042
" />
<path d="M16736 12643
L16586 12748
" />
<path d="M16736 12823
L16422 12823
L16422 12703
L16437 12673
L16452 12658
L16482 12643
L16526 12643
L16556 12658
L16571 12673
L16586 12703
L16586 12823
" />
<path d="M16736 12343
L16736 12523
" />
<path d="M16736 12433
L16422 12433
L16467 12463
L16497 12493
L16511 12523
" />
<path d="M16422 12058
L16422 12208
L16571 12223
L16556 12208
L16541 12178
L16541 12103
L16556 12073
L16571 12058
L16601 12043
L16676 12043
L16706 12058
L16721 12073
L16736 12103
L16736 12178
L16721 12208
L16706 12223
" />
<path d="M9729 11836
L9579 11941
" />
<path d="M9729 12016
L9414 12016
L9414 11896
L9429 11866
L9444 11851
L9474 11836
L9519 11836
L9549 11851
L9564 11866
L9579 11896
L9579 12016
" />
<path d="M9729 11536
L9729 11716
" />
<path d="M9729 11626
L9414 11626
L9459 11656
L9489 11686
L9504 11716
" />
<path d="M9519 11266
L9729 11266
" />
<path d="M9399 11341
L9624 11416
L9624 11221
" />
<path d="M6792 13894
L6604 14026
" />
<path d="M6792 14119
L6398 14119
L6398 13969
L6417 13932
L6436 13913
L6473 13894
L6529 13894
L6567 13913
L6586 13932
L6604 13969
L6604 14119
" />
<path d="M6792 13519
L6792 13744
" />
<path d="M6792 13632
L6398 13632
L6454 13669
L6492 13707
L6511 13744
" />
<path d="M6398 13388
L6398 13144
L6548 13276
L6548 13219
L6567 13182
L6586 13163
L6623 13144
L6717 13144
L6754 13163
L6773 13182
L6792 13219
L6792 13332
L6773 13369
L6754 13388
" />
<path d="M10636 4246
L10531 4096
" />
<path d="M10456 4246
L10456 3931
L10576 3931
L10606 3946
L10621 3961
L10636 3991
L10636 4036
L10621 4066
L10606 4081
L10576 4096
L10456 4096
" />
<path d="M10756 3961
L10771 3946
L10801 3931
L10876 3931
L10906 3946
L10921 3961
L10936 3991
L10936 4021
L10921 4066
L10741 4246
L10936 4246
" />
<path d="M6674 6128
L6486 6259
" />
<path d="M6674 6353
L6280 6353
L6280 6203
L6299 6166
L6317 6147
L6355 6128
L6411 6128
L6449 6147
L6467 6166
L6486 6203
L6486 6353
" />
<path d="M6674 5753
L6674 5978
" />
<path d="M6674 5866
L6280 5866
L6336 5903
L6374 5941
L6392 5978
" />
<path d="M9885 13333
L9780 13333
" />
<path d="M9780 13498
L9780 13183
L9930 13183
" />
<path d="M10155 13333
L10200 13348
L10215 13363
L10230 13393
L10230 13438
L10215 13468
L10200 13483
L10170 13498
L10050 13498
L10050 13183
L10155 13183
L10185 13198
L10200 13213
L10215 13243
L10215 13273
L10200 13303
L10185 13318
L10155 13333
L10050 13333
" />
<path d="M10515 13183
L10365 13183
L10350 13333
L10365 13318
L10395 13303
L10470 13303
L10500 13318
L10515 13333
L10530 13363
L10530 13438
L10515 13468
L10500 13483
L10470 13498
L10395 13498
L10365 13483
L10350 13468
" />
<path d="M9934 13914
L9829 13914
" />
<path d="M9829 14079
L9829 13764
L9979 13764
" />
<path d="M10204 13914
L10249 13929
L10264 13944
L10279 13974
L10279 14019
L10264 14049
L10249 14064
L10219 14079
L10099 14079
L10099 13764
L10204 13764
L10234 13779
L10249 13794
L10264 13824
L10264 13854
L10249 13884
L10234 13899
L10204 13914
L10099 13914
" />
<path d="M10549 13869
L10549 14079
" />
<path d="M10474 13749
L10399 13974
L10594 13974
" />
<path d="M18123 11493
L18018 11493
" />
<path d="M18018 11658
L18018 11343
L18168 11343
" />
<path d="M18393 11493
L18438 11508
L18453 11523
L18468 11553
L18468 11598
L18453 11628
L18438 11643
L18408 11658
L18288 11658
L18288 11343
L18393 11343
L18423 11358
L18438 11373
L18453 11403
L18453 11433
L18438 11463
L18423 11478
L18393 11493
L18288 11493
" />
<path d="M18573 11343
L18768 11343
L18663 11463
L18708 11463
L18738 11478
L18753 11493
L18768 11523
L18768 11598
L18753 11628
L18738 11643
L18708 11658
L18618 11658
L18588 11643
L18573 11628
" />
<path d="M10406 5833
L10301 5833
" />
<path d="M10301 5998
L10301 5683
L10451 5683
" />
<path d="M10676 5833
L10721 5848
L10736 5863
L10751 5893
L10751 5938
L10736 5968
L10721 5983
L10691 5998
L10571 5998
L10571 5683
L10676 5683
L10706 5698
L10721 5713
L10736 5743
L10736 5773
L10721 5803
L10706 5818
L10676 5833
L10571 5833
" />
<path d="M10871 5713
L10886 5698
L10916 5683
L10991 5683
L11021 5698
L11036 5713
L11051 5743
L11051 5773
L11036 5818
L10856 5998
L11051 5998
" />
<path d="M9767 6581
L9662 6581
" />
<path d="M9662 6746
L9662 6431
L9812 6431
" />
<path d="M10037 6581
L10082 6596
L10097 6611
L10112 6641
L10112 6686
L10097 6716
L10082 6731
L10052 6746
L9932 6746
L9932 6431
L10037 6431
L10067 6446
L10082 6461
L10097 6491
L10097 6521
L10082 6551
L10067 6566
L10037 6581
L9932 6581
" />
<path d="M10411 6746
L10232 6746
" />
<path d="M10321 6746
L10321 6431
L10291 6476
L10261 6506
L10232 6521
" />
<path d="M10722 12336
L10707 12351
L10662 12366
L10632 12366
L10587 12351
L10557 12321
L10542 12291
L10527 12231
L10527 12186
L10542 12126
L10557 12096
L10587 12066
L10632 12051
L10662 12051
L10707 12066
L10722 12081
" />
<path d="M10992 12156
L10992 12366
" />
<path d="M10917 12036
L10842 12261
L11037 12261
" />
<path d="M11322 12366
L11142 12366
" />
<path d="M11232 12366
L11232 12051
L11202 12096
L11172 12126
L11142 12141
" />
<path d="M10752 12740
L10737 12755
L10692 12770
L10662 12770
L10617 12755
L10587 12725
L10572 12695
L10557 12635
L10557 12590
L10572 12530
L10587 12500
L10617 12470
L10662 12455
L10692 12455
L10737 12470
L10752 12485
" />
<path d="M11022 12560
L11022 12770
" />
<path d="M10947 12440
L10872 12665
L11067 12665
" />
<path d="M11247 12455
L11277 12455
L11307 12470
L11322 12485
L11337 12515
L11352 12575
L11352 12650
L11337 12710
L11322 12740
L11307 12755
L11277 12770
L11247 12770
L11217 12755
L11202 12740
L11187 12710
L11172 12650
L11172 12575
L11187 12515
L11202 12485
L11217 12470
L11247 12455
" />
<path d="M5573 12379
L5592 12397
L5611 12454
L5611 12491
L5592 12547
L5554 12585
L5517 12604
L5442 12622
L5386 12622
L5311 12604
L5273 12585
L5236 12547
L5217 12491
L5217 12454
L5236 12397
L5254 12379
" />
<path d="M5217 12247
L5217 12004
L5367 12135
L5367 12079
L5386 12041
L5404 12022
L5442 12004
L5536 12004
L5573 12022
L5592 12041
L5611 12079
L5611 12191
L5592 12229
L5573 12247
" />
<path d="M5611 11816
L5611 11741
L5592 11704
L5573 11685
L5517 11647
L5442 11629
L5292 11629
L5254 11647
L5236 11666
L5217 11704
L5217 11779
L5236 11816
L5254 11835
L5292 11854
L5386 11854
L5423 11835
L5442 11816
L5461 11779
L5461 11704
L5442 11666
L5423 11647
L5386 11629
" />
<path d="M9964 9413
L9949 9428
L9904 9443
L9874 9443
L9829 9428
L9799 9398
L9784 9368
L9769 9308
L9769 9263
L9784 9203
L9799 9173
L9829 9143
L9874 9128
L9904 9128
L9949 9143
L9964 9158
" />
<path d="M10069 9128
L10264 9128
L10159 9248
L10204 9248
L10234 9263
L10249 9278
L10264 9308
L10264 9383
L10249 9413
L10234 9428
L10204 9443
L10114 9443
L10084 9428
L10069 9413
" />
<path d="M10444 9263
L10414 9248
L10399 9233
L10384 9203
L10384 9188
L10399 9158
L10414 9143
L10444 9128
L10504 9128
L10534 9143
L10549 9158
L10564 9188
L10564 9203
L10549 9233
L10534 9248
L10504 9263
L10444 9263
L10414 9278
L10399 9293
L10384 9323
L10384 9383
L10399 9413
L10414 9428
L10444 9443
L10504 9443
L10534 9428
L10549 9413
L10564 9383
L10564 9323
L10549 9293
L10534 9278
L10504 9263
" />
<path d="M6046 12379
L6064 12397
L6083 12454
L6083 12491
L6064 12547
L6027 12585
L5989 12604
L5914 12622
L5858 12622
L5783 12604
L5746 12585
L5708 12547
L5689 12491
L5689 12454
L5708 12397
L5727 12379
" />
<path d="M5689 12247
L5689 12004
L5839 12135
L5839 12079
L5858 12041
L5877 12022
L5914 12004
L6008 12004
L6046 12022
L6064 12041
L6083 12079
L6083 12191
L6064 12229
L6046 12247
" />
<path d="M5689 11872
L5689 11610
L6083 11779
" />
<path d="M9055 9423
L9040 9438
L8995 9453
L8965 9453
L8920 9438
L8890 9408
L8875 9378
L8860 9318
L8860 9273
L8875 9213
L8890 9183
L8920 9153
L8965 9138
L8995 9138
L9040 9153
L9055 9168
" />
<path d="M9160 9138
L9355 9138
L9250 9258
L9295 9258
L9325 9273
L9340 9288
L9355 9318
L9355 9393
L9340 9423
L9325 9438
L9295 9453
L9205 9453
L9175 9438
L9160 9423
" />
<path d="M9625 9138
L9565 9138
L9535 9153
L9520 9168
L9490 9213
L9475 9273
L9475 9393
L9490 9423
L9505 9438
L9535 9453
L9595 9453
L9625 9438
L9640 9423
L9655 9393
L9655 9318
L9640 9288
L9625 9273
L9595 9258
L9535 9258
L9505 9273
L9490 9288
L9475 9318
" />
<path d="M10000 11840
L9986 11853
L9947 11866
L9921 11866
L9881 11853
L9855 11827
L9842 11801
L9829 11748
L9829 11709
L9842 11656
L9855 11630
L9881 11604
L9921 11591
L9947 11591
L9986 11604
L10000 11617
" />
<path d="M10091 11591
L10262 11591
L10170 11696
L10209 11696
L10236 11709
L10249 11722
L10262 11748
L10262 11814
L10249 11840
L10236 11853
L10209 11866
L10131 11866
L10104 11853
L10091 11840
" />
<path d="M10511 11591
L10380 11591
L10367 11722
L10380 11709
L10406 11696
L10472 11696
L10498 11709
L10511 11722
L10524 11748
L10524 11814
L10511 11840
L10498 11853
L10472 11866
L10406 11866
L10380 11853
L10367 11840
" />
<path d="M7317 13942
L7332 13957
L7347 14002
L7347 14032
L7332 14077
L7302 14107
L7272 14122
L7212 14137
L7167 14137
L7107 14122
L7077 14107
L7047 14077
L7032 14032
L7032 14002
L7047 13957
L7062 13942
" />
<path d="M7032 13837
L7032 13642
L7152 13747
L7152 13702
L7167 13672
L7182 13657
L7212 13642
L7287 13642
L7317 13657
L7332 13672
L7347 13702
L7347 13792
L7332 13822
L7317 13837
" />
<path d="M7137 13372
L7347 13372
" />
<path d="M7017 13447
L7242 13522
L7242 13327
" />
<path d="M9974 9846
L9959 9861
L9914 9876
L9884 9876
L9839 9861
L9809 9831
L9794 9801
L9779 9741
L9779 9696
L9794 9636
L9809 9606
L9839 9576
L9884 9561
L9914 9561
L9959 9576
L9974 9591
" />
<path d="M10079 9561
L10274 9561
L10169 9681
L10214 9681
L10244 9696
L10259 9711
L10274 9741
L10274 9816
L10259 9846
L10244 9861
L10214 9876
L10124 9876
L10094 9861
L10079 9846
" />
<path d="M10379 9561
L10574 9561
L10469 9681
L10514 9681
L10544 9696
L10559 9711
L10574 9741
L10574 9816
L10559 9846
L10544 9861
L10514 9876
L10424 9876
L10394 9861
L10379 9846
" />
<path d="M8675 13942
L8690 13957
L8705 14002
L8705 14032
L8690 14077
L8660 14107
L8630 14122
L8570 14137
L8525 14137
L8465 14122
L8435 14107
L8405 14077
L8390 14032
L8390 14002
L8405 13957
L8420 13942
" />
<path d="M8390 13837
L8390 13642
L8510 13747
L8510 13702
L8525 13672
L8540 13657
L8570 13642
L8645 13642
L8675 13657
L8690 13672
L8705 13702
L8705 13792
L8690 13822
L8675 13837
" />
<path d="M8420 13522
L8405 13507
L8390 13477
L8390 13402
L8405 13372
L8420 13357
L8450 13342
L8480 13342
L8525 13357
L8705 13537
L8705 13342
" />
<path d="M6498 9116
L6480 9135
L6423 9154
L6386 9154
L6330 9135
L6292 9098
L6273 9060
L6255 8985
L6255 8929
L6273 8854
L6292 8817
L6330 8779
L6386 8760
L6423 8760
L6480 8779
L6498 8798
" />
<path d="M6630 8760
L6873 8760
L6742 8910
L6798 8910
L6836 8929
L6855 8948
L6873 8985
L6873 9079
L6855 9116
L6836 9135
L6798 9154
L6686 9154
L6648 9135
L6630 9116
" />
<path d="M7248 9154
L7023 9154
" />
<path d="M7136 9154
L7136 8760
L7098 8817
L7061 8854
L7023 8873
" />
<path d="M7660 8939
L7641 8958
L7585 8977
L7547 8977
L7491 8958
L7454 8921
L7435 8883
L7416 8808
L7416 8752
L7435 8677
L7454 8639
L7491 8602
L7547 8583
L7585 8583
L7641 8602
L7660 8621
" />
<path d="M7791 8583
L8035 8583
L7904 8733
L7960 8733
L7997 8752
L8016 8771
L8035 8808
L8035 8902
L8016 8939
L7997 8958
L7960 8977
L7847 8977
L7810 8958
L7791 8939
" />
<path d="M8278 8583
L8316 8583
L8353 8602
L8372 8621
L8391 8658
L8410 8733
L8410 8827
L8391 8902
L8372 8939
L8353 8958
L8316 8977
L8278 8977
L8241 8958
L8222 8939
L8203 8902
L8185 8827
L8185 8733
L8203 8658
L8222 8621
L8241 8602
L8278 8583
" />
<path d="M7061 13183
L7046 13198
L7001 13213
L6971 13213
L6926 13198
L6896 13168
L6881 13138
L6866 13078
L6866 13033
L6881 12973
L6896 12943
L6926 12913
L6971 12898
L7001 12898
L7046 12913
L7061 12928
" />
<path d="M7181 12928
L7196 12913
L7226 12898
L7301 12898
L7331 12913
L7346 12928
L7361 12958
L7361 12988
L7346 13033
L7166 13213
L7361 13213
" />
<path d="M7511 13213
L7571 13213
L7601 13198
L7616 13183
L7646 13138
L7661 13078
L7661 12958
L7646 12928
L7631 12913
L7601 12898
L7541 12898
L7511 12913
L7496 12928
L7481 12958
L7481 13033
L7496 13063
L7511 13078
L7541 13093
L7601 13093
L7631 13078
L7646 13063
L7661 13033
" />
<path d="M10890 10487
L10905 10502
L10920 10547
L10920 10577
L10905 10622
L10875 10652
L10845 10667
L10785 10682
L10740 10682
L10680 10667
L10650 10652
L10620 10622
L10605 10577
L10605 10547
L10620 10502
L10635 10487
" />
<path d="M10635 10367
L10620 10352
L10605 10322
L10605 10247
L10620 10217
L10635 10202
L10665 10187
L10695 10187
L10740 10202
L10920 10382
L10920 10187
" />
<path d="M10740 10007
L10725 10037
L10710 10052
L10680 10067
L10665 10067
L10635 10052
L10620 10037
L10605 10007
L10605 9947
L10620 9917
L10635 9902
L10665 9887
L10680 9887
L10710 9902
L10725 9917
L10740 9947
L10740 10007
L10755 10037
L10770 10052
L10800 10067
L10860 10067
L10890 10052
L10905 10037
L10920 10007
L10920 9947
L10905 9917
L10890 9902
L10860 9887
L10800 9887
L10770 9902
L10755 9917
L10740 9947
" />
<path d="M6597 9977
L6616 9996
L6634 10052
L6634 10089
L6616 10146
L6578 10183
L6541 10202
L6466 10221
L6409 10221
L6334 10202
L6297 10183
L6259 10146
L6241 10089
L6241 10052
L6259 9996
L6278 9977
" />
<path d="M6278 9827
L6259 9808
L6241 9771
L6241 9677
L6259 9640
L6278 9621
L6316 9602
L6353 9602
L6409 9621
L6634 9846
L6634 9602
" />
<path d="M6241 9471
L6241 9208
L6634 9377
" />
<path d="M10486 5102
L10471 5117
L10426 5132
L10396 5132
L10351 5117
L10321 5087
L10306 5057
L10291 4997
L10291 4952
L10306 4892
L10321 4862
L10351 4832
L10396 4817
L10426 4817
L10471 4832
L10486 4847
" />
<path d="M10786 5132
L10606 5132
" />
<path d="M10696 5132
L10696 4817
L10666 4862
L10636 4892
L10606 4907
" />
<path d="M11071 4817
L10921 4817
L10906 4967
L10921 4952
L10951 4937
L11026 4937
L11056 4952
L11071 4967
L11086 4997
L11086 5072
L11071 5102
L11056 5117
L11026 5132
L10951 5132
L10921 5117
L10906 5102
" />
<path d="M10486 5545
L10471 5560
L10426 5575
L10396 5575
L10351 5560
L10321 5530
L10306 5500
L10291 5440
L10291 5395
L10306 5335
L10321 5305
L10351 5275
L10396 5260
L10426 5260
L10471 5275
L10486 5290
" />
<path d="M10786 5575
L10606 5575
" />
<path d="M10696 5575
L10696 5260
L10666 5305
L10636 5335
L10606 5350
" />
<path d="M11056 5365
L11056 5575
" />
<path d="M10981 5245
L10906 5470
L11101 5470
" />
<path d="M5494 5016
L5513 5035
L5532 5091
L5532 5129
L5513 5185
L5476 5223
L5438 5241
L5363 5260
L5307 5260
L5232 5241
L5194 5223
L5157 5185
L5138 5129
L5138 5091
L5157 5035
L5176 5016
" />
<path d="M5532 4641
L5532 4866
" />
<path d="M5532 4754
L5138 4754
L5194 4791
L5232 4829
L5251 4866
" />
<path d="M5138 4510
L5138 4266
L5288 4398
L5288 4341
L5307 4304
L5326 4285
L5363 4266
L5457 4266
L5494 4285
L5513 4304
L5532 4341
L5532 4454
L5513 4491
L5494 4510
" />
<path d="M9108 2238
L9093 2253
L9048 2268
L9018 2268
L8973 2253
L8943 2223
L8928 2193
L8913 2133
L8913 2088
L8928 2028
L8943 1998
L8973 1968
L9018 1953
L9048 1953
L9093 1968
L9108 1983
" />
<path d="M9408 2268
L9228 2268
" />
<path d="M9318 2268
L9318 1953
L9288 1998
L9258 2028
L9228 2043
" />
<path d="M9528 1983
L9543 1968
L9573 1953
L9648 1953
L9678 1968
L9693 1983
L9708 2013
L9708 2043
L9693 2088
L9513 2268
L9708 2268
" />
<path d="M6006 4977
L6025 4996
L6044 5052
L6044 5089
L6025 5146
L5988 5183
L5950 5202
L5875 5221
L5819 5221
L5744 5202
L5706 5183
L5669 5146
L5650 5089
L5650 5052
L5669 4996
L5688 4977
" />
<path d="M6044 4602
L6044 4827
" />
<path d="M6044 4715
L5650 4715
L5706 4752
L5744 4790
L5763 4827
" />
<path d="M6044 4227
L6044 4452
" />
<path d="M6044 4340
L5650 4340
L5706 4377
L5744 4415
L5763 4452
" />
<path d="M9964 2484
L9949 2499
L9904 2514
L9874 2514
L9829 2499
L9799 2469
L9784 2439
L9769 2379
L9769 2334
L9784 2274
L9799 2244
L9829 2214
L9874 2199
L9904 2199
L9949 2214
L9964 2229
" />
<path d="M10264 2514
L10084 2514
" />
<path d="M10174 2514
L10174 2199
L10144 2244
L10114 2274
L10084 2289
" />
<path d="M10459 2199
L10489 2199
L10519 2214
L10534 2229
L10549 2259
L10564 2319
L10564 2394
L10549 2454
L10534 2484
L10519 2499
L10489 2514
L10459 2514
L10429 2499
L10414 2484
L10399 2454
L10384 2394
L10384 2319
L10399 2259
L10414 2229
L10429 2214
L10459 2199
" />
<path d="M10744 4659
L10729 4674
L10684 4689
L10654 4689
L10609 4674
L10579 4644
L10564 4614
L10549 4554
L10549 4509
L10564 4449
L10579 4419
L10609 4389
L10654 4374
L10684 4374
L10729 4389
L10744 4404
" />
<path d="M10894 4689
L10954 4689
L10984 4674
L10999 4659
L11029 4614
L11044 4554
L11044 4434
L11029 4404
L11014 4389
L10984 4374
L10924 4374
L10894 4389
L10879 4404
L10864 4434
L10864 4509
L10879 4539
L10894 4554
L10924 4569
L10984 4569
L11014 4554
L11029 4539
L11044 4509
" />
<path d="M7345 6522
L7364 6541
L7382 6597
L7382 6634
L7364 6691
L7326 6728
L7289 6747
L7214 6766
L7157 6766
L7082 6747
L7045 6728
L7007 6691
L6989 6634
L6989 6597
L7007 6541
L7026 6522
" />
<path d="M7157 6297
L7139 6334
L7120 6353
L7082 6372
L7064 6372
L7026 6353
L7007 6334
L6989 6297
L6989 6222
L7007 6184
L7026 6166
L7064 6147
L7082 6147
L7120 6166
L7139 6184
L7157 6222
L7157 6297
L7176 6334
L7195 6353
L7232 6372
L7307 6372
L7345 6353
L7364 6334
L7382 6297
L7382 6222
L7364 6184
L7345 6166
L7307 6147
L7232 6147
L7195 6166
L7176 6184
L7157 6222
" />
<path d="M9986 2907
L9971 2922
L9926 2937
L9896 2937
L9851 2922
L9821 2892
L9806 2862
L9791 2802
L9791 2757
L9806 2697
L9821 2667
L9851 2637
L9896 2622
L9926 2622
L9971 2637
L9986 2652
" />
<path d="M10091 2622
L10301 2622
L10166 2937
" />
<path d="M8672 6541
L8690 6560
L8709 6616
L8709 6654
L8690 6710
L8653 6748
L8615 6766
L8540 6785
L8484 6785
L8409 6766
L8372 6748
L8334 6710
L8315 6654
L8315 6616
L8334 6560
L8353 6541
" />
<path d="M8315 6204
L8315 6279
L8334 6317
L8353 6335
L8409 6373
L8484 6392
L8634 6392
L8672 6373
L8690 6354
L8709 6317
L8709 6242
L8690 6204
L8672 6185
L8634 6167
L8540 6167
L8503 6185
L8484 6204
L8465 6242
L8465 6317
L8484 6354
L8503 6373
L8540 6392
" />
<path d="M6833 1640
L6852 1659
L6871 1715
L6871 1752
L6852 1809
L6814 1846
L6777 1865
L6702 1884
L6646 1884
L6571 1865
L6533 1846
L6496 1809
L6477 1752
L6477 1715
L6496 1659
L6514 1640
" />
<path d="M6477 1284
L6477 1471
L6664 1490
L6646 1471
L6627 1434
L6627 1340
L6646 1302
L6664 1284
L6702 1265
L6796 1265
L6833 1284
L6852 1302
L6871 1340
L6871 1434
L6852 1471
L6833 1490
" />
<path d="M8053 1640
L8072 1659
L8091 1715
L8091 1752
L8072 1809
L8035 1846
L7997 1865
L7922 1884
L7866 1884
L7791 1865
L7754 1846
L7716 1809
L7697 1752
L7697 1715
L7716 1659
L7735 1640
" />
<path d="M7829 1302
L8091 1302
" />
<path d="M7679 1396
L7960 1490
L7960 1246
" />
<path d="M7251 5849
L7232 5868
L7176 5886
L7138 5886
L7082 5868
L7045 5830
L7026 5793
L7007 5718
L7007 5661
L7026 5586
L7045 5549
L7082 5511
L7138 5493
L7176 5493
L7232 5511
L7251 5530
" />
<path d="M7382 5493
L7626 5493
L7495 5643
L7551 5643
L7588 5661
L7607 5680
L7626 5718
L7626 5811
L7607 5849
L7588 5868
L7551 5886
L7438 5886
L7401 5868
L7382 5849
" />
<path d="M10860 2887
L10875 2902
L10890 2947
L10890 2977
L10875 3022
L10845 3052
L10815 3067
L10755 3082
L10710 3082
L10650 3067
L10620 3052
L10590 3022
L10575 2977
L10575 2947
L10590 2902
L10605 2887
" />
<path d="M10605 2767
L10590 2752
L10575 2722
L10575 2647
L10590 2617
L10605 2602
L10635 2587
L10665 2587
L10710 2602
L10890 2782
L10890 2587
" />
<path d="M6400 2703
L6419 2722
L6437 2778
L6437 2815
L6419 2872
L6381 2909
L6344 2928
L6269 2947
L6212 2947
L6137 2928
L6100 2909
L6062 2872
L6044 2815
L6044 2778
L6062 2722
L6081 2703
" />
<path d="M6437 2328
L6437 2553
" />
<path d="M6437 2440
L6044 2440
L6100 2478
L6137 2515
L6156 2553
" />
<path d="M4081 7815
L4081 8097
L4062 8153
L4025 8190
L3968 8209
L3931 8209
" />
<path d="M4437 7815
L4362 7815
L4325 7834
L4306 7853
L4268 7909
L4250 7984
L4250 8134
L4268 8172
L4287 8190
L4325 8209
L4400 8209
L4437 8190
L4456 8172
L4475 8134
L4475 8040
L4456 8003
L4437 7984
L4400 7965
L4325 7965
L4287 7984
L4268 8003
L4250 8040
" />
<path d="M4061 571
L4061 853
L4042 909
L4005 946
L3949 965
L3911 965
" />
<path d="M4211 571
L4455 571
L4324 721
L4380 721
L4417 740
L4436 759
L4455 796
L4455 890
L4436 928
L4417 946
L4380 965
L4267 965
L4230 946
L4211 928
" />
<path d="M8814 12619
L8814 12937
L8832 12975
L8851 12994
L8889 13012
L8964 13012
L9001 12994
L9020 12975
L9039 12937
L9039 12619
" />
<path d="M9189 12619
L9451 12619
L9282 13012
" />
<path d="M7101 2343
L7101 2662
L7120 2699
L7139 2718
L7176 2737
L7251 2737
L7289 2718
L7307 2699
L7326 2662
L7326 2343
" />
<path d="M7720 2737
L7495 2737
" />
<path d="M7607 2737
L7607 2343
L7570 2399
L7532 2437
L7495 2455
" />
<path d="M24780 9453
L25099 9453
L25136 9434
L25155 9416
L25174 9378
L25174 9303
L25155 9266
L25136 9247
L25099 9228
L24780 9228
" />
<path d="M24949 8984
L24930 9022
L24911 9041
L24874 9059
L24855 9059
L24817 9041
L24799 9022
L24780 8984
L24780 8909
L24799 8872
L24817 8853
L24855 8834
L24874 8834
L24911 8853
L24930 8872
L24949 8909
L24949 8984
L24967 9022
L24986 9041
L25024 9059
L25099 9059
L25136 9041
L25155 9022
L25174 8984
L25174 8909
L25155 8872
L25136 8853
L25099 8834
L25024 8834
L24986 8853
L24967 8872
L24949 8909
" />
<path d="M19680 2286
L19680 2605
L19699 2642
L19717 2661
L19755 2680
L19830 2680
L19867 2661
L19886 2642
L19905 2605
L19905 2286
" />
<path d="M20261 2286
L20186 2286
L20149 2305
L20130 2323
L20092 2380
L20074 2455
L20074 2605
L20092 2642
L20111 2661
L20149 2680
L20224 2680
L20261 2661
L20280 2642
L20299 2605
L20299 2511
L20280 2473
L20261 2455
L20224 2436
L20149 2436
L20111 2455
L20092 2473
L20074 2511
" />
<path d="M13067 437
L13067 692
L13082 722
L13097 737
L13127 752
L13187 752
L13217 737
L13232 722
L13247 692
L13247 437
" />
<path d="M13532 542
L13532 752
" />
<path d="M13457 422
L13382 647
L13577 647
" />
<path d="M14149 14551
L14149 14806
L14164 14836
L14179 14851
L14209 14866
L14269 14866
L14299 14851
L14314 14836
L14329 14806
L14329 14551
" />
<path d="M14449 14551
L14644 14551
L14539 14671
L14584 14671
L14614 14686
L14629 14701
L14644 14731
L14644 14806
L14629 14836
L14614 14851
L14584 14866
L14494 14866
L14464 14851
L14449 14836
" />
<path d="M19622 10516
L19622 10771
L19637 10801
L19652 10816
L19682 10831
L19742 10831
L19772 10816
L19787 10801
L19802 10771
L19802 10516
" />
<path d="M19937 10546
L19952 10531
L19982 10516
L20057 10516
L20087 10531
L20102 10546
L20117 10576
L20117 10606
L20102 10651
L19922 10831
L20117 10831
" />
<path d="M5886 9671
L5886 9859
L5493 9859
" />
<path d="M5530 9559
L5511 9540
L5493 9503
L5493 9409
L5511 9371
L5530 9353
L5568 9334
L5605 9334
L5661 9353
L5886 9578
L5886 9334
" />
<path d="M5847 2309
L5847 2497
L5453 2497
" />
<path d="M5847 1972
L5847 2197
" />
<path d="M5847 2084
L5453 2084
L5509 2122
L5547 2159
L5566 2197
" />
<path d="M3412 11142
L3412 11423
L3393 11480
L3355 11517
L3299 11536
L3262 11536
" />
<path d="M3787 11142
L3599 11142
L3580 11330
L3599 11311
L3637 11292
L3730 11292
L3768 11311
L3787 11330
L3805 11367
L3805 11461
L3787 11498
L3768 11517
L3730 11536
L3637 11536
L3599 11517
L3580 11498
" />
<path d="M3372 3878
L3372 4160
L3353 4216
L3316 4253
L3260 4272
L3222 4272
" />
<path d="M3541 3916
L3560 3897
L3597 3878
L3691 3878
L3728 3897
L3747 3916
L3766 3953
L3766 3991
L3747 4047
L3522 4272
L3766 4272
" />
<path d="M1953 13524
L1953 13130
L2047 13130
L2103 13149
L2140 13187
L2159 13224
L2178 13299
L2178 13355
L2159 13430
L2140 13468
L2103 13505
L2047 13524
L1953 13524
" />
<path d="M2309 13130
L2572 13130
L2403 13524
" />
<path d="M699 12821
L886 12821
" />
<path d="M661 12934
L793 12540
L924 12934
" />
<path d="M1055 12934
L1055 12540
L1280 12934
L1280 12540
" />
<path d="M1411 12540
L1636 12540
" />
<path d="M1524 12934
L1524 12540
" />
<path d="M1674 12971
L1974 12971
" />
<path d="M2199 12727
L2255 12746
L2274 12765
L2292 12802
L2292 12859
L2274 12896
L2255 12915
L2217 12934
L2067 12934
L2067 12540
L2199 12540
L2236 12559
L2255 12577
L2274 12615
L2274 12652
L2255 12690
L2236 12709
L2199 12727
L2067 12727
" />
<path d="M1835 6201
L1835 5808
L1929 5808
L1985 5826
L2022 5864
L2041 5901
L2060 5976
L2060 6032
L2041 6107
L2022 6145
L1985 6182
L1929 6201
L1835 6201
" />
<path d="M2397 5808
L2322 5808
L2285 5826
L2266 5845
L2229 5901
L2210 5976
L2210 6126
L2229 6164
L2247 6182
L2285 6201
L2360 6201
L2397 6182
L2416 6164
L2435 6126
L2435 6032
L2416 5995
L2397 5976
L2360 5958
L2285 5958
L2247 5976
L2229 5995
L2210 6032
" />
<path d="M648 5498
L836 5498
" />
<path d="M611 5611
L742 5217
L873 5611
" />
<path d="M1004 5611
L1004 5217
L1229 5611
L1229 5217
" />
<path d="M1361 5217
L1586 5217
" />
<path d="M1473 5611
L1473 5217
" />
<path d="M1623 5648
L1923 5648
" />
<path d="M1998 5498
L2185 5498
" />
<path d="M1961 5611
L2092 5217
L2223 5611
" />
<path d="M1953 12343
L1953 11949
L2047 11949
L2103 11968
L2140 12005
L2159 12043
L2178 12118
L2178 12174
L2159 12249
L2140 12287
L2103 12324
L2047 12343
L1953 12343
" />
<path d="M2534 11949
L2347 11949
L2328 12137
L2347 12118
L2384 12099
L2478 12099
L2515 12118
L2534 12137
L2553 12174
L2553 12268
L2534 12305
L2515 12324
L2478 12343
L2384 12343
L2347 12324
L2328 12305
" />
<path d="M838 11713
L650 11713
L650 11319
" />
<path d="M969 11713
L969 11319
L1062 11319
L1119 11338
L1156 11376
L1175 11413
L1194 11488
L1194 11544
L1175 11619
L1156 11657
L1119 11694
L1062 11713
L969 11713
" />
<path d="M1269 11751
L1569 11751
" />
<path d="M1794 11507
L1850 11526
L1869 11544
L1887 11582
L1887 11638
L1869 11676
L1850 11694
L1812 11713
L1662 11713
L1662 11319
L1794 11319
L1831 11338
L1850 11357
L1869 11394
L1869 11432
L1850 11469
L1831 11488
L1794 11507
L1662 11507
" />
<path d="M1835 5059
L1835 4666
L1929 4666
L1985 4685
L2022 4722
L2041 4760
L2060 4835
L2060 4891
L2041 4966
L2022 5003
L1985 5041
L1929 5059
L1835 5059
" />
<path d="M2397 4797
L2397 5059
" />
<path d="M2304 4647
L2210 4928
L2454 4928
" />
<path d="M787 4430
L599 4430
L599 4036
" />
<path d="M918 4430
L918 4036
L1012 4036
L1068 4055
L1106 4092
L1124 4130
L1143 4205
L1143 4261
L1124 4336
L1106 4373
L1068 4411
L1012 4430
L918 4430
" />
<path d="M1218 4467
L1518 4467
" />
<path d="M1593 4317
L1781 4317
" />
<path d="M1556 4430
L1687 4036
L1818 4430
" />
<path d="M20044 6457
L20044 6063
L20137 6063
L20194 6082
L20231 6120
L20250 6157
L20269 6232
L20269 6288
L20250 6363
L20231 6401
L20194 6438
L20137 6457
L20044 6457
" />
<path d="M20400 6063
L20643 6063
L20512 6213
L20568 6213
L20606 6232
L20625 6251
L20643 6288
L20643 6382
L20625 6420
L20606 6438
L20568 6457
L20456 6457
L20419 6438
L20400 6420
" />
<path d="M20403 6863
L20553 6863
" />
<path d="M20373 6953
L20478 6638
L20583 6953
" />
<path d="M20868 6923
L20853 6938
L20808 6953
L20778 6953
L20733 6938
L20703 6908
L20688 6878
L20673 6818
L20673 6773
L20688 6713
L20703 6683
L20733 6653
L20778 6638
L20808 6638
L20853 6653
L20868 6668
" />
<path d="M20958 6638
L21137 6638
" />
<path d="M21047 6953
L21047 6638
" />
<path d="M21467 6623
L21197 7028
" />
<path d="M21737 6953
L21557 6953
" />
<path d="M21647 6953
L21647 6638
L21617 6683
L21587 6713
L21557 6728
" />
<path d="M21842 6638
L22037 6638
L21932 6758
L21977 6758
L22007 6773
L22022 6788
L22037 6818
L22037 6893
L22022 6923
L22007 6938
L21977 6953
L21887 6953
L21857 6938
L21842 6923
" />
<path d="M1992 14823
L1992 14430
L2086 14430
L2142 14448
L2180 14486
L2199 14523
L2217 14598
L2217 14655
L2199 14730
L2180 14767
L2142 14805
L2086 14823
L1992 14823
" />
<path d="M2367 14467
L2386 14448
L2424 14430
L2517 14430
L2555 14448
L2574 14467
L2592 14505
L2592 14542
L2574 14598
L2349 14823
L2592 14823
" />
<path d="M703 14154
L703 13760
L853 13760
L890 13779
L909 13798
L928 13835
L928 13892
L909 13929
L890 13948
L853 13967
L703 13967
" />
<path d="M1059 13760
L1152 14154
L1227 13873
L1302 14154
L1396 13760
" />
<path d="M1771 14154
L1640 13967
" />
<path d="M1546 14154
L1546 13760
L1696 13760
L1734 13779
L1752 13798
L1771 13835
L1771 13892
L1752 13929
L1734 13948
L1696 13967
L1546 13967
" />
<path d="M1846 14191
L2146 14191
" />
<path d="M2371 13948
L2427 13967
L2446 13985
L2465 14023
L2465 14079
L2446 14116
L2427 14135
L2390 14154
L2240 14154
L2240 13760
L2371 13760
L2409 13779
L2427 13798
L2446 13835
L2446 13873
L2427 13910
L2409 13929
L2371 13948
L2240 13948
" />
<path d="M1874 7343
L1874 6949
L1968 6949
L2024 6968
L2062 7005
L2080 7043
L2099 7118
L2099 7174
L2080 7249
L2062 7287
L2024 7324
L1968 7343
L1874 7343
" />
<path d="M2474 7343
L2249 7343
" />
<path d="M2362 7343
L2362 6949
L2324 7005
L2287 7043
L2249 7062
" />
<path d="M652 6792
L652 6398
L802 6398
L839 6417
L858 6436
L877 6473
L877 6529
L858 6567
L839 6586
L802 6604
L652 6604
" />
<path d="M1008 6398
L1102 6792
L1177 6511
L1252 6792
L1346 6398
" />
<path d="M1721 6792
L1589 6604
" />
<path d="M1496 6792
L1496 6398
L1646 6398
L1683 6417
L1702 6436
L1721 6473
L1721 6529
L1702 6567
L1683 6586
L1646 6604
L1496 6604
" />
<path d="M1796 6829
L2095 6829
" />
<path d="M2170 6679
L2358 6679
" />
<path d="M2133 6792
L2264 6398
L2395 6792
" />
<path d="M23439 2238
L23424 2253
L23379 2268
L23349 2268
L23304 2253
L23274 2223
L23259 2193
L23244 2133
L23244 2088
L23259 2028
L23274 1998
L23304 1968
L23349 1953
L23379 1953
L23424 1968
L23439 1983
" />
<path d="M23559 1983
L23574 1968
L23604 1953
L23679 1953
L23709 1968
L23724 1983
L23739 2013
L23739 2043
L23724 2088
L23544 2268
L23739 2268
" />
<path d="M24009 1953
L23949 1953
L23919 1968
L23904 1983
L23874 2028
L23859 2088
L23859 2208
L23874 2238
L23889 2253
L23919 2268
L23979 2268
L24009 2253
L24024 2238
L24039 2208
L24039 2133
L24024 2103
L24009 2088
L23979 2073
L23919 2073
L23889 2088
L23874 2103
L23859 2133
" />
<path d="M17775 885
L17788 898
L17801 938
L17801 964
L17788 1003
L17762 1030
L17736 1043
L17683 1056
L17644 1056
L17591 1043
L17565 1030
L17539 1003
L17526 964
L17526 938
L17539 898
L17552 885
" />
<path d="M17552 780
L17539 767
L17526 741
L17526 675
L17539 649
L17552 636
L17578 623
L17604 623
L17644 636
L17801 793
L17801 623
" />
<path d="M17526 374
L17526 505
L17657 518
L17644 505
L17631 479
L17631 413
L17644 387
L17657 374
L17683 360
L17749 360
L17775 374
L17788 387
L17801 413
L17801 479
L17788 505
L17775 518
" />
<path d="M12730 3056
L12745 3071
L12760 3116
L12760 3146
L12745 3191
L12715 3221
L12685 3236
L12625 3251
L12580 3251
L12520 3236
L12490 3221
L12460 3191
L12445 3146
L12445 3116
L12460 3071
L12475 3056
" />
<path d="M12475 2936
L12460 2921
L12445 2891
L12445 2816
L12460 2786
L12475 2771
L12505 2756
L12535 2756
L12580 2771
L12760 2951
L12760 2756
" />
<path d="M12550 2486
L12760 2486
" />
<path d="M12430 2561
L12655 2636
L12655 2441
" />
<path d="M13222 13647
L13237 13662
L13252 13707
L13252 13737
L13237 13782
L13207 13812
L13177 13827
L13117 13842
L13072 13842
L13012 13827
L12982 13812
L12952 13782
L12937 13737
L12937 13707
L12952 13662
L12967 13647
" />
<path d="M12967 13527
L12952 13512
L12937 13482
L12937 13407
L12952 13377
L12967 13362
L12997 13347
L13027 13347
L13072 13362
L13252 13542
L13252 13347
" />
<path d="M12937 13242
L12937 13047
L13057 13152
L13057 13107
L13072 13077
L13087 13062
L13117 13047
L13192 13047
L13222 13062
L13237 13077
L13252 13107
L13252 13197
L13237 13227
L13222 13242
" />
<path d="M15053 14699
L15038 14714
L14993 14729
L14963 14729
L14918 14714
L14888 14684
L14873 14654
L14858 14594
L14858 14549
L14873 14489
L14888 14459
L14918 14429
L14963 14414
L14993 14414
L15038 14429
L15053 14444
" />
<path d="M15173 14444
L15188 14429
L15218 14414
L15293 14414
L15323 14429
L15338 14444
L15353 14474
L15353 14504
L15338 14549
L15158 14729
L15353 14729
" />
<path d="M15473 14444
L15488 14429
L15518 14414
L15593 14414
L15623 14429
L15638 14444
L15653 14474
L15653 14504
L15638 14549
L15458 14729
L15653 14729
" />
<path d="M14600 703
L14585 718
L14540 733
L14510 733
L14465 718
L14435 688
L14420 658
L14405 598
L14405 553
L14420 493
L14435 463
L14465 433
L14510 418
L14540 418
L14585 433
L14600 448
" />
<path d="M14720 448
L14735 433
L14765 418
L14840 418
L14870 433
L14885 448
L14900 478
L14900 508
L14885 553
L14705 733
L14900 733
" />
<path d="M15200 733
L15020 733
" />
<path d="M15110 733
L15110 418
L15080 463
L15050 493
L15020 508
" />
<path d="M20860 11029
L20875 11044
L20890 11089
L20890 11119
L20875 11164
L20845 11194
L20815 11209
L20755 11224
L20710 11224
L20650 11209
L20620 11194
L20590 11164
L20575 11119
L20575 11089
L20590 11044
L20605 11029
" />
<path d="M20605 10909
L20590 10894
L20575 10864
L20575 10789
L20590 10759
L20605 10744
L20635 10729
L20665 10729
L20710 10744
L20890 10924
L20890 10729
" />
<path d="M20575 10534
L20575 10504
L20590 10474
L20605 10459
L20635 10444
L20695 10429
L20770 10429
L20830 10444
L20860 10459
L20875 10474
L20890 10504
L20890 10534
L20875 10564
L20860 10579
L20830 10594
L20770 10609
L20695 10609
L20635 10594
L20605 10579
L20590 10564
L20575 10534
" />
<path d="M20919 7533
L20904 7548
L20859 7563
L20829 7563
L20784 7548
L20754 7518
L20739 7488
L20724 7428
L20724 7383
L20739 7323
L20754 7293
L20784 7263
L20829 7248
L20859 7248
L20904 7263
L20919 7278
" />
<path d="M21219 7563
L21039 7563
" />
<path d="M21129 7563
L21129 7248
L21099 7293
L21069 7323
L21039 7338
" />
<path d="M21369 7563
L21429 7563
L21459 7548
L21474 7533
L21504 7488
L21519 7428
L21519 7308
L21504 7278
L21489 7263
L21459 7248
L21399 7248
L21369 7263
L21354 7278
L21339 7308
L21339 7383
L21354 7413
L21369 7428
L21399 7443
L21459 7443
L21489 7428
L21504 7413
L21519 7383
" />
<path d="M21864 11009
L21879 11024
L21894 11069
L21894 11099
L21879 11144
L21849 11174
L21819 11189
L21759 11204
L21714 11204
L21654 11189
L21624 11174
L21594 11144
L21579 11099
L21579 11069
L21594 11024
L21609 11009
" />
<path d="M21894 10709
L21894 10889
" />
<path d="M21894 10799
L21579 10799
L21624 10829
L21654 10859
L21669 10889
" />
<path d="M21714 10529
L21699 10559
L21684 10574
L21654 10589
L21639 10589
L21609 10574
L21594 10559
L21579 10529
L21579 10469
L21594 10439
L21609 10424
L21639 10409
L21654 10409
L21684 10424
L21699 10439
L21714 10469
L21714 10529
L21729 10559
L21744 10574
L21774 10589
L21834 10589
L21864 10574
L21879 10559
L21894 10529
L21894 10469
L21879 10439
L21864 10424
L21834 10409
L21774 10409
L21744 10424
L21729 10439
L21714 10469
" />
<path d="M22671 10438
L22686 10453
L22701 10498
L22701 10528
L22686 10573
L22656 10603
L22626 10618
L22566 10633
L22521 10633
L22461 10618
L22431 10603
L22401 10573
L22386 10528
L22386 10498
L22401 10453
L22416 10438
" />
<path d="M22701 10138
L22701 10318
" />
<path d="M22701 10228
L22386 10228
L22431 10258
L22461 10288
L22476 10318
" />
<path d="M22386 10033
L22386 9823
L22701 9958
" />
<path d="M23739 8173
L23724 8188
L23679 8203
L23649 8203
L23604 8188
L23574 8158
L23559 8128
L23544 8068
L23544 8023
L23559 7963
L23574 7933
L23604 7903
L23649 7888
L23679 7888
L23724 7903
L23739 7918
" />
<path d="M24039 8203
L23859 8203
" />
<path d="M23949 8203
L23949 7888
L23919 7933
L23889 7963
L23859 7978
" />
<path d="M24309 7888
L24249 7888
L24219 7903
L24204 7918
L24174 7963
L24159 8023
L24159 8143
L24174 8173
L24189 8188
L24219 8203
L24279 8203
L24309 8188
L24324 8173
L24339 8143
L24339 8068
L24324 8038
L24309 8023
L24279 8008
L24219 8008
L24189 8023
L24174 8038
L24159 8068
" />
<g >
</g>
</g>
<g style="fill:#000000; fill-opacity:0.0; 
stroke:#000000; stroke-width:59.0551; stroke-opacity:1; 
stroke-linecap:round; stroke-linejoin:round;">
</g>
<g style="fill:#C2C200; fill-opacity:0.0; 
stroke:#C2C200; stroke-width:59.0551; stroke-opacity:1; 
stroke-linecap:round; stroke-linejoin:round;">
<path d="M27795 6968
L27795 11496
" />
<path d="M24251 6968
L27795 6968
" />
<path d="M24251 6259
L24251 6968
" />
<path d="M27795 6259
L24251 6259
" />
<path d="M27795 3307
L27795 6259
" />
<path d="M354 314
L433 314
" />
<path d="M354 15039
L354 314
" />
<path d="M24133 15039
L354 15039
" />
<path d="M24133 11496
L24133 15039
" />
<path d="M27795 11496
L24133 11496
" />
<path d="M24133 3307
L27795 3307
" />
<path d="M24133 314
L24133 3307
" />
<path d="M433 314
L24133 314
" />
<g >
</g>
<g >
</g>
<g >
</g>
<g >
</g>
<g >
</g>
<g >
</g>
<g >
</g>
<g >
</g>
<g >
</g>
<g >
</g>
<g >
</g>
<g >
</g>
<g >
</g>
<g >
</g>
<g >
</g>
<g >
</g>
<g >
</g>
<g >
</g>
<g >
</g>
<g >
</g>
<g >
</g>
<g >
</g>
<g >
</g>
<g >
</g>
<g >
</g>
<g >
</g>
<g >
</g>
<g >
</g>
<g >
</g>
<g >
</g>
<g >
</g>
<g >
</g>
<g >
</g>
<g >
</g>
<g >
</g>
<g >
</g>
<g >
</g>
<g >
</g>
<g >
</g>
<g >
</g>
<g >
</g>
<g >
</g>
<g >
</g>
<g >
</g>
<g >
</g>
<g >
</g>
<g >
</g>
<g >
</g>
<g >
</g>
<g >
</g>
<g >
</g>
<g >
</g>
<g >
</g>
<g >
</g>
<g >
</g>
<g >
</g>
<g >
</g>
<g >
</g>
<g >
</g>
<g >
</g>
<g >
</g>
<g >
</g>
<g >
</g>
<g >
</g>
<g >
</g>
<g >
</g>
<g >
</g>
<g >
</g>
<g >
</g>
<g >
</g>
<g >
</g>
<g >
</g>
<g >
</g>
<g >
</g>
<g >
</g>
<g >
</g>
<g >
</g>
<g >
</g>
<g >
</g>
<g >
</g>
<g >
</g>
<g >
</g>
<g >
</g>
<g >
</g>
<g >
</g>
<g >
</g>
<g >
</g>
<g >
</g>
<g >
</g>
<g >
</g>
<g >
</g>
<g >
</g>
<g >
</g>
<g >
</g>
<g >
</g>
<g >
</g>
<g >
</g>
<g >
</g>
<g >
</g>
<g >
</g>
<g >
</g>
<g >
</g>
<g >
</g>
<g >
</g>
<g >
</g>
<g >
</g>
<g >
</g>
<g >
</g>
<g >
</g>
<g >
</g>
<g >
</g>
<g >
</g>
<g >
</g>
</g> 
</svg>
